<svg width="28" height="15" viewBox="0 0 28 15" fill="none" xmlns="http://www.w3.org/2000/svg">
<path d="M0.25 12.505C0.25 12.4298 0.290081 12.3228 0.442356 12.1846C0.59402 12.047 0.83197 11.9025 1.16172 11.7579C1.81943 11.4694 2.78674 11.2037 4.00141 10.9786C6.42666 10.5292 9.78794 10.25 13.5091 10.25C17.2308 10.25 20.5921 10.5292 23.0172 10.9786C24.2318 11.2037 25.199 11.4694 25.8566 11.7579C26.1863 11.9025 26.4242 12.047 26.5758 12.1846C26.7281 12.3228 26.7682 12.4298 26.7682 12.505C26.7682 12.5786 26.7287 12.6846 26.5763 12.8221C26.4247 12.959 26.1867 13.1028 25.857 13.2469C25.1993 13.5342 24.232 13.7988 23.0173 14.0232C20.5922 14.4713 17.2308 14.75 13.5091 14.75C9.78763 14.75 6.42628 14.4713 4.00104 14.0232C2.78637 13.7988 1.81903 13.5342 1.16127 13.2469C0.831473 13.1028 0.593506 12.959 0.441861 12.8221C0.289486 12.6846 0.25 12.5786 0.25 12.505ZM10.0716 12.39C10.0716 12.6429 10.2475 12.8293 10.4316 12.9548C10.6239 13.0859 10.8858 13.194 11.1868 13.2808C11.7921 13.4554 12.6134 13.56 13.5091 13.56C14.4044 13.56 15.226 13.4554 15.8317 13.2808C16.1329 13.194 16.395 13.0859 16.5874 12.9548C16.7716 12.8295 16.9478 12.643 16.9478 12.39C16.9478 12.137 16.7714 11.9507 16.5874 11.8255C16.395 11.6945 16.1329 11.5863 15.8318 11.4995C15.2261 11.3248 14.4045 11.22 13.5091 11.22C12.6137 11.22 11.7924 11.3248 11.187 11.4995C10.8859 11.5864 10.6241 11.6945 10.4317 11.8255C10.2478 11.9508 10.0716 12.1371 10.0716 12.39Z" stroke="#FC7201" stroke-width="0.5"/>
<path d="M2.81963 1.3975C2.88452 1.07358 2.96821 0.652887 3.01849 0.4H12.5204L13.8962 5.46321L14.1326 6.33347L14.619 5.57407L17.9329 0.4H23.539C24.8862 0.4 25.9965 0.822708 26.7083 1.47664C27.4113 2.12251 27.7427 3.00518 27.5421 4.00822L27.542 4.00853C27.3393 5.02655 26.6254 5.9665 25.5948 6.65929C24.5669 7.35036 23.2538 7.77333 21.9148 7.77333H18.6204C18.7639 7.04909 19.0463 5.64584 19.2727 4.52073C19.3983 3.89649 19.5067 3.35786 19.5646 3.06833H21.4132C21.2019 4.1051 20.9925 5.14259 20.7851 6.18081L20.785 6.18079L20.7837 6.18819C20.7841 6.1857 20.7846 6.18324 20.7851 6.18081C20.8029 6.09494 20.8533 6.04986 20.8669 6.0386C20.8766 6.03054 20.8851 6.02512 20.8917 6.02137C20.8952 6.01932 20.8989 6.01733 20.9029 6.01532L20.9095 6.01218L20.9131 6.01052L20.915 6.00967L20.916 6.00923L20.9165 6.00901L20.9167 6.0089C20.9167 6.00889 20.9167 6.00888 20.9172 6.00983L20.9604 6.21584L20.9614 6.22022L21.0779 6.775H21.7496C23.4262 6.775 25.1863 6.03833 25.5579 4.16304C25.7266 3.31481 25.5068 2.59084 24.9426 2.09332C24.4004 1.61522 23.5971 1.39667 22.6854 1.39667L22.0628 1.39667L22.0623 1.39667L19.3758 1.4L19.1754 1.40025L19.0556 1.56101L13.3692 9.19274L11.2325 1.83676L11.227 1.81763L11.22 1.80026C11.2201 1.80044 11.2201 1.80043 11.22 1.80024L11.22 1.80018L11.2198 1.79986L11.2197 1.79954L11.2196 1.79936L11.2188 1.79709L11.2127 1.78045C11.2073 1.76499 11.2008 1.7447 11.1953 1.7238L11.1891 1.70061L11.1803 1.67832C11.1551 1.6148 11.1186 1.56779 11.096 1.54171C11.0683 1.50968 11.0305 1.47366 10.9819 1.44217C10.8829 1.37815 10.6838 1.3067 10.4774 1.42965L10.4589 1.44066L10.4417 1.45358C10.3168 1.54743 10.2726 1.67469 10.2563 1.74174C10.24 1.80847 10.2327 1.89229 10.2495 1.97468L10.2567 2.01038L10.2703 2.04417L10.2776 2.06261L10.283 2.10016L10.3063 2.1519C10.6071 2.81923 10.5574 3.62217 10.4815 4.00817C10.27 5.02521 9.55374 5.96542 8.52463 6.65842C7.49739 7.35017 6.18745 7.77417 4.84854 7.77417H1.55475C1.65938 7.25097 1.83434 6.38025 2.00813 5.5153L2.0666 5.22432C2.18899 4.61522 2.30669 4.02926 2.39415 3.5928C2.43748 3.37656 2.47342 3.19686 2.49883 3.06917H4.34886C4.18465 3.87026 3.8126 5.69648 3.71781 6.1836L3.71778 6.18359L3.7168 6.18903C3.71712 6.1872 3.71747 6.18539 3.71782 6.1836C3.7381 6.0817 3.80193 6.03372 3.81053 6.02727C3.81958 6.02049 3.82702 6.01629 3.83216 6.01362C3.83508 6.01211 3.83821 6.0106 3.84172 6.00903L3.84753 6.00652L3.85085 6.00514L3.85264 6.00442L3.85357 6.00405L3.85404 6.00387L3.85428 6.00377C3.8543 6.00377 3.85431 6.00376 3.85472 6.00475L3.89524 6.21812L3.89585 6.22131L4.00115 6.77583H4.68766C6.36747 6.77583 8.11547 6.03816 8.48613 4.16372L2.81963 1.3975ZM2.81963 1.3975H5.62469C6.5352 1.3975 7.33614 1.6161 7.87601 2.0949C8.43762 2.59298 8.65423 3.31676 8.48615 4.16361C8.48617 4.16353 8.48618 4.16346 8.48619 4.16339L2.81963 1.3975Z" stroke="#FC7201" stroke-width="0.8"/>
</svg>
