<svg width="25" height="21" viewBox="0 0 25 21" fill="none" xmlns="http://www.w3.org/2000/svg">
<path d="M14.2732 17.2493C14.2732 17.846 14.0361 18.4183 13.6141 18.8402C13.1922 19.2622 12.6199 19.4993 12.0232 19.4993C11.4264 19.4993 10.8541 19.2622 10.4322 18.8402C10.0102 18.4183 9.77316 17.846 9.77316 17.2493C9.77316 16.6525 10.0102 16.0802 10.4322 15.6583C10.8541 15.2363 11.4264 14.9993 12.0232 14.9993C12.6199 14.9993 13.1922 15.2363 13.6141 15.6583C14.0361 16.0802 14.2732 16.6525 14.2732 17.2493ZM15.7732 17.2493C15.7732 16.2547 15.3781 15.3009 14.6748 14.5976C13.9715 13.8943 13.0177 13.4993 12.0232 13.4993C11.0286 13.4993 10.0748 13.8943 9.37151 14.5976C8.66825 15.3009 8.27316 16.2547 8.27316 17.2493C8.27316 18.2438 8.66825 19.1976 9.37151 19.9009C10.0748 20.6042 11.0286 20.9993 12.0232 20.9993C13.0177 20.9993 13.9715 20.6042 14.6748 19.9009C15.3781 19.1976 15.7732 18.2438 15.7732 17.2493ZM17.8532 11.4163C16.306 9.86946 14.2079 9.00051 12.0202 9.00051C9.83243 9.00051 7.73428 9.86946 6.18716 11.4163C6.05468 11.5584 5.98255 11.7465 5.98598 11.9408C5.98941 12.1351 6.06812 12.3205 6.20554 12.4579C6.34295 12.5953 6.52833 12.674 6.72263 12.6774C6.91694 12.6809 7.10498 12.6087 7.24716 12.4763C7.87395 11.8494 8.61807 11.3522 9.43703 11.013C10.256 10.6738 11.1337 10.4992 12.0202 10.4992C12.9066 10.4992 13.7843 10.6738 14.6033 11.013C15.4222 11.3522 16.1664 11.8494 16.7932 12.4763C16.9353 12.6087 17.1234 12.6809 17.3177 12.6774C17.512 12.674 17.6974 12.5953 17.8348 12.4579C17.9722 12.3205 18.0509 12.1351 18.0543 11.9408C18.0578 11.7465 17.9856 11.5584 17.8532 11.4163ZM21.0382 8.23425C16.0592 3.25425 7.98716 3.25425 3.00816 8.23425C2.93447 8.30291 2.87537 8.38571 2.83438 8.47771C2.79338 8.56971 2.77134 8.66902 2.76957 8.76973C2.76779 8.87043 2.78631 8.97046 2.82403 9.06385C2.86176 9.15724 2.9179 9.24207 2.98912 9.31329C3.06034 9.38451 3.14517 9.44065 3.23856 9.47837C3.33195 9.51609 3.43198 9.53462 3.53268 9.53284C3.63338 9.53106 3.7327 9.50902 3.8247 9.46803C3.91669 9.42704 3.9995 9.36794 4.06816 9.29425C8.46216 4.90125 15.5842 4.90125 19.9782 9.29425C20.0468 9.36794 20.1296 9.42704 20.2216 9.46803C20.3136 9.50902 20.4129 9.53106 20.5136 9.53284C20.6143 9.53462 20.7144 9.51609 20.8078 9.47837C20.9011 9.44065 20.986 9.38451 21.0572 9.31329C21.1284 9.24207 21.1846 9.15724 21.2223 9.06385C21.26 8.97046 21.2785 8.87043 21.2767 8.76973C21.275 8.66902 21.2529 8.56971 21.2119 8.47771C21.1709 8.38571 21.1118 8.30291 21.0382 8.23425ZM23.7842 4.63125C17.1592 -1.54375 6.88716 -1.54375 0.263157 4.63125C0.186212 4.69691 0.123344 4.77746 0.078336 4.86804C0.0333276 4.95863 0.00710858 5.05739 0.00125633 5.15837C-0.00459591 5.25935 0.0100395 5.36048 0.0442822 5.45566C0.0785249 5.55084 0.131667 5.63811 0.200512 5.71222C0.269357 5.78632 0.352481 5.84574 0.444885 5.88689C0.537288 5.92804 0.637061 5.95008 0.738201 5.95167C0.839341 5.95326 0.939757 5.93438 1.03341 5.89615C1.12706 5.85793 1.21201 5.80116 1.28316 5.72925C7.33316 0.0912499 16.7122 0.0912499 22.7612 5.72925C22.8333 5.79636 22.9179 5.8486 23.0101 5.88301C23.1024 5.91742 23.2006 5.93331 23.299 5.92978C23.3975 5.92626 23.4942 5.90337 23.5838 5.86245C23.6734 5.82152 23.7541 5.76335 23.8212 5.69125C23.8883 5.61915 23.9405 5.53455 23.9749 5.44226C24.0093 5.34997 24.0252 5.25181 24.0217 5.15338C24.0182 5.05495 23.9953 4.95818 23.9544 4.86859C23.9134 4.779 23.8563 4.69836 23.7842 4.63125Z" fill="#FC7201"/>
</svg>
