<svg width="19" height="19" viewBox="0 0 19 19" fill="none" xmlns="http://www.w3.org/2000/svg">
<path d="M6.4 16.1H8.6V10.3H6.4C6.2921 12.2318 6.2921 14.1682 6.4 16.1ZM5.6 16.1C5.53954 15.1678 5.50619 14.2341 5.5 13.3L5.6 10.3H4.1C3.7 11.7 3.5 12.7 3.5 13.3C3.5 14 3.7 14.9 4 16.1H5.6ZM3.2 16.1C2.9 14.9 2.7 14 2.7 13.3C2.7 12.6 2.9 11.6 3.2 10.3H1.7C1.1841 11.2296 0.845034 12.2468 0.7 13.3C0.7 13.9 1 14.9 1.5 16.1H3.2ZM0.7 16.2C0.291306 15.2843 0.054047 14.3013 0 13.3C0 12.6 0.2 11.6 0.8 10.3C0.631898 10.2509 0.477944 10.1624 0.35094 10.0418C0.223935 9.92128 0.127553 9.77213 0.0698078 9.6068C0.0120626 9.44148 -0.00537614 9.26476 0.0189416 9.09133C0.0432594 8.91791 0.108631 8.7528 0.20962 8.60973C0.310608 8.46666 0.444295 8.34978 0.599562 8.26879C0.754829 8.1878 0.927188 8.14505 1.10231 8.1441C1.27742 8.14315 1.45024 8.18402 1.60637 8.26332C1.76251 8.34261 1.89746 8.45804 2 8.6C2.0197 8.65253 2.02886 8.70842 2.02695 8.76449C2.02505 8.82056 2.01212 8.8757 1.98891 8.92678C1.96569 8.97785 1.93265 9.02385 1.89166 9.06215C1.85066 9.10045 1.80253 9.1303 1.75 9.15C1.69747 9.1697 1.64158 9.17886 1.58551 9.17695C1.52944 9.17505 1.4743 9.16212 1.42322 9.13891C1.37215 9.11569 1.32615 9.08265 1.28785 9.04165C1.24955 9.00066 1.2197 8.95253 1.2 8.9C1.16766 8.86812 1.12851 8.84399 1.08549 8.82944C1.04248 8.81489 0.996716 8.81029 0.951664 8.816C0.906612 8.8217 0.863443 8.83757 0.825413 8.86238C0.787382 8.8872 0.755483 8.92033 0.732118 8.95927C0.708754 8.99821 0.694535 9.04195 0.690533 9.08718C0.686531 9.13242 0.692852 9.17797 0.709017 9.22041C0.725182 9.26285 0.750771 9.30106 0.783853 9.33217C0.816936 9.36328 0.85665 9.38647 0.9 9.4H17C17.0434 9.38647 17.0831 9.36328 17.1161 9.33217C17.1492 9.30106 17.1748 9.26285 17.191 9.22041C17.2071 9.17797 17.2135 9.13242 17.2095 9.08718C17.2055 9.04195 17.1912 8.99821 17.1679 8.95927C17.1445 8.92033 17.1126 8.8872 17.0746 8.86238C17.0366 8.83757 16.9934 8.8217 16.9483 8.816C16.9033 8.81029 16.8575 8.81489 16.8145 8.82944C16.7715 8.84399 16.7323 8.86812 16.7 8.9C16.6444 8.96388 16.57 9.00847 16.4875 9.02735C16.4049 9.04624 16.3185 9.03844 16.2407 9.00509C16.1628 8.97173 16.0976 8.91454 16.0544 8.84174C16.0111 8.76895 15.9921 8.6843 16 8.6C16.0885 8.42665 16.2214 8.27989 16.3852 8.1747C16.5489 8.0695 16.7377 8.00964 16.9321 8.00122C17.1266 7.9928 17.3198 8.03612 17.492 8.12677C17.6642 8.21741 17.8093 8.35214 17.9125 8.51719C18.0157 8.68224 18.0732 8.8717 18.0792 9.06624C18.0852 9.26078 18.0395 9.45343 17.9467 9.62453C17.8539 9.79563 17.7174 9.93905 17.5511 10.0401C17.3848 10.1412 17.1946 10.1964 17 10.2C17.7 11.5 18 12.5 18 13.2C18 13.9 17.7 14.9 17.2 16.2V16.9C17.2 17.2713 17.0525 17.6274 16.7899 17.8899C16.5274 18.1525 16.1713 18.3 15.8 18.3H2.1C1.7287 18.3 1.3726 18.1525 1.11005 17.8899C0.8475 17.6274 0.7 17.2713 0.7 16.9V16.1V16.2ZM16.4 16.1C16.8012 15.2168 17.0383 14.2681 17.1 13.3C17.1 12.7 16.9 11.7 16.3 10.3H14.8C15.1 11.6 15.3 12.6 15.3 13.3L14.9 16.1H16.4ZM14 16.1C14.3 14.9 14.5 14 14.5 13.3L14 10.3H12.3C12.4065 12.2319 12.4065 14.1681 12.3 16.1H14ZM11.5 16.1C11.5605 15.1678 11.5939 14.2341 11.6 13.3L11.5 10.3H9.4V16.1H11.5ZM8.5 4.8H5.2V8.6C5.2 8.70609 5.15786 8.80783 5.08284 8.88284C5.00783 8.95786 4.90609 9 4.8 9C4.69391 9 4.59217 8.95786 4.51716 8.88284C4.44214 8.80783 4.4 8.70609 4.4 8.6V0.4C4.4 0.0999998 4.5 0 4.8 0H13.4C13.6 0 13.8 0.0999998 13.8 0.4V8.4C13.8 8.50609 13.7579 8.60783 13.6828 8.68284C13.6078 8.75786 13.5061 8.8 13.4 8.8C13.2939 8.8 13.1922 8.75786 13.1172 8.68284C13.0421 8.60783 13 8.50609 13 8.4V4.9H9.5V8.6C9.5 8.70609 9.45786 8.80783 9.38284 8.88284C9.30783 8.95786 9.20609 9 9.1 9C8.99391 9 8.89217 8.95786 8.81716 8.88284C8.74214 8.80783 8.7 8.70609 8.7 8.6V4.8H8.5ZM9.4 0.8V4H12.9V0.8H9.4ZM8.6 0.8H5.1V4H8.6V0.8ZM1.6 16.8V17C1.598 17.1432 1.64731 17.2824 1.73901 17.3925C1.83071 17.5025 1.95876 17.5761 2.1 17.6H15.9C16.0591 17.6 16.2117 17.5368 16.3243 17.4243C16.4368 17.3117 16.5 17.1591 16.5 17V16.9H1.5L1.6 16.8Z" fill="#FC7201"/>
<mask id="mask0_95_1565" style="mask-type:luminance" maskUnits="userSpaceOnUse" x="0" y="0" width="19" height="19">
<path d="M6.4 16.1H8.6V10.3H6.4C6.2921 12.2318 6.2921 14.1682 6.4 16.1ZM5.6 16.1C5.53954 15.1678 5.50619 14.2341 5.5 13.3L5.6 10.3H4.1C3.7 11.7 3.5 12.7 3.5 13.3C3.5 14 3.7 14.9 4 16.1H5.6ZM3.2 16.1C2.9 14.9 2.7 14 2.7 13.3C2.7 12.6 2.9 11.6 3.2 10.3H1.7C1.1841 11.2296 0.845034 12.2468 0.7 13.3C0.7 13.9 1 14.9 1.5 16.1H3.2ZM0.7 16.2C0.291306 15.2843 0.054047 14.3013 0 13.3C0 12.6 0.2 11.6 0.8 10.3C0.631898 10.2509 0.477944 10.1624 0.35094 10.0418C0.223935 9.92128 0.127553 9.77213 0.0698078 9.6068C0.0120626 9.44148 -0.00537614 9.26476 0.0189416 9.09133C0.0432594 8.91791 0.108631 8.7528 0.20962 8.60973C0.310608 8.46666 0.444295 8.34978 0.599562 8.26879C0.754829 8.1878 0.927188 8.14505 1.10231 8.1441C1.27742 8.14315 1.45024 8.18402 1.60637 8.26332C1.76251 8.34261 1.89746 8.45804 2 8.6C2.0197 8.65253 2.02886 8.70842 2.02695 8.76449C2.02505 8.82056 2.01212 8.8757 1.98891 8.92678C1.96569 8.97785 1.93265 9.02385 1.89166 9.06215C1.85066 9.10045 1.80253 9.1303 1.75 9.15C1.69747 9.1697 1.64158 9.17886 1.58551 9.17695C1.52944 9.17505 1.4743 9.16212 1.42322 9.13891C1.37215 9.11569 1.32615 9.08265 1.28785 9.04165C1.24955 9.00066 1.2197 8.95253 1.2 8.9C1.16766 8.86812 1.12851 8.84399 1.08549 8.82944C1.04248 8.81489 0.996716 8.81029 0.951664 8.816C0.906612 8.8217 0.863443 8.83757 0.825413 8.86238C0.787382 8.8872 0.755483 8.92033 0.732118 8.95927C0.708754 8.99821 0.694535 9.04195 0.690533 9.08718C0.686531 9.13242 0.692852 9.17797 0.709017 9.22041C0.725182 9.26285 0.750771 9.30106 0.783853 9.33217C0.816936 9.36328 0.85665 9.38647 0.9 9.4H17C17.0434 9.38647 17.0831 9.36328 17.1161 9.33217C17.1492 9.30106 17.1748 9.26285 17.191 9.22041C17.2071 9.17797 17.2135 9.13242 17.2095 9.08718C17.2055 9.04195 17.1912 8.99821 17.1679 8.95927C17.1445 8.92033 17.1126 8.8872 17.0746 8.86238C17.0366 8.83757 16.9934 8.8217 16.9483 8.816C16.9033 8.81029 16.8575 8.81489 16.8145 8.82944C16.7715 8.84399 16.7323 8.86812 16.7 8.9C16.6444 8.96388 16.57 9.00847 16.4875 9.02735C16.4049 9.04624 16.3185 9.03844 16.2407 9.00509C16.1628 8.97173 16.0976 8.91454 16.0544 8.84174C16.0111 8.76895 15.9921 8.6843 16 8.6C16.0885 8.42665 16.2214 8.27989 16.3852 8.1747C16.5489 8.0695 16.7377 8.00964 16.9321 8.00122C17.1266 7.9928 17.3198 8.03612 17.492 8.12677C17.6642 8.21741 17.8093 8.35214 17.9125 8.51719C18.0157 8.68224 18.0732 8.8717 18.0792 9.06624C18.0852 9.26078 18.0395 9.45343 17.9467 9.62453C17.8539 9.79563 17.7174 9.93905 17.5511 10.0401C17.3848 10.1412 17.1946 10.1964 17 10.2C17.7 11.5 18 12.5 18 13.2C18 13.9 17.7 14.9 17.2 16.2V16.9C17.2 17.2713 17.0525 17.6274 16.7899 17.8899C16.5274 18.1525 16.1713 18.3 15.8 18.3H2.1C1.7287 18.3 1.3726 18.1525 1.11005 17.8899C0.8475 17.6274 0.7 17.2713 0.7 16.9V16.1V16.2ZM16.4 16.1C16.8012 15.2168 17.0383 14.2681 17.1 13.3C17.1 12.7 16.9 11.7 16.3 10.3H14.8C15.1 11.6 15.3 12.6 15.3 13.3L14.9 16.1H16.4ZM14 16.1C14.3 14.9 14.5 14 14.5 13.3L14 10.3H12.3C12.4065 12.2319 12.4065 14.1681 12.3 16.1H14ZM11.5 16.1C11.5605 15.1678 11.5939 14.2341 11.6 13.3L11.5 10.3H9.4V16.1H11.5ZM8.5 4.8H5.2V8.6C5.2 8.70609 5.15786 8.80783 5.08284 8.88284C5.00783 8.95786 4.90609 9 4.8 9C4.69391 9 4.59217 8.95786 4.51716 8.88284C4.44214 8.80783 4.4 8.70609 4.4 8.6V0.4C4.4 0.0999998 4.5 0 4.8 0H13.4C13.6 0 13.8 0.0999998 13.8 0.4V8.4C13.8 8.50609 13.7579 8.60783 13.6828 8.68284C13.6078 8.75786 13.5061 8.8 13.4 8.8C13.2939 8.8 13.1922 8.75786 13.1172 8.68284C13.0421 8.60783 13 8.50609 13 8.4V4.9H9.5V8.6C9.5 8.70609 9.45786 8.80783 9.38284 8.88284C9.30783 8.95786 9.20609 9 9.1 9C8.99391 9 8.89217 8.95786 8.81716 8.88284C8.74214 8.80783 8.7 8.70609 8.7 8.6V4.8H8.5ZM9.4 0.8V4H12.9V0.8H9.4ZM8.6 0.8H5.1V4H8.6V0.8ZM1.6 16.8V17C1.598 17.1432 1.64731 17.2824 1.73901 17.3925C1.83071 17.5025 1.95876 17.5761 2.1 17.6H15.9C16.0591 17.6 16.2117 17.5368 16.3243 17.4243C16.4368 17.3117 16.5 17.1591 16.5 17V16.9H1.5L1.6 16.8Z" fill="#292F37"/>
</mask>
<g mask="url(#mask0_95_1565)">
<path fill-rule="evenodd" clip-rule="evenodd" d="M-2.10001 -2.3999H20.9V20.6001H-2.10001V-2.3999Z" fill="#FC7201"/>
</g>
</svg>
