<svg width="25" height="24" viewBox="0 0 25 24" fill="none" xmlns="http://www.w3.org/2000/svg">
<path d="M19.1813 1H1V14.8063C1 15.9666 1.46094 17.0794 2.28141 17.8998C3.10188 18.7203 4.21468 19.1812 5.375 19.1812H14.8063C15.9666 19.1812 17.0794 18.7203 17.8998 17.8998C18.7203 17.0794 19.1813 15.9666 19.1813 14.8063V1ZM19.1813 1H22.875C23.2065 1 23.5245 1.1317 23.7589 1.36612C23.9933 1.60054 24.125 1.91848 24.125 2.25V5.8125C24.125 6.14402 23.9933 6.46196 23.7589 6.69638C23.5245 6.9308 23.2065 7.0625 22.875 7.0625H19.1813V1ZM1 22.75H19.1813" stroke="#FC7201" stroke-linecap="round" stroke-linejoin="round"/>
</svg>
