<svg width="24" height="30" viewBox="0 0 24 30" fill="none" xmlns="http://www.w3.org/2000/svg">
<path d="M15.2468 23.0424L15.2196 23.2665H15.4453H18.3747H18.5308L18.5687 23.115C18.7105 22.5476 18.8 21.9505 18.8 21.3332C18.8 20.7159 18.7105 20.1187 18.5687 19.5513L18.5308 19.3998H18.3747H15.4453H15.2196L15.2468 19.6239C15.3157 20.1923 15.3667 20.7553 15.3667 21.3332C15.3667 21.911 15.3157 22.474 15.2468 23.0424ZM13.7354 27.7901L13.4915 28.2412L13.9764 28.0743C15.6028 27.5144 16.9732 26.3877 17.837 24.9003L18.0114 24.5998H17.664H15.1073H14.9521L14.9136 24.7502C14.64 25.8188 14.2471 26.8434 13.7354 27.7901ZM13.6947 23.2665H13.8692L13.8928 23.0935C13.9713 22.5181 14.0333 21.9358 14.0333 21.3332C14.0333 20.7307 13.9713 20.1397 13.8928 19.5724L13.8689 19.3998H13.6947H9.63867H9.46708L9.44099 19.5694C9.35303 20.1412 9.3 20.7321 9.3 21.3332C9.3 21.9344 9.35306 22.5166 9.44092 23.0965L9.46669 23.2665H9.63867H13.6947ZM11.5022 28.3456L11.6667 28.5834L11.8312 28.3456C12.561 27.2904 13.1521 26.1181 13.5143 24.855L13.5874 24.5998H13.322H10.0113H9.74593L9.81908 24.855C10.1812 26.1181 10.7723 27.2904 11.5022 28.3456ZM8.2 18.0665H8.35169L8.39259 17.9204C8.69297 16.8477 9.07797 15.8222 9.58927 14.8763L9.83193 14.4274L9.34887 14.5918C7.72095 15.1462 6.35103 16.2751 5.49582 17.767L5.32416 18.0665H5.66933H8.2ZM5.66933 24.5998H5.32257L5.49622 24.9C6.35651 26.387 7.72409 27.514 9.34811 28.0742L9.83337 28.2416L9.58927 27.7901C9.07797 26.8441 8.69297 25.8187 8.39259 24.7459L8.35169 24.5998H8.2H5.66933ZM4.76464 23.115L4.80251 23.2665H4.95867H7.888H8.11371L8.08655 23.0424C8.01765 22.474 7.96667 21.911 7.96667 21.3332C7.96667 20.7553 8.01765 20.1923 8.08655 19.6239L8.11371 19.3998H7.888H4.95867H4.80251L4.76464 19.5513C4.62279 20.1187 4.53333 20.7159 4.53333 21.3332C4.53333 21.9505 4.62279 22.5476 4.76464 23.115ZM11.8312 14.3121L11.6667 14.0743L11.5022 14.3121C10.7721 15.3677 10.1811 16.5486 9.81908 17.8114L9.74593 18.0665H10.0113H13.322H13.5874L13.5143 17.8114C13.1522 16.5486 12.5613 15.3677 11.8312 14.3121ZM17.664 18.0665H18.0107L17.8371 17.7664C16.9811 16.2862 15.6168 15.1537 13.9761 14.592L13.4946 14.4271L13.7351 14.8757C14.2504 15.8371 14.6462 16.8579 14.9134 17.9155L14.9516 18.0665H15.1073H17.664ZM3.2 21.3332C3.2 16.6766 6.98485 12.8665 11.6667 12.8665C12.7785 12.8665 13.8795 13.0855 14.9067 13.511C15.9339 13.9365 16.8673 14.5601 17.6535 15.3463C18.4397 16.1325 19.0634 17.0659 19.4888 18.0931C19.9143 19.1203 20.1333 20.2213 20.1333 21.3332C20.1333 23.5787 19.2413 25.7322 17.6535 27.32C16.0657 28.9078 13.9122 29.7998 11.6667 29.7998C10.5548 29.7998 9.45384 29.5808 8.42661 29.1554C7.39939 28.7299 6.46603 28.1062 5.67983 27.32C4.09202 25.7322 3.2 23.5787 3.2 21.3332Z" stroke="#FC7201" stroke-width="0.4"/>
<path d="M3.92303 10V4.90909H7.18439V5.68217H4.84526V7.06428H6.96067V7.83736H4.84526V10H3.92303ZM8.02459 10V4.90909H9.93368C10.3248 4.90909 10.6529 4.97704 10.9181 5.11293C11.1849 5.24882 11.3862 5.43939 11.5221 5.68466C11.6597 5.92827 11.7284 6.21248 11.7284 6.53729C11.7284 6.86375 11.6588 7.14714 11.5196 7.38743C11.3821 7.62607 11.1791 7.81084 10.9106 7.94176C10.6421 8.07102 10.3124 8.13565 9.92125 8.13565H8.56152V7.37003H9.79696C10.0257 7.37003 10.2129 7.33854 10.3588 7.27557C10.5046 7.21094 10.6123 7.11731 10.6819 6.99467C10.7532 6.87038 10.7888 6.71792 10.7888 6.53729C10.7888 6.35665 10.7532 6.20253 10.6819 6.07493C10.6106 5.94567 10.5021 5.84789 10.3563 5.7816C10.2104 5.71366 10.0223 5.67969 9.79199 5.67969H8.94682V10H8.02459ZM10.6546 7.69318L11.9149 10H10.8857L9.64782 7.69318H10.6546ZM12.5773 10V4.90909H15.8884V5.68217H13.4996V7.06428H15.7169V7.83736H13.4996V9.22692H15.9083V10H12.5773ZM16.8293 10V4.90909H20.1404V5.68217H17.7515V7.06428H19.9688V7.83736H17.7515V9.22692H20.1602V10H16.8293Z" fill="#FC7201"/>
</svg>
