<svg width="26" height="26" viewBox="0 0 26 26" fill="none" xmlns="http://www.w3.org/2000/svg">
<path fill-rule="evenodd" clip-rule="evenodd" d="M18.6333 2.1667C18.6333 1.40837 17.9833 0.866699 17.225 0.866699H15.1667C14.4083 0.866699 13.7583 1.40837 13.7583 2.1667V4.33337C13.7598 4.36946 13.7598 4.4056 13.7583 4.4417L12.8917 5.20003C12.2865 5.67257 11.8343 6.31323 11.5917 7.0417C11.5629 7.15663 11.581 7.27826 11.642 7.37984C11.7029 7.48142 11.8017 7.55463 11.9167 7.58337C12.0316 7.6121 12.1532 7.594 12.2548 7.53305C12.3564 7.4721 12.4296 7.37329 12.4583 7.25837C12.5667 6.7167 13 6.17503 13.5417 5.85003L14.4083 4.98337C14.4965 4.84748 14.5692 4.70212 14.625 4.55003L14.1917 4.4417H14.625V2.1667C14.625 1.95003 14.8417 1.73337 15.1667 1.73337H17.3333C17.6583 1.73337 17.875 1.95003 17.875 2.1667V4.33337V4.4417C17.873 4.47778 17.873 4.51395 17.875 4.55003L18.0917 4.87503C18.3083 5.0917 18.525 5.4167 19.0667 5.7417C19.825 6.3917 20.2583 7.25837 20.2583 8.12503V9.75003C19.7167 9.85837 19.5 10.4 19.5 10.725C19.5 11.05 19.7167 11.5917 20.2583 11.5917C20.2675 11.6272 20.2675 11.6645 20.2583 11.7V14.1917C19.7167 14.3 19.5 14.8417 19.5 15.1667C19.5 15.4917 19.7167 15.925 20.15 16.0334V16.575C20.1316 18.3573 19.9503 20.1341 19.6083 21.8834V21.9917C19.5 22.2084 19.2833 22.3167 19.0667 22.3167H18.3083H17.875C17.8289 22.2499 17.7925 22.177 17.7667 22.1C17.4417 21.6667 17.1167 21.5584 16.9 21.5584C16.7248 21.4993 16.5428 21.4629 16.3583 21.45C16.3222 21.4489 16.2861 21.4489 16.25 21.45C16.1059 21.4356 15.9608 21.4356 15.8167 21.45C15.6 21.5584 15.275 21.6667 15.0583 22.1C14.9915 22.1461 14.9186 22.1826 14.8417 22.2084C14.7046 22.2692 14.558 22.3059 14.4083 22.3167H13.975C13.8601 22.3167 13.7499 22.3624 13.6686 22.4436C13.5873 22.5249 13.5417 22.6351 13.5417 22.75C13.5417 22.865 13.5873 22.9752 13.6686 23.0564C13.7499 23.1377 13.8601 23.1834 13.975 23.1834H14.4083L15.0583 23.075L15.8167 22.5334L16.0333 22.3167C16.1413 22.3031 16.2504 22.3031 16.3583 22.3167H16.6833L16.9 22.5334L17.6583 23.075L18.3083 23.1834H19.0667C19.6083 23.1834 20.15 22.8584 20.3667 22.3167V22.2084C20.6917 21.45 20.8 20.3667 20.9083 19.3917L21.125 16.575V16.25C21.125 16.0334 21.125 15.925 20.9083 15.7084C20.859 15.5983 20.7842 15.5015 20.69 15.4261C20.5958 15.3508 20.4849 15.299 20.3667 15.275C20.4819 15.244 20.5895 15.1895 20.6828 15.1149C20.776 15.0404 20.8528 14.9473 20.9083 14.8417C21.0287 14.6844 21.1037 14.497 21.125 14.3V11.8084C21.1037 11.6114 21.0287 11.424 20.9083 11.2667C20.7751 11.0941 20.5817 10.978 20.3667 10.9417V10.725C20.5817 10.6887 20.7751 10.5727 20.9083 10.4C21.0287 10.2427 21.1037 10.0553 21.125 9.85837V8.12503C21.125 7.0417 20.5833 5.85003 19.6083 5.0917L18.85 4.33337C18.8118 4.29942 18.7756 4.26324 18.7417 4.22503V2.1667H18.6333Z" fill="#FC7201"/>
<path fill-rule="evenodd" clip-rule="evenodd" d="M18.3083 10.8332C18.3083 10.7183 18.2627 10.6081 18.1814 10.5268C18.1001 10.4456 17.9899 10.3999 17.875 10.3999H14.0833C13.9684 10.3999 13.8582 10.4456 13.7769 10.5268C13.6956 10.6081 13.65 10.7183 13.65 10.8332C13.65 10.9482 13.6956 11.0584 13.7769 11.1396C13.8582 11.2209 13.9684 11.2666 14.0833 11.2666H17.875C17.9899 11.2666 18.1001 11.2209 18.1814 11.1396C18.2627 11.0584 18.3083 10.9482 18.3083 10.8332ZM18.3083 15.1666C18.3083 15.0516 18.2627 14.9414 18.1814 14.8602C18.1001 14.7789 17.9899 14.7332 17.875 14.7332H14.0833V15.5999H17.875C17.9899 15.5999 18.1001 15.5542 18.1814 15.473C18.2627 15.3917 18.3083 15.2815 18.3083 15.1666ZM18.3083 4.33324C18.3083 4.21831 18.2627 4.10809 18.1814 4.02682C18.1001 3.94556 17.9899 3.8999 17.875 3.8999H14.625C14.5101 3.8999 14.3998 3.94556 14.3186 4.02682C14.2373 4.10809 14.1917 4.21831 14.1917 4.33324C14.1917 4.44816 14.2373 4.55838 14.3186 4.63965C14.3998 4.72091 14.5101 4.76657 14.625 4.76657H17.875C17.9899 4.76657 18.1001 4.72091 18.1814 4.63965C18.2627 4.55838 18.3083 4.44816 18.3083 4.33324Z" fill="#FC7201"/>
<path fill-rule="evenodd" clip-rule="evenodd" d="M7.36668 4.3332C7.36668 3.57487 8.01668 3.0332 8.77501 3.0332H10.8333C11.5917 3.0332 12.2417 3.57487 12.2417 4.3332V6.49987L13.1083 7.2582C14.0833 8.01654 14.625 9.09987 14.625 10.2915V11.9165C14.6037 12.1135 14.5287 12.3009 14.4083 12.4582C14.2751 12.6308 14.0817 12.7469 13.8667 12.7832C13.8575 12.8187 13.8575 12.856 13.8667 12.8915C14.1917 12.9999 14.3 13.2165 14.4083 13.3249L14.625 13.8665V16.3582C14.6037 16.5552 14.5287 16.7425 14.4083 16.8999C14.2751 17.0725 14.0817 17.1885 13.8667 17.2249V17.3332C14.1917 17.3332 14.3 17.6582 14.4083 17.7665L14.625 18.3082V18.7415C14.5491 20.6389 14.2952 22.525 13.8667 24.3749C13.65 25.0249 13.1083 25.3499 12.5667 25.3499H11.8083C11.5874 25.3471 11.3682 25.3106 11.1583 25.2415L10.4 24.6999L10.1833 24.4832C10.0754 24.4696 9.96625 24.4696 9.85834 24.4832C9.75044 24.4696 9.64125 24.4696 9.53334 24.4832L9.31668 24.6999L8.55834 25.2415C8.34847 25.3106 8.12926 25.3471 7.90834 25.3499H7.15001C6.60834 25.3499 6.06668 25.0249 5.85001 24.4832V24.3749C5.52501 23.6165 5.41668 22.5332 5.30834 21.5582C5.19226 20.6232 5.11996 19.6833 5.09167 18.7415V18.4165C5.09167 18.1999 5.09168 18.0915 5.30834 17.8749C5.35765 17.7648 5.43252 17.668 5.52672 17.5926C5.62093 17.5173 5.73176 17.4655 5.85001 17.4415C5.73475 17.4105 5.62714 17.356 5.53393 17.2814C5.44072 17.2069 5.36392 17.1138 5.30834 17.0082C5.18795 16.8509 5.11301 16.6635 5.09167 16.4665V13.9749C5.11301 13.7779 5.18795 13.5905 5.30834 13.4332C5.44158 13.2606 5.635 13.1445 5.85001 13.1082C5.86902 13.0753 5.87904 13.0379 5.87904 12.9999C5.87904 12.9618 5.86902 12.9245 5.85001 12.8915C5.635 12.8552 5.44158 12.7392 5.30834 12.5665C5.18795 12.4092 5.11301 12.2218 5.09167 12.0249V10.2915C5.09167 9.2082 5.63334 8.01654 6.60834 7.2582C6.94497 7.02136 7.23816 6.72816 7.47501 6.39154V4.3332H7.36668ZM7.80001 6.49987H8.23334V6.6082C8.2356 6.64428 8.2356 6.68046 8.23334 6.71654L8.01668 7.04154C7.73727 7.37797 7.40855 7.67017 7.04168 7.9082C6.28334 8.5582 5.85001 9.42487 5.85001 10.2915V11.9165C6.39168 12.0249 6.60834 12.5665 6.60834 12.8915C6.60834 13.2165 6.39168 13.7582 5.85001 13.7582C5.84084 13.7937 5.84084 13.831 5.85001 13.8665V16.3582C6.39168 16.4665 6.60834 17.0082 6.60834 17.3332C6.60834 17.6582 6.39168 18.0915 5.95834 18.1999V18.7415C5.97679 20.5238 6.1581 22.3006 6.50001 24.0499V24.1582C6.60834 24.3749 6.82501 24.4832 7.04168 24.4832H8.23334C8.27942 24.4164 8.31589 24.3435 8.34167 24.2665C8.66667 23.9415 8.99168 23.7249 9.20834 23.7249C9.38354 23.6658 9.56557 23.6294 9.75001 23.6165C9.78611 23.6154 9.82224 23.6154 9.85834 23.6165H10.2917C10.5083 23.7249 10.8333 23.8332 11.05 24.2665C11.1168 24.3126 11.1897 24.3491 11.2667 24.3749L11.7 24.4832H12.4583C12.675 24.4832 12.8917 24.3749 12.8917 24.1582V24.0499C13.2167 23.5082 13.325 22.5332 13.4333 21.4499L13.65 18.7415V18.4165C13.1083 18.1999 12.8917 17.7665 12.8917 17.3332C12.8917 17.1165 13.1083 16.5749 13.65 16.4665V13.9749C13.1083 13.8665 12.8917 13.3249 12.8917 12.9999C12.8917 12.6749 13.1083 12.1332 13.65 12.1332C13.6592 12.0977 13.6592 12.0604 13.65 12.0249V10.2915C13.65 9.42487 13.2167 8.5582 12.4583 7.9082C12.0915 7.67017 11.7627 7.37797 11.4833 7.04154C11.3951 6.90565 11.3225 6.76029 11.2667 6.6082L11.7 6.49987H11.2667V4.3332C11.2667 4.11654 11.05 3.89987 10.725 3.89987H8.66668C8.34168 3.89987 8.12501 4.11654 8.12501 4.3332V6.49987H7.69167H7.80001Z" fill="#FC7201"/>
<path fill-rule="evenodd" clip-rule="evenodd" d="M7.69168 13.0002C7.69168 12.7836 7.90835 12.5669 8.12501 12.5669H13C13.1149 12.5669 13.2252 12.6125 13.3064 12.6938C13.3877 12.7751 13.4333 12.8853 13.4333 13.0002C13.4333 13.1152 13.3877 13.2254 13.3064 13.3066C13.2252 13.3879 13.1149 13.4336 13 13.4336H8.12501C8.01009 13.4336 7.89987 13.3879 7.8186 13.3066C7.73734 13.2254 7.69168 13.1152 7.69168 13.0002ZM7.69168 17.3336C7.69168 17.1169 7.90835 16.9002 8.12501 16.9002H13.5417V17.7669H8.12501C8.06811 17.7669 8.01176 17.7557 7.95918 17.7339C7.90661 17.7121 7.85884 17.6802 7.8186 17.64C7.77836 17.5997 7.74644 17.552 7.72467 17.4994C7.70289 17.4468 7.69168 17.3905 7.69168 17.3336ZM7.69168 6.50023C7.69168 6.28356 7.90835 6.06689 8.12501 6.06689H11.375C11.4899 6.06689 11.6002 6.11255 11.6814 6.19382C11.7627 6.27508 11.8083 6.3853 11.8083 6.50023C11.8083 6.61516 11.7627 6.72537 11.6814 6.80664C11.6002 6.88791 11.4899 6.93356 11.375 6.93356H8.12501C8.01009 6.93356 7.89987 6.88791 7.8186 6.80664C7.73734 6.72537 7.69168 6.61516 7.69168 6.50023Z" fill="#FC7201"/>
</svg>
