<svg width="24" height="24" viewBox="0 0 24 24" fill="none" xmlns="http://www.w3.org/2000/svg">
<path d="M12.7502 15H23.2502L22.5102 14.127L21.8462 18.113C21.6419 19.3389 21.0093 20.4526 20.0609 21.256C19.1126 22.0593 17.91 22.5001 16.6672 22.5H7.33316C6.09014 22.5003 4.88732 22.0596 3.93877 21.2563C2.99023 20.4529 2.35748 19.3391 2.15315 18.113L1.49015 14.127L0.750155 15H5.25015C5.44907 15 5.63983 14.921 5.78049 14.7803C5.92114 14.6397 6.00015 14.4489 6.00015 14.25C6.00015 14.0511 5.92114 13.8603 5.78049 13.7197C5.63983 13.579 5.44907 13.5 5.25015 13.5H0.750155C0.641243 13.5 0.533633 13.5237 0.434806 13.5694C0.335979 13.6152 0.248306 13.682 0.177883 13.765C0.10746 13.8481 0.055976 13.9455 0.0270106 14.0505C-0.00195487 14.1555 -0.00770675 14.2656 0.0101548 14.373L0.674155 18.359C0.936741 19.9355 1.75022 21.3677 2.96979 22.4007C4.18936 23.4337 5.73591 24.0004 7.33416 24H16.6672C18.2651 24.0002 19.8113 23.4335 21.0306 22.4008C22.25 21.368 23.0634 19.9362 23.3262 18.36L23.9902 14.373C24.008 14.2656 24.0023 14.1555 23.9733 14.0505C23.9443 13.9455 23.8928 13.8481 23.8224 13.765C23.752 13.682 23.6643 13.6152 23.5655 13.5694C23.4667 13.5237 23.3591 13.5 23.2502 13.5H12.7502C12.5512 13.5 12.3605 13.579 12.2198 13.7197C12.0792 13.8603 12.0002 14.0511 12.0002 14.25C12.0002 14.4489 12.0792 14.6397 12.2198 14.7803C12.3605 14.921 12.5512 15 12.7502 15ZM12.0002 19.5H6.00015V14.25C6.00015 14.0511 6.07917 13.8603 6.21982 13.7197C6.36048 13.579 6.55124 13.5 6.75015 13.5H11.2502C11.4491 13.5 11.6398 13.579 11.7805 13.7197C11.9211 13.8603 12.0002 14.0511 12.0002 14.25V19.5ZM12.0002 21C12.398 21 12.7795 20.842 13.0608 20.5607C13.3421 20.2794 13.5002 19.8978 13.5002 19.5V14.25C13.5002 13.6533 13.2631 13.081 12.8411 12.659C12.4192 12.2371 11.8469 12 11.2502 12H6.75015C6.15342 12 5.58112 12.2371 5.15916 12.659C4.73721 13.081 4.50015 13.6533 4.50015 14.25V19.5C4.50015 19.8978 4.65819 20.2794 4.93949 20.5607C5.2208 20.842 5.60233 21 6.00015 21H12.0002ZM16.5002 3.75C16.5002 3.15326 16.7372 2.58097 17.1592 2.15901C17.5811 1.73705 18.1534 1.5 18.7502 1.5C19.3469 1.5 19.9192 1.73705 20.3411 2.15901C20.7631 2.58097 21.0002 3.15326 21.0002 3.75V14.25C21.0002 14.4489 21.0792 14.6397 21.2198 14.7803C21.3605 14.921 21.5512 15 21.7502 15C21.9491 15 22.1398 14.921 22.2805 14.7803C22.4211 14.6397 22.5002 14.4489 22.5002 14.25V3.75C22.5002 2.75544 22.1051 1.80161 21.4018 1.09835C20.6985 0.395088 19.7447 0 18.7502 0C17.7556 0 16.8018 0.395088 16.0985 1.09835C15.3952 1.80161 15.0002 2.75544 15.0002 3.75C15.0002 3.94891 15.0792 4.13968 15.2198 4.28033C15.3605 4.42098 15.5512 4.5 15.7502 4.5C15.9491 4.5 16.1398 4.42098 16.2805 4.28033C16.4211 4.13968 16.5002 3.94891 16.5002 3.75ZM13.5002 6.75C13.5002 6.15326 13.7372 5.58097 14.1592 5.15901C14.5811 4.73705 15.1534 4.5 15.7502 4.5C16.3469 4.5 16.9192 4.73705 17.3411 5.15901C17.7631 5.58097 18.0002 6.15326 18.0002 6.75L18.7502 6H12.7502L13.5002 6.75ZM12.0002 6.75C12.0002 7.164 12.3362 7.5 12.7502 7.5H18.7502C18.9491 7.5 19.1398 7.42098 19.2805 7.28033C19.4211 7.13968 19.5002 6.94891 19.5002 6.75C19.5002 5.75544 19.1051 4.80161 18.4018 4.09835C17.6985 3.39509 16.7447 3 15.7502 3C14.7556 3 13.8018 3.39509 13.0985 4.09835C12.3952 4.80161 12.0002 5.75544 12.0002 6.75Z" fill="#FC7201"/>
</svg>
