<svg width="19" height="23" viewBox="0 0 19 23" fill="none" xmlns="http://www.w3.org/2000/svg">
<mask id="path-1-inside-1_95_1311" fill="white">
<path d="M0.93913 0.117391H17.3739C17.6039 0.115588 17.8266 0.198259 17.9997 0.349725C18.1728 0.501191 18.2843 0.710919 18.313 0.93913V21.6C18.313 21.8491 18.2141 22.0879 18.038 22.2641C17.8619 22.4402 17.623 22.5391 17.3739 22.5391H0.93913C0.690058 22.5391 0.451186 22.4402 0.275065 22.2641C0.0989437 22.0879 0 21.8491 0 21.6V0.93913C0 0.690058 0.0989437 0.451186 0.275065 0.275065C0.451186 0.0989438 0.690058 0 0.93913 0V0.117391ZM0.93913 0.93913V21.6H17.3739V0.93913H0.93913ZM3.05217 11.8565V19.6043H8.68696V13.0304C8.68696 12.9059 8.73643 12.7865 8.82449 12.6984C8.91255 12.6103 9.03199 12.5609 9.15652 12.5609C9.28106 12.5609 9.40049 12.6103 9.48855 12.6984C9.57662 12.7865 9.62609 12.9059 9.62609 13.0304V19.6043H15.2609V11.7391C15.1954 11.7998 15.1139 11.8405 15.0261 11.8565H3.28696C3.20996 11.8764 3.12917 11.8764 3.05217 11.8565ZM3.05217 10.9174C3.12917 10.8975 3.20996 10.8975 3.28696 10.9174H15.2609V3.16956H9.62609V9.74348C9.62609 9.86801 9.57662 9.98745 9.48855 10.0755C9.40049 10.1636 9.28106 10.213 9.15652 10.213C9.03199 10.213 8.91255 10.1636 8.82449 10.0755C8.73643 9.98745 8.68696 9.86801 8.68696 9.74348V3.05217H3.05217V10.8V10.9174ZM2.11304 2.23043H16.2V20.5435H2.11304V2.11304V2.23043Z"/>
</mask>
<path d="M0.93913 0.117391H17.3739C17.6039 0.115588 17.8266 0.198259 17.9997 0.349725C18.1728 0.501191 18.2843 0.710919 18.313 0.93913V21.6C18.313 21.8491 18.2141 22.0879 18.038 22.2641C17.8619 22.4402 17.623 22.5391 17.3739 22.5391H0.93913C0.690058 22.5391 0.451186 22.4402 0.275065 22.2641C0.0989437 22.0879 0 21.8491 0 21.6V0.93913C0 0.690058 0.0989437 0.451186 0.275065 0.275065C0.451186 0.0989438 0.690058 0 0.93913 0V0.117391ZM0.93913 0.93913V21.6H17.3739V0.93913H0.93913ZM3.05217 11.8565V19.6043H8.68696V13.0304C8.68696 12.9059 8.73643 12.7865 8.82449 12.6984C8.91255 12.6103 9.03199 12.5609 9.15652 12.5609C9.28106 12.5609 9.40049 12.6103 9.48855 12.6984C9.57662 12.7865 9.62609 12.9059 9.62609 13.0304V19.6043H15.2609V11.7391C15.1954 11.7998 15.1139 11.8405 15.0261 11.8565H3.28696C3.20996 11.8764 3.12917 11.8764 3.05217 11.8565ZM3.05217 10.9174C3.12917 10.8975 3.20996 10.8975 3.28696 10.9174H15.2609V3.16956H9.62609V9.74348C9.62609 9.86801 9.57662 9.98745 9.48855 10.0755C9.40049 10.1636 9.28106 10.213 9.15652 10.213C9.03199 10.213 8.91255 10.1636 8.82449 10.0755C8.73643 9.98745 8.68696 9.86801 8.68696 9.74348V3.05217H3.05217V10.8V10.9174ZM2.11304 2.23043H16.2V20.5435H2.11304V2.11304V2.23043Z" fill="#FC7201"/>
<path d="M0.93913 0.117391H-0.26087V1.31739H0.93913V0.117391ZM17.3739 0.117391V1.31743L17.3833 1.31735L17.3739 0.117391ZM18.313 0.93913H19.513V0.863854L19.5036 0.789167L18.313 0.93913ZM0 0.93913H1.2H0ZM0.93913 0H2.13913V-1.2H0.93913V0ZM0.93913 0.93913V-0.26087H-0.26087V0.93913H0.93913ZM0.93913 21.6H-0.26087V22.8H0.93913V21.6ZM17.3739 21.6V22.8H18.5739V21.6H17.3739ZM17.3739 0.93913H18.5739V-0.26087H17.3739V0.93913ZM3.05217 19.6043H1.85217V20.8043H3.05217V19.6043ZM8.68696 19.6043V20.8043H9.88696V19.6043H8.68696ZM9.62609 19.6043H8.42609V20.8043H9.62609V19.6043ZM15.2609 19.6043V20.8043H16.4609V19.6043H15.2609ZM15.2609 11.7391H16.4609V8.99271L14.4456 10.8586L15.2609 11.7391ZM15.0261 11.8565V13.0565H15.1346L15.2414 13.0371L15.0261 11.8565ZM3.28696 11.8565V10.6565H3.13454L2.98696 10.6946L3.28696 11.8565ZM3.05217 10.9174H1.85217V12.4666L3.35217 12.0793L3.05217 10.9174ZM3.28696 10.9174L2.98696 12.0793L3.13454 12.1174H3.28696V10.9174ZM15.2609 10.9174V12.1174H16.4609V10.9174H15.2609ZM15.2609 3.16956H16.4609V1.96956H15.2609V3.16956ZM9.62609 3.16956V1.96956H8.42609V3.16956H9.62609ZM8.68696 3.05217H9.88696V1.85217H8.68696V3.05217ZM3.05217 3.05217V1.85217H1.85217V3.05217H3.05217ZM2.11304 2.23043H0.913043V3.43043H2.11304V2.23043ZM16.2 2.23043H17.4V1.03043H16.2V2.23043ZM16.2 20.5435V21.7435H17.4V20.5435H16.2ZM2.11304 20.5435H0.913043V21.7435H2.11304V20.5435ZM0.93913 1.31739H17.3739V-1.08261H0.93913V1.31739ZM17.3833 1.31735C17.3194 1.31786 17.2576 1.29489 17.2095 1.25282L18.7899 -0.553367C18.3956 -0.898373 17.8884 -1.08668 17.3645 -1.08257L17.3833 1.31735ZM17.2095 1.25282C17.1614 1.21074 17.1304 1.15248 17.1225 1.08909L19.5036 0.789167C19.4382 0.269355 19.1842 -0.208359 18.7899 -0.553367L17.2095 1.25282ZM17.113 0.93913V21.6H19.513V0.93913H17.113ZM17.113 21.6C17.113 21.5308 17.1405 21.4645 17.1895 21.4155L18.8865 23.1126C19.2877 22.7114 19.513 22.1673 19.513 21.6H17.113ZM17.1895 21.4155C17.2384 21.3666 17.3047 21.3391 17.3739 21.3391V23.7391C17.9413 23.7391 18.4853 23.5138 18.8865 23.1126L17.1895 21.4155ZM17.3739 21.3391H0.93913V23.7391H17.3739V21.3391ZM0.93913 21.3391C1.00832 21.3391 1.07467 21.3666 1.12359 21.4155L-0.573463 23.1126C-0.172302 23.5138 0.371793 23.7391 0.93913 23.7391V21.3391ZM1.12359 21.4155C1.17252 21.4645 1.2 21.5308 1.2 21.6H-1.2C-1.2 22.1673 -0.974628 22.7114 -0.573463 23.1126L1.12359 21.4155ZM1.2 21.6V0.93913H-1.2V21.6H1.2ZM1.2 0.93913C1.2 1.00832 1.17252 1.07467 1.12359 1.12359L-0.573463 -0.573463C-0.974629 -0.172298 -1.2 0.371798 -1.2 0.93913H1.2ZM1.12359 1.12359C1.07467 1.17252 1.00832 1.2 0.93913 1.2V-1.2C0.371798 -1.2 -0.172298 -0.974628 -0.573463 -0.573463L1.12359 1.12359ZM-0.26087 0V0.117391H2.13913V0H-0.26087ZM-0.26087 0.93913V21.6H2.13913V0.93913H-0.26087ZM0.93913 22.8H17.3739V20.4H0.93913V22.8ZM18.5739 21.6V0.93913H16.1739V21.6H18.5739ZM17.3739 -0.26087H0.93913V2.13913H17.3739V-0.26087ZM1.85217 11.8565V19.6043H4.25217V11.8565H1.85217ZM3.05217 20.8043H8.68696V18.4043H3.05217V20.8043ZM9.88696 19.6043V13.0304H7.48696V19.6043H9.88696ZM9.88696 13.0304C9.88696 13.2242 9.81 13.4099 9.67302 13.5469L7.97596 11.8499C7.66286 12.163 7.48696 12.5876 7.48696 13.0304H9.88696ZM9.67302 13.5469C9.53603 13.6839 9.35024 13.7609 9.15652 13.7609V11.3609C8.71373 11.3609 8.28907 11.5368 7.97596 11.8499L9.67302 13.5469ZM9.15652 13.7609C8.9628 13.7609 8.77701 13.6839 8.64003 13.5469L10.3371 11.8499C10.024 11.5368 9.59932 11.3609 9.15652 11.3609V13.7609ZM8.64003 13.5469C8.50304 13.4099 8.42609 13.2242 8.42609 13.0304H10.8261C10.8261 12.5876 10.6502 12.163 10.3371 11.8499L8.64003 13.5469ZM8.42609 13.0304V19.6043H10.8261V13.0304H8.42609ZM9.62609 20.8043H15.2609V18.4043H9.62609V20.8043ZM16.4609 19.6043V11.7391H14.0609V19.6043H16.4609ZM14.4456 10.8586C14.5475 10.7642 14.6742 10.7009 14.8108 10.676L15.2414 13.0371C15.5536 12.9801 15.8432 12.8353 16.0761 12.6197L14.4456 10.8586ZM15.0261 10.6565H3.28696V13.0565H15.0261V10.6565ZM2.98696 10.6946C3.10673 10.6637 3.2324 10.6637 3.35217 10.6946L2.75217 13.0184C3.02595 13.0891 3.31318 13.0891 3.58696 13.0184L2.98696 10.6946ZM3.35217 12.0793C3.2324 12.1102 3.10673 12.1102 2.98696 12.0793L3.58696 9.7555C3.31318 9.68481 3.02595 9.68481 2.75217 9.7555L3.35217 12.0793ZM3.28696 12.1174H15.2609V9.71739H3.28696V12.1174ZM16.4609 10.9174V3.16956H14.0609V10.9174H16.4609ZM15.2609 1.96956H9.62609V4.36957H15.2609V1.96956ZM8.42609 3.16956V9.74348H10.8261V3.16956H8.42609ZM8.42609 9.74348C8.42609 9.54976 8.50304 9.36397 8.64003 9.22698L10.3371 10.924C10.6502 10.6109 10.8261 10.1863 10.8261 9.74348H8.42609ZM8.64003 9.22698C8.77701 9.09 8.96279 9.01304 9.15652 9.01304V11.413C9.59932 11.413 10.024 11.2371 10.3371 10.924L8.64003 9.22698ZM9.15652 9.01304C9.35025 9.01304 9.53604 9.09 9.67302 9.22698L7.97596 10.924C8.28906 11.2371 8.71372 11.413 9.15652 11.413V9.01304ZM9.67302 9.22698C9.81 9.36397 9.88696 9.54976 9.88696 9.74348H7.48696C7.48696 10.1863 7.66286 10.6109 7.97596 10.924L9.67302 9.22698ZM9.88696 9.74348V3.05217H7.48696V9.74348H9.88696ZM8.68696 1.85217H3.05217V4.25217H8.68696V1.85217ZM1.85217 3.05217V10.8H4.25217V3.05217H1.85217ZM1.85217 10.8V10.9174H4.25217V10.8H1.85217ZM2.11304 3.43043H16.2V1.03043H2.11304V3.43043ZM15 2.23043V20.5435H17.4V2.23043H15ZM16.2 19.3435H2.11304V21.7435H16.2V19.3435ZM3.31304 20.5435V2.11304H0.913043V20.5435H3.31304ZM0.913043 2.11304V2.23043H3.31304V2.11304H0.913043Z" fill="#FC7201" mask="url(#path-1-inside-1_95_1311)"/>
</svg>
