<svg width="23" height="25" viewBox="0 0 23 25" fill="none" xmlns="http://www.w3.org/2000/svg">
<path d="M20 5H16.25V3.5C16.25 2.1 16.95 0.7875 18.125 0C19.3 0.7875 20 2.1 20 3.5V5ZM14.5 14.5375L19.5 21.5C20.4875 21.575 22.5 22.125 22.5 23.125C22.5 24.1625 21.6625 25 20.625 25C19.5875 25 18.8371 24.1625 18.8371 23.125L19 22.3633L13.75 15.5L8.5 22.3633L8.75 23.125C8.75 24.1625 7.9125 25 6.875 25C5.8375 25 5 24.1625 5 23.125C5 22.125 6.525 21.575 7.5 21.5L12.75 14.5375L7.5 8.75H0V7.5H22.5V8.75H20L14.5 14.5375ZM13.75 13.5L18.125 8.75H9L13.75 13.5Z" fill="#FC7201"/>
</svg>
