<svg width="26" height="24" viewBox="0 0 26 24" fill="none" xmlns="http://www.w3.org/2000/svg">
<path d="M18.5714 22.5333C18.5714 22.402 18.5193 22.276 18.4264 22.1831C18.3335 22.0903 18.2075 22.0381 18.0762 22.0381H7.92381C7.79246 22.0381 7.6665 22.0903 7.57362 22.1831C7.48075 22.276 7.42857 22.402 7.42857 22.5333C7.42857 22.6647 7.48075 22.7906 7.57362 22.8835C7.6665 22.9764 7.79246 23.0286 7.92381 23.0286H18.0762C18.2075 23.0286 18.3335 22.9764 18.4264 22.8835C18.5193 22.7906 18.5714 22.6647 18.5714 22.5333ZM12.0095 2.22857C12.0095 2.47344 11.9369 2.71282 11.8009 2.91642C11.6648 3.12002 11.4715 3.27871 11.2452 3.37242C11.019 3.46613 10.7701 3.49065 10.5299 3.44288C10.2897 3.39511 10.0691 3.27719 9.89596 3.10404C9.72281 2.93089 9.6049 2.71028 9.55712 2.47011C9.50935 2.22994 9.53387 1.98101 9.62758 1.75477C9.72129 1.52854 9.87998 1.33518 10.0836 1.19913C10.2872 1.06309 10.5266 0.990476 10.7714 0.990476C11.0998 0.990476 11.4147 1.12092 11.6469 1.35311C11.8791 1.58529 12.0095 1.90021 12.0095 2.22857ZM12.8762 2.22857C12.8762 1.63752 12.6414 1.07067 12.2235 0.652734C11.8055 0.234795 11.2387 0 10.6476 0C10.0566 0 9.48972 0.234795 9.07178 0.652734C8.65384 1.07067 8.41905 1.63752 8.41905 2.22857C8.41905 2.81963 8.65384 3.38647 9.07178 3.80441C9.48972 4.22235 10.0566 4.45714 10.6476 4.45714C10.9403 4.45714 11.2301 4.3995 11.5005 4.2875C11.7708 4.17551 12.0165 4.01135 12.2235 3.80441C12.4304 3.59747 12.5946 3.35179 12.7066 3.08141C12.8185 2.81103 12.8762 2.52123 12.8762 2.22857ZM17.581 17.3333C17.581 17.4811 17.5223 17.6228 17.4178 17.7273C17.3133 17.8318 17.1716 17.8905 17.0238 17.8905C16.876 17.8905 16.7343 17.8318 16.6299 17.7273C16.5254 17.6228 16.4667 17.4811 16.4667 17.3333C16.4667 17.1692 16.5319 17.0117 16.648 16.8956C16.7641 16.7795 16.9215 16.7143 17.0857 16.7143C17.2499 16.7143 17.4074 16.7795 17.5234 16.8956C17.6395 17.0117 17.7048 17.1692 17.7048 17.3333M18.5714 17.3333C18.5714 16.9393 18.4149 16.5614 18.1363 16.2828C17.8576 16.0042 17.4798 15.8476 17.0857 15.8476C16.6917 15.8476 16.3138 16.0042 16.0352 16.2828C15.7565 16.5614 15.6 16.9393 15.6 17.3333C15.6 17.7274 15.7565 18.1053 16.0352 18.3839C16.3138 18.6625 16.6917 18.819 17.0857 18.819C17.4798 18.819 17.8576 18.6625 18.1363 18.3839C18.4149 18.1053 18.5714 17.7274 18.5714 17.3333ZM10.2762 15.3524C10.2762 15.5166 10.211 15.674 10.0949 15.7901C9.97878 15.9062 9.82133 15.9714 9.65714 15.9714C9.49296 15.9714 9.3355 15.9062 9.21941 15.7901C9.10332 15.674 9.0381 15.5166 9.0381 15.3524C9.0381 15.1882 9.10332 15.0307 9.21941 14.9146C9.3355 14.7986 9.49296 14.7333 9.65714 14.7333C9.82133 14.7333 9.97878 14.7986 10.0949 14.9146C10.211 15.0307 10.2762 15.1882 10.2762 15.3524ZM11.1429 15.3524C11.1429 14.9583 10.9863 14.5804 10.7077 14.3018C10.4291 14.0232 10.0512 13.8667 9.65714 13.8667C9.26311 13.8667 8.88521 14.0232 8.60658 14.3018C8.32796 14.5804 8.17143 14.9583 8.17143 15.3524C8.17143 15.7464 8.32796 16.1243 8.60658 16.4029C8.88521 16.6816 9.26311 16.8381 9.65714 16.8381C10.0512 16.8381 10.4291 16.6816 10.7077 16.4029C10.9863 16.1243 11.1429 15.7464 11.1429 15.3524ZM15.1048 7.92381C15.1299 8.09833 15.1013 8.27637 15.0226 8.43418C14.944 8.59199 14.8191 8.72205 14.6646 8.80701C14.51 8.89196 14.3333 8.92777 14.1579 8.90965C13.9825 8.89153 13.8168 8.82035 13.683 8.7056C13.5491 8.59085 13.4534 8.43799 13.4087 8.26744C13.3639 8.09688 13.3723 7.91674 13.4326 7.75106C13.4929 7.58537 13.6024 7.44203 13.7463 7.34017C13.8902 7.2383 14.0618 7.18276 14.2381 7.18095C14.7333 7.18095 15.1048 7.55238 15.1048 7.92381ZM16.0952 7.92381C16.0952 7.05714 15.2286 6.19048 14.2381 6.19048C13.7784 6.19048 13.3375 6.3731 13.0124 6.69816C12.6874 7.02322 12.5048 7.4641 12.5048 7.92381C12.5048 8.38352 12.6874 8.8244 13.0124 9.14946C13.3375 9.47453 13.7784 9.65714 14.2381 9.65714C15.2286 9.65714 16.0952 8.91429 16.0952 7.92381ZM20.4286 5.94286C20.4286 6.10704 20.3634 6.2645 20.2473 6.38059C20.1312 6.49668 19.9737 6.56191 19.8095 6.56191C19.6453 6.56191 19.4879 6.49668 19.3718 6.38059C19.2557 6.2645 19.1905 6.10704 19.1905 5.94286C19.1905 5.77868 19.2557 5.62122 19.3718 5.50513C19.4879 5.38903 19.6453 5.32381 19.8095 5.32381C19.9737 5.32381 20.1312 5.38903 20.2473 5.50513C20.3634 5.62122 20.4286 5.77868 20.4286 5.94286ZM21.2952 5.94286C21.2952 5.54882 21.1387 5.17092 20.8601 4.8923C20.5815 4.61367 20.2036 4.45714 19.8095 4.45714C19.4155 4.45714 19.0376 4.61367 18.759 4.8923C18.4803 5.17092 18.3238 5.54882 18.3238 5.94286C18.3238 6.33689 18.4803 6.71479 18.759 6.99342C19.0376 7.27204 19.4155 7.42857 19.8095 7.42857C20.2036 7.42857 20.5815 7.27204 20.8601 6.99342C21.1387 6.71479 21.2952 6.33689 21.2952 5.94286ZM6.4381 6.80952C6.4381 6.95729 6.3794 7.099 6.27491 7.20348C6.17043 7.30797 6.02872 7.36667 5.88095 7.36667C5.73319 7.36667 5.59148 7.30797 5.48699 7.20348C5.38251 7.099 5.32381 6.95729 5.32381 6.80952C5.32381 6.64534 5.38903 6.48789 5.50512 6.37179C5.62122 6.2557 5.77868 6.19048 5.94286 6.19048C6.10704 6.19048 6.2645 6.2557 6.38059 6.37179C6.49668 6.48789 6.56191 6.64534 6.56191 6.80952M7.42857 6.80952C7.42857 5.94286 6.68571 5.32381 5.94286 5.32381C5.54882 5.32381 5.17092 5.48034 4.8923 5.75897C4.61367 6.03759 4.45714 6.41549 4.45714 6.80952C4.45714 7.20356 4.61367 7.58146 4.8923 7.86008C5.17092 8.13871 5.54882 8.29524 5.94286 8.29524C6.68571 8.29524 7.42857 7.55238 7.42857 6.80952ZM17.7048 13.619C18.9957 13.2678 20.242 12.7693 21.419 12.1333C21.6667 12.1333 21.7905 12.1333 21.9143 11.8857C21.9561 11.8146 21.9794 11.7341 21.9822 11.6516C21.985 11.5691 21.9671 11.4873 21.9302 11.4135C21.8933 11.3397 21.8385 11.2763 21.7709 11.229C21.7032 11.1817 21.6249 11.1521 21.5429 11.1429L21.0476 11.3905C20.3048 11.7619 19.3143 12.2571 17.3333 12.7524C14.6095 13.619 12.5048 12.7524 10.4 11.6381L8.29524 10.8952C6.93514 10.4035 5.44581 10.4035 4.08571 10.8952C3.99981 10.9437 3.93035 11.0168 3.88623 11.105C3.84211 11.1933 3.82535 11.2927 3.8381 11.3905C3.89193 11.5014 3.98522 11.5883 4.09971 11.6341C4.2142 11.6799 4.34165 11.6813 4.45714 11.6381C5.2 11.3905 6.4381 11.1429 8.04762 11.6381L10.0286 12.5048C11.6381 13.2476 13.2476 13.9905 15.3524 13.9905C16.0952 13.9905 16.8381 13.9905 17.7048 13.619ZM17.3333 21.2952H8.66667C6.31429 21.2952 4.70476 19.3143 4.08571 17.4571L2.10476 10.2762H0.495238C0.363893 10.2762 0.237927 10.224 0.145052 10.1311C0.0521767 10.0383 0 9.9123 0 9.78095C0 9.64961 0.0521767 9.52364 0.145052 9.43077C0.237927 9.33789 0.363893 9.28572 0.495238 9.28572H2.47619L2.84762 9.65714C2.84762 9.65714 4.33333 15.4762 4.95238 17.0857C5.44762 18.6952 6.80952 20.3048 8.66667 20.3048H17.3333C19.1905 20.3048 20.5524 18.6952 21.0476 17.0857C21.6667 15.4762 23.1524 9.65714 23.1524 9.65714C23.1732 9.56663 23.2191 9.48381 23.2848 9.41813C23.3505 9.35245 23.4333 9.30657 23.5238 9.28572H25.5048C25.6361 9.28572 25.7621 9.33789 25.8549 9.43077C25.9478 9.52364 26 9.64961 26 9.78095C26 9.9123 25.9478 10.0383 25.8549 10.1311C25.7621 10.224 25.6361 10.2762 25.5048 10.2762H23.8952L21.9143 17.4571C21.2952 19.3143 19.6857 21.2952 17.3333 21.2952Z" fill="#FC7201"/>
<mask id="mask0_96_1636" style="mask-type:luminance" maskUnits="userSpaceOnUse" x="0" y="0" width="26" height="24">
<path d="M18.5714 22.5333C18.5714 22.402 18.5193 22.276 18.4264 22.1831C18.3335 22.0903 18.2075 22.0381 18.0762 22.0381H7.92381C7.79246 22.0381 7.6665 22.0903 7.57362 22.1831C7.48075 22.276 7.42857 22.402 7.42857 22.5333C7.42857 22.6647 7.48075 22.7906 7.57362 22.8835C7.6665 22.9764 7.79246 23.0286 7.92381 23.0286H18.0762C18.2075 23.0286 18.3335 22.9764 18.4264 22.8835C18.5193 22.7906 18.5714 22.6647 18.5714 22.5333ZM12.0095 2.22857C12.0095 2.47344 11.9369 2.71282 11.8009 2.91642C11.6648 3.12002 11.4715 3.27871 11.2452 3.37242C11.019 3.46613 10.7701 3.49065 10.5299 3.44288C10.2897 3.39511 10.0691 3.27719 9.89596 3.10404C9.72281 2.93089 9.6049 2.71028 9.55712 2.47011C9.50935 2.22994 9.53387 1.98101 9.62758 1.75477C9.72129 1.52854 9.87998 1.33518 10.0836 1.19913C10.2872 1.06309 10.5266 0.990476 10.7714 0.990476C11.0998 0.990476 11.4147 1.12092 11.6469 1.35311C11.8791 1.58529 12.0095 1.90021 12.0095 2.22857ZM12.8762 2.22857C12.8762 1.63752 12.6414 1.07067 12.2235 0.652734C11.8055 0.234795 11.2387 0 10.6476 0C10.0566 0 9.48972 0.234795 9.07178 0.652734C8.65384 1.07067 8.41905 1.63752 8.41905 2.22857C8.41905 2.81963 8.65384 3.38647 9.07178 3.80441C9.48972 4.22235 10.0566 4.45714 10.6476 4.45714C10.9403 4.45714 11.2301 4.3995 11.5005 4.2875C11.7708 4.17551 12.0165 4.01135 12.2235 3.80441C12.4304 3.59747 12.5946 3.35179 12.7066 3.08141C12.8185 2.81103 12.8762 2.52123 12.8762 2.22857ZM17.581 17.3333C17.581 17.4811 17.5223 17.6228 17.4178 17.7273C17.3133 17.8318 17.1716 17.8905 17.0238 17.8905C16.876 17.8905 16.7343 17.8318 16.6299 17.7273C16.5254 17.6228 16.4667 17.4811 16.4667 17.3333C16.4667 17.1692 16.5319 17.0117 16.648 16.8956C16.7641 16.7795 16.9215 16.7143 17.0857 16.7143C17.2499 16.7143 17.4074 16.7795 17.5234 16.8956C17.6395 17.0117 17.7048 17.1692 17.7048 17.3333M18.5714 17.3333C18.5714 16.9393 18.4149 16.5614 18.1363 16.2828C17.8576 16.0042 17.4798 15.8476 17.0857 15.8476C16.6917 15.8476 16.3138 16.0042 16.0352 16.2828C15.7565 16.5614 15.6 16.9393 15.6 17.3333C15.6 17.7274 15.7565 18.1053 16.0352 18.3839C16.3138 18.6625 16.6917 18.819 17.0857 18.819C17.4798 18.819 17.8576 18.6625 18.1363 18.3839C18.4149 18.1053 18.5714 17.7274 18.5714 17.3333ZM10.2762 15.3524C10.2762 15.5166 10.211 15.674 10.0949 15.7901C9.97878 15.9062 9.82133 15.9714 9.65714 15.9714C9.49296 15.9714 9.3355 15.9062 9.21941 15.7901C9.10332 15.674 9.0381 15.5166 9.0381 15.3524C9.0381 15.1882 9.10332 15.0307 9.21941 14.9146C9.3355 14.7986 9.49296 14.7333 9.65714 14.7333C9.82133 14.7333 9.97878 14.7986 10.0949 14.9146C10.211 15.0307 10.2762 15.1882 10.2762 15.3524ZM11.1429 15.3524C11.1429 14.9583 10.9863 14.5804 10.7077 14.3018C10.4291 14.0232 10.0512 13.8667 9.65714 13.8667C9.26311 13.8667 8.88521 14.0232 8.60658 14.3018C8.32796 14.5804 8.17143 14.9583 8.17143 15.3524C8.17143 15.7464 8.32796 16.1243 8.60658 16.4029C8.88521 16.6816 9.26311 16.8381 9.65714 16.8381C10.0512 16.8381 10.4291 16.6816 10.7077 16.4029C10.9863 16.1243 11.1429 15.7464 11.1429 15.3524ZM15.1048 7.92381C15.1299 8.09833 15.1013 8.27637 15.0226 8.43418C14.944 8.59199 14.8191 8.72205 14.6646 8.80701C14.51 8.89196 14.3333 8.92777 14.1579 8.90965C13.9825 8.89153 13.8168 8.82035 13.683 8.7056C13.5491 8.59085 13.4534 8.43799 13.4087 8.26744C13.3639 8.09688 13.3723 7.91674 13.4326 7.75106C13.4929 7.58537 13.6024 7.44203 13.7463 7.34017C13.8902 7.2383 14.0618 7.18276 14.2381 7.18095C14.7333 7.18095 15.1048 7.55238 15.1048 7.92381ZM16.0952 7.92381C16.0952 7.05714 15.2286 6.19048 14.2381 6.19048C13.7784 6.19048 13.3375 6.3731 13.0124 6.69816C12.6874 7.02322 12.5048 7.4641 12.5048 7.92381C12.5048 8.38352 12.6874 8.8244 13.0124 9.14946C13.3375 9.47453 13.7784 9.65714 14.2381 9.65714C15.2286 9.65714 16.0952 8.91429 16.0952 7.92381ZM20.4286 5.94286C20.4286 6.10704 20.3634 6.2645 20.2473 6.38059C20.1312 6.49668 19.9737 6.56191 19.8095 6.56191C19.6453 6.56191 19.4879 6.49668 19.3718 6.38059C19.2557 6.2645 19.1905 6.10704 19.1905 5.94286C19.1905 5.77868 19.2557 5.62122 19.3718 5.50513C19.4879 5.38903 19.6453 5.32381 19.8095 5.32381C19.9737 5.32381 20.1312 5.38903 20.2473 5.50513C20.3634 5.62122 20.4286 5.77868 20.4286 5.94286ZM21.2952 5.94286C21.2952 5.54882 21.1387 5.17092 20.8601 4.8923C20.5815 4.61367 20.2036 4.45714 19.8095 4.45714C19.4155 4.45714 19.0376 4.61367 18.759 4.8923C18.4803 5.17092 18.3238 5.54882 18.3238 5.94286C18.3238 6.33689 18.4803 6.71479 18.759 6.99342C19.0376 7.27204 19.4155 7.42857 19.8095 7.42857C20.2036 7.42857 20.5815 7.27204 20.8601 6.99342C21.1387 6.71479 21.2952 6.33689 21.2952 5.94286ZM6.4381 6.80952C6.4381 6.95729 6.3794 7.099 6.27491 7.20348C6.17043 7.30797 6.02872 7.36667 5.88095 7.36667C5.73319 7.36667 5.59148 7.30797 5.48699 7.20348C5.38251 7.099 5.32381 6.95729 5.32381 6.80952C5.32381 6.64534 5.38903 6.48789 5.50512 6.37179C5.62122 6.2557 5.77868 6.19048 5.94286 6.19048C6.10704 6.19048 6.2645 6.2557 6.38059 6.37179C6.49668 6.48789 6.56191 6.64534 6.56191 6.80952M7.42857 6.80952C7.42857 5.94286 6.68571 5.32381 5.94286 5.32381C5.54882 5.32381 5.17092 5.48034 4.8923 5.75897C4.61367 6.03759 4.45714 6.41549 4.45714 6.80952C4.45714 7.20356 4.61367 7.58146 4.8923 7.86008C5.17092 8.13871 5.54882 8.29524 5.94286 8.29524C6.68571 8.29524 7.42857 7.55238 7.42857 6.80952ZM17.7048 13.619C18.9957 13.2678 20.242 12.7693 21.419 12.1333C21.6667 12.1333 21.7905 12.1333 21.9143 11.8857C21.9561 11.8146 21.9794 11.7341 21.9822 11.6516C21.985 11.5691 21.9671 11.4873 21.9302 11.4135C21.8933 11.3397 21.8385 11.2763 21.7709 11.229C21.7032 11.1817 21.6249 11.1521 21.5429 11.1429L21.0476 11.3905C20.3048 11.7619 19.3143 12.2571 17.3333 12.7524C14.6095 13.619 12.5048 12.7524 10.4 11.6381L8.29524 10.8952C6.93514 10.4035 5.44581 10.4035 4.08571 10.8952C3.99981 10.9437 3.93035 11.0168 3.88623 11.105C3.84211 11.1933 3.82535 11.2927 3.8381 11.3905C3.89193 11.5014 3.98522 11.5883 4.09971 11.6341C4.2142 11.6799 4.34165 11.6813 4.45714 11.6381C5.2 11.3905 6.4381 11.1429 8.04762 11.6381L10.0286 12.5048C11.6381 13.2476 13.2476 13.9905 15.3524 13.9905C16.0952 13.9905 16.8381 13.9905 17.7048 13.619ZM17.3333 21.2952H8.66667C6.31429 21.2952 4.70476 19.3143 4.08571 17.4571L2.10476 10.2762H0.495238C0.363893 10.2762 0.237927 10.224 0.145052 10.1311C0.0521767 10.0383 0 9.9123 0 9.78095C0 9.64961 0.0521767 9.52364 0.145052 9.43077C0.237927 9.33789 0.363893 9.28572 0.495238 9.28572H2.47619L2.84762 9.65714C2.84762 9.65714 4.33333 15.4762 4.95238 17.0857C5.44762 18.6952 6.80952 20.3048 8.66667 20.3048H17.3333C19.1905 20.3048 20.5524 18.6952 21.0476 17.0857C21.6667 15.4762 23.1524 9.65714 23.1524 9.65714C23.1732 9.56663 23.2191 9.48381 23.2848 9.41813C23.3505 9.35245 23.4333 9.30657 23.5238 9.28572H25.5048C25.6361 9.28572 25.7621 9.33789 25.8549 9.43077C25.9478 9.52364 26 9.64961 26 9.78095C26 9.9123 25.9478 10.0383 25.8549 10.1311C25.7621 10.224 25.6361 10.2762 25.5048 10.2762H23.8952L21.9143 17.4571C21.2952 19.3143 19.6857 21.2952 17.3333 21.2952Z" fill="#292F37"/>
</mask>
<g mask="url(#mask0_96_1636)">
<path fill-rule="evenodd" clip-rule="evenodd" d="M-1.2381 -2.72412H27.2381V25.7521H-1.2381V-2.72412Z" fill="#FC7201"/>
</g>
</svg>
