<svg width="21" height="21" viewBox="0 0 21 21" fill="none" xmlns="http://www.w3.org/2000/svg">
<path d="M14.7305 12.5579L14.683 12.95H15.078H18.627H18.9003L18.9665 12.6849C19.1401 11.9906 19.25 11.2583 19.25 10.5C19.25 9.74171 19.1401 9.00937 18.9665 8.31511L18.9003 8.05H18.627H15.078H14.683L14.7305 8.44212C14.8138 9.12881 14.875 9.80612 14.875 10.5C14.875 11.1939 14.8138 11.8712 14.7305 12.5579ZM12.9116 18.2716L12.4848 19.0611L13.3334 18.7689C15.3283 18.0822 17.0092 16.7002 18.0687 14.8758L18.374 14.35H17.766H14.6685H14.3968L14.3294 14.6132C14 15.8999 13.5271 17.133 12.9116 18.2716ZM12.957 12.95H13.2625L13.3038 12.6473C13.3991 11.9484 13.475 11.2373 13.475 10.5C13.475 9.76292 13.3992 9.04147 13.3037 8.352L13.2619 8.05H12.957H8.043H7.74273L7.69707 8.34678C7.5898 9.04406 7.525 9.76553 7.525 10.5C7.525 11.2348 7.58986 11.9456 7.69695 12.6524L7.74203 12.95H8.043H12.957ZM10.2121 19.0571L10.5 19.4733L10.7879 19.0571C11.6778 17.7704 12.3995 16.3397 12.8419 14.7965L12.97 14.35H12.5055H8.4945H8.03005L8.15806 14.7965C8.60052 16.3397 9.3222 17.7704 10.2121 19.0571ZM6.3 6.65H6.56546L6.63704 6.39437C6.99935 5.10038 7.46311 3.86579 8.0779 2.72843L8.50254 1.94283L7.65718 2.23068C5.66009 2.9107 3.9795 4.29562 2.93035 6.12594L2.62995 6.65H3.234H6.3ZM3.234 14.35H2.62716L2.93105 14.8753C3.98631 16.6993 5.66381 18.0817 7.65586 18.7689L8.50506 19.0618L8.0779 18.2716C7.46311 17.1342 6.99935 15.8996 6.63704 14.6056L6.56546 14.35H6.3H3.234ZM2.03345 12.6849L2.09973 12.95H2.373H5.922H6.31699L6.26946 12.5579C6.18622 11.8712 6.125 11.1939 6.125 10.5C6.125 9.80612 6.18622 9.12881 6.26946 8.44212L6.31699 8.05H5.922H2.373H2.09973L2.03345 8.31511C1.85989 9.00937 1.75 9.74171 1.75 10.5C1.75 11.2583 1.85989 11.9906 2.03345 12.6849ZM10.7879 1.9324L10.5 1.51623L10.2121 1.9324C9.32178 3.21968 8.60034 4.66095 8.15806 6.20354L8.03005 6.65H8.4945H12.5055H12.97L12.8419 6.20354C12.3997 4.66095 11.6782 3.21968 10.7879 1.9324ZM17.766 6.65H18.3727L18.069 6.12478C17.019 4.30913 15.3454 2.91993 13.3329 2.23087L12.4902 1.94234L12.911 2.72737C13.5313 3.88438 14.0075 5.11298 14.3292 6.38575L14.3959 6.65H14.6685H17.766ZM0.35 10.5C0.35 4.91762 4.88748 0.35 10.5 0.35C11.8329 0.35 13.1528 0.612537 14.3842 1.12262C15.6157 1.63271 16.7346 2.38035 17.6771 3.32287C18.6196 4.26538 19.3673 5.38431 19.8774 6.61576C20.3875 7.84722 20.65 9.16708 20.65 10.5C20.65 13.1919 19.5806 15.7736 17.6771 17.6771C15.7736 19.5806 13.1919 20.65 10.5 20.65C9.16708 20.65 7.84722 20.3875 6.61576 19.8774C5.38431 19.3673 4.26538 18.6196 3.32287 17.6771C1.41937 15.7736 0.35 13.1919 0.35 10.5Z" stroke="#FC7201" stroke-width="0.7"/>
</svg>
