<svg width="21" height="25" viewBox="0 0 21 25" fill="none" xmlns="http://www.w3.org/2000/svg">
<path d="M9.00169 4.06091L4.29271 8.75635C4.23594 8.77317 4.18901 8.80937 4.16225 8.85697C4.13549 8.90456 4.13109 8.95967 4.15001 9.01015C4.16893 9.06064 4.20963 9.10237 4.26315 9.12617C4.31667 9.14997 4.37863 9.15388 4.4354 9.13706H16.85C16.8781 9.14539 16.9078 9.14872 16.9373 9.14685C16.9669 9.14498 16.9957 9.13795 17.0222 9.12617C17.0487 9.11439 17.0724 9.09807 17.0918 9.07817C17.1112 9.05826 17.126 9.03515 17.1354 9.01015C17.1448 8.98516 17.1485 8.95876 17.1464 8.93248C17.1443 8.90619 17.1364 8.88054 17.1231 8.85697C17.1099 8.8334 17.0916 8.81238 17.0692 8.79512C17.0468 8.77785 17.0208 8.76468 16.9927 8.75635L12.4264 4.06091H9.00169ZM9.28708 3.17259H12.141V1.14213C12.1599 1.10848 12.163 1.06951 12.1497 1.03381C12.1363 0.998115 12.1075 0.968605 12.0697 0.951777C12.0318 0.934948 11.988 0.932179 11.9479 0.944079C11.9077 0.955978 11.8745 0.981571 11.8556 1.01523H9.42978C9.41725 1.03452 9.41066 1.0564 9.41066 1.07868C9.41066 1.10096 9.41725 1.12284 9.42978 1.14213V3.17259H9.28708ZM1.72417 23.9848C1.70543 24.0848 1.66473 24.1805 1.60439 24.2665C1.54405 24.3525 1.46525 24.4271 1.3725 24.486C1.18517 24.605 0.952368 24.6529 0.725296 24.6193C0.498223 24.5856 0.295485 24.4731 0.161681 24.3065C0.027877 24.1399 -0.0260318 23.9329 0.0118136 23.731C0.049659 23.529 0.176159 23.3487 0.363484 23.2297C0.55081 23.1107 0.783616 23.0628 1.01069 23.0964C1.23776 23.1301 1.4405 23.2426 1.5743 23.4092C1.70811 23.5758 1.76202 23.7828 1.72417 23.9848ZM9.42978 12.1827C9.42978 12.3847 9.33957 12.5784 9.17901 12.7211C9.01844 12.8639 8.80067 12.9442 8.5736 12.9442C8.34653 12.9442 8.12875 12.8639 7.96819 12.7211C7.80763 12.5784 7.71742 12.3847 7.71742 12.1827C7.71742 11.9808 7.80763 11.7871 7.96819 11.6443C8.12875 11.5015 8.34653 11.4213 8.5736 11.4213C8.80067 11.4213 9.01844 11.5015 9.17901 11.6443C9.33957 11.7871 9.42978 11.9808 9.42978 12.1827ZM9.14439 16.1168C9.14439 16.3187 9.05418 16.5124 8.89362 16.6552C8.73305 16.798 8.51528 16.8782 8.28821 16.8782C8.06113 16.8782 7.84336 16.798 7.6828 16.6552C7.52223 16.5124 7.43203 16.3187 7.43203 16.1168C7.43203 15.9148 7.52223 15.7211 7.6828 15.5783C7.84336 15.4356 8.06113 15.3553 8.28821 15.3553C8.51528 15.3553 8.73305 15.4356 8.89362 15.5783C9.05418 15.7211 9.14439 15.9148 9.14439 16.1168ZM8.5736 20.0508C8.5736 20.2527 8.48339 20.4464 8.32283 20.5892C8.16227 20.732 7.94449 20.8122 7.71742 20.8122C7.49035 20.8122 7.27258 20.732 7.11201 20.5892C6.95145 20.4464 6.86124 20.2527 6.86124 20.0508C6.86124 19.8488 6.95145 19.6551 7.11201 19.5124C7.27258 19.3696 7.49035 19.2893 7.71742 19.2893C7.94449 19.2893 8.16227 19.3696 8.32283 19.5124C8.48339 19.6551 8.5736 19.8488 8.5736 20.0508ZM8.14551 24.2386C8.14551 24.4405 8.05531 24.6342 7.89474 24.777C7.73418 24.9198 7.5164 25 7.28933 25C7.06226 25 6.84449 24.9198 6.68392 24.777C6.52336 24.6342 6.43315 24.4405 6.43315 24.2386C6.43315 24.0366 6.52336 23.843 6.68392 23.7002C6.84449 23.5574 7.06226 23.4772 7.28933 23.4772C7.5164 23.4772 7.73418 23.5574 7.89474 23.7002C8.05531 23.843 8.14551 24.0366 8.14551 24.2386ZM5.29158 12.3096C5.27284 12.4096 5.23214 12.5054 5.1718 12.5914C5.11146 12.6774 5.03267 12.752 4.93991 12.8109C4.84716 12.8698 4.74226 12.9119 4.63121 12.9348C4.52017 12.9576 4.40514 12.9608 4.29271 12.9442C4.18027 12.9275 4.07263 12.8913 3.97592 12.8376C3.87922 12.784 3.79534 12.7139 3.72909 12.6314C3.66284 12.5489 3.6155 12.4556 3.58979 12.3569C3.56407 12.2581 3.56049 12.1558 3.57922 12.0558C3.61707 11.8539 3.74357 11.6736 3.93089 11.5546C4.11822 11.4356 4.35103 11.3877 4.5781 11.4213C4.80517 11.455 5.00791 11.5675 5.14171 11.7341C5.27552 11.9007 5.32943 12.1077 5.29158 12.3096ZM4.15001 16.1168C4.11216 16.3187 3.98567 16.499 3.79834 16.618C3.61101 16.737 3.37821 16.7849 3.15114 16.7513C2.92406 16.7176 2.72132 16.6051 2.58752 16.4385C2.45372 16.2719 2.39981 16.0649 2.43765 15.8629C2.528 15.7324 2.66056 15.6291 2.81799 15.5666C2.97542 15.5042 3.1504 15.4854 3.32001 15.5128C3.48962 15.5403 3.64597 15.6126 3.7686 15.7203C3.89124 15.8281 3.97444 15.9663 4.00731 16.1168H4.15001ZM2.72305 19.9239C2.77647 20.051 2.79073 20.1885 2.76435 20.3221C2.73798 20.4557 2.67192 20.5807 2.57301 20.684C2.47411 20.7874 2.34595 20.8653 2.20181 20.9098C2.05767 20.9543 1.90277 20.9637 1.75316 20.9371C1.60354 20.9105 1.46464 20.8488 1.35083 20.7584C1.23701 20.6681 1.15242 20.5523 1.10581 20.4231C1.05921 20.2939 1.05227 20.1559 1.08572 20.0235C1.11917 19.8911 1.1918 19.7691 1.29608 19.6701C1.39568 19.5755 1.52077 19.505 1.65952 19.4654C1.79827 19.4259 1.94609 19.4184 2.08898 19.4438C2.23186 19.4692 2.36509 19.5267 2.47605 19.6107C2.58701 19.6947 2.67202 19.8025 2.72305 19.9239ZM11.4275 12.1827C11.4275 12.0827 11.4497 11.9837 11.4927 11.8914C11.5357 11.799 11.5988 11.715 11.6783 11.6443C11.7578 11.5736 11.8522 11.5175 11.9561 11.4793C12.0599 11.441 12.1713 11.4213 12.2837 11.4213C12.3961 11.4213 12.5075 11.441 12.6114 11.4793C12.7152 11.5175 12.8096 11.5736 12.8891 11.6443C12.9686 11.715 13.0317 11.799 13.0747 11.8914C13.1177 11.9837 13.1399 12.0827 13.1399 12.1827C13.1399 12.3847 13.0497 12.5784 12.8891 12.7211C12.7286 12.8639 12.5108 12.9442 12.2837 12.9442C12.0566 12.9442 11.8389 12.8639 11.6783 12.7211C11.5177 12.5784 11.4275 12.3847 11.4275 12.1827ZM11.8556 16.1168C11.8556 16.0168 11.8778 15.9177 11.9208 15.8254C11.9638 15.733 12.0269 15.649 12.1064 15.5783C12.1859 15.5076 12.2803 15.4516 12.3842 15.4133C12.488 15.375 12.5994 15.3553 12.7118 15.3553C12.8242 15.3553 12.9356 15.375 13.0394 15.4133C13.1433 15.4516 13.2377 15.5076 13.3172 15.5783C13.3967 15.649 13.4598 15.733 13.5028 15.8254C13.5458 15.9177 13.568 16.0168 13.568 16.1168C13.568 16.3187 13.4778 16.5124 13.3172 16.6552C13.1566 16.798 12.9389 16.8782 12.7118 16.8782C12.4847 16.8782 12.267 16.798 12.1064 16.6552C11.9458 16.5124 11.8556 16.3187 11.8556 16.1168ZM12.2837 20.0508C12.2837 19.8488 12.3739 19.6551 12.5345 19.5124C12.695 19.3696 12.9128 19.2893 13.1399 19.2893C13.367 19.2893 13.5847 19.3696 13.7453 19.5124C13.9059 19.6551 13.9961 19.8488 13.9961 20.0508C13.9961 20.2527 13.9059 20.4464 13.7453 20.5892C13.5847 20.732 13.367 20.8122 13.1399 20.8122C12.9128 20.8122 12.695 20.732 12.5345 20.5892C12.3739 20.4464 12.2837 20.2527 12.2837 20.0508ZM12.7118 24.2386C12.7118 24.1386 12.7339 24.0396 12.777 23.9472C12.82 23.8548 12.8831 23.7709 12.9626 23.7002C13.0421 23.6295 13.1365 23.5734 13.2403 23.5351C13.3442 23.4969 13.4555 23.4772 13.568 23.4772C13.6804 23.4772 13.7917 23.4969 13.8956 23.5351C13.9995 23.5734 14.0939 23.6295 14.1734 23.7002C14.2529 23.7709 14.316 23.8548 14.359 23.9472C14.402 24.0396 14.4242 24.1386 14.4242 24.2386C14.4242 24.4405 14.3339 24.6342 14.1734 24.777C14.0128 24.9198 13.795 25 13.568 25C13.3409 25 13.1231 24.9198 12.9626 24.777C12.802 24.6342 12.7118 24.4405 12.7118 24.2386ZM15.5657 12.3096C15.4927 12.2041 15.4498 12.0844 15.4406 11.9608C15.4314 11.8372 15.4563 11.7135 15.513 11.6004C15.5698 11.4873 15.6567 11.3882 15.7663 11.3117C15.8758 11.2352 16.0047 11.1836 16.1418 11.1615C16.2788 11.1393 16.4198 11.1472 16.5527 11.1845C16.6855 11.2218 16.8061 11.2874 16.904 11.3755C17.0019 11.4636 17.0741 11.5716 17.1144 11.6902C17.1548 11.8087 17.1619 11.9342 17.1354 12.0558C17.1025 12.2063 17.0193 12.3445 16.8967 12.4523C16.774 12.56 16.6177 12.6323 16.4481 12.6598C16.2785 12.6872 16.1035 12.6684 15.9461 12.606C15.7886 12.5435 15.6561 12.4402 15.5657 12.3096ZM16.7073 16.1168C16.6695 15.9148 16.7234 15.7078 16.8572 15.5412C16.991 15.3746 17.1937 15.2621 17.4208 15.2284C17.6479 15.1948 17.8807 15.2427 18.068 15.3617C18.2553 15.4807 18.3818 15.661 18.4197 15.8629C18.4384 15.9629 18.4348 16.0652 18.4091 16.164C18.3834 16.2627 18.336 16.356 18.2698 16.4385C18.2035 16.521 18.1197 16.5911 18.023 16.6447C17.9262 16.6984 17.8186 16.7346 17.7062 16.7513C17.5937 16.7679 17.4787 16.7647 17.3677 16.7419C17.2566 16.719 17.1517 16.6769 17.059 16.618C16.9662 16.5591 16.8874 16.4845 16.8271 16.3985C16.7667 16.3125 16.726 16.2167 16.7073 16.1168ZM17.9916 19.9239C17.9728 19.8239 17.9764 19.7216 18.0021 19.6228C18.0278 19.5241 18.0752 19.4308 18.1414 19.3483C18.2077 19.2658 18.2916 19.1957 18.3883 19.1421C18.485 19.0884 18.5926 19.0522 18.705 19.0355C18.8175 19.0189 18.9325 19.0221 19.0436 19.0449C19.1546 19.0678 19.2595 19.1099 19.3523 19.1688C19.445 19.2277 19.5238 19.3023 19.5841 19.3883C19.6445 19.4743 19.6852 19.5701 19.7039 19.6701C19.7418 19.872 19.6879 20.079 19.5541 20.2456C19.4202 20.4122 19.2175 20.5247 18.9904 20.5584C18.7634 20.592 18.5306 20.5441 18.3432 20.4251C18.1559 20.3061 18.0294 20.1258 17.9916 19.9239ZM19.2758 23.9848C19.238 23.7828 19.2919 23.5758 19.4257 23.4092C19.5595 23.2426 19.7622 23.1301 19.9893 23.0964C20.2164 23.0628 20.4492 23.1107 20.6365 23.2297C20.8238 23.3487 20.9503 23.529 20.9882 23.731C21.0069 23.831 21.0033 23.9333 20.9776 24.032C20.9519 24.1308 20.9046 24.2241 20.8383 24.3065C20.7721 24.389 20.6882 24.4591 20.5915 24.5128C20.4948 24.5664 20.3871 24.6026 20.2747 24.6193C20.1623 24.636 20.0472 24.6328 19.9362 24.6099C19.8252 24.587 19.7203 24.5449 19.6275 24.486C19.4402 24.367 19.3137 24.1867 19.2758 23.9848ZM13.1399 3.4264L17.8489 8.12183C17.9753 8.28949 18.0495 8.48396 18.0639 8.68543C18.0783 8.88689 18.0324 9.08815 17.9309 9.26871C17.8294 9.44927 17.6759 9.60268 17.486 9.71331C17.2961 9.82393 17.0767 9.88782 16.85 9.89848H4.4354C4.22099 9.86827 4.01869 9.79023 3.8474 9.67163C3.67611 9.55304 3.54141 9.39776 3.4559 9.22032C3.37039 9.04287 3.33685 8.84904 3.35841 8.65694C3.37998 8.46484 3.45595 8.28074 3.57922 8.12183L8.28821 3.29949V1.14213C8.28821 0.507614 8.85899 0 9.42978 0H11.8556C12.5691 0 13.1399 0.507614 13.1399 1.14213V3.4264ZM7.00394 8.37564C6.71855 8.37564 6.57585 8.12183 6.57585 7.86802C6.57585 7.61421 6.71855 7.36041 7.00394 7.36041H14.4242C14.7095 7.36041 14.8522 7.61421 14.8522 7.86802C14.8522 8.12183 14.7095 8.37564 14.4242 8.37564H7.00394Z" fill="#FC7201"/>
<mask id="mask0_95_1172" style="mask-type:luminance" maskUnits="userSpaceOnUse" x="0" y="0" width="21" height="25">
<path d="M9.00169 4.06091L4.29271 8.75635C4.23594 8.77317 4.18901 8.80937 4.16225 8.85697C4.13549 8.90456 4.13109 8.95967 4.15001 9.01015C4.16893 9.06064 4.20963 9.10237 4.26315 9.12617C4.31667 9.14997 4.37863 9.15388 4.4354 9.13706H16.85C16.8781 9.14539 16.9078 9.14872 16.9373 9.14685C16.9669 9.14498 16.9957 9.13795 17.0222 9.12617C17.0487 9.11439 17.0724 9.09807 17.0918 9.07817C17.1112 9.05826 17.126 9.03515 17.1354 9.01015C17.1448 8.98516 17.1485 8.95876 17.1464 8.93248C17.1443 8.90619 17.1364 8.88054 17.1231 8.85697C17.1099 8.8334 17.0916 8.81238 17.0692 8.79512C17.0468 8.77785 17.0208 8.76468 16.9927 8.75635L12.4264 4.06091H9.00169ZM9.28708 3.17259H12.141V1.14213C12.1599 1.10848 12.163 1.06951 12.1497 1.03381C12.1363 0.998115 12.1075 0.968605 12.0697 0.951777C12.0318 0.934948 11.988 0.932179 11.9479 0.944079C11.9077 0.955978 11.8745 0.981571 11.8556 1.01523H9.42978C9.41725 1.03452 9.41066 1.0564 9.41066 1.07868C9.41066 1.10096 9.41725 1.12284 9.42978 1.14213V3.17259H9.28708ZM1.72417 23.9848C1.70543 24.0848 1.66473 24.1805 1.60439 24.2665C1.54405 24.3525 1.46525 24.4271 1.3725 24.486C1.18517 24.605 0.952368 24.6529 0.725296 24.6193C0.498223 24.5856 0.295485 24.4731 0.161681 24.3065C0.027877 24.1399 -0.0260318 23.9329 0.0118136 23.731C0.049659 23.529 0.176159 23.3487 0.363484 23.2297C0.55081 23.1107 0.783616 23.0628 1.01069 23.0964C1.23776 23.1301 1.4405 23.2426 1.5743 23.4092C1.70811 23.5758 1.76202 23.7828 1.72417 23.9848ZM9.42978 12.1827C9.42978 12.3847 9.33957 12.5784 9.17901 12.7211C9.01844 12.8639 8.80067 12.9442 8.5736 12.9442C8.34653 12.9442 8.12875 12.8639 7.96819 12.7211C7.80763 12.5784 7.71742 12.3847 7.71742 12.1827C7.71742 11.9808 7.80763 11.7871 7.96819 11.6443C8.12875 11.5015 8.34653 11.4213 8.5736 11.4213C8.80067 11.4213 9.01844 11.5015 9.17901 11.6443C9.33957 11.7871 9.42978 11.9808 9.42978 12.1827ZM9.14439 16.1168C9.14439 16.3187 9.05418 16.5124 8.89362 16.6552C8.73305 16.798 8.51528 16.8782 8.28821 16.8782C8.06113 16.8782 7.84336 16.798 7.6828 16.6552C7.52223 16.5124 7.43203 16.3187 7.43203 16.1168C7.43203 15.9148 7.52223 15.7211 7.6828 15.5783C7.84336 15.4356 8.06113 15.3553 8.28821 15.3553C8.51528 15.3553 8.73305 15.4356 8.89362 15.5783C9.05418 15.7211 9.14439 15.9148 9.14439 16.1168ZM8.5736 20.0508C8.5736 20.2527 8.48339 20.4464 8.32283 20.5892C8.16227 20.732 7.94449 20.8122 7.71742 20.8122C7.49035 20.8122 7.27258 20.732 7.11201 20.5892C6.95145 20.4464 6.86124 20.2527 6.86124 20.0508C6.86124 19.8488 6.95145 19.6551 7.11201 19.5124C7.27258 19.3696 7.49035 19.2893 7.71742 19.2893C7.94449 19.2893 8.16227 19.3696 8.32283 19.5124C8.48339 19.6551 8.5736 19.8488 8.5736 20.0508ZM8.14551 24.2386C8.14551 24.4405 8.05531 24.6342 7.89474 24.777C7.73418 24.9198 7.5164 25 7.28933 25C7.06226 25 6.84449 24.9198 6.68392 24.777C6.52336 24.6342 6.43315 24.4405 6.43315 24.2386C6.43315 24.0366 6.52336 23.843 6.68392 23.7002C6.84449 23.5574 7.06226 23.4772 7.28933 23.4772C7.5164 23.4772 7.73418 23.5574 7.89474 23.7002C8.05531 23.843 8.14551 24.0366 8.14551 24.2386ZM5.29158 12.3096C5.27284 12.4096 5.23214 12.5054 5.1718 12.5914C5.11146 12.6774 5.03267 12.752 4.93991 12.8109C4.84716 12.8698 4.74226 12.9119 4.63121 12.9348C4.52017 12.9576 4.40514 12.9608 4.29271 12.9442C4.18027 12.9275 4.07263 12.8913 3.97592 12.8376C3.87922 12.784 3.79534 12.7139 3.72909 12.6314C3.66284 12.5489 3.6155 12.4556 3.58979 12.3569C3.56407 12.2581 3.56049 12.1558 3.57922 12.0558C3.61707 11.8539 3.74357 11.6736 3.93089 11.5546C4.11822 11.4356 4.35103 11.3877 4.5781 11.4213C4.80517 11.455 5.00791 11.5675 5.14171 11.7341C5.27552 11.9007 5.32943 12.1077 5.29158 12.3096ZM4.15001 16.1168C4.11216 16.3187 3.98567 16.499 3.79834 16.618C3.61101 16.737 3.37821 16.7849 3.15114 16.7513C2.92406 16.7176 2.72132 16.6051 2.58752 16.4385C2.45372 16.2719 2.39981 16.0649 2.43765 15.8629C2.528 15.7324 2.66056 15.6291 2.81799 15.5666C2.97542 15.5042 3.1504 15.4854 3.32001 15.5128C3.48962 15.5403 3.64597 15.6126 3.7686 15.7203C3.89124 15.8281 3.97444 15.9663 4.00731 16.1168H4.15001ZM2.72305 19.9239C2.77647 20.051 2.79073 20.1885 2.76435 20.3221C2.73798 20.4557 2.67192 20.5807 2.57301 20.684C2.47411 20.7874 2.34595 20.8653 2.20181 20.9098C2.05767 20.9543 1.90277 20.9637 1.75316 20.9371C1.60354 20.9105 1.46464 20.8488 1.35083 20.7584C1.23701 20.6681 1.15242 20.5523 1.10581 20.4231C1.05921 20.2939 1.05227 20.1559 1.08572 20.0235C1.11917 19.8911 1.1918 19.7691 1.29608 19.6701C1.39568 19.5755 1.52077 19.505 1.65952 19.4654C1.79827 19.4259 1.94609 19.4184 2.08898 19.4438C2.23186 19.4692 2.36509 19.5267 2.47605 19.6107C2.58701 19.6947 2.67202 19.8025 2.72305 19.9239ZM11.4275 12.1827C11.4275 12.0827 11.4497 11.9837 11.4927 11.8914C11.5357 11.799 11.5988 11.715 11.6783 11.6443C11.7578 11.5736 11.8522 11.5175 11.9561 11.4793C12.0599 11.441 12.1713 11.4213 12.2837 11.4213C12.3961 11.4213 12.5075 11.441 12.6114 11.4793C12.7152 11.5175 12.8096 11.5736 12.8891 11.6443C12.9686 11.715 13.0317 11.799 13.0747 11.8914C13.1177 11.9837 13.1399 12.0827 13.1399 12.1827C13.1399 12.3847 13.0497 12.5784 12.8891 12.7211C12.7286 12.8639 12.5108 12.9442 12.2837 12.9442C12.0566 12.9442 11.8389 12.8639 11.6783 12.7211C11.5177 12.5784 11.4275 12.3847 11.4275 12.1827ZM11.8556 16.1168C11.8556 16.0168 11.8778 15.9177 11.9208 15.8254C11.9638 15.733 12.0269 15.649 12.1064 15.5783C12.1859 15.5076 12.2803 15.4516 12.3842 15.4133C12.488 15.375 12.5994 15.3553 12.7118 15.3553C12.8242 15.3553 12.9356 15.375 13.0394 15.4133C13.1433 15.4516 13.2377 15.5076 13.3172 15.5783C13.3967 15.649 13.4598 15.733 13.5028 15.8254C13.5458 15.9177 13.568 16.0168 13.568 16.1168C13.568 16.3187 13.4778 16.5124 13.3172 16.6552C13.1566 16.798 12.9389 16.8782 12.7118 16.8782C12.4847 16.8782 12.267 16.798 12.1064 16.6552C11.9458 16.5124 11.8556 16.3187 11.8556 16.1168ZM12.2837 20.0508C12.2837 19.8488 12.3739 19.6551 12.5345 19.5124C12.695 19.3696 12.9128 19.2893 13.1399 19.2893C13.367 19.2893 13.5847 19.3696 13.7453 19.5124C13.9059 19.6551 13.9961 19.8488 13.9961 20.0508C13.9961 20.2527 13.9059 20.4464 13.7453 20.5892C13.5847 20.732 13.367 20.8122 13.1399 20.8122C12.9128 20.8122 12.695 20.732 12.5345 20.5892C12.3739 20.4464 12.2837 20.2527 12.2837 20.0508ZM12.7118 24.2386C12.7118 24.1386 12.7339 24.0396 12.777 23.9472C12.82 23.8548 12.8831 23.7709 12.9626 23.7002C13.0421 23.6295 13.1365 23.5734 13.2403 23.5351C13.3442 23.4969 13.4555 23.4772 13.568 23.4772C13.6804 23.4772 13.7917 23.4969 13.8956 23.5351C13.9995 23.5734 14.0939 23.6295 14.1734 23.7002C14.2529 23.7709 14.316 23.8548 14.359 23.9472C14.402 24.0396 14.4242 24.1386 14.4242 24.2386C14.4242 24.4405 14.3339 24.6342 14.1734 24.777C14.0128 24.9198 13.795 25 13.568 25C13.3409 25 13.1231 24.9198 12.9626 24.777C12.802 24.6342 12.7118 24.4405 12.7118 24.2386ZM15.5657 12.3096C15.4927 12.2041 15.4498 12.0844 15.4406 11.9608C15.4314 11.8372 15.4563 11.7135 15.513 11.6004C15.5698 11.4873 15.6567 11.3882 15.7663 11.3117C15.8758 11.2352 16.0047 11.1836 16.1418 11.1615C16.2788 11.1393 16.4198 11.1472 16.5527 11.1845C16.6855 11.2218 16.8061 11.2874 16.904 11.3755C17.0019 11.4636 17.0741 11.5716 17.1144 11.6902C17.1548 11.8087 17.1619 11.9342 17.1354 12.0558C17.1025 12.2063 17.0193 12.3445 16.8967 12.4523C16.774 12.56 16.6177 12.6323 16.4481 12.6598C16.2785 12.6872 16.1035 12.6684 15.9461 12.606C15.7886 12.5435 15.6561 12.4402 15.5657 12.3096ZM16.7073 16.1168C16.6695 15.9148 16.7234 15.7078 16.8572 15.5412C16.991 15.3746 17.1937 15.2621 17.4208 15.2284C17.6479 15.1948 17.8807 15.2427 18.068 15.3617C18.2553 15.4807 18.3818 15.661 18.4197 15.8629C18.4384 15.9629 18.4348 16.0652 18.4091 16.164C18.3834 16.2627 18.336 16.356 18.2698 16.4385C18.2035 16.521 18.1197 16.5911 18.023 16.6447C17.9262 16.6984 17.8186 16.7346 17.7062 16.7513C17.5937 16.7679 17.4787 16.7647 17.3677 16.7419C17.2566 16.719 17.1517 16.6769 17.059 16.618C16.9662 16.5591 16.8874 16.4845 16.8271 16.3985C16.7667 16.3125 16.726 16.2167 16.7073 16.1168ZM17.9916 19.9239C17.9728 19.8239 17.9764 19.7216 18.0021 19.6228C18.0278 19.5241 18.0752 19.4308 18.1414 19.3483C18.2077 19.2658 18.2916 19.1957 18.3883 19.1421C18.485 19.0884 18.5926 19.0522 18.705 19.0355C18.8175 19.0189 18.9325 19.0221 19.0436 19.0449C19.1546 19.0678 19.2595 19.1099 19.3523 19.1688C19.445 19.2277 19.5238 19.3023 19.5841 19.3883C19.6445 19.4743 19.6852 19.5701 19.7039 19.6701C19.7418 19.872 19.6879 20.079 19.5541 20.2456C19.4202 20.4122 19.2175 20.5247 18.9904 20.5584C18.7634 20.592 18.5306 20.5441 18.3432 20.4251C18.1559 20.3061 18.0294 20.1258 17.9916 19.9239ZM19.2758 23.9848C19.238 23.7828 19.2919 23.5758 19.4257 23.4092C19.5595 23.2426 19.7622 23.1301 19.9893 23.0964C20.2164 23.0628 20.4492 23.1107 20.6365 23.2297C20.8238 23.3487 20.9503 23.529 20.9882 23.731C21.0069 23.831 21.0033 23.9333 20.9776 24.032C20.9519 24.1308 20.9046 24.2241 20.8383 24.3065C20.7721 24.389 20.6882 24.4591 20.5915 24.5128C20.4948 24.5664 20.3871 24.6026 20.2747 24.6193C20.1623 24.636 20.0472 24.6328 19.9362 24.6099C19.8252 24.587 19.7203 24.5449 19.6275 24.486C19.4402 24.367 19.3137 24.1867 19.2758 23.9848ZM13.1399 3.4264L17.8489 8.12183C17.9753 8.28949 18.0495 8.48396 18.0639 8.68543C18.0783 8.88689 18.0324 9.08815 17.9309 9.26871C17.8294 9.44927 17.6759 9.60268 17.486 9.71331C17.2961 9.82393 17.0767 9.88782 16.85 9.89848H4.4354C4.22099 9.86827 4.01869 9.79023 3.8474 9.67163C3.67611 9.55304 3.54141 9.39776 3.4559 9.22032C3.37039 9.04287 3.33685 8.84904 3.35841 8.65694C3.37998 8.46484 3.45595 8.28074 3.57922 8.12183L8.28821 3.29949V1.14213C8.28821 0.507614 8.85899 0 9.42978 0H11.8556C12.5691 0 13.1399 0.507614 13.1399 1.14213V3.4264ZM7.00394 8.37564C6.71855 8.37564 6.57585 8.12183 6.57585 7.86802C6.57585 7.61421 6.71855 7.36041 7.00394 7.36041H14.4242C14.7095 7.36041 14.8522 7.61421 14.8522 7.86802C14.8522 8.12183 14.7095 8.37564 14.4242 8.37564H7.00394Z" fill="#292F37"/>
</mask>
<g mask="url(#mask0_95_1172)">
<path fill-rule="evenodd" clip-rule="evenodd" d="M-5.69604 -2.03027H27.1241V27.1575H-5.69604V-2.03027Z" fill="#FC7201"/>
</g>
</svg>
