<svg width="23" height="26" viewBox="0 0 23 26" fill="none" xmlns="http://www.w3.org/2000/svg">
<path d="M17.023 12.328C19.7719 12.328 22 9.7924 22 6.664C22 3.5356 19.7719 1 17.023 1C14.2751 1 12.047 3.5356 12.047 6.664C12.047 8.1136 12.6256 9.1672 12.6256 9.1672L6.60802 16.0168C6.33817 16.324 5.96017 17.1232 6.60802 17.8612L7.30207 18.6508C7.57192 18.9148 8.25127 19.2832 8.80672 18.6508L9.61627 17.7292C10.4269 18.6508 11.353 18.124 11.6995 17.5972C12.2791 16.6756 11.584 15.7528 11.584 15.7528L11.815 15.4888C12.9269 16.7536 13.8992 16.0168 14.2457 15.4888C14.8243 14.5672 14.2457 13.6456 14.2457 13.6456C14.0147 13.1176 13.5517 13.1176 14.1302 12.46L14.8243 11.6692C15.3808 12.1972 16.5221 12.3292 17.024 12.3292L17.023 12.328Z" stroke="#FC7201" stroke-linejoin="round"/>
<path d="M1 12.988C1 18.6508 1 21.4816 2.5393 23.2408C4.0786 25 6.5545 25 11.5105 25C16.4665 25 18.9424 25 20.4817 23.2408C21.6524 21.9028 21.9328 19.9444 22 16.5916M8.35735 1C5.42365 1.0768 3.71005 1.396 2.5393 2.7352C1.51345 3.9076 1.17115 5.5552 1.0567 8.2" stroke="#FC7201" stroke-linecap="round"/>
</svg>
