<svg width="26" height="25" viewBox="0 0 26 25" fill="none" xmlns="http://www.w3.org/2000/svg">
<path d="M3.2667 18.6325L2.76399 18.9701L3.19001 19.3993L3.1902 19.3995L3.19025 19.3995L3.19038 19.3996L3.19061 19.3999L3.19321 19.4026L3.20868 19.4187C3.22309 19.434 3.24549 19.4581 3.27475 19.4907C3.3333 19.556 3.41914 19.6553 3.52323 19.7864C3.73166 20.0488 4.01182 20.4367 4.29237 20.9312C4.79773 21.8221 5.29678 23.0456 5.39262 24.5H1.68182V4.07143H11.2428C11.1973 4.35929 11.1295 4.74944 11.033 5.21934C10.815 6.28057 10.4516 7.7447 9.87061 9.35404C8.70406 12.5856 6.68374 16.3378 3.2667 18.6325ZM14.7572 4.07143H24.3182V24.5H20.6074C20.7032 23.0456 21.2023 21.8221 21.7076 20.9312C21.9882 20.4367 22.2683 20.0488 22.4768 19.7864C22.5809 19.6553 22.6667 19.556 22.7252 19.4907C22.7545 19.4581 22.7769 19.434 22.7913 19.4187L22.8068 19.4026L22.8094 19.3999L22.8096 19.3996L22.8098 19.3995L22.8098 19.3995L22.81 19.3993L23.236 18.9701L22.7333 18.6325C19.3163 16.3378 17.2959 12.5856 16.1294 9.35404C15.5484 7.7447 15.185 6.28057 14.967 5.21934C14.8705 4.74944 14.8027 4.35929 14.7572 4.07143ZM25.5 1.88095H0.5V0.5H25.5V1.88095Z" stroke="#FC7201"/>
</svg>
