<svg width="25" height="24" viewBox="0 0 25 24" fill="none" xmlns="http://www.w3.org/2000/svg">
<path d="M18.35 20.825V23.6H7.48333V20.825V20.425H7.08333H1.25045C1.01983 20.4247 0.801856 20.3365 0.643556 20.1846C0.485863 20.0332 0.400311 19.8315 0.4 19.6247V4.82527C0.400311 4.6185 0.485863 4.41682 0.643556 4.26544C0.801774 4.11355 1.0196 4.02535 1.25009 4.025C1.25021 4.025 1.25033 4.025 1.25045 4.025L10.0976 4.025H11.0918L10.3746 3.33645L7.31577 0.4H8.51757L12.1775 3.91355L12.2936 4.025H12.4545H12.5715H12.7324L12.8485 3.91355L16.5085 0.4H17.7103L14.6515 3.33645L13.9342 4.025H14.9285L23.7496 4.025C23.7497 4.025 23.7498 4.025 23.7499 4.025C23.9804 4.02535 24.1982 4.11355 24.3564 4.26544C24.5142 4.41688 24.5998 4.61864 24.6 4.82548V19.6245C24.5998 19.8314 24.5142 20.0331 24.3564 20.1846C24.1981 20.3365 23.9802 20.4247 23.7496 20.425H18.75H18.35V20.825ZM17.0833 22.8H17.4833V22.4V20.825V20.425H17.0833H8.75H8.35V20.825V22.4V22.8H8.75H17.0833Z" stroke="#FC7201" stroke-width="0.8"/>
<path d="M8.8327 8.83287C10.5819 7.0837 13.4181 7.0837 15.1673 8.83287C16.9165 10.582 16.9165 13.4183 15.1673 15.1675C13.4181 16.9166 10.5819 16.9166 8.8327 15.1675" stroke="#FC7201" stroke-width="0.625" stroke-linecap="round" stroke-linejoin="round"/>
<path d="M14.0833 11.9998L10.75 10.0752V13.9244L14.0833 11.9998Z" stroke="#FC7201" stroke-width="0.625" stroke-linecap="round" stroke-linejoin="round"/>
</svg>
