<svg width="30" height="30" viewBox="0 0 30 30" fill="none" xmlns="http://www.w3.org/2000/svg">
<g clip-path="url(#clip0_114_269)">
<path d="M7.99999 19.0667V8.83333H20.3333L21.65 7.5H6.66666V19.0667H7.99999Z" fill="#FC7201"/>
<path d="M5.00001 5.83317H25V19.1665H26.6667V5.4165C26.6667 5.08498 26.535 4.76704 26.3006 4.53262C26.0661 4.2982 25.7482 4.1665 25.4167 4.1665H4.58334C4.25182 4.1665 3.93388 4.2982 3.69946 4.53262C3.46504 4.76704 3.33334 5.08498 3.33334 5.4165V19.1665H5.00001V5.83317Z" fill="#FC7201"/>
<path d="M0.833344 20.8335V23.6668C0.833344 24.2415 1.06162 24.7926 1.46795 25.1989C1.87427 25.6052 2.42537 25.8335 3.00001 25.8335H26.95C27.5246 25.8335 28.0757 25.6052 28.4821 25.1989C28.8884 24.7926 29.1167 24.2415 29.1167 23.6668V20.8335H0.833344ZM27.5 23.6668C27.5 23.7994 27.4473 23.9266 27.3536 24.0204C27.2598 24.1142 27.1326 24.1668 27 24.1668H2.96668C2.83407 24.1668 2.70689 24.1142 2.61312 24.0204C2.51936 23.9266 2.46668 23.7994 2.46668 23.6668V22.1085H10.7583C10.8625 22.3543 11.0364 22.5642 11.2586 22.7123C11.4807 22.8604 11.7414 22.9402 12.0083 22.9418H17.95C18.217 22.9402 18.4776 22.8604 18.6998 22.7123C18.9219 22.5642 19.0958 22.3543 19.2 22.1085H27.5V23.6668Z" fill="#FC7201"/>
</g>
<defs>
<clipPath id="clip0_114_269">
<rect width="30" height="30" fill="white"/>
</clipPath>
</defs>
</svg>
