<svg width="26" height="26" viewBox="0 0 26 26" fill="none" xmlns="http://www.w3.org/2000/svg">
<path fill-rule="evenodd" clip-rule="evenodd" d="M23.1833 0C23.8729 0 24.5342 0.273928 25.0218 0.761522C25.5094 1.24912 25.7833 1.91044 25.7833 2.6V9.1C25.7833 9.78956 25.5094 10.4509 25.0218 10.9385C24.5342 11.4261 23.8729 11.7 23.1833 11.7H2.6C1.91044 11.7 1.24912 11.4261 0.761522 10.9385C0.273928 10.4509 0 9.78956 0 9.1V2.6C0 1.91044 0.273928 1.24912 0.761522 0.761522C1.24912 0.273928 1.91044 0 2.6 0H23.1833ZM23.1833 10.8333H21.9917V10.1833C21.9917 9.78109 21.8319 9.39532 21.5474 9.11089C21.263 8.82646 20.8772 8.66667 20.475 8.66667H5.30833C4.90609 8.66667 4.52032 8.82646 4.23589 9.11089C3.95146 9.39532 3.79167 9.78109 3.79167 10.1833V10.8333H2.6C2.14029 10.8333 1.69941 10.6507 1.37435 10.3257C1.04929 10.0006 0.866667 9.55971 0.866667 9.1V2.6C0.866667 2.14029 1.04929 1.69941 1.37435 1.37435C1.69941 1.04929 2.14029 0.866667 2.6 0.866667H23.1833C23.643 0.866667 24.0839 1.04929 24.409 1.37435C24.734 1.69941 24.9167 2.14029 24.9167 2.6V9.1C24.9167 9.55971 24.734 10.0006 24.409 10.3257C24.0839 10.6507 23.643 10.8333 23.1833 10.8333ZM21.125 10.8333H4.65833V10.1833C4.65833 10.0109 4.72682 9.84561 4.84871 9.72371C4.97061 9.60182 5.13594 9.53333 5.30833 9.53333H20.475C20.5604 9.53333 20.6449 9.55015 20.7237 9.58281C20.8026 9.61548 20.8743 9.66336 20.9346 9.72371C20.995 9.78407 21.0429 9.85573 21.0755 9.93459C21.1082 10.0134 21.125 10.098 21.125 10.1833V10.8333ZM3.14167 2.70833C3.14167 2.88072 3.07318 3.04605 2.95129 3.16795C2.82939 3.28985 2.66406 3.35833 2.49167 3.35833C2.31928 3.35833 2.15395 3.28985 2.03205 3.16795C1.91015 3.04605 1.84167 2.88072 1.84167 2.70833C1.84167 2.53594 1.91015 2.37061 2.03205 2.24871C2.15395 2.12682 2.31928 2.05833 2.49167 2.05833C2.66406 2.05833 2.82939 2.12682 2.95129 2.24871C3.07318 2.37061 3.14167 2.53594 3.14167 2.70833ZM4.44167 3.35833C4.61406 3.35833 4.77939 3.28985 4.90129 3.16795C5.02319 3.04605 5.09167 2.88072 5.09167 2.70833C5.09167 2.53594 5.02319 2.37061 4.90129 2.24871C4.77939 2.12682 4.61406 2.05833 4.44167 2.05833C4.26928 2.05833 4.10395 2.12682 3.98205 2.24871C3.86015 2.37061 3.79167 2.53594 3.79167 2.70833C3.79167 2.88072 3.86015 3.04605 3.98205 3.16795C4.10395 3.28985 4.26928 3.35833 4.44167 3.35833ZM7.04167 2.70833C7.04167 2.88072 6.97319 3.04605 6.85129 3.16795C6.72939 3.28985 6.56406 3.35833 6.39167 3.35833C6.21928 3.35833 6.05395 3.28985 5.93205 3.16795C5.81015 3.04605 5.74167 2.88072 5.74167 2.70833C5.74167 2.53594 5.81015 2.37061 5.93205 2.24871C6.05395 2.12682 6.21928 2.05833 6.39167 2.05833C6.56406 2.05833 6.72939 2.12682 6.85129 2.24871C6.97319 2.37061 7.04167 2.53594 7.04167 2.70833ZM12.675 13.1083C12.5888 13.0221 12.4719 12.9737 12.35 12.9737C12.2281 12.9737 12.1112 13.0221 12.025 13.1083C11.9388 13.1945 11.8904 13.3114 11.8904 13.4333C11.8904 13.5552 11.9388 13.6721 12.025 13.7583L12.5667 14.4083C12.7776 14.6896 12.8917 15.0317 12.8917 15.3833C12.8917 15.7349 12.7776 16.0771 12.5667 16.3583C12.1777 16.8104 11.9639 17.387 11.9639 17.9833C11.9639 18.5797 12.1777 19.1563 12.5667 19.6083L13.1083 20.2583C13.1945 20.3445 13.3114 20.393 13.4333 20.393C13.5552 20.393 13.6721 20.3445 13.7583 20.2583C13.8445 20.1721 13.893 20.0552 13.893 19.9333C13.893 19.8114 13.8445 19.6945 13.7583 19.6083L13.2167 18.9583C13.0057 18.6771 12.8917 18.3349 12.8917 17.9833C12.8917 17.6317 13.0057 17.2896 13.2167 17.0083C13.6056 16.5563 13.8195 15.9797 13.8195 15.3833C13.8195 14.787 13.6056 14.2104 13.2167 13.7583L12.675 13.1083ZM16.3583 14.1917C16.399 14.1456 16.449 14.1086 16.505 14.0833C16.5611 14.058 16.6219 14.045 16.6833 14.045C16.7448 14.045 16.8056 14.058 16.8616 14.0833C16.9177 14.1086 16.9677 14.1456 17.0083 14.1917L17.55 14.8417C17.9389 15.2937 18.1528 15.8703 18.1528 16.4667C18.1528 17.063 17.9389 17.6396 17.55 18.0917C17.339 18.3729 17.225 18.7151 17.225 19.0667C17.225 19.4183 17.339 19.7604 17.55 20.0417L18.0917 20.6917C18.1779 20.7779 18.2263 20.8948 18.2263 21.0167C18.2263 21.1386 18.1779 21.2555 18.0917 21.3417C18.0055 21.4279 17.8886 21.4763 17.7667 21.4763C17.6448 21.4763 17.5279 21.4279 17.4417 21.3417L16.9 20.6917C16.5111 20.2396 16.2972 19.663 16.2972 19.0667C16.2972 18.4703 16.5111 17.8937 16.9 17.4417C17.111 17.1604 17.225 16.8183 17.225 16.4667C17.225 16.1151 17.111 15.7729 16.9 15.4917L16.3583 14.8417C16.3122 14.801 16.2753 14.751 16.25 14.695C16.2247 14.6389 16.2116 14.5781 16.2116 14.5167C16.2116 14.4552 16.2247 14.3944 16.25 14.3384C16.2753 14.2823 16.3122 14.2323 16.3583 14.1917ZM8.34167 14.1917C8.25547 14.1055 8.13857 14.057 8.01667 14.057C7.89477 14.057 7.77786 14.1055 7.69167 14.1917C7.60547 14.2779 7.55705 14.3948 7.55705 14.5167C7.55705 14.6386 7.60547 14.7555 7.69167 14.8417L8.23333 15.4917C8.44429 15.7729 8.55833 16.1151 8.55833 16.4667C8.55833 16.8183 8.44429 17.1604 8.23333 17.4417C7.84441 17.8937 7.63052 18.4703 7.63052 19.0667C7.63052 19.663 7.84441 20.2396 8.23333 20.6917L8.775 21.3417C8.86119 21.4279 8.9781 21.4763 9.1 21.4763C9.2219 21.4763 9.33881 21.4279 9.425 21.3417C9.5112 21.2555 9.55962 21.1386 9.55962 21.0167C9.55962 20.8948 9.5112 20.7779 9.425 20.6917L8.88333 20.0417C8.67237 19.7604 8.55833 19.4183 8.55833 19.0667C8.55833 18.7151 8.67237 18.3729 8.88333 18.0917C9.27226 17.6396 9.48614 17.063 9.48614 16.4667C9.48614 15.8703 9.27226 15.2937 8.88333 14.8417L8.34167 14.1917ZM2.05833 5.41667C1.94341 5.41667 1.83319 5.46232 1.75192 5.54359C1.67065 5.62485 1.625 5.73507 1.625 5.85C1.625 5.96493 1.67065 6.07515 1.75192 6.15641C1.83319 6.23768 1.94341 6.28333 2.05833 6.28333H23.725C23.8399 6.28333 23.9501 6.23768 24.0314 6.15641C24.1127 6.07515 24.1583 5.96493 24.1583 5.85C24.1583 5.73507 24.1127 5.62485 24.0314 5.54359C23.9501 5.46232 23.8399 5.41667 23.725 5.41667H2.05833Z" fill="#FC7201"/>
</svg>
