<svg width="22" height="24" viewBox="0 0 22 24" fill="none" xmlns="http://www.w3.org/2000/svg">
<path d="M5.51705 12.7462C6.16476 12.7462 6.81246 12.6166 7.20109 12.3576C7.26063 12.3235 7.32629 12.3016 7.39431 12.2929C7.46234 12.2843 7.53141 12.2891 7.59757 12.3071C7.66373 12.3252 7.72568 12.3561 7.7799 12.3981C7.83412 12.4401 7.87954 12.4923 7.91356 12.5519C7.94758 12.6114 7.96955 12.6771 7.9782 12.7451C7.98684 12.8131 7.98201 12.8822 7.96396 12.9483C7.94592 13.0145 7.91502 13.0765 7.87303 13.1307C7.83105 13.1849 7.77879 13.2303 7.71925 13.2643C7.11694 13.5763 6.45381 13.7532 5.77613 13.7825V21.9436C5.77613 21.9779 5.78978 22.0109 5.81407 22.0352C5.83837 22.0595 5.87132 22.0731 5.90567 22.0731H17.953C17.9874 22.0731 18.0203 22.0595 18.0446 22.0352C18.0689 22.0109 18.0825 21.9779 18.0825 21.9436V13.2643C18.0825 13.1269 18.1371 12.9951 18.2343 12.8979C18.3315 12.8008 18.4633 12.7462 18.6007 12.7462C19.1336 12.6952 19.6495 12.531 20.1138 12.2644C20.5781 11.9979 20.98 11.6352 21.2927 11.2006C21.6054 10.7661 21.8215 10.2697 21.9267 9.74477C22.032 9.21985 22.0238 8.67851 21.9027 8.15702C21.7816 7.63553 21.5505 7.14594 21.2248 6.72106C20.8991 6.29617 20.4864 5.9458 20.0142 5.69343C19.5421 5.44106 19.0215 5.29252 18.4872 5.25776C17.953 5.223 17.4175 5.30282 16.9167 5.49187C16.8551 5.54547 16.7817 5.58375 16.7025 5.60359C16.6233 5.62344 16.5406 5.6243 16.461 5.60609C16.3814 5.58788 16.3072 5.55113 16.2445 5.49882C16.1819 5.44651 16.1324 5.38013 16.1003 5.30509C16.0681 5.23005 16.0541 5.14847 16.0595 5.06701C16.0648 4.98554 16.0894 4.90649 16.1311 4.83631C16.1728 4.76612 16.2305 4.70678 16.2994 4.66312C16.3684 4.61946 16.4468 4.59273 16.528 4.58509C17.6448 4.47524 18.7647 4.7607 19.6926 5.39174C20.6205 6.02278 21.2976 6.95938 21.6058 8.03834C21.9141 9.11731 21.834 10.2702 21.3796 11.2962C20.9251 12.3222 20.1251 13.1562 19.1189 13.653V21.9436C19.1189 22.0967 19.0887 22.2483 19.0301 22.3898C18.9715 22.5312 18.8857 22.6597 18.7774 22.768C18.6691 22.8762 18.5406 22.9621 18.3992 23.0207C18.2577 23.0793 18.1061 23.1095 17.953 23.1095H5.90567C5.59647 23.1095 5.29992 22.9866 5.08128 22.768C4.86264 22.5493 4.73981 22.2528 4.73981 21.9436V13.653C4.03083 13.6451 3.33243 13.48 2.69495 13.1697C2.05747 12.8593 1.49678 12.4114 1.0533 11.8582C0.609829 11.305 0.29461 10.6603 0.130369 9.97052C-0.0338722 9.28078 -0.0430445 8.5632 0.103513 7.8695C0.250071 7.17579 0.548708 6.52324 0.977899 5.95888C1.40709 5.39452 1.95614 4.9324 2.58548 4.60585C3.21483 4.27929 3.90878 4.09643 4.61732 4.07044C5.32586 4.04445 6.03135 4.17598 6.68292 4.45555C6.86329 3.3506 7.38821 2.33091 8.18271 1.54211C8.97722 0.753308 10.0007 0.235749 11.1069 0.0633515C12.2131 -0.109046 13.3455 0.0725351 14.3424 0.582161C15.3392 1.09179 16.1495 1.90339 16.6576 2.90105C16.6916 2.96059 16.7136 3.02625 16.7222 3.09428C16.7309 3.16231 16.726 3.23137 16.708 3.29753C16.6899 3.36369 16.659 3.42565 16.6171 3.47987C16.5751 3.53409 16.5228 3.57951 16.4633 3.61353C16.4037 3.64755 16.3381 3.66951 16.27 3.67816C16.202 3.68681 16.133 3.68198 16.0668 3.66393C16.0006 3.64589 15.9387 3.61499 15.8845 3.573C15.8302 3.53101 15.7848 3.47876 15.7508 3.41922C15.3482 2.5394 14.6591 1.82216 13.7961 1.38475C12.9331 0.947346 11.9472 0.815644 10.9996 1.01118C10.052 1.20671 9.1988 1.71791 8.57942 2.46121C7.96003 3.20451 7.61111 4.13595 7.58971 5.10325C7.5747 5.17242 7.54568 5.23777 7.50444 5.29529C7.4632 5.35281 7.41061 5.40126 7.34993 5.43768C7.28924 5.47409 7.22173 5.49769 7.15158 5.50701C7.08142 5.51633 7.01009 5.51118 6.942 5.49187C6.4352 5.29543 5.8918 5.21131 5.34932 5.24531C4.80684 5.27931 4.27819 5.43062 3.79988 5.6888C3.32157 5.94699 2.90498 6.30589 2.57886 6.74074C2.25275 7.17559 2.02489 7.67602 1.911 8.2075C1.79711 8.73899 1.79991 9.28885 1.91921 9.81914C2.0385 10.3494 2.27145 10.8475 2.60197 11.279C2.9325 11.7105 3.35272 12.0652 3.83364 12.3185C4.31455 12.5718 4.84471 12.7177 5.38751 12.7462H5.51705ZM7.33063 19.8709C7.1932 19.8709 7.0614 19.8163 6.96423 19.7192C6.86705 19.622 6.81246 19.4902 6.81246 19.3528C6.81246 19.2153 6.86705 19.0835 6.96423 18.9864C7.0614 18.8892 7.1932 18.8346 7.33063 18.8346H16.3985C16.5359 18.8346 16.6677 18.8892 16.7649 18.9864C16.8621 19.0835 16.9167 19.2153 16.9167 19.3528C16.9167 19.4902 16.8621 19.622 16.7649 19.7192C16.6677 19.8163 16.5359 19.8709 16.3985 19.8709H7.33063Z" fill="#FC7201"/>
<mask id="mask0_95_1550" style="mask-type:luminance" maskUnits="userSpaceOnUse" x="0" y="0" width="22" height="24">
<path d="M5.51705 12.7462C6.16476 12.7462 6.81246 12.6166 7.20109 12.3576C7.26063 12.3235 7.32629 12.3016 7.39431 12.2929C7.46234 12.2843 7.53141 12.2891 7.59757 12.3071C7.66373 12.3252 7.72568 12.3561 7.7799 12.3981C7.83412 12.4401 7.87954 12.4923 7.91356 12.5519C7.94758 12.6114 7.96955 12.6771 7.9782 12.7451C7.98684 12.8131 7.98201 12.8822 7.96396 12.9483C7.94592 13.0145 7.91502 13.0765 7.87303 13.1307C7.83105 13.1849 7.77879 13.2303 7.71925 13.2643C7.11694 13.5763 6.45381 13.7532 5.77613 13.7825V21.9436C5.77613 21.9779 5.78978 22.0109 5.81407 22.0352C5.83837 22.0595 5.87132 22.0731 5.90567 22.0731H17.953C17.9874 22.0731 18.0203 22.0595 18.0446 22.0352C18.0689 22.0109 18.0825 21.9779 18.0825 21.9436V13.2643C18.0825 13.1269 18.1371 12.9951 18.2343 12.8979C18.3315 12.8008 18.4633 12.7462 18.6007 12.7462C19.1336 12.6952 19.6495 12.531 20.1138 12.2644C20.5781 11.9979 20.98 11.6352 21.2927 11.2006C21.6054 10.7661 21.8215 10.2697 21.9267 9.74477C22.032 9.21985 22.0238 8.67851 21.9027 8.15702C21.7816 7.63553 21.5505 7.14594 21.2248 6.72106C20.8991 6.29617 20.4864 5.9458 20.0142 5.69343C19.5421 5.44106 19.0215 5.29252 18.4872 5.25776C17.953 5.223 17.4175 5.30282 16.9167 5.49187C16.8551 5.54547 16.7817 5.58375 16.7025 5.60359C16.6233 5.62344 16.5406 5.6243 16.461 5.60609C16.3814 5.58788 16.3072 5.55113 16.2445 5.49882C16.1819 5.44651 16.1324 5.38013 16.1003 5.30509C16.0681 5.23005 16.0541 5.14847 16.0595 5.06701C16.0648 4.98554 16.0894 4.90649 16.1311 4.83631C16.1728 4.76612 16.2305 4.70678 16.2994 4.66312C16.3684 4.61946 16.4468 4.59273 16.528 4.58509C17.6448 4.47524 18.7647 4.7607 19.6926 5.39174C20.6205 6.02278 21.2976 6.95938 21.6058 8.03834C21.9141 9.11731 21.834 10.2702 21.3796 11.2962C20.9251 12.3222 20.1251 13.1562 19.1189 13.653V21.9436C19.1189 22.0967 19.0887 22.2483 19.0301 22.3898C18.9715 22.5312 18.8857 22.6597 18.7774 22.768C18.6691 22.8762 18.5406 22.9621 18.3992 23.0207C18.2577 23.0793 18.1061 23.1095 17.953 23.1095H5.90567C5.59647 23.1095 5.29992 22.9866 5.08128 22.768C4.86264 22.5493 4.73981 22.2528 4.73981 21.9436V13.653C4.03083 13.6451 3.33243 13.48 2.69495 13.1697C2.05747 12.8593 1.49678 12.4114 1.0533 11.8582C0.609829 11.305 0.29461 10.6603 0.130369 9.97052C-0.0338722 9.28078 -0.0430445 8.5632 0.103513 7.8695C0.250071 7.17579 0.548708 6.52324 0.977899 5.95888C1.40709 5.39452 1.95614 4.9324 2.58548 4.60585C3.21483 4.27929 3.90878 4.09643 4.61732 4.07044C5.32586 4.04445 6.03135 4.17598 6.68292 4.45555C6.86329 3.3506 7.38821 2.33091 8.18271 1.54211C8.97722 0.753308 10.0007 0.235749 11.1069 0.0633515C12.2131 -0.109046 13.3455 0.0725351 14.3424 0.582161C15.3392 1.09179 16.1495 1.90339 16.6576 2.90105C16.6916 2.96059 16.7136 3.02625 16.7222 3.09428C16.7309 3.16231 16.726 3.23137 16.708 3.29753C16.6899 3.36369 16.659 3.42565 16.6171 3.47987C16.5751 3.53409 16.5228 3.57951 16.4633 3.61353C16.4037 3.64755 16.3381 3.66951 16.27 3.67816C16.202 3.68681 16.133 3.68198 16.0668 3.66393C16.0006 3.64589 15.9387 3.61499 15.8845 3.573C15.8302 3.53101 15.7848 3.47876 15.7508 3.41922C15.3482 2.5394 14.6591 1.82216 13.7961 1.38475C12.9331 0.947346 11.9472 0.815644 10.9996 1.01118C10.052 1.20671 9.1988 1.71791 8.57942 2.46121C7.96003 3.20451 7.61111 4.13595 7.58971 5.10325C7.5747 5.17242 7.54568 5.23777 7.50444 5.29529C7.4632 5.35281 7.41061 5.40126 7.34993 5.43768C7.28924 5.47409 7.22173 5.49769 7.15158 5.50701C7.08142 5.51633 7.01009 5.51118 6.942 5.49187C6.4352 5.29543 5.8918 5.21131 5.34932 5.24531C4.80684 5.27931 4.27819 5.43062 3.79988 5.6888C3.32157 5.94699 2.90498 6.30589 2.57886 6.74074C2.25275 7.17559 2.02489 7.67602 1.911 8.2075C1.79711 8.73899 1.79991 9.28885 1.91921 9.81914C2.0385 10.3494 2.27145 10.8475 2.60197 11.279C2.9325 11.7105 3.35272 12.0652 3.83364 12.3185C4.31455 12.5718 4.84471 12.7177 5.38751 12.7462H5.51705ZM7.33063 19.8709C7.1932 19.8709 7.0614 19.8163 6.96423 19.7192C6.86705 19.622 6.81246 19.4902 6.81246 19.3528C6.81246 19.2153 6.86705 19.0835 6.96423 18.9864C7.0614 18.8892 7.1932 18.8346 7.33063 18.8346H16.3985C16.5359 18.8346 16.6677 18.8892 16.7649 18.9864C16.8621 19.0835 16.9167 19.2153 16.9167 19.3528C16.9167 19.4902 16.8621 19.622 16.7649 19.7192C16.6677 19.8163 16.5359 19.8709 16.3985 19.8709H7.33063Z" fill="#292F37"/>
</mask>
<g mask="url(#mask0_95_1550)">
<path fill-rule="evenodd" clip-rule="evenodd" d="M-2.77359 -3.31738H27.0209V26.4771H-2.77359V-3.31738Z" fill="#FC7201"/>
</g>
</svg>
