<svg width="21" height="23" viewBox="0 0 21 23" fill="none" xmlns="http://www.w3.org/2000/svg">
<path d="M9.6 6.25V6.65H10H17.5C18.6423 6.65 19.609 7.58732 19.725 8.76884V12.5C19.725 13.6541 18.7791 14.6 17.625 14.6H15.125H14.725V15V18.75V19.4974L15.3469 19.0828C16.0022 18.646 16.5681 18.2065 17.1207 17.6864L18.3046 18.8702C16.1536 20.8809 13.2457 22.1 10 22.1C6.74779 22.1 3.83774 20.8763 1.68772 18.753L2.88272 17.558C3.46928 18.0853 4.12978 18.5256 4.76201 18.9471L4.77812 18.9578L5.4 19.3724V18.625V15V14.6H5H2.5C1.34591 14.6 0.4 13.6541 0.4 12.5V5C0.4 2.47091 2.47091 0.4 5 0.4H9.6V6.25ZM12.6265 20.1295L12.9 20.0383V19.75V15V14.6H12.5H7.5H7.1V15V19.75V20.0889L7.43424 20.1446C8.18864 20.2703 9.09049 20.4 10 20.4H10.0358C10.8847 20.4001 11.8146 20.4001 12.6265 20.1295ZM17.5 12.9H17.9V12.5V8.75V8.35H17.5H7.9V2.5V2.1H7.5H5C3.40409 2.1 2.1 3.40409 2.1 5V12.5V12.9H2.5H17.5Z" stroke="#FC7201" stroke-width="0.8"/>
</svg>
