<svg width="22" height="24" viewBox="0 0 22 24" fill="none" xmlns="http://www.w3.org/2000/svg">
<path d="M21.2452 21.2945C21.2452 21.045 21.1543 20.8056 20.9926 20.6291C20.8308 20.4526 20.6114 20.3535 20.3826 20.3535H1.62096C1.39218 20.3535 1.17277 20.4526 1.011 20.6291C0.849234 20.8056 0.758353 21.045 0.758353 21.2945V22.1179C0.758353 22.5884 1.18965 23.059 1.62096 23.059H20.3826C20.4959 23.059 20.6081 23.0346 20.7127 22.9873C20.8174 22.94 20.9125 22.8707 20.9926 22.7833C21.0727 22.696 21.1362 22.5922 21.1796 22.4781C21.2229 22.3639 21.2452 22.2415 21.2452 22.1179V21.2945ZM3.66964 16.5894H18.3339C18.4559 16.6061 18.5798 16.5943 18.6972 16.5545C18.8147 16.5148 18.923 16.4482 19.0149 16.3591C19.1068 16.2699 19.1801 16.1604 19.2301 16.0378C19.28 15.9153 19.3053 15.7825 19.3044 15.6483C19.3044 15.0602 18.8731 14.5897 18.3339 14.5897H3.66964C3.54765 14.5729 3.42379 14.5848 3.30635 14.6245C3.18891 14.6642 3.08061 14.7309 2.98871 14.82C2.89681 14.9091 2.82344 15.0186 2.77351 15.1412C2.72358 15.2638 2.69825 15.3966 2.69921 15.5307C2.69921 16.1188 3.13052 16.5894 3.66964 16.5894ZM17.687 11.4137H3.66964C5.07138 12.3547 7.65919 13.7663 10.5705 13.7663C13.0198 13.6539 15.3992 12.8427 17.4713 11.4137H17.687ZM3.66964 10.5903H17.7948C16.5009 9.41399 13.8053 7.64955 10.6783 7.64955C7.65919 7.64955 4.96355 9.53162 3.56182 10.5903H3.66964ZM18.3339 19.4125C18.4559 19.4292 18.5798 19.4174 18.6972 19.3776C18.8147 19.3379 18.923 19.2713 19.0149 19.1822C19.1068 19.093 19.1801 18.9835 19.2301 18.8609C19.28 18.7384 19.3053 18.6056 19.3044 18.4714C19.3044 17.8833 18.8731 17.4128 18.3339 17.4128H3.66964C3.54765 17.396 3.42379 17.4079 3.30635 17.4476C3.18891 17.4873 3.08061 17.554 2.98871 17.6431C2.89681 17.7322 2.82344 17.8417 2.77351 17.9643C2.72358 18.0869 2.69825 18.2197 2.69921 18.3538C2.69921 18.9419 3.13052 19.4125 3.66964 19.4125H18.3339ZM22 22.1179C22.0009 22.5974 21.834 23.0591 21.5334 23.4088C21.2328 23.7586 20.8212 23.97 20.3826 24H1.62096C1.39425 23.985 1.17248 23.9214 0.968376 23.8127C0.764273 23.704 0.581853 23.5524 0.431582 23.3666C0.281312 23.1808 0.166148 22.9645 0.0926995 22.73C0.0192509 22.4955 -0.0110371 22.2476 0.00357329 22.0003V21.1769C0.00271416 20.6975 0.169602 20.2358 0.470175 19.886C0.770748 19.5362 1.18234 19.3248 1.62096 19.2948H2.16009C2.01407 19.0071 1.93971 18.6826 1.94443 18.3538C1.94443 17.7657 2.16009 17.1775 2.59139 16.9423C2.39632 16.7721 2.23744 16.5577 2.12574 16.314C2.01404 16.0703 1.95218 15.8031 1.94443 15.5307C1.94443 14.3544 2.69921 13.6486 3.66964 13.6486H6.14963C3.77747 12.7076 2.16009 11.2961 2.05226 11.2961C2.00637 11.2519 1.96961 11.1976 1.94443 11.1368C1.91926 11.0759 1.90624 11.0099 1.90624 10.9432C1.90624 10.8764 1.91926 10.8104 1.94443 10.7496C1.96961 10.6887 2.00637 10.6344 2.05226 10.5903C2.37574 10.4727 6.14963 6.70852 10.7861 6.70852C15.207 6.70852 19.0887 10.4727 19.0887 10.7079C19.15 10.7914 19.1833 10.8951 19.1833 11.002C19.1833 11.1089 19.15 11.2126 19.0887 11.2961C19.0887 11.4137 17.3635 12.8252 14.9913 13.6486H18.2261C18.6837 13.6486 19.1225 13.8469 19.446 14.1999C19.7695 14.5528 19.9513 15.0315 19.9513 15.5307C19.9513 16.1188 19.7357 16.707 19.3044 16.9423C19.6428 17.2235 19.8741 17.6313 19.9537 18.0872C20.0333 18.5432 19.9556 19.0152 19.7357 19.4125H20.2748C20.7134 19.4424 21.125 19.6539 21.4256 20.0036C21.7261 20.3534 21.893 20.8151 21.8922 21.2945V22.1179H22ZM13.4818 3.53254L15.207 0.709437C15.2642 0.600247 15.2793 0.470743 15.2489 0.349415C15.2186 0.228086 15.1453 0.124872 15.0452 0.0624773C14.9452 8.29912e-05 14.8264 -0.0163802 14.7152 0.0167094C14.604 0.049799 14.5094 0.129731 14.4522 0.238921L12.8348 2.94439C12.7837 2.98746 12.7421 3.04249 12.7131 3.10543C12.6842 3.16837 12.6685 3.23761 12.6673 3.30804C12.6661 3.37847 12.6794 3.44829 12.7063 3.51235C12.7331 3.57642 12.7728 3.63309 12.8224 3.67818C12.872 3.72328 12.9303 3.75565 12.9929 3.7729C13.0555 3.79016 13.1208 3.79186 13.1841 3.77788C13.2474 3.7639 13.307 3.7346 13.3585 3.69213C13.41 3.64967 13.4522 3.59513 13.4818 3.53254ZM14.9913 6.00275C15.027 6.00933 15.0635 6.00933 15.0992 6.00275L17.2557 5.4146C17.3271 5.42631 17.4 5.41827 17.4678 5.39124C17.5356 5.3642 17.5961 5.31903 17.6438 5.25986C17.6914 5.20069 17.7247 5.12942 17.7406 5.05257C17.7564 4.97573 17.7543 4.89578 17.7345 4.82005C17.7146 4.74432 17.6777 4.67523 17.627 4.61912C17.5764 4.56301 17.5136 4.52167 17.4445 4.4989C17.3754 4.47612 17.3021 4.47264 17.2315 4.48876C17.1608 4.50489 17.095 4.54011 17.04 4.5912L14.8835 5.17934C14.8201 5.22964 14.7704 5.29785 14.7399 5.37663C14.7093 5.45541 14.6991 5.54179 14.7101 5.62646C14.7212 5.71114 14.7533 5.79092 14.8028 5.85722C14.8524 5.92352 14.9175 5.97383 14.9913 6.00275ZM6.14963 6.00275C6.23146 5.98933 6.30803 5.95051 6.37019 5.89093C6.43236 5.83135 6.4775 5.75352 6.50024 5.66672C6.52297 5.57992 6.52233 5.48781 6.49841 5.4014C6.47448 5.31498 6.42827 5.2379 6.36528 5.17934L4.20877 4.5912C4.15382 4.54011 4.088 4.50489 4.01733 4.48876C3.94666 4.47264 3.87341 4.47612 3.8043 4.4989C3.73518 4.52167 3.67242 4.56301 3.62175 4.61912C3.57109 4.67523 3.53414 4.74432 3.51431 4.82005C3.49448 4.89578 3.49239 4.97573 3.50823 5.05257C3.52408 5.12942 3.55735 5.20069 3.605 5.25986C3.65265 5.31903 3.71316 5.3642 3.78097 5.39124C3.84878 5.41827 3.92172 5.42631 3.99312 5.4146L6.14963 6.00275ZM6.14963 0.827066C6.09244 0.717876 6.07735 0.588372 6.10768 0.467044C6.13801 0.345715 6.21128 0.242501 6.31137 0.180106C6.41146 0.117712 6.53017 0.101249 6.64139 0.134338C6.7526 0.167428 6.84722 0.24736 6.90441 0.35655L8.5218 3.17965C8.58455 3.22022 8.63684 3.27748 8.67379 3.34609C8.71074 3.4147 8.73113 3.49241 8.73306 3.57195C8.735 3.6515 8.71841 3.73028 8.68485 3.80092C8.65129 3.87157 8.60185 3.93178 8.54116 3.97592C8.48047 4.02006 8.41051 4.04669 8.33782 4.05331C8.26513 4.05994 8.19209 4.04634 8.12553 4.0138C8.05897 3.98126 8.00106 3.93083 7.95722 3.86724C7.91337 3.80364 7.88503 3.72896 7.87484 3.65016L6.14963 0.827066Z" fill="#FC7201"/>
<mask id="mask0_95_478" style="mask-type:luminance" maskUnits="userSpaceOnUse" x="0" y="0" width="22" height="24">
<path d="M21.2452 21.2945C21.2452 21.045 21.1543 20.8056 20.9926 20.6291C20.8308 20.4526 20.6114 20.3535 20.3826 20.3535H1.62096C1.39218 20.3535 1.17277 20.4526 1.011 20.6291C0.849234 20.8056 0.758353 21.045 0.758353 21.2945V22.1179C0.758353 22.5884 1.18965 23.059 1.62096 23.059H20.3826C20.4959 23.059 20.6081 23.0346 20.7127 22.9873C20.8174 22.94 20.9125 22.8707 20.9926 22.7833C21.0727 22.696 21.1362 22.5922 21.1796 22.4781C21.2229 22.3639 21.2452 22.2415 21.2452 22.1179V21.2945ZM3.66964 16.5894H18.3339C18.4559 16.6061 18.5798 16.5943 18.6972 16.5545C18.8147 16.5148 18.923 16.4482 19.0149 16.3591C19.1068 16.2699 19.1801 16.1604 19.2301 16.0378C19.28 15.9153 19.3053 15.7825 19.3044 15.6483C19.3044 15.0602 18.8731 14.5897 18.3339 14.5897H3.66964C3.54765 14.5729 3.42379 14.5848 3.30635 14.6245C3.18891 14.6642 3.08061 14.7309 2.98871 14.82C2.89681 14.9091 2.82344 15.0186 2.77351 15.1412C2.72358 15.2638 2.69825 15.3966 2.69921 15.5307C2.69921 16.1188 3.13052 16.5894 3.66964 16.5894ZM17.687 11.4137H3.66964C5.07138 12.3547 7.65919 13.7663 10.5705 13.7663C13.0198 13.6539 15.3992 12.8427 17.4713 11.4137H17.687ZM3.66964 10.5903H17.7948C16.5009 9.41399 13.8053 7.64955 10.6783 7.64955C7.65919 7.64955 4.96355 9.53162 3.56182 10.5903H3.66964ZM18.3339 19.4125C18.4559 19.4292 18.5798 19.4174 18.6972 19.3776C18.8147 19.3379 18.923 19.2713 19.0149 19.1822C19.1068 19.093 19.1801 18.9835 19.2301 18.8609C19.28 18.7384 19.3053 18.6056 19.3044 18.4714C19.3044 17.8833 18.8731 17.4128 18.3339 17.4128H3.66964C3.54765 17.396 3.42379 17.4079 3.30635 17.4476C3.18891 17.4873 3.08061 17.554 2.98871 17.6431C2.89681 17.7322 2.82344 17.8417 2.77351 17.9643C2.72358 18.0869 2.69825 18.2197 2.69921 18.3538C2.69921 18.9419 3.13052 19.4125 3.66964 19.4125H18.3339ZM22 22.1179C22.0009 22.5974 21.834 23.0591 21.5334 23.4088C21.2328 23.7586 20.8212 23.97 20.3826 24H1.62096C1.39425 23.985 1.17248 23.9214 0.968376 23.8127C0.764273 23.704 0.581853 23.5524 0.431582 23.3666C0.281312 23.1808 0.166148 22.9645 0.0926995 22.73C0.0192509 22.4955 -0.0110371 22.2476 0.00357329 22.0003V21.1769C0.00271416 20.6975 0.169602 20.2358 0.470175 19.886C0.770748 19.5362 1.18234 19.3248 1.62096 19.2948H2.16009C2.01407 19.0071 1.93971 18.6826 1.94443 18.3538C1.94443 17.7657 2.16009 17.1775 2.59139 16.9423C2.39632 16.7721 2.23744 16.5577 2.12574 16.314C2.01404 16.0703 1.95218 15.8031 1.94443 15.5307C1.94443 14.3544 2.69921 13.6486 3.66964 13.6486H6.14963C3.77747 12.7076 2.16009 11.2961 2.05226 11.2961C2.00637 11.2519 1.96961 11.1976 1.94443 11.1368C1.91926 11.0759 1.90624 11.0099 1.90624 10.9432C1.90624 10.8764 1.91926 10.8104 1.94443 10.7496C1.96961 10.6887 2.00637 10.6344 2.05226 10.5903C2.37574 10.4727 6.14963 6.70852 10.7861 6.70852C15.207 6.70852 19.0887 10.4727 19.0887 10.7079C19.15 10.7914 19.1833 10.8951 19.1833 11.002C19.1833 11.1089 19.15 11.2126 19.0887 11.2961C19.0887 11.4137 17.3635 12.8252 14.9913 13.6486H18.2261C18.6837 13.6486 19.1225 13.8469 19.446 14.1999C19.7695 14.5528 19.9513 15.0315 19.9513 15.5307C19.9513 16.1188 19.7357 16.707 19.3044 16.9423C19.6428 17.2235 19.8741 17.6313 19.9537 18.0872C20.0333 18.5432 19.9556 19.0152 19.7357 19.4125H20.2748C20.7134 19.4424 21.125 19.6539 21.4256 20.0036C21.7261 20.3534 21.893 20.8151 21.8922 21.2945V22.1179H22ZM13.4818 3.53254L15.207 0.709437C15.2642 0.600247 15.2793 0.470743 15.2489 0.349415C15.2186 0.228086 15.1453 0.124872 15.0452 0.0624773C14.9452 8.29912e-05 14.8264 -0.0163802 14.7152 0.0167094C14.604 0.049799 14.5094 0.129731 14.4522 0.238921L12.8348 2.94439C12.7837 2.98746 12.7421 3.04249 12.7131 3.10543C12.6842 3.16837 12.6685 3.23761 12.6673 3.30804C12.6661 3.37847 12.6794 3.44829 12.7063 3.51235C12.7331 3.57642 12.7728 3.63309 12.8224 3.67818C12.872 3.72328 12.9303 3.75565 12.9929 3.7729C13.0555 3.79016 13.1208 3.79186 13.1841 3.77788C13.2474 3.7639 13.307 3.7346 13.3585 3.69213C13.41 3.64967 13.4522 3.59513 13.4818 3.53254ZM14.9913 6.00275C15.027 6.00933 15.0635 6.00933 15.0992 6.00275L17.2557 5.4146C17.3271 5.42631 17.4 5.41827 17.4678 5.39124C17.5356 5.3642 17.5961 5.31903 17.6438 5.25986C17.6914 5.20069 17.7247 5.12942 17.7406 5.05257C17.7564 4.97573 17.7543 4.89578 17.7345 4.82005C17.7146 4.74432 17.6777 4.67523 17.627 4.61912C17.5764 4.56301 17.5136 4.52167 17.4445 4.4989C17.3754 4.47612 17.3021 4.47264 17.2315 4.48876C17.1608 4.50489 17.095 4.54011 17.04 4.5912L14.8835 5.17934C14.8201 5.22964 14.7704 5.29785 14.7399 5.37663C14.7093 5.45541 14.6991 5.54179 14.7101 5.62646C14.7212 5.71114 14.7533 5.79092 14.8028 5.85722C14.8524 5.92352 14.9175 5.97383 14.9913 6.00275ZM6.14963 6.00275C6.23146 5.98933 6.30803 5.95051 6.37019 5.89093C6.43236 5.83135 6.4775 5.75352 6.50024 5.66672C6.52297 5.57992 6.52233 5.48781 6.49841 5.4014C6.47448 5.31498 6.42827 5.2379 6.36528 5.17934L4.20877 4.5912C4.15382 4.54011 4.088 4.50489 4.01733 4.48876C3.94666 4.47264 3.87341 4.47612 3.8043 4.4989C3.73518 4.52167 3.67242 4.56301 3.62175 4.61912C3.57109 4.67523 3.53414 4.74432 3.51431 4.82005C3.49448 4.89578 3.49239 4.97573 3.50823 5.05257C3.52408 5.12942 3.55735 5.20069 3.605 5.25986C3.65265 5.31903 3.71316 5.3642 3.78097 5.39124C3.84878 5.41827 3.92172 5.42631 3.99312 5.4146L6.14963 6.00275ZM6.14963 0.827066C6.09244 0.717876 6.07735 0.588372 6.10768 0.467044C6.13801 0.345715 6.21128 0.242501 6.31137 0.180106C6.41146 0.117712 6.53017 0.101249 6.64139 0.134338C6.7526 0.167428 6.84722 0.24736 6.90441 0.35655L8.5218 3.17965C8.58455 3.22022 8.63684 3.27748 8.67379 3.34609C8.71074 3.4147 8.73113 3.49241 8.73306 3.57195C8.735 3.6515 8.71841 3.73028 8.68485 3.80092C8.65129 3.87157 8.60185 3.93178 8.54116 3.97592C8.48047 4.02006 8.41051 4.04669 8.33782 4.05331C8.26513 4.05994 8.19209 4.04634 8.12553 4.0138C8.05897 3.98126 8.00106 3.93083 7.95722 3.86724C7.91337 3.80364 7.88503 3.72896 7.87484 3.65016L6.14963 0.827066Z" fill="#292F37"/>
</mask>
<g mask="url(#mask0_95_478)">
<path fill-rule="evenodd" clip-rule="evenodd" d="M-1.39816 -1.52539H23.4017V25.5293H-1.39816V-1.52539Z" fill="#FC7201"/>
</g>
</svg>
