<svg width="21" height="17" viewBox="0 0 21 17" fill="none" xmlns="http://www.w3.org/2000/svg">
<path d="M4.4 11.5L8.4 8.5C8.46698 8.49055 8.53048 8.46426 8.58454 8.4236C8.6386 8.38295 8.68147 8.32924 8.70914 8.26751C8.7368 8.20578 8.74836 8.13804 8.74273 8.07062C8.73709 8.00321 8.71446 7.93833 8.67694 7.88204C8.63941 7.82576 8.58823 7.77991 8.52816 7.74878C8.4681 7.71766 8.40113 7.70227 8.33351 7.70406C8.26588 7.70586 8.19982 7.72477 8.1415 7.75904C8.08317 7.7933 8.03449 7.8418 8 7.9L4 10.9C3.96158 10.9648 3.94226 11.0392 3.94426 11.1145C3.94625 11.1899 3.96949 11.2631 4.0113 11.3258C4.0531 11.3885 4.11176 11.4381 4.18053 11.4689C4.2493 11.4998 4.32538 11.5105 4.4 11.5ZM4.4 9.7L6.1 8.5C6.15321 8.47253 6.19958 8.43347 6.23568 8.38569C6.27178 8.33791 6.29669 8.28263 6.30857 8.22394C6.32046 8.16525 6.31901 8.10463 6.30434 8.04657C6.28967 7.98851 6.26216 7.93449 6.22382 7.88848C6.18548 7.84248 6.1373 7.80567 6.08284 7.78077C6.02838 7.75587 5.96902 7.74352 5.90915 7.74463C5.84927 7.74573 5.79041 7.76027 5.73691 7.78716C5.6834 7.81405 5.63661 7.85261 5.6 7.9L4 9.1C3.96158 9.16483 3.94226 9.2392 3.94426 9.31453C3.94625 9.38986 3.96949 9.4631 4.0113 9.5258C4.0531 9.58851 4.11176 9.63813 4.18053 9.66894C4.2493 9.69976 4.32538 9.71053 4.4 9.7ZM19.3 16.1C19.2773 16.012 19.2254 15.9343 19.1526 15.8798C19.0799 15.8253 18.9908 15.7971 18.9 15.8H15.7C15.6375 15.8346 15.5854 15.8853 15.5491 15.9468C15.5128 16.0084 15.4936 16.0785 15.4936 16.15C15.4936 16.2215 15.5128 16.2916 15.5491 16.3532C15.5854 16.4147 15.6375 16.4654 15.7 16.5H18.9C19.0061 16.5 19.1078 16.4579 19.1828 16.3828C19.2579 16.3078 19.3 16.2061 19.3 16.1ZM6.5 16.1C6.47732 16.012 6.42536 15.9343 6.35265 15.8798C6.27994 15.8253 6.19084 15.7971 6.1 15.8H2.9C2.83748 15.8346 2.78537 15.8853 2.74908 15.9468C2.71279 16.0084 2.69365 16.0785 2.69365 16.15C2.69365 16.2215 2.71279 16.2916 2.74908 16.3532C2.78537 16.4147 2.83748 16.4654 2.9 16.5H6.1C6.20609 16.5 6.30783 16.4579 6.38284 16.3828C6.45786 16.3078 6.5 16.2061 6.5 16.1ZM18.9 12.1H16.9C16.8375 12.1346 16.7854 12.1853 16.7491 12.2469C16.7128 12.3084 16.6936 12.3785 16.6936 12.45C16.6936 12.5215 16.7128 12.5916 16.7491 12.6532C16.7854 12.7147 16.8375 12.7654 16.9 12.8H18.9C19.0061 12.8 19.1078 12.7579 19.1828 12.6828C19.2579 12.6078 19.3 12.5061 19.3 12.4C19.3 12.2939 19.2579 12.1922 19.1828 12.1172C19.1078 12.0421 19.0061 12 18.9 12V12.1ZM18.9 10.9H16.9C16.7939 10.9 16.6922 10.9421 16.6172 11.0172C16.5421 11.0922 16.5 11.1939 16.5 11.3C16.5 11.4061 16.5421 11.5078 16.6172 11.5828C16.6922 11.6579 16.7939 11.7 16.9 11.7H18.9C19.0061 11.7 19.1078 11.6579 19.1828 11.5828C19.2579 11.5078 19.3 11.4061 19.3 11.3C19.3 11.1939 19.2579 11.0922 19.1828 11.0172C19.1078 10.9421 19.0061 10.9 18.9 10.9ZM17.3 7.6C17.3 7.78565 17.3737 7.9637 17.505 8.09498C17.6363 8.22625 17.8143 8.3 18 8.3C18.1857 8.3 18.3637 8.22625 18.495 8.09498C18.6262 7.9637 18.7 7.78565 18.7 7.6C18.7 7.41435 18.6262 7.2363 18.495 7.10502C18.3637 6.97375 18.1857 6.9 18 6.9C17.8143 6.9 17.6363 6.97375 17.505 7.10502C17.3737 7.2363 17.3 7.41435 17.3 7.6ZM16.5 7.6C16.5 7.20218 16.658 6.82064 16.9393 6.53934C17.2206 6.25804 17.6022 6.1 18 6.1C18.3978 6.1 18.7794 6.25804 19.0607 6.53934C19.342 6.82064 19.5 7.20218 19.5 7.6C19.5 7.99782 19.342 8.37936 19.0607 8.66066C18.7794 8.94197 18.3978 9.1 18 9.1C17.6022 9.1 17.2206 8.94197 16.9393 8.66066C16.658 8.37936 16.5 7.99782 16.5 7.6ZM16.5 3.9C16.5 3.1 17.2 2.4 18 2.4C18.3978 2.4 18.7794 2.55804 19.0607 2.83934C19.342 3.12064 19.5 3.50218 19.5 3.9C19.5 4.29782 19.342 4.67936 19.0607 4.96066C18.7794 5.24196 18.3978 5.4 18 5.4C17.7992 5.41494 17.5975 5.38638 17.4088 5.31628C17.22 5.24618 17.0486 5.13619 16.9062 4.99381C16.7638 4.85142 16.6538 4.68 16.5837 4.49124C16.5136 4.30247 16.4851 4.10081 16.5 3.9ZM3.3 11.9H15.3V3.1H3.3V11.9ZM15.7 12.7H2.9C2.79391 12.7 2.69217 12.6579 2.61716 12.5828C2.54214 12.5078 2.5 12.4061 2.5 12.3V2.7C2.5 2.5 2.7 2.3 2.9 2.3H15.7C15.9 2.3 16.1 2.5 16.1 2.7V12.3C16.1 12.4061 16.0579 12.5078 15.9828 12.5828C15.9078 12.6579 15.8061 12.7 15.7 12.7ZM0.8 14.3H20V0.7H0.8V14.3ZM0.4 15.1C0.293913 15.1 0.192172 15.0579 0.117157 14.9828C0.0421427 14.9078 0 14.8061 0 14.7V0.4C0 0.1 0.2 0 0.4 0H20.4C20.6 0 20.8 0.1 20.8 0.4V14.7C20.8 14.8061 20.7579 14.9078 20.6828 14.9828C20.6078 15.0579 20.5061 15.1 20.4 15.1H0.4Z" fill="#FC7201"/>
<mask id="mask0_95_1419" style="mask-type:luminance" maskUnits="userSpaceOnUse" x="0" y="0" width="21" height="17">
<path d="M4.4 11.5L8.4 8.5C8.46698 8.49055 8.53048 8.46426 8.58454 8.4236C8.6386 8.38295 8.68147 8.32924 8.70914 8.26751C8.7368 8.20578 8.74836 8.13804 8.74273 8.07062C8.73709 8.00321 8.71446 7.93833 8.67694 7.88204C8.63941 7.82576 8.58823 7.77991 8.52816 7.74878C8.4681 7.71766 8.40113 7.70227 8.33351 7.70406C8.26588 7.70586 8.19982 7.72477 8.1415 7.75904C8.08317 7.7933 8.03449 7.8418 8 7.9L4 10.9C3.96158 10.9648 3.94226 11.0392 3.94426 11.1145C3.94625 11.1899 3.96949 11.2631 4.0113 11.3258C4.0531 11.3885 4.11176 11.4381 4.18053 11.4689C4.2493 11.4998 4.32538 11.5105 4.4 11.5ZM4.4 9.7L6.1 8.5C6.15321 8.47253 6.19958 8.43347 6.23568 8.38569C6.27178 8.33791 6.29669 8.28263 6.30857 8.22394C6.32046 8.16525 6.31901 8.10463 6.30434 8.04657C6.28967 7.98851 6.26216 7.93449 6.22382 7.88848C6.18548 7.84248 6.1373 7.80567 6.08284 7.78077C6.02838 7.75587 5.96902 7.74352 5.90915 7.74463C5.84927 7.74573 5.79041 7.76027 5.73691 7.78716C5.6834 7.81405 5.63661 7.85261 5.6 7.9L4 9.1C3.96158 9.16483 3.94226 9.2392 3.94426 9.31453C3.94625 9.38986 3.96949 9.4631 4.0113 9.5258C4.0531 9.58851 4.11176 9.63813 4.18053 9.66894C4.2493 9.69976 4.32538 9.71053 4.4 9.7ZM19.3 16.1C19.2773 16.012 19.2254 15.9343 19.1526 15.8798C19.0799 15.8253 18.9908 15.7971 18.9 15.8H15.7C15.6375 15.8346 15.5854 15.8853 15.5491 15.9468C15.5128 16.0084 15.4936 16.0785 15.4936 16.15C15.4936 16.2215 15.5128 16.2916 15.5491 16.3532C15.5854 16.4147 15.6375 16.4654 15.7 16.5H18.9C19.0061 16.5 19.1078 16.4579 19.1828 16.3828C19.2579 16.3078 19.3 16.2061 19.3 16.1ZM6.5 16.1C6.47732 16.012 6.42536 15.9343 6.35265 15.8798C6.27994 15.8253 6.19084 15.7971 6.1 15.8H2.9C2.83748 15.8346 2.78537 15.8853 2.74908 15.9468C2.71279 16.0084 2.69365 16.0785 2.69365 16.15C2.69365 16.2215 2.71279 16.2916 2.74908 16.3532C2.78537 16.4147 2.83748 16.4654 2.9 16.5H6.1C6.20609 16.5 6.30783 16.4579 6.38284 16.3828C6.45786 16.3078 6.5 16.2061 6.5 16.1ZM18.9 12.1H16.9C16.8375 12.1346 16.7854 12.1853 16.7491 12.2469C16.7128 12.3084 16.6936 12.3785 16.6936 12.45C16.6936 12.5215 16.7128 12.5916 16.7491 12.6532C16.7854 12.7147 16.8375 12.7654 16.9 12.8H18.9C19.0061 12.8 19.1078 12.7579 19.1828 12.6828C19.2579 12.6078 19.3 12.5061 19.3 12.4C19.3 12.2939 19.2579 12.1922 19.1828 12.1172C19.1078 12.0421 19.0061 12 18.9 12V12.1ZM18.9 10.9H16.9C16.7939 10.9 16.6922 10.9421 16.6172 11.0172C16.5421 11.0922 16.5 11.1939 16.5 11.3C16.5 11.4061 16.5421 11.5078 16.6172 11.5828C16.6922 11.6579 16.7939 11.7 16.9 11.7H18.9C19.0061 11.7 19.1078 11.6579 19.1828 11.5828C19.2579 11.5078 19.3 11.4061 19.3 11.3C19.3 11.1939 19.2579 11.0922 19.1828 11.0172C19.1078 10.9421 19.0061 10.9 18.9 10.9ZM17.3 7.6C17.3 7.78565 17.3737 7.9637 17.505 8.09498C17.6363 8.22625 17.8143 8.3 18 8.3C18.1857 8.3 18.3637 8.22625 18.495 8.09498C18.6262 7.9637 18.7 7.78565 18.7 7.6C18.7 7.41435 18.6262 7.2363 18.495 7.10502C18.3637 6.97375 18.1857 6.9 18 6.9C17.8143 6.9 17.6363 6.97375 17.505 7.10502C17.3737 7.2363 17.3 7.41435 17.3 7.6ZM16.5 7.6C16.5 7.20218 16.658 6.82064 16.9393 6.53934C17.2206 6.25804 17.6022 6.1 18 6.1C18.3978 6.1 18.7794 6.25804 19.0607 6.53934C19.342 6.82064 19.5 7.20218 19.5 7.6C19.5 7.99782 19.342 8.37936 19.0607 8.66066C18.7794 8.94197 18.3978 9.1 18 9.1C17.6022 9.1 17.2206 8.94197 16.9393 8.66066C16.658 8.37936 16.5 7.99782 16.5 7.6ZM16.5 3.9C16.5 3.1 17.2 2.4 18 2.4C18.3978 2.4 18.7794 2.55804 19.0607 2.83934C19.342 3.12064 19.5 3.50218 19.5 3.9C19.5 4.29782 19.342 4.67936 19.0607 4.96066C18.7794 5.24196 18.3978 5.4 18 5.4C17.7992 5.41494 17.5975 5.38638 17.4088 5.31628C17.22 5.24618 17.0486 5.13619 16.9062 4.99381C16.7638 4.85142 16.6538 4.68 16.5837 4.49124C16.5136 4.30247 16.4851 4.10081 16.5 3.9ZM3.3 11.9H15.3V3.1H3.3V11.9ZM15.7 12.7H2.9C2.79391 12.7 2.69217 12.6579 2.61716 12.5828C2.54214 12.5078 2.5 12.4061 2.5 12.3V2.7C2.5 2.5 2.7 2.3 2.9 2.3H15.7C15.9 2.3 16.1 2.5 16.1 2.7V12.3C16.1 12.4061 16.0579 12.5078 15.9828 12.5828C15.9078 12.6579 15.8061 12.7 15.7 12.7ZM0.8 14.3H20V0.7H0.8V14.3ZM0.4 15.1C0.293913 15.1 0.192172 15.0579 0.117157 14.9828C0.0421427 14.9078 0 14.8061 0 14.7V0.4C0 0.1 0.2 0 0.4 0H20.4C20.6 0 20.8 0.1 20.8 0.4V14.7C20.8 14.8061 20.7579 14.9078 20.6828 14.9828C20.6078 15.0579 20.5061 15.1 20.4 15.1H0.4Z" fill="#292F37"/>
</mask>
<g mask="url(#mask0_95_1419)">
<path fill-rule="evenodd" clip-rule="evenodd" d="M-1.10001 -4.3999H21.9V18.6001H-1.10001V-4.3999Z" fill="#FC7201"/>
</g>
</svg>
