<svg width="19" height="22" viewBox="0 0 19 22" fill="none" xmlns="http://www.w3.org/2000/svg">
<path d="M10.6394 9.34944H5.28407L9.5 14.5909L13.7159 9.34944H10.6394ZM12.9183 4.79168H1.52392L4.37252 8.43789H10.2976L12.9183 4.79168ZM14.0578 4.79168L11.437 8.43789H14.6275L17.59 4.79168H14.1717H14.0578ZM14.8554 3.88013H18.5016C18.5976 3.8711 18.6941 3.89279 18.777 3.94207C18.86 3.99135 18.9251 4.06569 18.9631 4.15437C19.0012 4.24305 19.01 4.3415 18.9885 4.43555C18.967 4.52961 18.9162 4.6144 18.8434 4.67774L9.95578 15.5024V20.9717H13.488C14.0578 20.9717 14.0578 21.8833 13.488 21.8833H5.51196C4.94224 21.8833 4.94224 20.9717 5.51196 20.9717H8.93028V15.3885L0.156591 4.67774C0.0838065 4.6144 0.0329975 4.52961 0.0114797 4.43555C-0.010038 4.3415 -0.00115412 4.24305 0.036852 4.15437C0.0748582 4.06569 0.140026 3.99135 0.222972 3.94207C0.305919 3.89279 0.402364 3.8711 0.498423 3.88013H13.7159L16.2227 0.461808C16.3048 0.398386 16.4061 0.364862 16.5098 0.366777C16.6135 0.368691 16.7134 0.405929 16.7931 0.472338C16.8728 0.538748 16.9275 0.630355 16.9481 0.732026C16.9687 0.833697 16.9539 0.93935 16.9064 1.03153L14.8554 3.88013Z" fill="#FC7201"/>
<mask id="mask0_95_1082" style="mask-type:luminance" maskUnits="userSpaceOnUse" x="0" y="0" width="19" height="22">
<path d="M10.6394 9.34944H5.28407L9.5 14.5909L13.7159 9.34944H10.6394ZM12.9183 4.79168H1.52392L4.37252 8.43789H10.2976L12.9183 4.79168ZM14.0578 4.79168L11.437 8.43789H14.6275L17.59 4.79168H14.1717H14.0578ZM14.8554 3.88013H18.5016C18.5976 3.8711 18.6941 3.89279 18.777 3.94207C18.86 3.99135 18.9251 4.06569 18.9631 4.15437C19.0012 4.24305 19.01 4.3415 18.9885 4.43555C18.967 4.52961 18.9162 4.6144 18.8434 4.67774L9.95578 15.5024V20.9717H13.488C14.0578 20.9717 14.0578 21.8833 13.488 21.8833H5.51196C4.94224 21.8833 4.94224 20.9717 5.51196 20.9717H8.93028V15.3885L0.156591 4.67774C0.0838065 4.6144 0.0329975 4.52961 0.0114797 4.43555C-0.010038 4.3415 -0.00115412 4.24305 0.036852 4.15437C0.0748582 4.06569 0.140026 3.99135 0.222972 3.94207C0.305919 3.89279 0.402364 3.8711 0.498423 3.88013H13.7159L16.2227 0.461808C16.3048 0.398386 16.4061 0.364862 16.5098 0.366777C16.6135 0.368691 16.7134 0.405929 16.7931 0.472338C16.8728 0.538748 16.9275 0.630355 16.9481 0.732026C16.9687 0.833697 16.9539 0.93935 16.9064 1.03153L14.8554 3.88013Z" fill="#292F37"/>
</mask>
<g mask="url(#mask0_95_1082)">
<path fill-rule="evenodd" clip-rule="evenodd" d="M-3.60355 -1.1333H22.6036V25.0738H-3.60355V-1.1333Z" fill="#FC7201"/>
</g>
</svg>
