<svg width="24" height="24" viewBox="0 0 24 24" fill="none" xmlns="http://www.w3.org/2000/svg">
<g clip-path="url(#clip0_95_1407)">
<path fill-rule="evenodd" clip-rule="evenodd" d="M2.30002 -3.30005C2.22045 -3.37962 2.11254 -3.42432 2.00002 -3.42432C1.8875 -3.42432 1.77958 -3.37962 1.70002 -3.30005C1.62045 -3.22049 1.57575 -3.11257 1.57575 -3.00005C1.57575 -2.88753 1.62045 -2.77962 1.70002 -2.70005L20.7 17.2999C20.7394 17.3393 20.7862 17.3706 20.8377 17.3919C20.8891 17.4132 20.9443 17.4242 21 17.4242C21.0557 17.4242 21.1109 17.4132 21.1624 17.3919C21.2139 17.3706 21.2606 17.3393 21.3 17.2999C21.3394 17.2606 21.3707 17.2138 21.392 17.1623C21.4133 17.1108 21.4243 17.0557 21.4243 16.9999C21.4243 16.9442 21.4133 16.8891 21.392 16.8376C21.3707 16.7861 21.3394 16.7393 21.3 16.6999L2.30002 -3.30005ZM8.50002 -2.60005C8.47375 -2.64601 8.4568 -2.6967 8.45012 -2.74922C8.44345 -2.80173 8.44718 -2.85505 8.46111 -2.90612C8.48924 -3.00926 8.55719 -3.09701 8.65002 -3.15005C8.74284 -3.2031 8.85294 -3.21709 8.95608 -3.18896C9.05923 -3.16083 9.14698 -3.09288 9.20002 -3.00005L10.7 -0.500052C11.0727 -0.688259 11.4827 -0.79076 11.9 -0.800053C12.4 -0.800053 12.9 -0.700052 13.2 -0.500052L14.3 -2.90005C14.3263 -2.94602 14.3613 -2.98635 14.4032 -3.01877C14.4451 -3.05118 14.4929 -3.07503 14.544 -3.08896C14.595 -3.10289 14.6483 -3.10662 14.7009 -3.09995C14.7534 -3.09327 14.8041 -3.07632 14.85 -3.05005C14.896 -3.02379 14.9363 -2.98873 14.9687 -2.94687C15.0011 -2.90502 15.025 -2.85719 15.0389 -2.80612C15.0529 -2.75505 15.0566 -2.70173 15.0499 -2.64922C15.0432 -2.5967 15.0263 -2.54601 15 -2.50005L14 -5.24521e-05C14.3124 0.309134 14.5475 0.687505 14.6865 1.10445C14.8255 1.52139 14.8644 1.96519 14.8 2.39995L20.3 6.69995C20.8065 7.11387 21.2037 7.64568 21.4569 8.24877C21.7101 8.85187 21.8115 9.50784 21.7523 10.1592C21.693 10.8106 21.475 11.4376 21.1172 11.9851C20.7594 12.5327 20.2728 12.9841 19.7 13.2999L19.1 12.6999C19.6197 12.4986 20.0754 12.1608 20.4193 11.7223C20.7632 11.2837 20.9826 10.7606 21.0542 10.2079C21.1258 9.65521 21.0472 9.09343 20.8265 8.58169C20.6057 8.06994 20.2512 7.62716 19.8 7.29995L14.6 3.19995C14.3829 3.70833 14.0201 4.14105 13.5574 4.44357C13.0947 4.7461 12.5528 4.9049 12 4.89995C11.8939 4.89995 11.7922 4.8578 11.7172 4.78279C11.6422 4.70778 11.6 4.60603 11.6 4.49995C11.6 4.39386 11.6422 4.29212 11.7172 4.2171C11.7922 4.14209 11.8939 4.09995 12 4.09995C12.3956 4.09995 12.7823 3.98265 13.1112 3.76289C13.4401 3.54312 13.6964 3.23077 13.8478 2.86531C13.9992 2.49986 14.0388 2.09773 13.9616 1.70977C13.8844 1.32181 13.6939 0.965439 13.4142 0.685734C13.1345 0.406029 12.7782 0.215548 12.3902 0.138377C12.0022 0.0612068 11.6001 0.100813 11.2347 0.252189C10.8692 0.403564 10.5568 0.659909 10.3371 0.988807C10.1173 1.31771 10 1.70438 10 2.09995C9.98676 2.23256 9.92136 2.35446 9.81822 2.43886C9.71507 2.52325 9.58263 2.56321 9.45002 2.54995C9.31741 2.53669 9.1955 2.47129 9.11111 2.36815C9.02672 2.265 8.98676 2.13256 9.00002 1.99995C9.00002 1.09995 9.30002 0.399948 9.90002 -0.200052L8.50002 -2.60005ZM9.90002 13.3999V14.3999C9.90002 14.9304 10.1107 15.4391 10.4858 15.8142C10.8609 16.1892 11.3696 16.3999 11.9 16.3999C12.4305 16.3999 12.9392 16.1892 13.3142 15.8142C13.6893 15.4391 13.9 14.9304 13.9 14.3999L14.1 13.3999H9.90002ZM9.80002 12.5999L9.50002 10.5999L10.6 9.09995C10.6474 9.06334 10.686 9.01655 10.7129 8.96304C10.7398 8.90954 10.7543 8.85067 10.7554 8.7908C10.7565 8.73093 10.7441 8.67157 10.7192 8.61711C10.6943 8.56264 10.6575 8.51447 10.6115 8.47613C10.5655 8.43779 10.5115 8.41027 10.4534 8.3956C10.3954 8.38093 10.3348 8.37949 10.2761 8.39137C10.2174 8.40326 10.1621 8.42817 10.1143 8.46427C10.0666 8.50037 10.0275 8.54673 10 8.59995L7.70002 11.5999C7.42424 11.8823 7.09556 12.1075 6.73272 12.2629C6.36989 12.4182 5.98002 12.5005 5.58537 12.5052C5.19072 12.5098 4.79903 12.4367 4.43264 12.2899C4.06626 12.1432 3.73236 11.9257 3.45002 11.6499C3.16768 11.3742 2.94242 11.0455 2.7871 10.6827C2.63179 10.3198 2.54946 9.92995 2.54481 9.5353C2.54017 9.14065 2.61331 8.74895 2.76004 8.38257C2.90678 8.01619 3.12424 7.68229 3.40002 7.39995L6.50002 5.09995C6.53844 5.03512 6.55776 4.96075 6.55576 4.88542C6.55376 4.81008 6.53053 4.73685 6.48872 4.67414C6.44692 4.61144 6.38826 4.56182 6.31949 4.531C6.25072 4.50018 6.17464 4.48942 6.10002 4.49995L3.00002 6.79995C2.51543 7.11774 2.10776 7.53954 1.80663 8.03466C1.50551 8.52978 1.31851 9.08578 1.25923 9.66224C1.19995 10.2387 1.26988 10.8211 1.46393 11.3672C1.65799 11.9132 1.97129 12.4091 2.38105 12.8189C2.79082 13.2287 3.28676 13.542 3.8328 13.736C4.37884 13.9301 4.96127 14 5.53773 13.9407C6.11418 13.8815 6.67019 13.6945 7.16531 13.3933C7.66043 13.0922 8.08222 12.6845 8.40002 12.1999L8.80002 11.4999L9.20002 14.4999C9.21328 15.2426 9.521 15.9495 10.0555 16.4652C10.59 16.9809 11.3074 17.2632 12.05 17.2499C12.7926 17.2367 13.4995 16.929 14.0153 16.3945C14.531 15.86 14.8133 15.1426 14.8 14.3999L14.9 12.9999C14.9 12.8939 14.8579 12.7921 14.7829 12.7171C14.7078 12.6421 14.6061 12.5999 14.5 12.5999H9.80002Z" fill="#FC7201"/>
</g>
<defs>
<clipPath id="clip0_95_1407">
<rect width="24" height="24" fill="white"/>
</clipPath>
</defs>
</svg>
