<svg width="21" height="25" viewBox="0 0 21 25" fill="none" xmlns="http://www.w3.org/2000/svg">
<path d="M13.7677 14.5022C13.91 13.8532 13.9331 12.8065 13.6533 11.9017C13.4402 11.2128 13.0758 10.6649 12.5 10.3884V16.3194C12.5 17.0788 12.3103 17.8212 11.8428 18.4538C11.3746 19.0873 10.6594 19.568 9.68419 19.8584L9.68322 19.8587C8.72761 20.1411 7.71308 20.1372 6.86208 19.8974C6.02553 19.6617 5.25572 19.1672 4.94835 18.3876C4.64152 17.6093 4.85308 16.7913 5.3353 16.1279C5.81728 15.4648 6.59212 14.9139 7.53057 14.5971L7.53073 14.597C8.31003 14.3342 9.21706 14.207 10 14.3059V5.55556V5.05556H10.5H12H12.5V5.55556C12.5 6.18563 12.781 6.63216 13.2446 7.07422C13.4826 7.30115 13.7556 7.51436 14.0572 7.7496L14.06 7.75172C14.3536 7.98077 14.673 8.2299 14.9672 8.50893C15.5677 9.07846 16.0963 9.8036 16.2056 10.8614C16.3127 11.8977 16.0087 13.1747 15.1354 14.8417M13.7677 14.5022L14.256 14.6097C14.14 15.1363 14.3842 15.1415 14.6451 14.6954C14.6452 14.6953 14.6453 14.6952 14.6453 14.6951C14.6483 14.6899 14.6514 14.6847 14.6544 14.6794C14.66 14.6865 14.6652 14.6936 14.6699 14.7005C14.67 14.7007 14.6701 14.7008 14.6703 14.701C14.7095 14.7584 14.7208 14.8077 14.7236 14.8222C14.7255 14.8314 14.7259 14.8364 14.7262 14.8363C14.7268 14.8363 14.7258 14.8014 14.7443 14.7173L14.7444 14.7168C14.7496 14.6932 14.7546 14.6692 14.7595 14.6448L15.1354 14.8417M13.7677 14.5022C13.7317 14.6654 13.7093 14.8488 13.7429 15.0176C13.7601 15.1037 13.8003 15.2291 13.9033 15.3382C14.0207 15.4626 14.1811 15.524 14.3434 15.5177C14.4855 15.5122 14.5975 15.457 14.668 15.4122C14.7424 15.365 14.8052 15.3075 14.8565 15.2521C14.9592 15.1414 15.0527 14.9998 15.1354 14.8417M13.7677 14.5022L14.8033 14.3942M15.1354 14.8417C15.1355 14.8416 15.1355 14.8415 15.1356 14.8415L14.7596 14.6448C14.7756 14.565 14.7903 14.4813 14.8033 14.3942M14.8033 14.3942C16.7668 10.497 15.2056 9.27939 13.7433 8.13885C12.8534 7.44474 12 6.77917 12 5.55556H11.5H11H10.5V6.05556L14.8033 14.3942ZM1.5 0.5H19.5C19.7771 0.5 20.0359 0.602281 20.221 0.773677C20.4048 0.943871 20.5 1.1661 20.5 1.38889V23.6111C20.5 23.8339 20.4048 24.0561 20.221 24.2263C20.0359 24.3977 19.7771 24.5 19.5 24.5H1.5C1.2229 24.5 0.96415 24.3977 0.779044 24.2263C0.595233 24.0561 0.5 23.8339 0.5 23.6111V1.38889C0.5 1.1661 0.595233 0.943872 0.779044 0.773676C0.96415 0.602281 1.2229 0.5 1.5 0.5Z" stroke="#FC7201"/>
</svg>
