<svg width="25" height="25" viewBox="0 0 25 25" fill="none" xmlns="http://www.w3.org/2000/svg">
<path d="M8.22688 4.66439L7.47689 3.78939L6.72689 3.03939L13.8519 6.66439H17.4769C17.9858 6.61514 18.4993 6.66661 18.9883 6.81585C19.4773 6.96509 19.9321 7.20918 20.3268 7.53418C20.7214 7.85919 21.0482 8.25874 21.2884 8.71003C21.5286 9.16132 21.6776 9.65551 21.7269 10.1644C21.7761 10.6733 21.7247 11.1868 21.5754 11.6758C21.4262 12.1648 21.1821 12.6196 20.8571 13.0143C20.5321 13.4089 20.1325 13.7357 19.6812 13.9759C19.2299 14.2161 18.7358 14.3651 18.2269 14.4144V14.5394V14.4144L17.7269 14.0394L17.2269 13.4144H17.4769C18.2394 13.4144 18.9707 13.1115 19.5098 12.5723C20.049 12.0332 20.3519 11.3019 20.3519 10.5394C20.3519 9.77689 20.049 9.04562 19.5098 8.50645C18.9707 7.96729 18.2394 7.66439 17.4769 7.66439H13.6019L8.85188 5.28939L8.10188 4.66439H8.22688ZM24.3519 23.4144C24.4679 23.547 24.5265 23.7203 24.5148 23.8961C24.5031 24.0719 24.422 24.2359 24.2894 24.3519C24.1568 24.4679 23.9835 24.5265 23.8077 24.5148C23.6319 24.5031 23.4679 24.422 23.3519 24.2894L17.7269 18.5394L17.4769 19.7894C17.4769 21.0394 16.6019 22.0394 15.3519 22.0394C14.1019 22.0394 13.3519 21.0394 13.3519 19.5394V18.9144C12.6019 18.9144 12.1019 18.2894 12.1019 17.4144C12.1019 16.6644 12.6019 16.0394 13.3519 16.0394H13.8519L14.1019 14.7894L13.7269 14.5394H13.1019L6.35189 18.1644C6.14929 18.2844 5.9169 18.3448 5.68148 18.3386C5.44606 18.3323 5.2172 18.2597 5.02125 18.1291C4.8253 17.9985 4.67024 17.8151 4.57393 17.6002C4.47762 17.3853 4.44398 17.1476 4.47689 16.9144V13.1644C3.81384 13.1644 3.17796 12.901 2.70912 12.4322C2.24028 11.9633 1.97689 11.3274 1.97689 10.6644C1.97689 10.0013 2.24028 9.36546 2.70912 8.89662C3.17796 8.42778 3.81384 8.16439 4.47689 8.16439V5.28939L0.226885 1.16439C0.0942771 1.04835 0.0131938 0.884395 0.00147275 0.70858C-0.0102483 0.532764 0.0483532 0.359494 0.164385 0.226885C0.280418 0.0942772 0.444376 0.0131938 0.620191 0.00147276C0.796007 -0.0102483 0.969277 0.048353 1.10189 0.164385L4.60189 3.78939L5.47689 4.66439L7.22688 6.28939L8.22688 7.28939L14.4769 13.5394L15.4769 14.5394L16.9769 16.0394L17.8519 16.9144L24.2269 23.2894L24.3519 23.4144ZM16.4769 19.6644L16.8519 17.6644L14.9769 15.7894L14.3519 19.6644C14.3519 20.5394 14.8519 21.0394 15.3519 21.0394C15.9769 21.0394 16.4769 20.5394 16.6019 19.6644H16.4769ZM13.3519 17.9144H13.6019L13.7269 17.0394H13.3519C13.3519 17.0394 13.1019 17.1644 13.1019 17.4144L13.3519 17.9144ZM8.22688 16.0394L12.8519 13.5394L8.22688 9.03939V16.0394ZM5.85188 17.2894L7.10188 16.5394V8.03939L5.60189 6.28939V16.9144C5.5953 16.961 5.60203 17.0086 5.62129 17.0516C5.64056 17.0945 5.67157 17.1312 5.71076 17.1573C5.74995 17.1835 5.79572 17.198 5.8428 17.1992C5.88989 17.2005 5.93637 17.1884 5.97688 17.1644L5.85188 17.2894ZM3.35189 10.6644C3.35189 11.4144 3.85189 11.9144 4.60189 12.1644V9.16439C3.85189 9.28939 3.35189 9.91439 3.35189 10.6644Z" fill="#FC7201"/>
<mask id="mask0_95_1201" style="mask-type:luminance" maskUnits="userSpaceOnUse" x="0" y="0" width="25" height="25">
<path d="M8.22688 4.66439L7.47689 3.78939L6.72689 3.03939L13.8519 6.66439H17.4769C17.9858 6.61514 18.4993 6.66661 18.9883 6.81585C19.4773 6.96509 19.9321 7.20918 20.3268 7.53418C20.7214 7.85919 21.0482 8.25874 21.2884 8.71003C21.5286 9.16132 21.6776 9.65551 21.7269 10.1644C21.7761 10.6733 21.7247 11.1868 21.5754 11.6758C21.4262 12.1648 21.1821 12.6196 20.8571 13.0143C20.5321 13.4089 20.1325 13.7357 19.6812 13.9759C19.2299 14.2161 18.7358 14.3651 18.2269 14.4144V14.5394V14.4144L17.7269 14.0394L17.2269 13.4144H17.4769C18.2394 13.4144 18.9707 13.1115 19.5098 12.5723C20.049 12.0332 20.3519 11.3019 20.3519 10.5394C20.3519 9.77689 20.049 9.04562 19.5098 8.50645C18.9707 7.96729 18.2394 7.66439 17.4769 7.66439H13.6019L8.85188 5.28939L8.10188 4.66439H8.22688ZM24.3519 23.4144C24.4679 23.547 24.5265 23.7203 24.5148 23.8961C24.5031 24.0719 24.422 24.2359 24.2894 24.3519C24.1568 24.4679 23.9835 24.5265 23.8077 24.5148C23.6319 24.5031 23.4679 24.422 23.3519 24.2894L17.7269 18.5394L17.4769 19.7894C17.4769 21.0394 16.6019 22.0394 15.3519 22.0394C14.1019 22.0394 13.3519 21.0394 13.3519 19.5394V18.9144C12.6019 18.9144 12.1019 18.2894 12.1019 17.4144C12.1019 16.6644 12.6019 16.0394 13.3519 16.0394H13.8519L14.1019 14.7894L13.7269 14.5394H13.1019L6.35189 18.1644C6.14929 18.2844 5.9169 18.3448 5.68148 18.3386C5.44606 18.3323 5.2172 18.2597 5.02125 18.1291C4.8253 17.9985 4.67024 17.8151 4.57393 17.6002C4.47762 17.3853 4.44398 17.1476 4.47689 16.9144V13.1644C3.81384 13.1644 3.17796 12.901 2.70912 12.4322C2.24028 11.9633 1.97689 11.3274 1.97689 10.6644C1.97689 10.0013 2.24028 9.36546 2.70912 8.89662C3.17796 8.42778 3.81384 8.16439 4.47689 8.16439V5.28939L0.226885 1.16439C0.0942771 1.04835 0.0131938 0.884395 0.00147275 0.70858C-0.0102483 0.532764 0.0483532 0.359494 0.164385 0.226885C0.280418 0.0942772 0.444376 0.0131938 0.620191 0.00147276C0.796007 -0.0102483 0.969277 0.048353 1.10189 0.164385L4.60189 3.78939L5.47689 4.66439L7.22688 6.28939L8.22688 7.28939L14.4769 13.5394L15.4769 14.5394L16.9769 16.0394L17.8519 16.9144L24.2269 23.2894L24.3519 23.4144ZM16.4769 19.6644L16.8519 17.6644L14.9769 15.7894L14.3519 19.6644C14.3519 20.5394 14.8519 21.0394 15.3519 21.0394C15.9769 21.0394 16.4769 20.5394 16.6019 19.6644H16.4769ZM13.3519 17.9144H13.6019L13.7269 17.0394H13.3519C13.3519 17.0394 13.1019 17.1644 13.1019 17.4144L13.3519 17.9144ZM8.22688 16.0394L12.8519 13.5394L8.22688 9.03939V16.0394ZM5.85188 17.2894L7.10188 16.5394V8.03939L5.60189 6.28939V16.9144C5.5953 16.961 5.60203 17.0086 5.62129 17.0516C5.64056 17.0945 5.67157 17.1312 5.71076 17.1573C5.74995 17.1835 5.79572 17.198 5.8428 17.1992C5.88989 17.2005 5.93637 17.1884 5.97688 17.1644L5.85188 17.2894ZM3.35189 10.6644C3.35189 11.4144 3.85189 11.9144 4.60189 12.1644V9.16439C3.85189 9.28939 3.35189 9.91439 3.35189 10.6644Z" fill="#292F37"/>
</mask>
<g mask="url(#mask0_95_1201)">
<path fill-rule="evenodd" clip-rule="evenodd" d="M-2.3981 -2.46045H26.3519V26.2896H-2.3981V-2.46045Z" fill="#FC7201"/>
</g>
</svg>
