<svg width="25" height="25" viewBox="0 0 25 25" fill="none" xmlns="http://www.w3.org/2000/svg">
<path d="M19.1667 15.6311L20.8333 17.2978V11.6667H19.1667V15.6311ZM22.0833 11.6667H23.75V17.9167H22.0833V11.6667ZM18.0964 5.10703C17.6263 5.65858 17.3484 6.34814 17.3047 7.07156C17.261 7.79498 17.4539 8.51297 17.8543 9.11708L18.1651 9.58333H20.1682L19.2411 8.19271C19.0414 7.89127 18.9451 7.53301 18.9669 7.17203C18.9887 6.81105 19.1274 6.46697 19.362 6.19177C19.847 5.62769 20.1285 4.91707 20.1613 4.17389C20.1942 3.4307 19.9765 2.69801 19.5432 2.09333L19.2384 1.66667H17.3333L17.2385 1.73437L18.1869 3.06198C18.4031 3.36371 18.5117 3.72931 18.4953 4.10015C18.4789 4.47099 18.3384 4.82557 18.0964 5.10703ZM21.8464 5.10703C21.3763 5.65858 21.0984 6.34814 21.0547 7.07156C21.011 7.79498 21.2039 8.51297 21.6043 9.11708L21.9151 9.58333H23.9182L22.9911 8.19271C22.7914 7.89127 22.6951 7.53301 22.7169 7.17203C22.7387 6.81105 22.8774 6.46697 23.112 6.19177C23.597 5.62769 23.8785 4.91707 23.9113 4.17389C23.9442 3.4307 23.7265 2.69801 23.2932 2.09333L22.9884 1.66667H21.0833L20.9885 1.73437L21.9369 3.06198C22.1531 3.36371 22.2617 3.72931 22.2453 4.10015C22.2289 4.47099 22.0884 4.82557 21.8464 5.10703ZM12.8452 11.6667L1.17849 0H0V1.17849L10.4882 11.6667H0V17.9167H16.7382L23.8215 25H25V23.8215L12.8452 11.6667ZM1.66667 16.25V13.3333H12.1548L15.0715 16.25H1.66667Z" fill="#FC7201"/>
</svg>
