<svg width="28" height="26" viewBox="0 0 28 26" fill="none" xmlns="http://www.w3.org/2000/svg">
<path d="M17.6098 5.1585C17.9952 5.46695 18.4458 5.69788 18.9331 5.83661C19.4204 5.97533 19.9335 6.01881 20.44 5.96427C21.0429 6.0625 21.4047 6.12144 21.6033 6.38357C22.1212 6.92747 21.8873 8.15308 21.6604 8.69053C21.6288 8.7545 21.6138 8.82439 21.6166 8.89465C21.6193 8.96491 21.6398 9.03361 21.6763 9.0953C21.7128 9.15699 21.7643 9.20998 21.8268 9.25006C21.8893 9.29014 21.9611 9.31621 22.0364 9.32621C22.1643 9.34705 22.296 9.32008 22.4024 9.25124C22.5088 9.1824 22.5812 9.07732 22.6038 8.95912C22.7526 8.17918 23.029 6.73074 22.3338 5.81328C21.9152 5.40044 21.213 5.17115 20.3477 5.14504C19.4823 5.11894 18.7801 4.88964 18.2409 4.45716C17.6025 3.8936 17.5101 3.07438 17.5527 2.85154C17.6062 2.79031 17.6416 2.71722 17.6553 2.6395C17.6689 2.56178 17.6604 2.48211 17.6305 2.40837C17.6006 2.33462 17.5504 2.26936 17.4849 2.21902C17.4194 2.16869 17.3408 2.13502 17.2568 2.12134C17.1729 2.10767 17.0866 2.11447 17.0064 2.14106C16.9262 2.16765 16.8549 2.21312 16.7995 2.27298C16.7441 2.33283 16.7066 2.405 16.6907 2.48235C16.6747 2.5597 16.6809 2.63955 16.7086 2.71402C16.6487 3.60673 16.9725 4.48522 17.6098 5.1585ZM25.626 12.6682L24.668 9.86984C24.6238 9.75599 24.5324 9.66304 24.414 9.61144C24.2956 9.55983 24.1599 9.55379 24.0367 9.59466C23.9135 9.63552 23.8129 9.71994 23.757 9.82933C23.7012 9.93873 23.6946 10.0641 23.7389 10.178L24.9167 13.1271C24.9501 13.2355 25.0261 13.3284 25.1297 13.3878C25.2333 13.4472 25.3572 13.4687 25.4771 13.4482C25.5432 13.4247 25.603 13.3882 25.6523 13.3413C25.7017 13.2945 25.7395 13.2382 25.7631 13.1766C25.7867 13.1149 25.7955 13.0492 25.789 12.9841C25.7824 12.919 25.7607 12.8559 25.7253 12.7993L25.626 12.6682ZM22.9516 10.3944C22.9578 10.3233 22.9458 10.2519 22.9165 10.1859C22.8871 10.12 22.8414 10.0613 22.7829 10.0148C22.7244 9.96831 22.6548 9.93523 22.5799 9.91827C22.5049 9.90131 22.4267 9.90096 22.3516 9.91724C22.2764 9.93352 22.2065 9.96597 22.1476 10.012C22.0886 10.0579 22.0422 10.1161 22.0122 10.1818C21.9822 10.2475 21.9694 10.3188 21.9749 10.39C21.9803 10.4611 22.0039 10.53 22.0437 10.5911L23.2216 13.5402C23.255 13.6486 23.3309 13.7415 23.4345 13.8009C23.5382 13.8603 23.6621 13.8818 23.782 13.8613C23.8993 13.8304 23.9999 13.7603 24.0641 13.6645C24.1284 13.5687 24.1517 13.4543 24.1295 13.3435L22.9516 10.3944ZM21.4484 13.7108L20.604 11.6203L7.31238 16.1179L8.15676 18.2085L21.4484 13.7108ZM7.22763 18.5167L6.40451 16.3147L1.99999 17.8947L2.84438 19.9853L7.24889 18.4052L7.22763 18.5167ZM22.413 13.868C22.4488 13.968 22.4457 14.0764 22.4043 14.1745C22.3629 14.2726 22.2857 14.3542 22.1861 14.4054L2.67428 20.8766C2.61997 20.9167 2.55705 20.9456 2.48972 20.9615C2.42238 20.9773 2.35216 20.9797 2.28373 20.9686C2.2153 20.9574 2.15022 20.933 2.09281 20.8968C2.03541 20.8606 1.98699 20.8136 1.95078 20.7588L0.914739 17.7179C0.878981 17.6179 0.882077 17.5095 0.923492 17.4114C0.964908 17.3133 1.04205 17.2317 1.14163 17.1805L20.5329 10.6896C20.6305 10.6403 20.7434 10.6231 20.853 10.641C20.9626 10.6588 21.0624 10.7106 21.1358 10.7878L22.2924 13.8484L22.413 13.868ZM20.3707 16.752C20.2597 16.7599 20.155 16.8026 20.0738 16.8729C19.9926 16.9432 19.9397 17.0369 19.9239 17.1387C19.9005 17.288 19.8721 17.4367 19.8388 17.5844L19.4701 18.2136C18.9631 19.501 18.088 20.6373 16.9378 21.5019C15.7877 22.3664 14.4055 22.9267 12.9382 23.1233C11.8024 23.263 10.6475 23.1812 9.54797 22.8834C8.44843 22.5855 7.42861 22.0781 6.55422 21.3939C6.52501 21.3223 6.47662 21.2587 6.41358 21.209C6.35053 21.1594 6.27489 21.1254 6.19373 21.1101C6.11257 21.0948 6.02854 21.0988 5.94949 21.1217C5.87045 21.1445 5.79898 21.1856 5.74177 21.2409C5.68455 21.2962 5.64346 21.3641 5.62234 21.4381C5.60121 21.5121 5.60075 21.5898 5.62098 21.6641C5.64121 21.7383 5.68149 21.8065 5.73803 21.8625C5.79458 21.9184 5.86555 21.9601 5.94432 21.9838C6.91397 22.7464 8.04465 23.3143 9.26456 23.6515C10.4845 23.9887 11.7669 24.0878 13.0305 23.9425C14.815 23.7388 16.4935 23.049 17.8524 21.9611C19.2113 20.8732 20.1892 19.4363 20.6617 17.8333L20.768 17.2762C20.7905 17.158 20.7613 17.0364 20.6868 16.9381C20.6123 16.8398 20.4986 16.7728 20.3707 16.752ZM2.80097 14.349C2.95139 13.22 3.34593 12.1306 3.96113 11.1453C4.57632 10.1601 5.39961 9.29922 6.38207 8.61385C6.60693 8.4462 6.84389 8.29289 7.0913 8.15498C8.18116 7.54347 9.4 7.15449 10.666 7.01415C12.003 6.85507 13.3616 6.97366 14.6427 7.36125C15.9238 7.74885 17.0952 8.39569 18.0714 9.25462C18.1502 9.27831 18.2212 9.32007 18.2777 9.376C18.3342 9.43192 18.3745 9.50018 18.3948 9.5744C18.415 9.64861 18.4145 9.72636 18.3934 9.80036C18.3723 9.87437 18.3312 9.94221 18.274 9.99755C18.2168 10.0529 18.1453 10.0939 18.0662 10.1168C17.9872 10.1397 17.9032 10.1437 17.822 10.1284C17.7408 10.1131 17.6652 10.079 17.6022 10.0294C17.5391 9.97977 17.4907 9.91617 17.4615 9.84455C16.5761 9.07017 15.5151 8.48786 14.3556 8.13996C13.196 7.79206 11.9672 7.68733 10.7583 7.83337C9.6229 7.98278 8.5349 8.35379 7.56664 8.92173C6.51938 9.55109 5.64152 10.3931 5 11.3837C4.35848 12.3742 3.97027 13.487 3.86496 14.6372C3.8424 14.7554 3.76996 14.8605 3.66355 14.9293C3.55714 14.9982 3.4255 15.0251 3.29758 15.0043C3.16965 14.9834 3.05593 14.9165 2.98142 14.8182C2.90692 14.7199 2.87773 14.5982 2.90029 14.48L2.80097 14.349Z" fill="#FC7201"/>
<mask id="mask0_152_91" style="mask-type:luminance" maskUnits="userSpaceOnUse" x="2" y="2" width="24" height="23">
<path d="M16.1396 4.93439C16.5771 5.17632 17.0643 5.33143 17.5702 5.38987C18.0762 5.4483 18.5897 5.40878 19.0782 5.27381C19.6904 5.27381 20.0578 5.27381 20.3027 5.50008C20.9149 5.95263 20.9149 7.19715 20.7924 7.76283C20.7734 7.8309 20.7717 7.90213 20.7877 7.97088C20.8036 8.03963 20.8366 8.10401 20.8841 8.15891C20.9317 8.21381 20.9924 8.25772 21.0615 8.28716C21.1306 8.3166 21.2062 8.33076 21.2822 8.32852C21.4121 8.32852 21.5367 8.28084 21.6285 8.19597C21.7204 8.1111 21.772 7.99599 21.772 7.87597C21.772 7.08401 21.772 5.61322 20.9149 4.82125C20.4251 4.48184 19.6904 4.3687 18.8333 4.48184C17.9762 4.59498 17.2416 4.48184 16.6293 4.14243C15.8947 3.68988 15.6498 2.89792 15.6498 2.67164C15.691 2.60274 15.7121 2.52509 15.711 2.44636C15.7098 2.36763 15.6864 2.29054 15.6431 2.22271C15.5999 2.15488 15.5382 2.09866 15.4642 2.0596C15.3902 2.02054 15.3064 2 15.2212 2C15.136 2 15.0523 2.02054 14.9783 2.0596C14.9043 2.09866 14.8426 2.15488 14.7993 2.22271C14.756 2.29054 14.7327 2.36763 14.7315 2.44636C14.7303 2.52509 14.7514 2.60274 14.7927 2.67164C14.9014 3.56041 15.3855 4.37358 16.1396 4.93439ZM25.4453 11.0438L23.976 8.44166C23.911 8.33664 23.8036 8.25976 23.6773 8.22793C23.551 8.19611 23.4162 8.21194 23.3025 8.27195C23.1889 8.33196 23.1057 8.43124 23.0712 8.54793C23.0368 8.66463 23.0539 8.78919 23.1189 8.89421L24.8331 11.6095C24.8863 11.7109 24.9786 11.7903 25.0918 11.8321C25.205 11.874 25.3311 11.8753 25.4453 11.8358C25.506 11.8021 25.558 11.7566 25.5978 11.7025C25.6376 11.6484 25.6642 11.587 25.6758 11.5224C25.6875 11.4579 25.6838 11.3918 25.6652 11.3287C25.6465 11.2657 25.6133 11.207 25.5677 11.157L25.4453 11.0438ZM22.3842 9.23362C22.377 9.16263 22.3517 9.09422 22.3104 9.03397C22.2692 8.97372 22.2131 8.92333 22.1467 8.88691C22.0804 8.85049 22.0057 8.82907 21.9287 8.82439C21.8517 8.81972 21.7746 8.83192 21.7036 8.86001C21.6327 8.8881 21.57 8.93127 21.5205 8.98602C21.4711 9.04076 21.4363 9.10553 21.4191 9.17504C21.4019 9.24455 21.4027 9.31683 21.4215 9.38599C21.4403 9.45516 21.4764 9.51924 21.5271 9.57304L23.2413 12.2883C23.2946 12.3897 23.3868 12.4691 23.5 12.5109C23.6133 12.5528 23.7393 12.5541 23.8535 12.5146C23.9632 12.4654 24.0491 12.3802 24.0944 12.2756C24.1397 12.1709 24.1411 12.0545 24.0984 11.9489L22.3842 9.23362ZM21.5271 12.7409L20.3027 10.8175L8.05825 17.3795L9.28269 19.3029L21.5271 12.7409ZM8.42558 19.7554L7.20114 17.7189L3.16048 19.9817L4.38492 21.905L8.42558 19.6423V19.7554ZM22.5066 12.7409C22.5607 12.8336 22.578 12.9408 22.5556 13.0441C22.5333 13.1474 22.4727 13.2402 22.3842 13.3066L4.38492 22.8101C4.33896 22.8583 4.28244 22.8969 4.2191 22.9233C4.15577 22.9497 4.08708 22.9634 4.01759 22.9634C3.9481 22.9634 3.87941 22.9497 3.81608 22.9233C3.75275 22.8969 3.69622 22.8583 3.65026 22.8101L2.05849 19.9817C2.00448 19.889 1.98716 19.7817 2.00951 19.6785C2.03186 19.5752 2.09248 19.4824 2.18093 19.416L20.0578 9.91245C20.1446 9.84818 20.2526 9.81317 20.3639 9.81317C20.4752 9.81317 20.5831 9.84818 20.67 9.91245L22.3842 12.7409H22.5066ZM21.0373 15.9087C20.9296 15.9344 20.8345 15.9932 20.7677 16.0754C20.7009 16.1577 20.6665 16.2585 20.67 16.3613C20.675 16.5121 20.675 16.663 20.67 16.8138L20.4251 17.4927C20.1677 18.8418 19.5195 20.1013 18.5493 21.1373C17.5791 22.1732 16.3232 22.9468 14.9151 23.3758C13.8228 23.6956 12.6701 23.8004 11.5313 23.6835C10.3925 23.5666 9.29283 23.2305 8.30313 22.697C8.26091 22.6312 8.2013 22.5763 8.12988 22.5375C8.05846 22.4987 7.97757 22.4774 7.89477 22.4753C7.81197 22.4733 7.72997 22.4907 7.65643 22.5259C7.58289 22.5611 7.52021 22.613 7.47427 22.6767C7.42832 22.7404 7.4006 22.8138 7.39371 22.89C7.38681 22.9663 7.40096 23.0429 7.43484 23.1128C7.46871 23.1826 7.5212 23.2434 7.5874 23.2894C7.6536 23.3354 7.73134 23.3651 7.81336 23.3758C8.91159 23.9712 10.1318 24.3491 11.3966 24.4854C12.6613 24.6218 13.9429 24.5136 15.16 24.1678C16.8791 23.6808 18.4024 22.7322 19.5363 21.4428C20.6701 20.1534 21.3631 18.5814 21.5271 16.927V16.3613C21.5271 16.2413 21.4755 16.1262 21.3836 16.0413C21.2918 15.9564 21.1672 15.9087 21.0373 15.9087ZM3.28293 16.3613C3.2189 15.2254 3.4027 14.0892 3.82339 13.0202C4.24409 11.9512 4.89308 10.9713 5.73181 10.1387C5.92175 9.93754 6.1263 9.74854 6.34403 9.57304C7.30241 8.79594 8.42964 8.21731 9.65002 7.87597C10.9368 7.50479 12.297 7.40359 13.6315 7.57974C14.966 7.75589 16.2412 8.20496 17.364 8.89421C17.446 8.9049 17.5238 8.93464 17.59 8.98064C17.6562 9.02664 17.7086 9.08741 17.7425 9.15725C17.7764 9.22709 17.7905 9.30373 17.7836 9.38C17.7767 9.45626 17.749 9.52967 17.7031 9.59335C17.6571 9.65703 17.5945 9.7089 17.5209 9.74412C17.4474 9.77934 17.3654 9.79674 17.2826 9.79471C17.1998 9.79268 17.1189 9.77128 17.0475 9.73252C16.9761 9.69375 16.9164 9.63888 16.8742 9.57304C15.8568 8.95248 14.7024 8.54926 13.4951 8.39269C12.2878 8.23612 11.0579 8.33015 9.89491 8.66793C8.80481 8.99725 7.80307 9.53719 6.95625 10.2519C6.04318 11.0397 5.33689 12.0098 4.89127 13.0882C4.44565 14.1666 4.27247 15.3248 4.38492 16.4744C4.38492 16.5945 4.33332 16.7096 4.24147 16.7944C4.14962 16.8793 4.02504 16.927 3.89515 16.927C3.76525 16.927 3.64067 16.8793 3.54882 16.7944C3.45697 16.7096 3.40537 16.5945 3.40537 16.4744L3.28293 16.3613Z" fill="#292F37"/>
</mask>
<g mask="url(#mask0_152_91)">
<path fill-rule="evenodd" clip-rule="evenodd" d="M-0.512909 1.65332H27.6492V27.675H-0.512909V1.65332Z" fill="#FC7201"/>
</g>
</svg>
