<svg width="22" height="22" viewBox="0 0 22 22" fill="none" xmlns="http://www.w3.org/2000/svg">
<path d="M0.500002 11.1782V11.1779C0.500002 9.93053 0.737301 8.69539 1.21577 7.46971C1.68699 6.2626 2.45731 5.11602 3.54106 4.03144C4.22517 3.34732 5.07862 2.75297 6.10953 2.25272C7.13744 1.75393 8.36706 1.35376 9.80464 1.0576C11.2392 0.76289 12.8872 0.583148 14.7516 0.52136C16.4988 0.463453 18.4461 0.52317 20.5946 0.701879C20.7356 2.7315 20.7768 4.60306 20.719 6.31729C20.6572 8.15135 20.4872 9.79741 20.2112 11.2575L20.2112 11.2577C19.9362 12.7159 19.551 13.9772 19.0605 15.047C18.5706 16.1156 17.9724 16.9968 17.2711 17.6997C16.2061 18.7646 15.088 19.5312 13.9183 20.0131C12.7364 20.5 11.5357 20.7412 10.3128 20.7404H10.3125C9.02569 20.7404 7.7673 20.4881 6.53407 19.9805C5.30012 19.4726 4.24187 18.7743 3.35356 17.8868C2.4611 16.9944 1.76206 15.9638 1.25516 14.7919C0.750076 13.6242 0.499213 12.4209 0.500002 11.1782ZM6.01553 17.6168L5.92247 17.9814L10.3125 18.7404V19.2404C10.3127 19.2404 10.3129 19.2404 10.3131 19.2404C11.3403 19.2403 12.3524 19.0331 13.3465 18.624C14.3555 18.2088 15.305 17.5478 16.1971 16.6566L16.1973 16.6564C16.6149 16.2388 17.0209 15.6715 17.4195 14.9716C17.8347 14.2425 18.1818 13.3118 18.4693 12.1936L18.4693 12.1934C18.7586 11.0663 18.9754 9.71594 19.1228 8.14717C19.2715 6.56495 19.2918 4.69082 19.1869 2.52865L19.1648 2.07195L18.7079 2.0533C17.6771 2.01123 16.5179 1.99577 15.2308 2.00665C13.927 2.01768 12.6279 2.11821 11.3336 2.30819L11.3333 2.30824C10.0308 2.5004 8.78957 2.81044 7.61038 3.23924C6.40828 3.67637 5.4046 4.28493 4.6152 5.07433C3.64467 6.04486 2.95128 7.02877 2.56485 8.02893C2.19178 8.99454 2 9.94105 2 10.8654C2 12.1587 2.24711 13.3169 2.75759 14.3261C3.23108 15.2621 3.66874 15.967 4.07397 16.3962L4.55472 16.9053L4.8802 16.2853C5.73197 14.6629 6.86068 13.1001 8.27083 11.5976C8.66858 11.1738 9.08523 10.7717 9.52086 10.3913C9.20125 10.8043 8.89474 11.2289 8.60135 11.6651C7.45112 13.3754 6.59103 15.3616 6.01553 17.6168Z" stroke="#FC7201"/>
</svg>
