<svg width="20" height="27" viewBox="0 0 20 27" fill="none" xmlns="http://www.w3.org/2000/svg">
<path d="M8.71429 8.97872C8.71429 7.85014 9.25612 6.76779 10.2206 5.96976C11.1851 5.17173 12.4932 4.7234 13.8571 4.7234H15.1429V1.53191H1V4.7234C1.68199 4.7234 2.33604 4.94757 2.81827 5.34658C3.30051 5.74559 3.57143 6.28677 3.57143 6.85106V13.234C3.57143 13.7983 3.30051 14.3395 2.81827 14.7385C2.33604 15.1375 1.68199 15.3617 1 15.3617V26H15.1429V18.5532L14.9564 18.4606C10.6429 15.8936 8.71429 13.234 8.71429 8.97872ZM8.71429 8.97872H3.57143M12.5714 4.85745V6.31915C12.5714 7.02451 12.9101 7.70099 13.5129 8.19975C14.1157 8.69852 14.9332 8.97872 15.7857 8.97872M19 1V5.25532" stroke="#FC7201" stroke-width="1.25"/>
</svg>
