<svg width="24" height="24" viewBox="0 0 24 24" fill="none" xmlns="http://www.w3.org/2000/svg">
<path fill-rule="evenodd" clip-rule="evenodd" d="M11.3 0.699948C11.2606 0.660551 11.2138 0.6293 11.1624 0.607979C11.1109 0.586657 11.0557 0.575684 11 0.575684C10.9443 0.575684 10.8891 0.586657 10.8376 0.607979C10.7862 0.6293 10.7394 0.660551 10.7 0.699948C10.6606 0.739344 10.6294 0.786115 10.608 0.837589C10.5867 0.889063 10.5757 0.944233 10.5757 0.999948C10.5757 1.05566 10.5867 1.11083 10.608 1.16231C10.6294 1.21378 10.6606 1.26055 10.7 1.29995L11.2 1.79995C11.3832 1.98688 11.4859 2.23819 11.4859 2.49995C11.4859 2.7617 11.3832 3.01302 11.2 3.19995C11.0246 3.36797 10.8849 3.56977 10.7896 3.79319C10.6942 4.01661 10.645 4.25702 10.645 4.49995C10.645 4.74288 10.6942 4.98329 10.7896 5.20671C10.8849 5.43013 11.0246 5.63192 11.2 5.79995L11.7 6.29995C11.7394 6.33934 11.7862 6.37059 11.8376 6.39192C11.8891 6.41324 11.9443 6.42421 12 6.42421C12.0557 6.42421 12.1109 6.41324 12.1624 6.39192C12.2138 6.37059 12.2606 6.33934 12.3 6.29995C12.3394 6.26055 12.3707 6.21378 12.392 6.16231C12.4133 6.11083 12.4243 6.05566 12.4243 5.99995C12.4243 5.94423 12.4133 5.88906 12.392 5.83759C12.3707 5.78611 12.3394 5.73934 12.3 5.69995L11.8 5.19995C11.6168 5.01302 11.5141 4.7617 11.5141 4.49995C11.5141 4.23819 11.6168 3.98688 11.8 3.79995C11.9755 3.63192 12.1151 3.43013 12.2105 3.20671C12.3058 2.98329 12.355 2.74288 12.355 2.49995C12.355 2.25702 12.3058 2.01661 12.2105 1.79319C12.1151 1.56977 11.9755 1.36797 11.8 1.19995L11.3 0.699948ZM3.60001 9.49995C3.60001 8.99604 3.80018 8.51276 4.1565 8.15644C4.51282 7.80013 4.99609 7.59995 5.50001 7.59995C6.00392 7.59995 6.48719 7.80013 6.84351 8.15644C7.19983 8.51276 7.40001 8.99604 7.40001 9.49995V9.59995H9.60001V9.49995C9.60001 8.99604 9.80018 8.51276 10.1565 8.15644C10.5128 7.80013 10.9961 7.59995 11.5 7.59995C12.0039 7.59995 12.4872 7.80013 12.8435 8.15644C13.1998 8.51276 13.4 8.99604 13.4 9.49995V9.59995H15.6V9.49995C15.6 8.99604 15.8002 8.51276 16.1565 8.15644C16.5128 7.80013 16.9961 7.59995 17.5 7.59995C18.0039 7.59995 18.4872 7.80013 18.8435 8.15644C19.1998 8.51276 19.4 8.99604 19.4 9.49995V9.59995H20.5C20.5131 9.59995 20.5261 9.59736 20.5383 9.59234C20.5504 9.58731 20.5614 9.57994 20.5707 9.57066C20.58 9.56137 20.5874 9.55035 20.5924 9.53822C20.5974 9.52608 20.6 9.51308 20.6 9.49995C20.6 9.26125 20.6948 9.03233 20.8636 8.86355C21.0324 8.69477 21.2613 8.59995 21.5 8.59995H21.8C22.4 8.59995 22.9 9.09995 22.9 9.69995V12.2999C22.9 12.5917 22.7841 12.8715 22.5778 13.0778C22.3715 13.2841 22.0917 13.3999 21.8 13.3999H21.5C21.2613 13.3999 21.0324 13.3051 20.8636 13.1363C20.6948 12.9676 20.6 12.7386 20.6 12.4999C20.6 12.4868 20.5974 12.4738 20.5924 12.4617C20.5874 12.4495 20.58 12.4385 20.5707 12.4292C20.5614 12.42 20.5504 12.4126 20.5383 12.4076C20.5261 12.4025 20.5131 12.3999 20.5 12.3999H19.4V18.5999H20.5C20.5131 18.5999 20.5261 18.5974 20.5383 18.5923C20.5504 18.5873 20.5614 18.5799 20.5707 18.5707C20.58 18.5614 20.5874 18.5504 20.5924 18.5382C20.5974 18.5261 20.6 18.5131 20.6 18.4999C20.6 18.2613 20.6948 18.0323 20.8636 17.8636C21.0324 17.6948 21.2613 17.5999 21.5 17.5999H21.8C22.4 17.5999 22.9 18.0999 22.9 18.6999V21.2999C22.9 21.5917 22.7841 21.8715 22.5778 22.0778C22.3715 22.2841 22.0917 22.3999 21.8 22.3999H21.5C21.2613 22.3999 21.0324 22.3051 20.8636 22.1363C20.6948 21.9676 20.6 21.7386 20.6 21.4999C20.6 21.4868 20.5974 21.4738 20.5924 21.4617C20.5874 21.4495 20.58 21.4385 20.5707 21.4292C20.5614 21.42 20.5504 21.4126 20.5383 21.4076C20.5261 21.4025 20.5131 21.3999 20.5 21.3999H19.4V21.4999C19.4 22.0039 19.1998 22.4871 18.8435 22.8435C18.4872 23.1998 18.0039 23.3999 17.5 23.3999C16.9961 23.3999 16.5128 23.1998 16.1565 22.8435C15.8002 22.4871 15.6 22.0039 15.6 21.4999V21.3999H13.4V21.4999C13.4 22.0039 13.1998 22.4871 12.8435 22.8435C12.4872 23.1998 12.0039 23.3999 11.5 23.3999C10.9961 23.3999 10.5128 23.1998 10.1565 22.8435C9.80018 22.4871 9.60001 22.0039 9.60001 21.4999V21.3999H7.40001V21.4999C7.40001 22.0039 7.19983 22.4871 6.84351 22.8435C6.48719 23.1998 6.00392 23.3999 5.50001 23.3999C4.99609 23.3999 4.51282 23.1998 4.1565 22.8435C3.80018 22.4871 3.60001 22.0039 3.60001 21.4999V21.3999H2.50001C2.1287 21.3999 1.77261 21.2524 1.51006 20.9899C1.24751 20.7273 1.10001 20.3713 1.10001 19.9999C1.10001 19.6286 1.24751 19.2725 1.51006 19.01C1.77261 18.7474 2.1287 18.5999 2.50001 18.5999H3.60001V12.3999H2.50001C2.1287 12.3999 1.77261 12.2524 1.51006 11.9899C1.24751 11.7273 1.10001 11.3713 1.10001 10.9999C1.10001 10.6286 1.24751 10.2725 1.51006 10.01C1.77261 9.74745 2.1287 9.59995 2.50001 9.59995H3.60001V9.49995ZM13.4 10.3999H15.6V11.5999H13.4V10.3999ZM13.4 12.3999H15.6V18.5999H13.4V12.3999ZM13.4 19.3999H15.6V20.5999H13.4V19.3999ZM20.5 11.5999H19.4V10.3999H20.5C20.7387 10.3999 20.9676 10.3051 21.1364 10.1363C21.3052 9.96756 21.4 9.73864 21.4 9.49995C21.4 9.47343 21.4105 9.44799 21.4293 9.42924C21.448 9.41048 21.4735 9.39995 21.5 9.39995H21.8C21.8394 9.39995 21.8784 9.40771 21.9148 9.42278C21.9512 9.43786 21.9843 9.45996 22.0121 9.48782C22.04 9.51567 22.0621 9.54874 22.0772 9.58514C22.0922 9.62154 22.1 9.66055 22.1 9.69995V12.1999C22.1166 12.2466 22.1214 12.2966 22.1139 12.3456C22.1065 12.3945 22.087 12.4408 22.0573 12.4804C22.0276 12.5201 21.9886 12.5517 21.9437 12.5725C21.8988 12.5934 21.8494 12.6028 21.8 12.5999H21.5C21.4735 12.5999 21.448 12.5894 21.4293 12.5707C21.4105 12.5519 21.4 12.5265 21.4 12.4999C21.4 12.2613 21.3052 12.0323 21.1364 11.8636C20.9676 11.6948 20.7387 11.5999 20.5 11.5999ZM20.5 20.5999H19.4V19.3999H20.5C20.7387 19.3999 20.9676 19.3051 21.1364 19.1363C21.3052 18.9676 21.4 18.7386 21.4 18.4999C21.4 18.4734 21.4105 18.448 21.4293 18.4292C21.448 18.4105 21.4735 18.3999 21.5 18.3999H21.8C21.8394 18.3999 21.8784 18.4077 21.9148 18.4228C21.9512 18.4379 21.9843 18.46 22.0121 18.4878C22.04 18.5157 22.0621 18.5487 22.0772 18.5851C22.0922 18.6215 22.1 18.6606 22.1 18.6999V21.2999C22.1 21.3795 22.0684 21.4558 22.0121 21.5121C21.9559 21.5683 21.8796 21.5999 21.8 21.5999H21.5C21.4735 21.5999 21.448 21.5894 21.4293 21.5707C21.4105 21.5519 21.4 21.5265 21.4 21.4999C21.4 21.2613 21.3052 21.0323 21.1364 20.8636C20.9676 20.6948 20.7387 20.5999 20.5 20.5999ZM9.60001 19.3999H7.40001V20.5999H9.60001V19.3999ZM9.60001 18.5999V12.3999H7.40001V18.5999H9.60001ZM9.60001 11.5999V10.3999H7.40001V11.5999H9.60001ZM2.50001 19.3999H3.60001V20.5999H2.50001C2.42121 20.5999 2.34319 20.5844 2.2704 20.5543C2.1976 20.5241 2.13146 20.4799 2.07574 20.4242C2.02003 20.3685 1.97583 20.3024 1.94568 20.2296C1.91553 20.1568 1.90001 20.0787 1.90001 19.9999C1.90001 19.9212 1.91553 19.8431 1.94568 19.7703C1.97583 19.6975 2.02003 19.6314 2.07574 19.5757C2.13146 19.52 2.1976 19.4758 2.2704 19.4456C2.34319 19.4155 2.42121 19.3999 2.50001 19.3999ZM3.60001 10.3999V11.5999H2.50001C2.34088 11.5999 2.18826 11.5367 2.07574 11.4242C1.96322 11.3117 1.90001 11.1591 1.90001 10.9999C1.90001 10.8408 1.96322 10.6882 2.07574 10.5757C2.18826 10.4632 2.34088 10.3999 2.50001 10.3999H3.60001ZM5.50001 8.39995C5.20827 8.39995 4.92848 8.51584 4.72219 8.72213C4.5159 8.92842 4.40001 9.20821 4.40001 9.49995V21.4999C4.40001 21.7917 4.5159 22.0715 4.72219 22.2778C4.92848 22.4841 5.20827 22.5999 5.50001 22.5999C5.79174 22.5999 6.07153 22.4841 6.27782 22.2778C6.48411 22.0715 6.60001 21.7917 6.60001 21.4999V9.49995C6.60001 9.20821 6.48411 8.92842 6.27782 8.72213C6.07153 8.51584 5.79174 8.39995 5.50001 8.39995ZM10.4 9.49995C10.4 9.20821 10.5159 8.92842 10.7222 8.72213C10.9285 8.51584 11.2083 8.39995 11.5 8.39995C11.7917 8.39995 12.0715 8.51584 12.2778 8.72213C12.4841 8.92842 12.6 9.20821 12.6 9.49995V21.4999C12.6 21.7917 12.4841 22.0715 12.2778 22.2778C12.0715 22.4841 11.7917 22.5999 11.5 22.5999C11.2083 22.5999 10.9285 22.4841 10.7222 22.2778C10.5159 22.0715 10.4 21.7917 10.4 21.4999V9.49995ZM17.5 8.39995C17.3556 8.39995 17.2125 8.4284 17.0791 8.48368C16.9456 8.53896 16.8243 8.61999 16.7222 8.72213C16.62 8.82427 16.539 8.94554 16.4837 9.079C16.4285 9.21245 16.4 9.35549 16.4 9.49995V21.4999C16.4 21.7917 16.5159 22.0715 16.7222 22.2778C16.9285 22.4841 17.2083 22.5999 17.5 22.5999C17.7917 22.5999 18.0715 22.4841 18.2778 22.2778C18.4841 22.0715 18.6 21.7917 18.6 21.4999V9.49995C18.6 9.35549 18.5716 9.21245 18.5163 9.079C18.461 8.94554 18.38 8.82427 18.2778 8.72213C18.1757 8.61999 18.0544 8.53896 17.921 8.48368C17.7875 8.4284 17.6445 8.39995 17.5 8.39995ZM14.7 1.19995C14.7375 1.15739 14.7837 1.1233 14.8354 1.09995C14.8872 1.0766 14.9433 1.06452 15 1.06452C15.0568 1.06452 15.1129 1.0766 15.1646 1.09995C15.2163 1.1233 15.2625 1.15739 15.3 1.19995L15.8 1.69995C15.9755 1.86797 16.1151 2.06977 16.2105 2.29319C16.3058 2.51661 16.355 2.75702 16.355 2.99995C16.355 3.24288 16.3058 3.48329 16.2105 3.70671C16.1151 3.93013 15.9755 4.13192 15.8 4.29995C15.6168 4.48688 15.5141 4.73819 15.5141 4.99995C15.5141 5.2617 15.6168 5.51302 15.8 5.69995L16.3 6.19995C16.3394 6.23934 16.3707 6.28611 16.392 6.33759C16.4133 6.38906 16.4243 6.44423 16.4243 6.49995C16.4243 6.55566 16.4133 6.61083 16.392 6.66231C16.3707 6.71378 16.3394 6.76055 16.3 6.79995C16.2606 6.83934 16.2138 6.87059 16.1624 6.89192C16.1109 6.91324 16.0557 6.92421 16 6.92421C15.9443 6.92421 15.8891 6.91324 15.8376 6.89192C15.7862 6.87059 15.7394 6.83934 15.7 6.79995L15.2 6.29995C15.0246 6.13192 14.8849 5.93013 14.7896 5.70671C14.6942 5.48329 14.645 5.24288 14.645 4.99995C14.645 4.75702 14.6942 4.51661 14.7896 4.29319C14.8849 4.06977 15.0246 3.86797 15.2 3.69995C15.3832 3.51302 15.4859 3.2617 15.4859 2.99995C15.4859 2.73819 15.3832 2.48688 15.2 2.29995L14.7 1.79995C14.6574 1.76241 14.6234 1.71625 14.6 1.66452C14.5767 1.6128 14.5646 1.5567 14.5646 1.49995C14.5646 1.4432 14.5767 1.3871 14.6 1.33537C14.6234 1.28365 14.6574 1.23748 14.7 1.19995ZM7.30001 1.19995C7.26061 1.16055 7.21384 1.1293 7.16236 1.10798C7.11089 1.08666 7.05572 1.07568 7.00001 1.07568C6.94429 1.07568 6.88912 1.08666 6.83765 1.10798C6.78617 1.1293 6.7394 1.16055 6.70001 1.19995C6.66061 1.23934 6.62936 1.28611 6.60804 1.33759C6.58672 1.38906 6.57574 1.44423 6.57574 1.49995C6.57574 1.55566 6.58672 1.61083 6.60804 1.66231C6.62936 1.71378 6.66061 1.76055 6.70001 1.79995L7.20001 2.29995C7.38323 2.48688 7.48586 2.73819 7.48586 2.99995C7.48586 3.2617 7.38323 3.51302 7.20001 3.69995C7.02456 3.86797 6.88494 4.06977 6.78955 4.29319C6.69417 4.51661 6.645 4.75702 6.645 4.99995C6.645 5.24288 6.69417 5.48329 6.78955 5.70671C6.88494 5.93013 7.02456 6.13192 7.20001 6.29995L7.70001 6.79995C7.7394 6.83934 7.78617 6.87059 7.83765 6.89192C7.88912 6.91324 7.94429 6.92421 8.00001 6.92421C8.05572 6.92421 8.11089 6.91324 8.16237 6.89192C8.21384 6.87059 8.26061 6.83934 8.30001 6.79995C8.3394 6.76055 8.37065 6.71378 8.39197 6.66231C8.4133 6.61083 8.42427 6.55566 8.42427 6.49995C8.42427 6.44423 8.4133 6.38906 8.39197 6.33759C8.37065 6.28611 8.3394 6.23934 8.30001 6.19995L7.80001 5.69995C7.61678 5.51302 7.51415 5.2617 7.51415 4.99995C7.51415 4.73819 7.61678 4.48688 7.80001 4.29995C7.97545 4.13192 8.11508 3.93013 8.21046 3.70671C8.30584 3.48329 8.35502 3.24288 8.35502 2.99995C8.35502 2.75702 8.30584 2.51661 8.21046 2.29319C8.11508 2.06977 7.97545 1.86797 7.80001 1.69995L7.30001 1.19995Z" fill="#FC7201"/>
</svg>
