<svg width="25" height="25" viewBox="0 0 25 25" fill="none" xmlns="http://www.w3.org/2000/svg">
<path d="M0 20.3125H10.4167M10.9375 15.1042L8.85417 6.77083H7.36146C6.72818 6.77093 6.10988 6.96343 5.58846 7.32282C5.06704 7.68221 4.66711 8.19154 4.44167 8.78333L1.04167 17.7083M15.625 24.4792C14.5833 24.4792 13.8021 22.9167 13.8021 22.9167C13.0208 21.3542 13.0208 20.3125 13.0208 18.75V17.1875H5.72917V10.9375M15.6969 0C15.6969 0.34375 15.6448 0.691667 15.4823 0.994792C15.1432 1.629 14.6381 2.15918 14.0211 2.52868C13.4041 2.89819 12.6983 3.09314 11.9792 3.09271C12.7869 3.09278 13.5755 3.33908 14.2397 3.79876C14.9039 4.25844 15.4122 4.90967 15.6969 5.66562C16.03 6.4015 16.1309 7.22143 15.9861 8.0161C15.8413 8.81078 15.4577 9.54243 14.8865 10.1135C15.4576 9.54231 16.1892 9.15873 16.9839 9.01394C17.7786 8.86915 18.5985 8.97003 19.3344 9.30312C20.0903 9.58777 20.7416 10.0961 21.2012 10.7603C21.6609 11.4245 21.9072 12.2131 21.9073 13.0208C21.9073 11.5052 22.7562 10.1875 24.0052 9.51771C24.3083 9.35521 24.6552 9.30312 25 9.30312M19.7917 0.547917C19.4378 0.842091 19.1491 1.20684 18.9441 1.61887C18.7392 2.0309 18.6224 2.48115 18.6013 2.94086C18.5801 3.40057 18.6551 3.85963 18.8214 4.28873C18.9877 4.71783 19.2417 5.10753 19.5671 5.43294C19.8925 5.75835 20.2822 6.01231 20.7113 6.17861C21.1404 6.3449 21.5994 6.41988 22.0591 6.39874C22.5189 6.3776 22.9691 6.26082 23.3811 6.05585C23.7932 5.85088 24.1579 5.56223 24.4521 5.20833M7.49375 4.6875C7.49375 4.6875 5.60833 4.10729 5.27083 2.8375C5.14485 2.3672 5.21024 1.86614 5.45268 1.44392C5.69512 1.02169 6.0949 0.712648 6.56458 0.584375C6.79687 0.522219 7.03916 0.506634 7.2775 0.538519C7.51584 0.570404 7.74551 0.649128 7.9533 0.770157C8.16108 0.891185 8.34286 1.05213 8.48818 1.24371C8.63349 1.4353 8.73947 1.65374 8.8 1.88646C9.1375 3.15625 7.79792 4.60521 7.79792 4.60521L7.49479 4.6875H7.49375Z" stroke="#FC7201" stroke-width="1.25"/>
</svg>
