<svg width="18" height="27" viewBox="0 0 18 27" fill="none" xmlns="http://www.w3.org/2000/svg">
<path d="M14.6556 1.20734C14.5589 3.33515 14.5588 5.46282 14.6554 7.59033C14.2954 7.42018 13.8948 7.33091 13.4875 7.33091C13.1014 7.33091 12.7213 7.41115 12.376 7.56448C12.8981 5.47988 12.8975 3.3159 12.3744 1.23147C12.722 1.3795 13.102 1.45671 13.4875 1.45671C13.8935 1.45671 14.2933 1.3711 14.6556 1.20734Z" stroke="#FC7201" stroke-width="0.25"/>
<path d="M16.8675 10.5941C16.7252 15.6358 16.725 20.6777 16.8669 25.7198C16.3415 25.2961 15.797 25.0766 15.2348 25.0766C14.6807 25.0766 14.1262 25.2899 13.5726 25.7012C14.3497 20.7065 14.3501 15.638 13.574 10.6432C14.0911 11.0357 14.6242 11.23 15.1716 11.2247C15.7382 11.2193 16.3041 11.0002 16.8675 10.5941Z" stroke="#FC7201" stroke-width="0.25"/>
<path d="M14.7905 7.80252C10.9469 7.34011 7.0525 7.34011 3.20894 7.80252C4.07932 5.6032 4.07932 3.19932 3.20894 1C7.05393 1.44244 10.9455 1.44244 14.7905 1C14.301 3.24594 14.301 5.55658 14.7905 7.80252ZM17 25.9995C11.7318 24.9348 6.26824 24.9348 1 25.9995C2.20245 20.8347 2.20245 15.5003 1 10.3355C6.27356 11.3541 11.7259 11.3541 16.9994 10.3355C16.3232 15.5389 16.3237 20.796 17 25.9995Z" stroke="#FC7201" stroke-width="0.833333" stroke-linecap="round" stroke-linejoin="round"/>
</svg>
