<svg width="20" height="26" viewBox="0 0 20 26" fill="none" xmlns="http://www.w3.org/2000/svg">
<path d="M4.18216 7.12881H15.6143M13.0214 4.65381H15.6143M4.0643 4.65381H4.8893" stroke="#FC7201" stroke-width="0.88" stroke-linecap="round" stroke-linejoin="round"/>
<path fill-rule="evenodd" clip-rule="evenodd" d="M17.0286 22.9214H2.88571C1.825 22.9214 1 21.9786 1 20.9179V2.88571C1 1.70714 1.825 1 2.88571 1H17.0286C17.9714 1 18.7964 1.825 18.7964 2.88571V20.9179C18.7964 22.0964 17.9714 22.9214 16.9107 22.9214H17.0286Z" stroke="#FC7201" stroke-width="1.32" stroke-linecap="round" stroke-linejoin="round"/>
<path d="M16.4393 22.8037V24.6894M3.47501 24.6894V22.8037" stroke="#FC7201" stroke-width="0.88" stroke-linecap="round" stroke-linejoin="round"/>
<path fill-rule="evenodd" clip-rule="evenodd" d="M13.7286 13.8467C13.8271 14.4059 13.8019 14.9799 13.6548 15.5284C13.5077 16.0769 13.2424 16.5865 12.8773 17.0215C12.5122 17.4564 12.0564 17.8062 11.5417 18.0461C11.027 18.2861 10.4661 18.4104 9.89823 18.4104C9.33038 18.4104 8.76941 18.2861 8.25475 18.0461C7.74009 17.8062 7.28421 17.4564 6.91916 17.0215C6.5541 16.5865 6.28871 16.0769 6.14164 15.5284C5.99458 14.9799 5.9694 14.4059 6.06787 13.8467C6.22647 12.946 6.69739 12.13 7.39789 11.542C8.0984 10.9541 8.98369 10.6318 9.89823 10.6318C10.8128 10.6318 11.6981 10.9541 12.3986 11.542C13.0991 12.13 13.57 12.946 13.7286 13.8467Z" stroke="#FC7201" stroke-width="1.32" stroke-linecap="round" stroke-linejoin="round"/>
</svg>
