<svg width="22" height="24" viewBox="0 0 22 24" fill="none" xmlns="http://www.w3.org/2000/svg">
<path d="M21.5523 21.8566L18.9742 1.23164C18.9316 0.891515 18.7663 0.578646 18.5093 0.351842C18.2522 0.125038 17.9212 -8.17537e-05 17.5785 4.00775e-08H3.98471C3.64193 -8.17537e-05 3.31093 0.125038 3.05391 0.351842C2.7969 0.578646 2.63157 0.891515 2.58901 1.23164L0.0108825 21.8566C-0.0138814 22.0545 0.00373299 22.2554 0.0625562 22.446C0.121379 22.6366 0.220066 22.8125 0.352064 22.962C0.484063 23.1115 0.646354 23.2312 0.828164 23.3132C1.00997 23.3952 1.20714 23.4375 1.40659 23.4375H6.17494C6.48806 23.4376 6.79227 23.3333 7.03937 23.141C7.28646 22.9486 7.46229 22.6794 7.53901 22.3758L10.7816 9.84375L14.0242 22.3758C14.1009 22.6794 14.2767 22.9486 14.5238 23.141C14.7709 23.3333 15.0751 23.4376 15.3882 23.4375H20.1566C20.356 23.4375 20.5532 23.3952 20.735 23.3132C20.9168 23.2312 21.0791 23.1115 21.2111 22.962C21.3431 22.8125 21.4418 22.6366 21.5006 22.446C21.5594 22.2554 21.5771 22.0545 21.5523 21.8566ZM18.9285 8.42578C17.9435 8.35762 17.0137 7.94619 16.3009 7.26312C15.5881 6.58005 15.1374 5.66862 15.0273 4.6875H18.4609L18.9285 8.42578ZM3.98471 0.9375H17.5785C17.6933 0.9366 17.8044 0.977864 17.8908 1.05347C17.9772 1.12907 18.0329 1.23375 18.0472 1.34766L18.3437 3.75H3.21948L3.51596 1.34766C3.53031 1.23375 3.58596 1.12907 3.67236 1.05347C3.75876 0.977864 3.86991 0.9366 3.98471 0.9375ZM3.10229 4.6875H6.53588C6.4258 5.66862 5.97511 6.58005 5.26228 7.26312C4.54945 7.94619 3.61963 8.35762 2.63471 8.42578L3.10229 4.6875ZM6.62963 22.1484C6.60362 22.2492 6.54481 22.3384 6.46249 22.4021C6.38017 22.4657 6.27901 22.5002 6.17494 22.5H1.40659C1.33977 22.5005 1.27362 22.4868 1.21256 22.4596C1.1515 22.4325 1.09695 22.3926 1.05256 22.3427C1.00817 22.2927 0.974969 22.2339 0.955182 22.1701C0.935396 22.1063 0.929482 22.0389 0.937836 21.9727L2.51635 9.375C3.77222 9.33147 4.96909 8.83134 5.88254 7.96837C6.79599 7.1054 7.36329 5.93887 7.47807 4.6875H10.3128V7.90898L6.62963 22.1484ZM20.5081 22.3418C20.4641 22.3916 20.41 22.4314 20.3494 22.4587C20.2888 22.486 20.2231 22.5001 20.1566 22.5H15.3882C15.283 22.5001 15.1809 22.4647 15.0982 22.3997C15.0155 22.3346 14.9571 22.2437 14.9324 22.1414L11.2503 7.90898V4.6875H14.0851C14.1999 5.93887 14.7672 7.1054 15.6806 7.96837C16.5941 8.83134 17.7909 9.33147 19.0468 9.375L20.6253 21.9727C20.6332 22.039 20.6269 22.1062 20.6066 22.1699C20.5864 22.2336 20.5529 22.2922 20.5081 22.3418Z" fill="#FC7201"/>
</svg>
