<svg width="24" height="26" viewBox="0 0 24 26" fill="none" xmlns="http://www.w3.org/2000/svg">
<path d="M3.08333 25.4771V18.7063C3.08333 18.1537 2.86384 17.6238 2.47314 17.2331C2.08244 16.8424 1.55253 16.6229 1 16.6229V8.28958C1 8.28958 2.5625 7.24792 5.16667 7.24792C5.95778 7.24667 6.74579 7.34679 7.51146 7.54583M10.376 25.4771V19.7479H6.72917V19.4875L6.80417 19.3313C8.4694 15.8339 9.33344 12.009 9.33333 8.13542V7.79271C10.3342 7.42623 11.3925 7.24173 12.4583 7.24792C13.8 7.24792 14.8656 7.525 15.5833 7.79271V8.13542C15.5833 8.97229 15.6236 9.80868 15.7042 10.6417M21.0521 25.4771V21.9083C21.0521 20.7146 21.8687 19.7479 22.875 19.7479V13.0156C22.875 13.0156 21.5073 11.9354 19.2292 11.9354C16.95 11.9354 15.5833 13.0156 15.5833 13.0156V19.7479C16.5906 19.7479 17.4062 20.7156 17.4062 21.9083V25.4771M5.01042 5.16458C5.01042 5.16458 3.34375 4.12292 3.34375 2.82083C3.34375 2.58172 3.39085 2.34494 3.48235 2.12403C3.57386 1.90312 3.70798 1.70239 3.87706 1.53331C4.04614 1.36423 4.24687 1.23011 4.46778 1.1386C4.68869 1.0471 4.92547 1 5.16458 1C5.4037 1 5.64047 1.0471 5.86139 1.1386C6.0823 1.23011 6.28303 1.36423 6.45211 1.53331C6.62119 1.70239 6.75531 1.90312 6.84681 2.12403C6.93832 2.34494 6.98542 2.58172 6.98542 2.82083C6.98542 4.12292 5.32292 5.16458 5.32292 5.16458H5.01042ZM12.3021 5.16458C12.3021 5.16458 10.6354 4.12292 10.6354 2.82083C10.6354 2.33792 10.8273 1.87478 11.1687 1.53331C11.5102 1.19184 11.9733 1 12.4562 1C12.9392 1 13.4023 1.19184 13.7438 1.53331C14.0852 1.87478 14.2771 2.33792 14.2771 2.82083C14.2771 4.12292 12.6146 5.16458 12.6146 5.16458H12.3021ZM19.0969 9.85208C19.0969 9.85208 17.6667 8.94063 17.6667 7.80104C17.6667 6.92083 18.3667 6.20625 19.2313 6.20625C20.0958 6.20625 20.7917 6.92083 20.7917 7.80104C20.7917 8.94063 19.3646 9.85208 19.3646 9.85208H19.0969Z" stroke="#FC7201" stroke-width="1.25"/>
</svg>
