<svg width="25" height="23" viewBox="0 0 25 23" fill="none" xmlns="http://www.w3.org/2000/svg">
<path d="M25 8.04877C24.9791 8.30418 24.8826 8.54586 24.7245 8.7388C24.5664 8.93175 24.3549 9.06594 24.1206 9.12194V11.8049C24.6231 11.939 25 12.4756 25 13.1463V14.3536C24.9791 14.6091 24.8826 14.8507 24.7245 15.0437C24.5664 15.2366 24.3549 15.3708 24.1206 15.4268V17.9756C24.1206 18.8295 23.8029 19.6484 23.2375 20.2521C22.6721 20.8559 21.9052 21.1951 21.1055 21.1951H20.603C20.603 21.4441 20.5104 21.683 20.3454 21.8591C20.1805 22.0352 19.9569 22.1341 19.7236 22.1341H17.5879C17.3547 22.1341 17.131 22.0352 16.9661 21.8591C16.8012 21.683 16.7085 21.4441 16.7085 21.1951H7.53769C7.53769 21.4441 7.44504 21.683 7.28012 21.8591C7.1152 22.0352 6.89152 22.1341 6.65829 22.1341H4.64824C4.41501 22.1341 4.19133 22.0352 4.02641 21.8591C3.86149 21.683 3.76884 21.4441 3.76884 21.1951H3.01508C2.61913 21.1951 2.22706 21.1118 1.86126 20.95C1.49545 20.7882 1.16307 20.5511 0.883095 20.2521C0.60312 19.9532 0.381031 19.5983 0.229509 19.2076C0.0779873 18.817 0 18.3984 0 17.9756V3.21951C0 2.36564 0.317659 1.54675 0.883095 0.942972C1.44853 0.339197 2.21543 0 3.01508 0H21.1055C21.5015 0 21.8935 0.0832751 22.2593 0.245071C22.6252 0.406866 22.9575 0.644013 23.2375 0.942972C23.5175 1.24193 23.7396 1.59685 23.8911 1.98746C24.0426 2.37806 24.1206 2.79672 24.1206 3.21951V5.49999C24.6231 5.63414 25 6.17073 25 6.70731V8.04877ZM23.1156 17.9756V15.561H21.608V17.439C21.608 17.7592 21.4889 18.0663 21.2769 18.2927C21.0648 18.5191 20.7773 18.6463 20.4774 18.6463H3.76884C3.599 18.6679 3.42679 18.648 3.26517 18.5883C3.10356 18.5285 2.95675 18.4303 2.83581 18.3012C2.71487 18.172 2.62294 18.0153 2.56695 17.8427C2.51096 17.6701 2.49236 17.4862 2.51256 17.3049V4.02439C2.49236 3.84303 2.51096 3.65914 2.56695 3.48657C2.62294 3.31399 2.71487 3.15723 2.83581 3.02809C2.95675 2.89894 3.10356 2.80078 3.26517 2.741C3.42679 2.68121 3.599 2.66135 3.76884 2.68292H20.603C20.7729 2.66135 20.9451 2.68121 21.1067 2.741C21.2683 2.80078 21.4151 2.89894 21.5361 3.02809C21.657 3.15723 21.7489 3.31399 21.8049 3.48657C21.8609 3.65914 21.8795 3.84303 21.8593 4.02439V5.36585H23.2412V3.21951C23.2412 2.65026 23.0294 2.10433 22.6525 1.70182C22.2755 1.2993 21.7643 1.07317 21.2312 1.07317H3.01508C2.48198 1.07317 1.97071 1.2993 1.59376 1.70182C1.2168 2.10433 1.00503 2.65026 1.00503 3.21951V17.9756C1.00503 18.5448 1.2168 19.0908 1.59376 19.4933C1.97071 19.8958 2.48198 20.1219 3.01508 20.1219H21.1055C21.6386 20.1219 22.1499 19.8958 22.5268 19.4933C22.9038 19.0908 23.1156 18.5448 23.1156 17.9756ZM19.7236 21.5975C19.6237 21.5975 19.5278 21.5551 19.4571 21.4797C19.3864 21.4042 19.3467 21.3018 19.3467 21.1951H18.0905C18.0905 21.3018 18.0507 21.4042 17.9801 21.4797C17.9094 21.5551 17.8135 21.5975 17.7136 21.5975H19.7236ZM6.65829 21.5975C6.55834 21.5975 6.46247 21.5551 6.39179 21.4797C6.32111 21.4042 6.28141 21.3018 6.28141 21.1951H5.02513C5.02513 21.3018 4.98542 21.4042 4.91474 21.4797C4.84406 21.5551 4.7482 21.5975 4.64824 21.5975H6.65829ZM21.7337 8.18292H23.1156V6.57316H21.608V8.18292H21.7337ZM21.7337 11.8049H23.1156V9.12194H21.608V11.8049H21.7337ZM21.7337 14.4878H23.1156V12.878H21.608V14.4878H21.7337ZM20.603 5.63414V3.75609H3.51759C3.49849 3.74432 3.47683 3.73812 3.45477 3.73812C3.43272 3.73812 3.41106 3.74432 3.39196 3.75609V17.439H20.3518C20.3709 17.4508 20.3925 17.457 20.4146 17.457C20.4366 17.457 20.4583 17.4508 20.4774 17.439V15.4268C20.2664 15.3476 20.0822 15.2033 19.9481 15.0123C19.8139 14.8213 19.7358 14.5921 19.7236 14.3536V13.0122C19.7236 12.4756 20.1005 12.0732 20.4774 11.939V9.12194C20.2664 9.0427 20.0822 8.89845 19.9481 8.70743C19.8139 8.51641 19.7358 8.2872 19.7236 8.04877V6.70731C19.7236 6.17073 20.1005 5.76829 20.4774 5.63414H20.603ZM6.78392 11C6.91719 11 7.04501 11.0565 7.13925 11.1572C7.23349 11.2578 7.28643 11.3943 7.28643 11.5366C7.28643 11.6789 7.23349 11.8154 7.13925 11.916C7.04501 12.0166 6.91719 12.0732 6.78392 12.0732H5.90452C5.77125 12.0732 5.64343 12.0166 5.54919 11.916C5.45495 11.8154 5.40201 11.6789 5.40201 11.5366C5.40201 11.3943 5.45495 11.2578 5.54919 11.1572C5.64343 11.0565 5.77125 11 5.90452 11H6.65829H6.78392ZM6.78392 12.7439C6.84991 12.7439 6.91526 12.7578 6.97622 12.7847C7.03719 12.8117 7.09259 12.8512 7.13925 12.9011C7.18591 12.9509 7.22293 13.01 7.24818 13.0751C7.27343 13.1402 7.28643 13.21 7.28643 13.2805C7.28643 13.3509 7.27343 13.4207 7.24818 13.4858C7.22293 13.5509 7.18591 13.6101 7.13925 13.6599C7.09259 13.7097 7.03719 13.7492 6.97622 13.7762C6.91526 13.8032 6.84991 13.8171 6.78392 13.8171H5.90452C5.83853 13.8171 5.77319 13.8032 5.71222 13.7762C5.65125 13.7492 5.59585 13.7097 5.54919 13.6599C5.50253 13.6101 5.46552 13.5509 5.44026 13.4858C5.41501 13.4207 5.40201 13.3509 5.40201 13.2805C5.40201 13.21 5.41501 13.1402 5.44026 13.0751C5.46552 13.01 5.50253 12.9509 5.54919 12.9011C5.59585 12.8512 5.65125 12.8117 5.71222 12.7847C5.77319 12.7578 5.83853 12.7439 5.90452 12.7439H6.65829H6.78392ZM6.78392 14.4878C6.91719 14.4878 7.04501 14.5443 7.13925 14.645C7.23349 14.7456 7.28643 14.8821 7.28643 15.0244C7.28643 15.1667 7.23349 15.3032 7.13925 15.4038C7.04501 15.5044 6.91719 15.561 6.78392 15.561H5.90452C5.77125 15.561 5.64343 15.5044 5.54919 15.4038C5.45495 15.3032 5.40201 15.1667 5.40201 15.0244C5.40201 14.8821 5.45495 14.7456 5.54919 14.645C5.64343 14.5443 5.77125 14.4878 5.90452 14.4878H6.65829H6.78392ZM9.29648 11C9.36247 11 9.42782 11.0139 9.48878 11.0408C9.54975 11.0678 9.60515 11.1073 9.65181 11.1572C9.69847 11.207 9.73549 11.2661 9.76074 11.3312C9.786 11.3963 9.799 11.4661 9.799 11.5366C9.799 11.607 9.786 11.6768 9.76074 11.7419C9.73549 11.807 9.69847 11.8662 9.65181 11.916C9.60515 11.9658 9.54975 12.0053 9.48878 12.0323C9.42782 12.0593 9.36247 12.0732 9.29648 12.0732H8.54271C8.47672 12.0732 8.41138 12.0593 8.35041 12.0323C8.28944 12.0053 8.23405 11.9658 8.18738 11.916C8.14072 11.8662 8.10371 11.807 8.07845 11.7419C8.0532 11.6768 8.0402 11.607 8.0402 11.5366C8.0402 11.4661 8.0532 11.3963 8.07845 11.3312C8.10371 11.2661 8.14072 11.207 8.18738 11.1572C8.23405 11.1073 8.28944 11.0678 8.35041 11.0408C8.41138 11.0139 8.47672 11 8.54271 11H9.29648ZM9.29648 12.7439C9.42976 12.7439 9.55757 12.8004 9.65181 12.9011C9.74605 13.0017 9.799 13.1382 9.799 13.2805C9.799 13.4228 9.74605 13.5593 9.65181 13.6599C9.55757 13.7605 9.42976 13.8171 9.29648 13.8171H8.54271C8.40944 13.8171 8.28162 13.7605 8.18738 13.6599C8.09314 13.5593 8.0402 13.4228 8.0402 13.2805C8.0402 13.1382 8.09314 13.0017 8.18738 12.9011C8.28162 12.8004 8.40944 12.7439 8.54271 12.7439H9.29648ZM9.29648 14.4878C9.42976 14.4878 9.55757 14.5443 9.65181 14.645C9.74605 14.7456 9.799 14.8821 9.799 15.0244C9.799 15.1667 9.74605 15.3032 9.65181 15.4038C9.55757 15.5044 9.42976 15.561 9.29648 15.561H8.54271C8.40944 15.561 8.28162 15.5044 8.18738 15.4038C8.09314 15.3032 8.0402 15.1667 8.0402 15.0244C8.0402 14.8821 8.09314 14.7456 8.18738 14.645C8.28162 14.5443 8.40944 14.4878 8.54271 14.4878H9.29648ZM11.809 11C11.9423 11 12.0701 11.0565 12.1644 11.1572C12.2586 11.2578 12.3116 11.3943 12.3116 11.5366C12.3116 11.6789 12.2586 11.8154 12.1644 11.916C12.0701 12.0166 11.9423 12.0732 11.809 12.0732H11.3065C11.1733 12.0732 11.0454 12.0166 10.9512 11.916C10.857 11.8154 10.804 11.6789 10.804 11.5366C10.804 11.3943 10.857 11.2578 10.9512 11.1572C11.0454 11.0565 11.1733 11 11.3065 11H12.0603H11.809ZM11.809 12.7439C11.9423 12.7439 12.0701 12.8004 12.1644 12.9011C12.2586 13.0017 12.3116 13.1382 12.3116 13.2805C12.3116 13.4228 12.2586 13.5593 12.1644 13.6599C12.0701 13.7605 11.9423 13.8171 11.809 13.8171H11.3065C11.1733 13.8171 11.0454 13.7605 10.9512 13.6599C10.857 13.5593 10.804 13.4228 10.804 13.2805C10.804 13.1382 10.857 13.0017 10.9512 12.9011C11.0454 12.8004 11.1733 12.7439 11.3065 12.7439H12.0603H11.809ZM11.809 14.4878C11.9423 14.4878 12.0701 14.5443 12.1644 14.645C12.2586 14.7456 12.3116 14.8821 12.3116 15.0244C12.3116 15.1667 12.2586 15.3032 12.1644 15.4038C12.0701 15.5044 11.9423 15.561 11.809 15.561H11.3065C11.1733 15.561 11.0454 15.5044 10.9512 15.4038C10.857 15.3032 10.804 15.1667 10.804 15.0244C10.804 14.8821 10.857 14.7456 10.9512 14.645C11.0454 14.5443 11.1733 14.4878 11.3065 14.4878H12.0603H11.809ZM11.9347 5.76829C12.1013 5.76829 12.261 5.83895 12.3788 5.96474C12.4966 6.09053 12.5628 6.26113 12.5628 6.43902V9.12194C12.5628 9.29983 12.4966 9.47043 12.3788 9.59622C12.261 9.72201 12.1013 9.79267 11.9347 9.79267H5.65327C5.48667 9.79267 5.3269 9.72201 5.2091 9.59622C5.0913 9.47043 5.02513 9.29983 5.02513 9.12194V6.43902C5.02513 6.26113 5.0913 6.09053 5.2091 5.96474C5.3269 5.83895 5.48667 5.76829 5.65327 5.76829H11.9347ZM6.03015 8.7195H11.5578V6.84146H6.03015V8.7195Z" fill="#FC7201"/>
<mask id="mask0_95_1154" style="mask-type:luminance" maskUnits="userSpaceOnUse" x="0" y="0" width="25" height="23">
<path d="M25 8.04877C24.9791 8.30418 24.8826 8.54586 24.7245 8.7388C24.5664 8.93175 24.3549 9.06594 24.1206 9.12194V11.8049C24.6231 11.939 25 12.4756 25 13.1463V14.3536C24.9791 14.6091 24.8826 14.8507 24.7245 15.0437C24.5664 15.2366 24.3549 15.3708 24.1206 15.4268V17.9756C24.1206 18.8295 23.8029 19.6484 23.2375 20.2521C22.6721 20.8559 21.9052 21.1951 21.1055 21.1951H20.603C20.603 21.4441 20.5104 21.683 20.3454 21.8591C20.1805 22.0352 19.9569 22.1341 19.7236 22.1341H17.5879C17.3547 22.1341 17.131 22.0352 16.9661 21.8591C16.8012 21.683 16.7085 21.4441 16.7085 21.1951H7.53769C7.53769 21.4441 7.44504 21.683 7.28012 21.8591C7.1152 22.0352 6.89152 22.1341 6.65829 22.1341H4.64824C4.41501 22.1341 4.19133 22.0352 4.02641 21.8591C3.86149 21.683 3.76884 21.4441 3.76884 21.1951H3.01508C2.61913 21.1951 2.22706 21.1118 1.86126 20.95C1.49545 20.7882 1.16307 20.5511 0.883095 20.2521C0.60312 19.9532 0.381031 19.5983 0.229509 19.2076C0.0779873 18.817 0 18.3984 0 17.9756V3.21951C0 2.36564 0.317659 1.54675 0.883095 0.942972C1.44853 0.339197 2.21543 0 3.01508 0H21.1055C21.5015 0 21.8935 0.0832751 22.2593 0.245071C22.6252 0.406866 22.9575 0.644013 23.2375 0.942972C23.5175 1.24193 23.7396 1.59685 23.8911 1.98746C24.0426 2.37806 24.1206 2.79672 24.1206 3.21951V5.49999C24.6231 5.63414 25 6.17073 25 6.70731V8.04877ZM23.1156 17.9756V15.561H21.608V17.439C21.608 17.7592 21.4889 18.0663 21.2769 18.2927C21.0648 18.5191 20.7773 18.6463 20.4774 18.6463H3.76884C3.599 18.6679 3.42679 18.648 3.26517 18.5883C3.10356 18.5285 2.95675 18.4303 2.83581 18.3012C2.71487 18.172 2.62294 18.0153 2.56695 17.8427C2.51096 17.6701 2.49236 17.4862 2.51256 17.3049V4.02439C2.49236 3.84303 2.51096 3.65914 2.56695 3.48657C2.62294 3.31399 2.71487 3.15723 2.83581 3.02809C2.95675 2.89894 3.10356 2.80078 3.26517 2.741C3.42679 2.68121 3.599 2.66135 3.76884 2.68292H20.603C20.7729 2.66135 20.9451 2.68121 21.1067 2.741C21.2683 2.80078 21.4151 2.89894 21.5361 3.02809C21.657 3.15723 21.7489 3.31399 21.8049 3.48657C21.8609 3.65914 21.8795 3.84303 21.8593 4.02439V5.36585H23.2412V3.21951C23.2412 2.65026 23.0294 2.10433 22.6525 1.70182C22.2755 1.2993 21.7643 1.07317 21.2312 1.07317H3.01508C2.48198 1.07317 1.97071 1.2993 1.59376 1.70182C1.2168 2.10433 1.00503 2.65026 1.00503 3.21951V17.9756C1.00503 18.5448 1.2168 19.0908 1.59376 19.4933C1.97071 19.8958 2.48198 20.1219 3.01508 20.1219H21.1055C21.6386 20.1219 22.1499 19.8958 22.5268 19.4933C22.9038 19.0908 23.1156 18.5448 23.1156 17.9756ZM19.7236 21.5975C19.6237 21.5975 19.5278 21.5551 19.4571 21.4797C19.3864 21.4042 19.3467 21.3018 19.3467 21.1951H18.0905C18.0905 21.3018 18.0507 21.4042 17.9801 21.4797C17.9094 21.5551 17.8135 21.5975 17.7136 21.5975H19.7236ZM6.65829 21.5975C6.55834 21.5975 6.46247 21.5551 6.39179 21.4797C6.32111 21.4042 6.28141 21.3018 6.28141 21.1951H5.02513C5.02513 21.3018 4.98542 21.4042 4.91474 21.4797C4.84406 21.5551 4.7482 21.5975 4.64824 21.5975H6.65829ZM21.7337 8.18292H23.1156V6.57316H21.608V8.18292H21.7337ZM21.7337 11.8049H23.1156V9.12194H21.608V11.8049H21.7337ZM21.7337 14.4878H23.1156V12.878H21.608V14.4878H21.7337ZM20.603 5.63414V3.75609H3.51759C3.49849 3.74432 3.47683 3.73812 3.45477 3.73812C3.43272 3.73812 3.41106 3.74432 3.39196 3.75609V17.439H20.3518C20.3709 17.4508 20.3925 17.457 20.4146 17.457C20.4366 17.457 20.4583 17.4508 20.4774 17.439V15.4268C20.2664 15.3476 20.0822 15.2033 19.9481 15.0123C19.8139 14.8213 19.7358 14.5921 19.7236 14.3536V13.0122C19.7236 12.4756 20.1005 12.0732 20.4774 11.939V9.12194C20.2664 9.0427 20.0822 8.89845 19.9481 8.70743C19.8139 8.51641 19.7358 8.2872 19.7236 8.04877V6.70731C19.7236 6.17073 20.1005 5.76829 20.4774 5.63414H20.603ZM6.78392 11C6.91719 11 7.04501 11.0565 7.13925 11.1572C7.23349 11.2578 7.28643 11.3943 7.28643 11.5366C7.28643 11.6789 7.23349 11.8154 7.13925 11.916C7.04501 12.0166 6.91719 12.0732 6.78392 12.0732H5.90452C5.77125 12.0732 5.64343 12.0166 5.54919 11.916C5.45495 11.8154 5.40201 11.6789 5.40201 11.5366C5.40201 11.3943 5.45495 11.2578 5.54919 11.1572C5.64343 11.0565 5.77125 11 5.90452 11H6.65829H6.78392ZM6.78392 12.7439C6.84991 12.7439 6.91526 12.7578 6.97622 12.7847C7.03719 12.8117 7.09259 12.8512 7.13925 12.9011C7.18591 12.9509 7.22293 13.01 7.24818 13.0751C7.27343 13.1402 7.28643 13.21 7.28643 13.2805C7.28643 13.3509 7.27343 13.4207 7.24818 13.4858C7.22293 13.5509 7.18591 13.6101 7.13925 13.6599C7.09259 13.7097 7.03719 13.7492 6.97622 13.7762C6.91526 13.8032 6.84991 13.8171 6.78392 13.8171H5.90452C5.83853 13.8171 5.77319 13.8032 5.71222 13.7762C5.65125 13.7492 5.59585 13.7097 5.54919 13.6599C5.50253 13.6101 5.46552 13.5509 5.44026 13.4858C5.41501 13.4207 5.40201 13.3509 5.40201 13.2805C5.40201 13.21 5.41501 13.1402 5.44026 13.0751C5.46552 13.01 5.50253 12.9509 5.54919 12.9011C5.59585 12.8512 5.65125 12.8117 5.71222 12.7847C5.77319 12.7578 5.83853 12.7439 5.90452 12.7439H6.65829H6.78392ZM6.78392 14.4878C6.91719 14.4878 7.04501 14.5443 7.13925 14.645C7.23349 14.7456 7.28643 14.8821 7.28643 15.0244C7.28643 15.1667 7.23349 15.3032 7.13925 15.4038C7.04501 15.5044 6.91719 15.561 6.78392 15.561H5.90452C5.77125 15.561 5.64343 15.5044 5.54919 15.4038C5.45495 15.3032 5.40201 15.1667 5.40201 15.0244C5.40201 14.8821 5.45495 14.7456 5.54919 14.645C5.64343 14.5443 5.77125 14.4878 5.90452 14.4878H6.65829H6.78392ZM9.29648 11C9.36247 11 9.42782 11.0139 9.48878 11.0408C9.54975 11.0678 9.60515 11.1073 9.65181 11.1572C9.69847 11.207 9.73549 11.2661 9.76074 11.3312C9.786 11.3963 9.799 11.4661 9.799 11.5366C9.799 11.607 9.786 11.6768 9.76074 11.7419C9.73549 11.807 9.69847 11.8662 9.65181 11.916C9.60515 11.9658 9.54975 12.0053 9.48878 12.0323C9.42782 12.0593 9.36247 12.0732 9.29648 12.0732H8.54271C8.47672 12.0732 8.41138 12.0593 8.35041 12.0323C8.28944 12.0053 8.23405 11.9658 8.18738 11.916C8.14072 11.8662 8.10371 11.807 8.07845 11.7419C8.0532 11.6768 8.0402 11.607 8.0402 11.5366C8.0402 11.4661 8.0532 11.3963 8.07845 11.3312C8.10371 11.2661 8.14072 11.207 8.18738 11.1572C8.23405 11.1073 8.28944 11.0678 8.35041 11.0408C8.41138 11.0139 8.47672 11 8.54271 11H9.29648ZM9.29648 12.7439C9.42976 12.7439 9.55757 12.8004 9.65181 12.9011C9.74605 13.0017 9.799 13.1382 9.799 13.2805C9.799 13.4228 9.74605 13.5593 9.65181 13.6599C9.55757 13.7605 9.42976 13.8171 9.29648 13.8171H8.54271C8.40944 13.8171 8.28162 13.7605 8.18738 13.6599C8.09314 13.5593 8.0402 13.4228 8.0402 13.2805C8.0402 13.1382 8.09314 13.0017 8.18738 12.9011C8.28162 12.8004 8.40944 12.7439 8.54271 12.7439H9.29648ZM9.29648 14.4878C9.42976 14.4878 9.55757 14.5443 9.65181 14.645C9.74605 14.7456 9.799 14.8821 9.799 15.0244C9.799 15.1667 9.74605 15.3032 9.65181 15.4038C9.55757 15.5044 9.42976 15.561 9.29648 15.561H8.54271C8.40944 15.561 8.28162 15.5044 8.18738 15.4038C8.09314 15.3032 8.0402 15.1667 8.0402 15.0244C8.0402 14.8821 8.09314 14.7456 8.18738 14.645C8.28162 14.5443 8.40944 14.4878 8.54271 14.4878H9.29648ZM11.809 11C11.9423 11 12.0701 11.0565 12.1644 11.1572C12.2586 11.2578 12.3116 11.3943 12.3116 11.5366C12.3116 11.6789 12.2586 11.8154 12.1644 11.916C12.0701 12.0166 11.9423 12.0732 11.809 12.0732H11.3065C11.1733 12.0732 11.0454 12.0166 10.9512 11.916C10.857 11.8154 10.804 11.6789 10.804 11.5366C10.804 11.3943 10.857 11.2578 10.9512 11.1572C11.0454 11.0565 11.1733 11 11.3065 11H12.0603H11.809ZM11.809 12.7439C11.9423 12.7439 12.0701 12.8004 12.1644 12.9011C12.2586 13.0017 12.3116 13.1382 12.3116 13.2805C12.3116 13.4228 12.2586 13.5593 12.1644 13.6599C12.0701 13.7605 11.9423 13.8171 11.809 13.8171H11.3065C11.1733 13.8171 11.0454 13.7605 10.9512 13.6599C10.857 13.5593 10.804 13.4228 10.804 13.2805C10.804 13.1382 10.857 13.0017 10.9512 12.9011C11.0454 12.8004 11.1733 12.7439 11.3065 12.7439H12.0603H11.809ZM11.809 14.4878C11.9423 14.4878 12.0701 14.5443 12.1644 14.645C12.2586 14.7456 12.3116 14.8821 12.3116 15.0244C12.3116 15.1667 12.2586 15.3032 12.1644 15.4038C12.0701 15.5044 11.9423 15.561 11.809 15.561H11.3065C11.1733 15.561 11.0454 15.5044 10.9512 15.4038C10.857 15.3032 10.804 15.1667 10.804 15.0244C10.804 14.8821 10.857 14.7456 10.9512 14.645C11.0454 14.5443 11.1733 14.4878 11.3065 14.4878H12.0603H11.809ZM11.9347 5.76829C12.1013 5.76829 12.261 5.83895 12.3788 5.96474C12.4966 6.09053 12.5628 6.26113 12.5628 6.43902V9.12194C12.5628 9.29983 12.4966 9.47043 12.3788 9.59622C12.261 9.72201 12.1013 9.79267 11.9347 9.79267H5.65327C5.48667 9.79267 5.3269 9.72201 5.2091 9.59622C5.0913 9.47043 5.02513 9.29983 5.02513 9.12194V6.43902C5.02513 6.26113 5.0913 6.09053 5.2091 5.96474C5.3269 5.83895 5.48667 5.76829 5.65327 5.76829H11.9347ZM6.03015 8.7195H11.5578V6.84146H6.03015V8.7195Z" fill="#292F37"/>
</mask>
<g mask="url(#mask0_95_1154)">
<path fill-rule="evenodd" clip-rule="evenodd" d="M-2.51257 -4.02441H26.3819V26.8292H-2.51257V-4.02441Z" fill="#FC7201"/>
</g>
</svg>
