<svg width="24" height="25" viewBox="0 0 24 25" fill="none" xmlns="http://www.w3.org/2000/svg">
<path d="M23 13.1053V16.7368C23 18.021 22.4849 19.2527 21.5681 20.1607C20.6512 21.0688 19.4077 21.5789 18.1111 21.5789H5.88889C4.59227 21.5789 3.34877 21.0688 2.43192 20.1607C1.51508 19.2527 1 18.021 1 16.7368V13.8316C1 13.6389 1.07726 13.4542 1.21479 13.318C1.35232 13.1818 1.53884 13.1053 1.73333 13.1053H23ZM23 13.1053V5.84211C23 4.5579 22.4849 3.32629 21.5681 2.41822C20.6512 1.51015 19.4077 1 18.1111 1H12M16.8889 21.5789L18.1111 24M7.11111 21.5789L5.88889 24" stroke="#FC7201" stroke-linecap="round" stroke-linejoin="round"/>
<path d="M16.1555 7.05263H7.84443C7.43988 7.05263 7.11599 6.72821 7.15999 6.32874C7.33843 4.72237 8.16587 1 12 1C15.8341 1 16.6615 4.72237 16.84 6.32874C16.884 6.72821 16.5601 7.05263 16.1555 7.05263Z" stroke="#FC7201" stroke-linecap="round" stroke-linejoin="round"/>
</svg>
