<svg width="25" height="24" viewBox="0 0 25 24" fill="none" xmlns="http://www.w3.org/2000/svg">
<path fill-rule="evenodd" clip-rule="evenodd" d="M4.19999 1.49983C4.93608 1.0734 5.77795 0.864344 6.62801 0.896907C7.47807 0.92947 8.30148 1.20231 9.00279 1.68381C9.70409 2.1653 10.2545 2.83571 10.5903 3.61731C10.9261 4.39891 11.0335 5.25969 10.9 6.09983L10.4 9.29983C8.11649 8.12939 5.48089 7.84446 2.99999 8.49983L1.99999 8.99983L1.7 6.19983C1.63073 5.29665 1.80812 4.39163 2.21322 3.58144C2.61832 2.77125 3.2359 2.08632 3.99999 1.59983H4.19999V1.49983ZM11.7 6.19983L11.2 9.59983V9.69983L10.7 12.3998C10.4486 13.8197 10.3148 15.2579 10.3 16.6998V18.1998C10.3398 19.3137 9.93543 20.3978 9.17591 21.2136C8.41639 22.0294 7.3639 22.51 6.25 22.5498C5.13609 22.5896 4.052 22.1853 3.23621 21.4257C2.42043 20.6662 1.93978 19.6137 1.89999 18.4998L0.999995 6.29983C0.889208 5.24708 1.07376 4.18429 1.53298 3.23052C1.9922 2.27676 2.70794 1.46972 3.59999 0.899827H3.79999C4.65986 0.376167 5.65109 0.108249 6.65768 0.127427C7.66427 0.146605 8.64458 0.452087 9.48388 1.00812C10.3232 1.56415 10.9867 2.34774 11.3969 3.26716C11.8071 4.18659 11.9469 5.20383 11.8 6.19983H11.7ZM10 9.99983H10.3L10.1 11.2998C7.74976 10.2039 5.0749 10.0256 2.59999 10.7998L2.09999 10.8998L1.99999 9.79983L3.29999 9.39983C5.5326 8.78521 7.91212 8.9983 10 9.99983ZM1.99999 11.6998L2.59999 18.4998C2.63978 19.4016 3.03614 20.2506 3.7019 20.8601C4.36765 21.4695 5.24826 21.7896 6.15 21.7498C7.05173 21.71 7.90073 21.3137 8.51022 20.6479C9.11972 19.9822 9.43978 19.1016 9.39999 18.1998V16.6998C9.39999 15.1998 9.6 13.6998 9.8 12.2998V12.1998C7.63929 11.0892 5.13785 10.839 2.79999 11.4998L1.99999 11.6998ZM21.3 3.09983C20.6522 2.58337 19.8745 2.25576 19.0524 2.15308C18.2304 2.0504 17.3959 2.17664 16.641 2.51789C15.8861 2.85915 15.2401 3.40216 14.7741 4.08712C14.3081 4.77207 14.0402 5.57236 14 6.39983V9.59983C16.4376 8.93904 19.0324 9.18785 21.3 10.2998L22.3 10.7998L23.1 8.09983C23.3153 7.22373 23.2895 6.3057 23.0255 5.44305C22.7614 4.5804 22.2688 3.80528 21.6 3.19983L21.4 3.09983H21.3ZM22.1 11.5998L21 10.9998C18.8834 9.97347 16.4636 9.75996 14.2 10.3998H14V11.6998C16.4687 11.0136 19.1038 11.2629 21.4 12.3998L21.9 12.6998L22.2 11.5998H22.1ZM13.1 9.89983V12.6998C13.0468 14.111 12.8796 15.5156 12.6 16.8998L12.4 18.3998C12.2024 19.4712 12.4288 20.5774 13.0314 21.485C13.634 22.3925 14.5657 23.0304 15.6298 23.264C16.6939 23.4976 17.8071 23.3086 18.7345 22.7369C19.6618 22.1651 20.3307 21.2554 20.6 20.1998L24 8.29983C24.2341 7.25777 24.1708 6.1709 23.8172 5.1631C23.4635 4.15531 22.8339 3.26713 22 2.59983L21.9 2.49983C21.1397 1.83098 20.2036 1.39396 19.2027 1.24048C18.2017 1.087 17.1778 1.22349 16.252 1.63378C15.3262 2.04408 14.5373 2.71102 13.9787 3.55566C13.4201 4.4003 13.1152 5.38729 13.1 6.39983V9.89983ZM13.8 12.6998V12.4998C16.1687 11.8124 18.7111 12.0631 20.9 13.1998L21.6 13.4998L19.8 19.9998C19.5341 20.8019 18.9792 21.4762 18.2432 21.8914C17.5073 22.3066 16.6431 22.4328 15.8191 22.2456C14.9952 22.0583 14.2705 21.5709 13.7863 20.8785C13.3021 20.186 13.0931 19.338 13.2 18.4998L13.4 17.0998C13.7 15.5998 13.8 14.0998 13.8 12.6998Z" fill="#FC7201"/>
</svg>
