<svg width="26" height="26" viewBox="0 0 26 26" fill="none" xmlns="http://www.w3.org/2000/svg">
<path d="M21.6667 23.1832H4.33334C3.64377 23.1832 2.98245 22.9093 2.49486 22.4217C2.00727 21.9341 1.73334 21.2728 1.73334 20.5832V5.95824C1.7596 5.42081 1.98489 4.91239 2.36536 4.53192C2.74583 4.15145 3.25425 3.92616 3.79167 3.8999C4.00834 3.8999 4.225 4.11657 4.225 4.33324C4.225 4.5499 4.00834 4.76657 3.79167 4.76657C3.14167 4.76657 2.6 5.30824 2.6 5.95824V20.5832C2.6 21.5582 3.35834 22.3166 4.33334 22.3166H21.6667C22.6417 22.3166 23.4 21.5582 23.4 20.5832V6.4999C23.4 5.5249 22.6417 4.76657 21.6667 4.76657H11.375C11.1583 4.76657 10.9417 4.5499 10.9417 4.33324C10.9417 4.11657 11.1583 3.8999 11.375 3.8999H21.6667C23.075 3.8999 24.2667 5.09157 24.2667 6.4999V20.5832C24.2667 21.9916 23.075 23.1832 21.6667 23.1832Z" fill="#FC7201"/>
<path d="M8.66667 19.9336H6.5C5.63334 19.9336 4.98334 19.2836 4.98334 18.4169V4.33356C4.98334 3.46689 5.63334 2.81689 6.5 2.81689H8.66667C9.53334 2.81689 10.1833 3.46689 10.1833 4.33356V18.4169C10.1833 19.2836 9.53334 19.9336 8.66667 19.9336ZM6.5 3.68356C6.175 3.68356 5.85 4.00856 5.85 4.33356V18.4169C5.85 18.7419 6.175 19.0669 6.5 19.0669H8.66667C8.99167 19.0669 9.31667 18.7419 9.31667 18.4169V4.33356C9.31667 4.00856 8.99167 3.68356 8.66667 3.68356H6.5ZM13 7.58356V7.15023C12.7833 7.15023 12.5667 7.36689 12.5667 7.58356H13ZM20.5833 7.58356H21.0167C21.0167 7.36689 20.8 7.15023 20.5833 7.15023V7.58356ZM20.5833 11.9169V12.3502C20.8 12.3502 21.0167 12.1336 21.0167 11.9169H20.5833ZM13 11.9169H12.5667C12.5667 12.1336 12.7833 12.3502 13 12.3502V11.9169ZM13 8.01689H20.5833V7.15023H13V8.01689ZM20.15 7.58356V11.9169H21.0167V7.58356H20.15ZM20.5833 11.4836H13V12.3502H20.5833V11.4836ZM13.4333 11.9169V7.58356H12.5667V11.9169H13.4333ZM13.5417 14.0836H14.4083C14.7333 14.0836 14.95 14.3002 14.95 14.6252C14.95 14.9502 14.7333 15.1669 14.4083 15.1669H13.5417C13.2167 15.1669 13 14.9502 13 14.6252C13 14.3002 13.2167 14.0836 13.5417 14.0836ZM13.5417 16.2502H14.4083C14.7333 16.2502 14.95 16.4669 14.95 16.7919C14.95 17.1169 14.7333 17.3336 14.4083 17.3336H13.5417C13.2167 17.3336 13 17.1169 13 16.7919C13 16.4669 13.2167 16.2502 13.5417 16.2502ZM13.5417 18.4169H14.4083C14.7333 18.4169 14.95 18.6336 14.95 18.9586C14.95 19.2836 14.7333 19.5002 14.4083 19.5002H13.5417C13.2167 19.5002 13 19.2836 13 18.9586C13 18.6336 13.2167 18.4169 13.5417 18.4169ZM16.3583 14.0836H17.225C17.55 14.0836 17.7667 14.3002 17.7667 14.6252C17.7667 14.9502 17.55 15.1669 17.225 15.1669H16.3583C16.0333 15.1669 15.8167 14.9502 15.8167 14.6252C15.8167 14.3002 16.0333 14.0836 16.3583 14.0836ZM16.3583 16.2502H17.225C17.55 16.2502 17.7667 16.4669 17.7667 16.7919C17.7667 17.1169 17.55 17.3336 17.225 17.3336H16.3583C16.0333 17.3336 15.8167 17.1169 15.8167 16.7919C15.8167 16.4669 16.0333 16.2502 16.3583 16.2502ZM16.3583 18.4169H17.225C17.55 18.4169 17.7667 18.6336 17.7667 18.9586C17.7667 19.2836 17.55 19.5002 17.225 19.5002H16.3583C16.0333 19.5002 15.8167 19.2836 15.8167 18.9586C15.8167 18.6336 16.0333 18.4169 16.3583 18.4169ZM19.2833 14.0836H20.15C20.475 14.0836 20.6917 14.3002 20.6917 14.6252C20.6917 14.9502 20.475 15.1669 20.15 15.1669H19.2833C18.9583 15.1669 18.7417 14.9502 18.7417 14.6252C18.6333 14.3002 18.9583 14.0836 19.2833 14.0836ZM19.2833 16.2502H20.15C20.475 16.2502 20.6917 16.4669 20.6917 16.7919C20.6917 17.1169 20.475 17.3336 20.15 17.3336H19.2833C18.9583 17.3336 18.7417 17.1169 18.7417 16.7919C18.6333 16.4669 18.9583 16.2502 19.2833 16.2502ZM19.2833 18.4169H20.15C20.475 18.4169 20.6917 18.6336 20.6917 18.9586C20.6917 19.2836 20.475 19.5002 20.15 19.5002H19.2833C18.9583 19.5002 18.7417 19.2836 18.7417 18.9586C18.6333 18.6336 18.9583 18.4169 19.2833 18.4169Z" fill="#FC7201"/>
</svg>
