<svg width="21" height="20" viewBox="0 0 21 20" fill="none" xmlns="http://www.w3.org/2000/svg">
<path d="M19.8269 2.7C19.7208 2.7 19.619 2.65786 19.544 2.58284C19.469 2.50783 19.4269 2.40609 19.4269 2.3C19.4269 2.19391 19.469 2.09217 19.544 2.01716C19.619 1.94214 19.7208 1.9 19.8269 1.9C19.933 1.9 20.0347 1.94214 20.1097 2.01716C20.1847 2.09217 20.2269 2.19391 20.2269 2.3C20.2269 2.40609 20.1847 2.50783 20.1097 2.58284C20.0347 2.65786 19.933 2.7 19.8269 2.7ZM15.8269 15.9H15.1269V2.7H15.9269V15.9H15.8269ZM4.62686 19V17.5C5.22686 17.8 6.32686 18 7.32686 18C8.02687 18 8.72686 17.6 9.32687 17.3C9.92687 16.9 10.5269 16.6 10.9269 16.6C11.9269 16.6 12.2269 16.9 12.6269 17.3C13.0269 17.6 13.5269 18 14.4269 18V19H4.52686H4.62686ZM4.52686 1.4C4.52563 1.31204 4.54376 1.22488 4.57996 1.14471C4.61615 1.06453 4.66954 0.993294 4.73633 0.936044C4.80312 0.878794 4.88169 0.836932 4.96645 0.813422C5.05122 0.789912 5.14013 0.78533 5.22686 0.8H14.4269C14.4024 0.932213 14.4024 1.06779 14.4269 1.2V14.6C13.8269 14.6 13.5269 14.3 13.2269 14C12.7269 13.6 12.2269 13.2 11.0269 13.2C10.3269 13.2 9.62687 13.6 9.02687 14C8.42686 14.3 7.82686 14.6 7.32686 14.6C6.38835 14.6579 5.45254 14.4499 4.62686 14V1.4H4.52686ZM4.52686 16.6V14.8L5.02686 15C5.76574 15.2611 6.54321 15.3964 7.32686 15.4C8.02687 15.4 8.72686 15 9.32687 14.6C9.92687 14.3 10.5269 14 11.0269 14C12.0269 14 12.3269 14.3 12.7269 14.6C13.1269 14.9 13.6269 15.2 14.3269 15.3V17.3C13.7269 17.3 13.3269 17 13.0269 16.7C12.7325 16.426 12.3861 16.214 12.0081 16.0766C11.6302 15.9391 11.2285 15.8791 10.8269 15.9C10.2269 15.9 9.52687 16.2 8.82687 16.6C8.32687 16.9 7.82686 17.3 7.22686 17.3C5.52686 17.3 4.62686 16.7 4.62686 16.6H4.52686ZM16.0269 1.9H15.0269V1.2C15.0269 1 15.1269 0.8 15.4269 0.8C15.533 0.8 15.6347 0.842143 15.7097 0.917157C15.7847 0.992172 15.8269 1.09391 15.8269 1.2V1.9H16.0269ZM1.32686 2.7C1.22078 2.7 1.11904 2.65786 1.04402 2.58284C0.969007 2.50783 0.926865 2.40609 0.926865 2.3C0.926865 2.19391 0.969007 2.09217 1.04402 2.01716C1.11904 1.94214 1.22078 1.9 1.32686 1.9C1.43295 1.9 1.53469 1.94214 1.60971 2.01716C1.68472 2.09217 1.72686 2.19391 1.72686 2.3C1.72686 2.40609 1.68472 2.50783 1.60971 2.58284C1.53469 2.65786 1.43295 2.7 1.32686 2.7ZM19.9269 1.2C19.4269 1.2 18.9269 1.5 18.9269 1.9H16.7269V1.2C16.7269 0.5 16.2269 0 15.6269 0H15.5269H5.22686C4.85556 0 4.49947 0.1475 4.23692 0.410051C3.97436 0.672601 3.82686 1.0287 3.82686 1.4V1.9H2.32686C2.26056 1.595 2.07581 1.32883 1.81326 1.16005C1.55071 0.991268 1.23186 0.933696 0.926865 1C0.621866 1.0663 0.355698 1.25105 0.186915 1.5136C0.0181324 1.77615 -0.0394395 2.095 0.0268646 2.4C0.0268646 3.1 0.626865 3.6 1.22686 3.6C1.72686 3.6 2.22686 3.2 2.22686 2.8H3.82686V19.4C3.82686 19.6 4.02686 19.8 4.22686 19.8H14.7269C14.833 19.8 14.9347 19.7579 15.0097 19.6828C15.0847 19.6078 15.1269 19.5061 15.1269 19.4V16.6H16.2269C16.333 16.6 16.4347 16.5579 16.5097 16.4828C16.5847 16.4078 16.6269 16.3061 16.6269 16.2V2.7H18.7269C18.9269 3.1 19.3269 3.5 19.8269 3.5C20.0745 3.42618 20.2917 3.27437 20.4462 3.06717C20.6007 2.85996 20.6841 2.60843 20.6841 2.35C20.6841 2.09157 20.6007 1.84004 20.4462 1.63283C20.2917 1.42563 20.0745 1.27382 19.8269 1.2H19.9269Z" fill="#FC7201"/>
<mask id="mask0_95_1255" style="mask-type:luminance" maskUnits="userSpaceOnUse" x="0" y="0" width="21" height="20">
<path d="M19.8269 2.7C19.7208 2.7 19.619 2.65786 19.544 2.58284C19.469 2.50783 19.4269 2.40609 19.4269 2.3C19.4269 2.19391 19.469 2.09217 19.544 2.01716C19.619 1.94214 19.7208 1.9 19.8269 1.9C19.933 1.9 20.0347 1.94214 20.1097 2.01716C20.1847 2.09217 20.2269 2.19391 20.2269 2.3C20.2269 2.40609 20.1847 2.50783 20.1097 2.58284C20.0347 2.65786 19.933 2.7 19.8269 2.7ZM15.8269 15.9H15.1269V2.7H15.9269V15.9H15.8269ZM4.62686 19V17.5C5.22686 17.8 6.32686 18 7.32686 18C8.02687 18 8.72686 17.6 9.32687 17.3C9.92687 16.9 10.5269 16.6 10.9269 16.6C11.9269 16.6 12.2269 16.9 12.6269 17.3C13.0269 17.6 13.5269 18 14.4269 18V19H4.52686H4.62686ZM4.52686 1.4C4.52563 1.31204 4.54376 1.22488 4.57996 1.14471C4.61615 1.06453 4.66954 0.993294 4.73633 0.936044C4.80312 0.878794 4.88169 0.836932 4.96645 0.813422C5.05122 0.789912 5.14013 0.78533 5.22686 0.8H14.4269C14.4024 0.932213 14.4024 1.06779 14.4269 1.2V14.6C13.8269 14.6 13.5269 14.3 13.2269 14C12.7269 13.6 12.2269 13.2 11.0269 13.2C10.3269 13.2 9.62687 13.6 9.02687 14C8.42686 14.3 7.82686 14.6 7.32686 14.6C6.38835 14.6579 5.45254 14.4499 4.62686 14V1.4H4.52686ZM4.52686 16.6V14.8L5.02686 15C5.76574 15.2611 6.54321 15.3964 7.32686 15.4C8.02687 15.4 8.72686 15 9.32687 14.6C9.92687 14.3 10.5269 14 11.0269 14C12.0269 14 12.3269 14.3 12.7269 14.6C13.1269 14.9 13.6269 15.2 14.3269 15.3V17.3C13.7269 17.3 13.3269 17 13.0269 16.7C12.7325 16.426 12.3861 16.214 12.0081 16.0766C11.6302 15.9391 11.2285 15.8791 10.8269 15.9C10.2269 15.9 9.52687 16.2 8.82687 16.6C8.32687 16.9 7.82686 17.3 7.22686 17.3C5.52686 17.3 4.62686 16.7 4.62686 16.6H4.52686ZM16.0269 1.9H15.0269V1.2C15.0269 1 15.1269 0.8 15.4269 0.8C15.533 0.8 15.6347 0.842143 15.7097 0.917157C15.7847 0.992172 15.8269 1.09391 15.8269 1.2V1.9H16.0269ZM1.32686 2.7C1.22078 2.7 1.11904 2.65786 1.04402 2.58284C0.969007 2.50783 0.926865 2.40609 0.926865 2.3C0.926865 2.19391 0.969007 2.09217 1.04402 2.01716C1.11904 1.94214 1.22078 1.9 1.32686 1.9C1.43295 1.9 1.53469 1.94214 1.60971 2.01716C1.68472 2.09217 1.72686 2.19391 1.72686 2.3C1.72686 2.40609 1.68472 2.50783 1.60971 2.58284C1.53469 2.65786 1.43295 2.7 1.32686 2.7ZM19.9269 1.2C19.4269 1.2 18.9269 1.5 18.9269 1.9H16.7269V1.2C16.7269 0.5 16.2269 0 15.6269 0H15.5269H5.22686C4.85556 0 4.49947 0.1475 4.23692 0.410051C3.97436 0.672601 3.82686 1.0287 3.82686 1.4V1.9H2.32686C2.26056 1.595 2.07581 1.32883 1.81326 1.16005C1.55071 0.991268 1.23186 0.933696 0.926865 1C0.621866 1.0663 0.355698 1.25105 0.186915 1.5136C0.0181324 1.77615 -0.0394395 2.095 0.0268646 2.4C0.0268646 3.1 0.626865 3.6 1.22686 3.6C1.72686 3.6 2.22686 3.2 2.22686 2.8H3.82686V19.4C3.82686 19.6 4.02686 19.8 4.22686 19.8H14.7269C14.833 19.8 14.9347 19.7579 15.0097 19.6828C15.0847 19.6078 15.1269 19.5061 15.1269 19.4V16.6H16.2269C16.333 16.6 16.4347 16.5579 16.5097 16.4828C16.5847 16.4078 16.6269 16.3061 16.6269 16.2V2.7H18.7269C18.9269 3.1 19.3269 3.5 19.8269 3.5C20.0745 3.42618 20.2917 3.27437 20.4462 3.06717C20.6007 2.85996 20.6841 2.60843 20.6841 2.35C20.6841 2.09157 20.6007 1.84004 20.4462 1.63283C20.2917 1.42563 20.0745 1.27382 19.8269 1.2H19.9269Z" fill="#292F37"/>
</mask>
<g mask="url(#mask0_95_1255)">
<path fill-rule="evenodd" clip-rule="evenodd" d="M-0.973114 -1.6001H22.0269V21.3999H-0.973114V-1.6001Z" fill="#FC7201"/>
</g>
</svg>
