<svg width="25" height="19" viewBox="0 0 25 19" fill="none" xmlns="http://www.w3.org/2000/svg">
<path d="M9.591 1.5H16.959C17.7471 1.49903 18.5103 1.77593 19.1144 2.28201C19.7185 2.78809 20.1249 3.49095 20.262 4.267L22.508 17.004C22.5016 16.9666 22.5034 16.9283 22.5134 16.8917C22.5234 16.8551 22.5412 16.8211 22.5657 16.7921C22.5902 16.7632 22.6207 16.7399 22.6551 16.724C22.6896 16.7081 22.7271 16.6999 22.765 16.7H0.75L1.5 17.45C1.5 15.0437 2.4559 12.7359 4.15742 11.0344C5.85894 9.3329 8.16669 8.377 10.573 8.377H21.611C21.8099 8.377 22.0007 8.29798 22.1413 8.15733C22.282 8.01668 22.361 7.82591 22.361 7.627C22.361 7.42809 22.282 7.23732 22.1413 7.09667C22.0007 6.95602 21.8099 6.877 21.611 6.877H10.574H10.573C4.733 6.877 0 11.611 0 17.45C0 17.864 0.336 18.2 0.75 18.2H22.764C22.9453 18.2 23.1245 18.1603 23.2888 18.0836C23.4531 18.0069 23.5986 17.8952 23.715 17.7561C23.8314 17.6171 23.9159 17.4543 23.9626 17.279C24.0092 17.1038 24.0169 16.9205 23.985 16.742L21.74 4.006C21.5415 2.88278 20.9535 1.86546 20.0793 1.13281C19.2051 0.400159 18.1006 -0.000939293 16.96 1.65177e-06H9.59C9.39109 1.65597e-06 9.20032 0.0790192 9.05967 0.219671C8.91902 0.360324 8.84 0.551089 8.84 0.750002C8.84 0.948914 8.91902 1.13968 9.05967 1.28033C9.20032 1.42098 9.39209 1.5 9.591 1.5ZM7.125 13.7C7.02554 13.7 6.93016 13.6605 6.85984 13.5902C6.78951 13.5198 6.75 13.4245 6.75 13.325C6.75 13.2255 6.78951 13.1302 6.85984 13.0598C6.93016 12.9895 7.02554 12.95 7.125 12.95C7.22446 12.95 7.31984 12.9895 7.39016 13.0598C7.46049 13.1302 7.5 13.2255 7.5 13.325C7.5 13.4245 7.46049 13.5198 7.39016 13.5902C7.31984 13.6605 7.22446 13.7 7.125 13.7C7.32391 13.7 7.51468 13.621 7.65533 13.4803C7.79598 13.3397 7.875 13.1489 7.875 12.95C7.875 12.7511 7.79598 12.5603 7.65533 12.4197C7.51468 12.279 7.32391 12.2 7.125 12.2C6.82663 12.2 6.54048 12.3185 6.3295 12.5295C6.11853 12.7405 6 13.0266 6 13.325C6 13.6234 6.11853 13.9095 6.3295 14.1205C6.54048 14.3315 6.82663 14.45 7.125 14.45C7.42337 14.45 7.70952 14.3315 7.9205 14.1205C8.13147 13.9095 8.25 13.6234 8.25 13.325C8.25 13.0266 8.13147 12.7405 7.9205 12.5295C7.70952 12.3185 7.42337 12.2 7.125 12.2C6.92609 12.2 6.73532 12.279 6.59467 12.4197C6.45402 12.5603 6.375 12.7511 6.375 12.95C6.375 13.1489 6.45402 13.3397 6.59467 13.4803C6.73532 13.621 6.92609 13.7 7.125 13.7ZM12.375 13.7C12.2755 13.7 12.1802 13.6605 12.1098 13.5902C12.0395 13.5198 12 13.4245 12 13.325C12 13.2255 12.0395 13.1302 12.1098 13.0598C12.1802 12.9895 12.2755 12.95 12.375 12.95C12.4745 12.95 12.5698 12.9895 12.6402 13.0598C12.7105 13.1302 12.75 13.2255 12.75 13.325C12.75 13.4245 12.7105 13.5198 12.6402 13.5902C12.5698 13.6605 12.4745 13.7 12.375 13.7C12.5739 13.7 12.7647 13.621 12.9053 13.4803C13.046 13.3397 13.125 13.1489 13.125 12.95C13.125 12.7511 13.046 12.5603 12.9053 12.4197C12.7647 12.279 12.5739 12.2 12.375 12.2C12.0766 12.2 11.7905 12.3185 11.5795 12.5295C11.3685 12.7405 11.25 13.0266 11.25 13.325C11.25 13.6234 11.3685 13.9095 11.5795 14.1205C11.7905 14.3315 12.0766 14.45 12.375 14.45C12.6734 14.45 12.9595 14.3315 13.1705 14.1205C13.3815 13.9095 13.5 13.6234 13.5 13.325C13.5 13.0266 13.3815 12.7405 13.1705 12.5295C12.9595 12.3185 12.6734 12.2 12.375 12.2C12.1761 12.2 11.9853 12.279 11.8447 12.4197C11.704 12.5603 11.625 12.7511 11.625 12.95C11.625 13.1489 11.704 13.3397 11.8447 13.4803C11.9853 13.621 12.1761 13.7 12.375 13.7ZM17.625 13.7C17.5255 13.7 17.4302 13.6605 17.3598 13.5902C17.2895 13.5198 17.25 13.4245 17.25 13.325C17.25 13.2255 17.2895 13.1302 17.3598 13.0598C17.4302 12.9895 17.5255 12.95 17.625 12.95C17.7245 12.95 17.8198 12.9895 17.8902 13.0598C17.9605 13.1302 18 13.2255 18 13.325C18 13.4245 17.9605 13.5198 17.8902 13.5902C17.8198 13.6605 17.7245 13.7 17.625 13.7C17.8239 13.7 18.0147 13.621 18.1553 13.4803C18.296 13.3397 18.375 13.1489 18.375 12.95C18.375 12.7511 18.296 12.5603 18.1553 12.4197C18.0147 12.279 17.8239 12.2 17.625 12.2C17.3266 12.2 17.0405 12.3185 16.8295 12.5295C16.6185 12.7405 16.5 13.0266 16.5 13.325C16.5 13.6234 16.6185 13.9095 16.8295 14.1205C17.0405 14.3315 17.3266 14.45 17.625 14.45C17.9234 14.45 18.2095 14.3315 18.4205 14.1205C18.6315 13.9095 18.75 13.6234 18.75 13.325C18.75 13.0266 18.6315 12.7405 18.4205 12.5295C18.2095 12.3185 17.9234 12.2 17.625 12.2C17.4261 12.2 17.2353 12.279 17.0947 12.4197C16.954 12.5603 16.875 12.7511 16.875 12.95C16.875 13.1489 16.954 13.3397 17.0947 13.4803C17.2353 13.621 17.4261 13.7 17.625 13.7Z" fill="#FC7201"/>
</svg>
