<svg width="15" height="27" viewBox="0 0 15 27" fill="none" xmlns="http://www.w3.org/2000/svg">
<path d="M13.6034 16.3085C13.6034 16.6868 13.099 17.065 12.5947 17.065H11.9643V10.6346C11.9643 10.5008 11.9111 10.3725 11.8165 10.278C11.7219 10.1834 11.5937 10.1302 11.4599 10.1302C11.3261 10.1302 11.1979 10.1834 11.1033 10.278C11.0087 10.3725 10.9556 10.5008 10.9556 10.6346V16.9389H8.18164L7.92947 16.1824L11.4599 6.85198C12.5592 7.58184 13.3288 8.71348 13.6034 10.0042C13.8556 11.3911 13.6034 16.0563 13.6034 16.1824V16.3085ZM11.0816 25.0085C11.0816 25.3868 10.5773 25.765 10.0729 25.765H4.52512C4.02077 25.765 3.64251 25.3868 3.64251 25.0085V17.9476H6.41643L5.78599 19.5868C5.80037 19.6825 5.84198 19.772 5.90584 19.8447C5.96971 19.9174 6.05314 19.9702 6.14618 19.9967C6.23922 20.0233 6.33795 20.0226 6.43058 19.9946C6.52321 19.9666 6.60584 19.9126 6.6686 19.8389L7.42512 17.9476H7.55121L8.30773 19.8389C8.29518 19.9224 8.30379 20.0077 8.33277 20.087C8.36175 20.1663 8.41017 20.2371 8.4736 20.2928C8.53702 20.3485 8.61342 20.3874 8.69579 20.4059C8.77815 20.4245 8.86385 20.422 8.94503 20.3988C9.02621 20.3756 9.10026 20.3324 9.16041 20.2732C9.22055 20.214 9.26486 20.1406 9.28928 20.0597C9.31369 19.9789 9.31742 19.8933 9.30014 19.8106C9.28285 19.728 9.2451 19.651 9.19034 19.5868L8.5599 17.9476H11.0816V25.0085ZM1.87729 16.9389C1.37295 16.9389 0.994686 16.5607 0.994686 16.0563C0.994686 16.0563 0.616425 11.265 0.994686 9.75198C1.12077 8.49111 2.00338 7.35633 3.26425 6.59981L6.79469 16.1824L6.54251 16.9389H3.64251V10.6346C3.64251 10.5008 3.58938 10.3725 3.49479 10.278C3.40021 10.1834 3.27193 10.1302 3.13816 10.1302C3.0044 10.1302 2.87612 10.1834 2.78154 10.278C2.68695 10.3725 2.63382 10.5008 2.63382 10.6346V16.9389H2.00338H1.87729ZM4.65121 5.84328C5.29112 5.56466 5.97285 5.39422 6.6686 5.33894C6.61671 5.63085 6.61671 5.92963 6.6686 6.22154V6.34763H4.14686V6.09546L4.65121 5.84328ZM9.5686 5.84328L10.4512 6.22154V6.34763H7.6773V6.22154C7.5966 5.93288 7.5966 5.6276 7.6773 5.33894C8.43382 5.33894 9.06425 5.59111 9.69469 5.84328H9.5686ZM10.0729 7.35633L7.29903 14.9215L4.52512 7.35633H10.0729ZM14.3599 9.87807C14.2338 8.23894 13.2251 6.85198 11.7121 5.7172C11.6294 5.69584 11.5426 5.69584 11.4599 5.7172V5.59111C11.0559 5.34989 10.6344 5.13916 10.199 4.96067C9.63461 4.71779 9.04136 4.54829 8.43382 4.45633C9.31643 3.57372 9.69469 2.94328 9.69469 2.31285C9.5686 1.68241 9.19034 0.799805 7.6773 0.799805C7.04686 0.799805 6.41643 0.925892 5.91208 1.30415C5.84046 1.3936 5.80144 1.50478 5.80144 1.61937C5.80144 1.73396 5.84046 1.84514 5.91208 1.93459C5.91208 2.18676 6.29034 2.18676 6.41643 2.06067C6.80786 1.86908 7.24228 1.78219 7.6773 1.8085C8.30773 1.8085 8.68599 1.93459 8.68599 2.43894C8.68599 2.69111 8.43382 3.06937 7.6773 3.6998C7.48358 3.93394 7.31457 4.18746 7.17295 4.45633C6.21636 4.48608 5.27451 4.70014 4.39903 5.08676C2.12947 5.96937 0.490338 7.73459 0.112077 9.62589C-0.140097 11.265 0.112077 16.0563 0.112077 16.3085C0.112077 17.1911 0.994686 17.9476 2.00338 17.9476H2.63382V25.0085C2.63382 26.0172 3.51643 26.7737 4.52512 26.7737H10.0729C11.0816 26.7737 11.9643 26.0172 11.9643 25.0085V17.9476H12.5947C13.7295 17.9476 14.486 17.1911 14.486 16.3085C14.486 16.0563 14.7382 11.5172 14.486 10.0042L14.3599 9.87807Z" fill="#FC7201"/>
<mask id="mask0_95_961" style="mask-type:luminance" maskUnits="userSpaceOnUse" x="0" y="0" width="15" height="27">
<path d="M13.6034 16.3085C13.6034 16.6868 13.099 17.065 12.5947 17.065H11.9643V10.6346C11.9643 10.5008 11.9111 10.3725 11.8165 10.278C11.7219 10.1834 11.5937 10.1302 11.4599 10.1302C11.3261 10.1302 11.1979 10.1834 11.1033 10.278C11.0087 10.3725 10.9556 10.5008 10.9556 10.6346V16.9389H8.18164L7.92947 16.1824L11.4599 6.85198C12.5592 7.58184 13.3288 8.71348 13.6034 10.0042C13.8556 11.3911 13.6034 16.0563 13.6034 16.1824V16.3085ZM11.0816 25.0085C11.0816 25.3868 10.5773 25.765 10.0729 25.765H4.52512C4.02077 25.765 3.64251 25.3868 3.64251 25.0085V17.9476H6.41643L5.78599 19.5868C5.80037 19.6825 5.84198 19.772 5.90584 19.8447C5.96971 19.9174 6.05314 19.9702 6.14618 19.9967C6.23922 20.0233 6.33795 20.0226 6.43058 19.9946C6.52321 19.9666 6.60584 19.9126 6.6686 19.8389L7.42512 17.9476H7.55121L8.30773 19.8389C8.29518 19.9224 8.30379 20.0077 8.33277 20.087C8.36175 20.1663 8.41017 20.2371 8.4736 20.2928C8.53702 20.3485 8.61342 20.3874 8.69579 20.4059C8.77815 20.4245 8.86385 20.422 8.94503 20.3988C9.02621 20.3756 9.10026 20.3324 9.16041 20.2732C9.22055 20.214 9.26486 20.1406 9.28928 20.0597C9.31369 19.9789 9.31742 19.8933 9.30014 19.8106C9.28285 19.728 9.2451 19.651 9.19034 19.5868L8.5599 17.9476H11.0816V25.0085ZM1.87729 16.9389C1.37295 16.9389 0.994686 16.5607 0.994686 16.0563C0.994686 16.0563 0.616425 11.265 0.994686 9.75198C1.12077 8.49111 2.00338 7.35633 3.26425 6.59981L6.79469 16.1824L6.54251 16.9389H3.64251V10.6346C3.64251 10.5008 3.58938 10.3725 3.49479 10.278C3.40021 10.1834 3.27193 10.1302 3.13816 10.1302C3.0044 10.1302 2.87612 10.1834 2.78154 10.278C2.68695 10.3725 2.63382 10.5008 2.63382 10.6346V16.9389H2.00338H1.87729ZM4.65121 5.84328C5.29112 5.56466 5.97285 5.39422 6.6686 5.33894C6.61671 5.63085 6.61671 5.92963 6.6686 6.22154V6.34763H4.14686V6.09546L4.65121 5.84328ZM9.5686 5.84328L10.4512 6.22154V6.34763H7.6773V6.22154C7.5966 5.93288 7.5966 5.6276 7.6773 5.33894C8.43382 5.33894 9.06425 5.59111 9.69469 5.84328H9.5686ZM10.0729 7.35633L7.29903 14.9215L4.52512 7.35633H10.0729ZM14.3599 9.87807C14.2338 8.23894 13.2251 6.85198 11.7121 5.7172C11.6294 5.69584 11.5426 5.69584 11.4599 5.7172V5.59111C11.0559 5.34989 10.6344 5.13916 10.199 4.96067C9.63461 4.71779 9.04136 4.54829 8.43382 4.45633C9.31643 3.57372 9.69469 2.94328 9.69469 2.31285C9.5686 1.68241 9.19034 0.799805 7.6773 0.799805C7.04686 0.799805 6.41643 0.925892 5.91208 1.30415C5.84046 1.3936 5.80144 1.50478 5.80144 1.61937C5.80144 1.73396 5.84046 1.84514 5.91208 1.93459C5.91208 2.18676 6.29034 2.18676 6.41643 2.06067C6.80786 1.86908 7.24228 1.78219 7.6773 1.8085C8.30773 1.8085 8.68599 1.93459 8.68599 2.43894C8.68599 2.69111 8.43382 3.06937 7.6773 3.6998C7.48358 3.93394 7.31457 4.18746 7.17295 4.45633C6.21636 4.48608 5.27451 4.70014 4.39903 5.08676C2.12947 5.96937 0.490338 7.73459 0.112077 9.62589C-0.140097 11.265 0.112077 16.0563 0.112077 16.3085C0.112077 17.1911 0.994686 17.9476 2.00338 17.9476H2.63382V25.0085C2.63382 26.0172 3.51643 26.7737 4.52512 26.7737H10.0729C11.0816 26.7737 11.9643 26.0172 11.9643 25.0085V17.9476H12.5947C13.7295 17.9476 14.486 17.1911 14.486 16.3085C14.486 16.0563 14.7382 11.5172 14.486 10.0042L14.3599 9.87807Z" fill="#292F37"/>
</mask>
<g mask="url(#mask0_95_961)">
<path fill-rule="evenodd" clip-rule="evenodd" d="M-7.20096 -0.713379H21.799V28.2866H-7.20096V-0.713379Z" fill="#FC7201"/>
</g>
</svg>
