<svg width="19" height="20" viewBox="0 0 19 20" fill="none" xmlns="http://www.w3.org/2000/svg">
<g clip-path="url(#clip0_95_1541)">
<path d="M13.6 16.4L12.6 4.99998L4 3.69998L1.6 3.29998C2.67652 4.49154 3.43342 5.93654 3.8 7.49998V7.59998L2.7 16.4H13.7H13.6ZM13.7 17.2H2.6L2.3 19H14L13.8 17.2H13.7ZM12 4.19998C11.6644 3.42013 11.1055 2.75707 10.3936 2.29438C9.6818 1.83169 8.84893 1.59007 8 1.59998C7 1.59998 6 2.09998 5.2 2.99998L12 4.09998V4.19998ZM4.3 2.79998C4.69773 2.15123 5.25691 1.61671 5.92294 1.24864C6.58897 0.880575 7.33908 0.691532 8.1 0.699978C10.3 0.699978 12.2 2.09998 12.9 4.19998H13C13.0908 4.1971 13.1799 4.22525 13.2526 4.27978C13.3254 4.33431 13.3773 4.41197 13.4 4.49998L14.7 19.2C14.7156 19.2601 14.7169 19.3231 14.7039 19.3839C14.6909 19.4446 14.6639 19.5015 14.6251 19.5501C14.5863 19.5986 14.5367 19.6374 14.4803 19.6634C14.4238 19.6894 14.3621 19.702 14.3 19.7H1.9C1.83789 19.702 1.77617 19.6894 1.71974 19.6634C1.66331 19.6374 1.61371 19.5986 1.57489 19.5501C1.53607 19.5015 1.50909 19.4446 1.49609 19.3839C1.48309 19.3231 1.48443 19.2601 1.5 19.2L3 7.59998C2.56303 5.83811 1.62527 4.24045 0.299995 2.99998C0.236118 2.94439 0.191526 2.86997 0.172642 2.78743C0.153758 2.70489 0.161554 2.61848 0.194909 2.54066C0.228265 2.46283 0.285457 2.39759 0.358253 2.35434C0.431049 2.31109 0.515692 2.29205 0.599995 2.29998L4 2.99998H4.3V2.79998ZM14.5 6.79998C14.4391 6.83367 14.3705 6.85089 14.3009 6.84994C14.2313 6.84899 14.1631 6.8299 14.1032 6.79455C14.0432 6.7592 13.9936 6.70883 13.959 6.6484C13.9245 6.58797 13.9063 6.51957 13.9063 6.44998C13.9063 6.38038 13.9245 6.31199 13.959 6.25156C13.9936 6.19113 14.0432 6.14075 14.1032 6.10541C14.1631 6.07006 14.2313 6.05097 14.3009 6.05002C14.3705 6.04906 14.4391 6.06628 14.5 6.09998H15.2C15.5 6.09998 15.7 6.19998 15.8 6.49998L16.4 10.5C16.4 10.7 16.6 10.8 16.8 10.8H17C17.088 10.7773 17.1657 10.7253 17.2202 10.6526C17.2747 10.5799 17.3029 10.4908 17.3 10.4L16.6 6.09998C16.5775 5.84233 16.4649 5.60086 16.282 5.41798C16.0991 5.2351 15.8576 5.12251 15.6 5.09998H14.3C14.1939 5.09998 14.0922 5.05784 14.0172 4.98282C13.9421 4.90781 13.9 4.80606 13.9 4.69998C13.9 4.59389 13.9421 4.49215 14.0172 4.41714C14.0922 4.34212 14.1939 4.29998 14.3 4.29998H15.5C16.5 4.29998 17.3 4.99998 17.5 5.99998L18.1 10.3C18.1 10.9 17.7 11.5 17.1 11.6H16.8C16.5135 11.604 16.2351 11.5054 16.015 11.322C15.7949 11.1386 15.6477 10.8825 15.6 10.6L15 6.99998H14.5V6.79998ZM8.2 5.79998C8.89999 5.79998 9.39999 6.29998 9.39999 6.99998V13.4C9.39999 13.7182 9.27357 14.0235 9.04852 14.2485C8.82348 14.4735 8.51826 14.6 8.2 14.6C7.88174 14.6 7.57651 14.4735 7.35147 14.2485C7.12642 14.0235 7 13.7182 7 13.4V6.99998C7 6.29998 7.6 5.79998 8.2 5.79998ZM8.2 6.59998C8.09391 6.59998 7.99217 6.64212 7.91715 6.71714C7.84214 6.79215 7.8 6.89389 7.8 6.99998V13.4C7.8 13.5061 7.84214 13.6078 7.91715 13.6828C7.99217 13.7578 8.09391 13.8 8.2 13.8C8.30608 13.8 8.40782 13.7578 8.48284 13.6828C8.55785 13.6078 8.6 13.5061 8.6 13.4V6.99998C8.6 6.89389 8.55785 6.79215 8.48284 6.71714C8.40782 6.64212 8.30608 6.59998 8.2 6.59998Z" fill="#FC7201"/>
<mask id="mask0_95_1541" style="mask-type:luminance" maskUnits="userSpaceOnUse" x="0" y="0" width="19" height="20">
<path d="M13.6 16.4L12.6 4.99998L4 3.69998L1.6 3.29998C2.67652 4.49154 3.43342 5.93654 3.8 7.49998V7.59998L2.7 16.4H13.7H13.6ZM13.7 17.2H2.6L2.3 19H14L13.8 17.2H13.7ZM12 4.19998C11.6644 3.42013 11.1055 2.75707 10.3936 2.29438C9.6818 1.83169 8.84893 1.59007 8 1.59998C7 1.59998 6 2.09998 5.2 2.99998L12 4.09998V4.19998ZM4.3 2.79998C4.69773 2.15123 5.25691 1.61671 5.92294 1.24864C6.58897 0.880575 7.33908 0.691532 8.1 0.699978C10.3 0.699978 12.2 2.09998 12.9 4.19998H13C13.0908 4.1971 13.1799 4.22525 13.2526 4.27978C13.3254 4.33431 13.3773 4.41197 13.4 4.49998L14.7 19.2C14.7156 19.2601 14.7169 19.3231 14.7039 19.3839C14.6909 19.4446 14.6639 19.5015 14.6251 19.5501C14.5863 19.5986 14.5367 19.6374 14.4803 19.6634C14.4238 19.6894 14.3621 19.702 14.3 19.7H1.9C1.83789 19.702 1.77617 19.6894 1.71974 19.6634C1.66331 19.6374 1.61371 19.5986 1.57489 19.5501C1.53607 19.5015 1.50909 19.4446 1.49609 19.3839C1.48309 19.3231 1.48443 19.2601 1.5 19.2L3 7.59998C2.56303 5.83811 1.62527 4.24045 0.299995 2.99998C0.236118 2.94439 0.191526 2.86997 0.172642 2.78743C0.153758 2.70489 0.161554 2.61848 0.194909 2.54066C0.228265 2.46283 0.285457 2.39759 0.358253 2.35434C0.431049 2.31109 0.515692 2.29205 0.599995 2.29998L4 2.99998H4.3V2.79998ZM14.5 6.79998C14.4391 6.83367 14.3705 6.85089 14.3009 6.84994C14.2313 6.84899 14.1631 6.8299 14.1032 6.79455C14.0432 6.7592 13.9936 6.70883 13.959 6.6484C13.9245 6.58797 13.9063 6.51957 13.9063 6.44998C13.9063 6.38038 13.9245 6.31199 13.959 6.25156C13.9936 6.19113 14.0432 6.14075 14.1032 6.10541C14.1631 6.07006 14.2313 6.05097 14.3009 6.05002C14.3705 6.04906 14.4391 6.06628 14.5 6.09998H15.2C15.5 6.09998 15.7 6.19998 15.8 6.49998L16.4 10.5C16.4 10.7 16.6 10.8 16.8 10.8H17C17.088 10.7773 17.1657 10.7253 17.2202 10.6526C17.2747 10.5799 17.3029 10.4908 17.3 10.4L16.6 6.09998C16.5775 5.84233 16.4649 5.60086 16.282 5.41798C16.0991 5.2351 15.8576 5.12251 15.6 5.09998H14.3C14.1939 5.09998 14.0922 5.05784 14.0172 4.98282C13.9421 4.90781 13.9 4.80606 13.9 4.69998C13.9 4.59389 13.9421 4.49215 14.0172 4.41714C14.0922 4.34212 14.1939 4.29998 14.3 4.29998H15.5C16.5 4.29998 17.3 4.99998 17.5 5.99998L18.1 10.3C18.1 10.9 17.7 11.5 17.1 11.6H16.8C16.5135 11.604 16.2351 11.5054 16.015 11.322C15.7949 11.1386 15.6477 10.8825 15.6 10.6L15 6.99998H14.5V6.79998ZM8.2 5.79998C8.89999 5.79998 9.39999 6.29998 9.39999 6.99998V13.4C9.39999 13.7182 9.27357 14.0235 9.04852 14.2485C8.82348 14.4735 8.51826 14.6 8.2 14.6C7.88174 14.6 7.57651 14.4735 7.35147 14.2485C7.12642 14.0235 7 13.7182 7 13.4V6.99998C7 6.29998 7.6 5.79998 8.2 5.79998ZM8.2 6.59998C8.09391 6.59998 7.99217 6.64212 7.91715 6.71714C7.84214 6.79215 7.8 6.89389 7.8 6.99998V13.4C7.8 13.5061 7.84214 13.6078 7.91715 13.6828C7.99217 13.7578 8.09391 13.8 8.2 13.8C8.30608 13.8 8.40782 13.7578 8.48284 13.6828C8.55785 13.6078 8.6 13.5061 8.6 13.4V6.99998C8.6 6.89389 8.55785 6.79215 8.48284 6.71714C8.40782 6.64212 8.30608 6.59998 8.2 6.59998Z" fill="#292F37"/>
</mask>
<g mask="url(#mask0_95_1541)">
<path fill-rule="evenodd" clip-rule="evenodd" d="M-3 -1H20V22H-3V-1Z" fill="#FC7201"/>
</g>
</g>
<defs>
<clipPath id="clip0_95_1541">
<rect width="19" height="20" fill="white"/>
</clipPath>
</defs>
</svg>
