<svg width="20" height="21" viewBox="0 0 20 21" fill="none" xmlns="http://www.w3.org/2000/svg">
<path d="M18.4 20.8H1.4C0.6 20.8 0 20.2 0 19.4V1.4C0 0.6 0.6 0 1.4 0H18.4C19.2 0 19.8 0.6 19.8 1.4V19.4C19.8 20.2 19.2 20.8 18.4 20.8ZM1.4 0.8C1.1 0.8 0.8 1.1 0.8 1.4V19.4C0.8 19.7 1.1 20 1.4 20H18.4C18.7 20 19 19.7 19 19.4V1.4C19 1.1 18.7 0.8 18.4 0.8H1.4Z" fill="#FC7201"/>
<path d="M19.4 3.8H1.4C1.2 3.8 1 3.6 1 3.4C1 3.2 1.2 3 1.4 3H19.4C19.6 3 19.8 3.2 19.8 3.4C19.8 3.6 19.6 3.8 19.4 3.8Z" fill="#FC7201"/>
<path d="M7.3 3.3999H6.5V20.3999H7.3V3.3999ZM4.9 14.2999H3.4C3.29391 14.2999 3.19217 14.2578 3.11716 14.1827C3.04214 14.1077 3 14.006 3 13.8999V9.3999C3 9.1999 3.2 8.9999 3.4 8.9999H4.9C5.1 8.9999 5.3 9.1999 5.3 9.3999V13.8999C5.3 14.0999 5.1 14.2999 4.9 14.2999ZM3.8 13.4999H4.5V9.7999H3.8V13.4999ZM15.9 17.7999H8.4C8.2 17.7999 8 17.5999 8 17.3999C8 17.1999 8.2 16.9999 8.4 16.9999H15.9C16.1 16.9999 16.3 17.1999 16.3 17.3999C16.3 17.5999 16.1 17.7999 15.9 17.7999ZM12.8 3.3999H12V5.3999H12.8V3.3999Z" fill="#FC7201"/>
<path d="M13.4392 8.3001H7.63923C7.51234 8.29414 7.38946 8.25377 7.28376 8.1833C7.17806 8.11284 7.09353 8.01494 7.03923 7.9001C6.93923 7.7001 7.03923 7.4001 7.23923 7.2001L10.1392 5.1001H10.8392L13.7392 7.2001C13.9392 7.4001 14.0392 7.6001 13.9392 7.9001C13.8392 8.2001 13.6392 8.3001 13.4392 8.3001ZM8.23923 7.5001H12.7392L10.4392 5.9001L8.23923 7.5001Z" fill="#FC7201"/>
</svg>
