<svg xmlns="http://www.w3.org/2000/svg" style="transform: rotate(180deg);" width="8" height="7" viewBox="0 0 8 7" fill="none">
<path d="M1.25942 0.188114C1.18816 0.128024 1.10433 0.081048 1.01272 0.0498667C0.921111 0.0186854 0.823516 0.00390949 0.725508 0.00638342C0.627499 0.00885735 0.530997 0.0285324 0.44151 0.0642849C0.352023 0.100037 0.271304 0.151167 0.203962 0.214755C0.13662 0.278344 0.0839741 0.353145 0.0490294 0.434888C0.0140847 0.516631 -0.00247422 0.603715 0.000298299 0.691168C0.00307082 0.778621 0.0251204 0.864731 0.065188 0.944581C0.105256 1.02443 0.162557 1.09646 0.23382 1.15655L3.483 6.81794C3.62159 6.93486 3.80508 7 3.9958 7C4.18653 7 4.37002 6.93486 4.50861 6.81794L7.75854 1.15655C7.83136 1.09685 7.89016 1.02484 7.93154 0.944699C7.97291 0.864556 7.99602 0.777877 7.99953 0.689696C8.00304 0.601515 7.98688 0.513591 7.95199 0.43103C7.9171 0.348469 7.86417 0.272917 7.79627 0.208763C7.72838 0.144609 7.64688 0.0931312 7.55651 0.0573204C7.46613 0.0215096 7.36868 0.00207944 7.26982 0.000158254C7.17096 -0.00176293 7.07265 0.013863 6.98061 0.046129C6.88858 0.078395 6.80464 0.126658 6.73368 0.188113L3.9958 5.41791L1.25942 0.188114Z" fill="#fff"/>
</svg>