<svg width="21"
  height="21"
  viewBox="0 0 21 21"
  fill="none"
  xmlns="http://www.w3.org/2000/svg">
  <g id="arrow_mini_slider">
    <path id="Vector"
      d="M0.000389099 10.2C0.000389099 4.56 4.56039 0 10.2004 0C15.8404 0 20.4004 4.56 20.4004 10.2C20.4004 15.84 15.8404 20.4 10.2004 20.4C4.56039 20.4 0.000389099 15.84 0.000389099 10.2ZM19.2004 10.2C19.2004 5.22 15.1804 1.2 10.2004 1.2C5.22039 1.2 1.20039 5.22 1.20039 10.2C1.20039 15.18 5.22039 19.2 10.2004 19.2C15.1804 19.2 19.2004 15.18 19.2004 10.2Z"
      fill="#FFFCFC" />
    <path id="Vector_2"
      d="M8.00016 14.8L12.9802 9.82L8.00016 4.84L8.84016 4L14.6602 9.82L8.84016 15.64L8.00016 14.8Z"
      fill="white" />
  </g>
</svg>