<svg width="21" height="29" viewBox="0 0 21 29" fill="none" xmlns="http://www.w3.org/2000/svg">
<path d="M13.0992 9.77757C13.0182 9.95517 12.8472 10.0488 12.8124 10.0644C12.6162 10.1514 10.6524 10.98 10.6524 10.98L13.0992 9.77757ZM13.0992 9.77757C13.2814 9.37377 13.935 7.74676 14.3115 6.80964C14.4122 6.559 14.4931 6.35772 14.5398 6.24238C14.727 5.77918 15.189 5.12097 16.1394 4.88877C17.22 4.62357 18.309 5.29857 18.5676 6.37318L13.0992 9.77757ZM19.5567 12.6492L19.5566 12.6493L19.5595 12.6602C19.6183 12.8832 19.7041 13.3234 19.776 13.7866C19.8486 14.2545 19.8994 14.6984 19.9 14.9397C19.9 14.94 19.9 14.9402 19.9 14.9404L19.8898 26.9679C19.8898 26.9684 19.8898 26.9688 19.8898 26.9693C19.8841 27.7378 19.3399 28.3025 18.6215 28.3C17.9172 28.2975 17.3985 27.7402 17.4008 26.9595L17.4008 26.9581L17.4026 16.7641L17.4026 16.7051L17.3889 16.6477L15.8157 10.0687L15.457 8.56873L14.8674 9.99382C14.7752 10.2164 14.6737 10.4607 14.5862 10.665C14.5424 10.7673 14.503 10.8574 14.4706 10.9287C14.4544 10.9644 14.4407 10.9937 14.4295 11.0166C14.424 11.028 14.4195 11.0369 14.4161 11.0436C14.4129 11.0497 14.4113 11.0526 14.411 11.0532C14.2677 11.3013 14.1611 11.4222 13.9324 11.5306L11.417 12.5761L11.3606 12.5961C11.2791 12.625 11.2068 12.6388 11.1402 12.6388C10.7803 12.6388 10.4964 12.351 10.496 12.0062C10.4965 11.8866 10.5311 11.7696 10.5958 11.669C10.6606 11.5681 10.7528 11.4878 10.8617 11.4376L10.9466 11.3985L11.1568 11.3098L11.8536 11.0153C12.3655 10.7988 12.9118 10.5672 13.0151 10.5215L13.0151 10.5215L13.0169 10.5206C13.0981 10.4842 13.3995 10.324 13.5541 9.98506L13.5549 9.98327C13.7422 9.56831 14.4064 7.91483 14.7816 6.98082C14.8799 6.73613 14.9584 6.54081 15.0032 6.43009L15.0033 6.42973C15.1481 6.07159 15.505 5.55847 16.258 5.37449L16.2585 5.37437C17.0668 5.17601 17.8869 5.68155 18.0814 6.49016L19.5567 12.6492Z" stroke="#FC7201"/>
<path d="M16.1524 2.292C16.1524 3.2774 15.345 4.084 14.3394 4.084C13.3338 4.084 12.5264 3.27741 12.5264 2.292C12.5264 1.3066 13.3338 0.5 14.3394 0.5C15.345 0.5 16.1524 1.3066 16.1524 2.292Z" stroke="#FC7201"/>
<path d="M5.9804 18.8402L6.34129 18.7936L8.02189 18.5764L8.54092 18.5093L8.45024 17.9939C8.31918 17.2489 8.01075 16.6175 7.50416 16.1395L7.50391 16.1392C7.09132 15.7504 6.57588 15.4984 5.9804 15.367V15.1375V14.6375H5.4804H4.5162H4.0162V15.1375V15.3607C3.34734 15.5016 2.77539 15.809 2.32167 16.2929C1.76744 16.8833 1.4974 17.6136 1.4974 18.4501C1.4974 19.2636 1.73196 19.9828 2.21875 20.5797C2.64309 21.1011 3.25681 21.482 4.0156 21.7455V22.8071C3.99155 22.7344 3.97247 22.6601 3.95857 22.5844L3.87478 22.1282L3.41364 22.1776L1.67964 22.363L1.15924 22.4186L1.23858 22.9359C1.38258 23.8749 1.72271 24.6533 2.29596 25.223L2.2973 25.2243C2.76696 25.6875 3.34491 25.9895 4.0162 26.139V26.9161V27.4161H4.5162H5.4804H5.9804V26.9161V26.0993C6.74475 25.9208 7.38603 25.5657 7.87593 25.0172L7.87632 25.0167C8.45085 24.3719 8.7308 23.5812 8.7308 22.6759C8.7308 21.8701 8.50955 21.1661 8.03479 20.6047L8.03387 20.6036C7.60356 20.0976 6.89158 19.7245 5.9804 19.4422V18.8402ZM6.74987 9.22996L9.48766 14.7225L9.54316 14.8385C9.63222 15.0247 9.67882 15.2283 9.6796 15.4347V28.3001H0.5V8.13432C0.5 7.52083 1.00368 7.0157 1.63347 7.01612H1.6338L4.938 7.01612L4.93912 7.01612C5.15232 7.01564 5.36132 7.07535 5.54209 7.18838C5.72287 7.30141 5.86807 7.46317 5.96099 7.65505L6.74573 9.27544L6.74987 9.22996ZM5.9786 23.3548V22.5005C6.0586 22.6117 6.1018 22.7429 6.1018 22.9129C6.1018 23.0836 6.06104 23.2267 5.9786 23.3548Z" stroke="#FC7201"/>
</svg>
