<svg width="25" height="25" viewBox="0 0 25 25" fill="none" xmlns="http://www.w3.org/2000/svg">
<path d="M23.2609 19.7828C23.3291 19.7892 23.3948 19.8116 23.4527 19.8483C23.5106 19.8849 23.559 19.9347 23.594 19.9936C23.629 20.0525 23.6495 20.1188 23.654 20.1872C23.6585 20.2555 23.6468 20.324 23.6198 20.3869C23.5928 20.4499 23.5513 20.5056 23.4987 20.5495C23.4461 20.5934 23.3839 20.6242 23.3171 20.6395C23.2504 20.6548 23.1809 20.6541 23.1145 20.6374C23.048 20.6208 22.9864 20.5886 22.9348 20.5437C21.8478 20.2176 21.0869 19.7828 20.3261 19.348C19.2397 18.6504 17.9758 18.2796 16.6848 18.2796C15.3937 18.2796 14.1298 18.6504 13.0435 19.348C11.0869 20.6524 8.69564 21.3045 6.30433 21.3045C5.21738 21.3045 4.45651 21.0871 3.04346 20.5437L1.95651 20.2176C1.88708 20.1572 1.83861 20.0763 1.81808 19.9866C1.79755 19.8968 1.80603 19.8029 1.84228 19.7183C1.87854 19.6337 1.94071 19.5628 2.01983 19.5158C2.09896 19.4688 2.19096 19.4481 2.28259 19.4567L3.36955 19.7828C4.6739 20.2176 5.43477 20.435 6.30433 20.435C8.47825 20.435 10.7609 19.7828 12.6087 18.5871C13.8276 17.8139 15.2413 17.4032 16.6848 17.4032C18.1283 17.4032 19.542 17.8139 20.7609 18.5871C21.5217 19.0219 22.2826 19.4567 23.2609 19.6741V19.7828ZM23.2609 17.1741C23.3291 17.1805 23.3948 17.203 23.4527 17.2396C23.5106 17.2762 23.559 17.326 23.594 17.3849C23.629 17.4438 23.6495 17.5101 23.654 17.5785C23.6585 17.6468 23.6468 17.7153 23.6198 17.7782C23.5928 17.8412 23.5513 17.8969 23.4987 17.9408C23.4461 17.9847 23.3839 18.0155 23.3171 18.0308C23.2504 18.0461 23.1809 18.0454 23.1145 18.0287C23.048 18.0121 22.9864 17.9799 22.9348 17.935C21.8478 17.6089 21.0869 17.2828 20.3261 16.7393C19.2397 16.0417 17.9758 15.6709 16.6848 15.6709C15.3937 15.6709 14.1298 16.0417 13.0435 16.7393C11.0869 18.0437 8.69564 18.6958 6.30433 18.6958C5.21738 18.6958 4.45651 18.4785 3.04346 18.0437L1.95651 17.6089C1.88708 17.5485 1.83861 17.4676 1.81808 17.3779C1.79755 17.2881 1.80603 17.1942 1.84228 17.1096C1.87854 17.025 1.94071 16.9541 2.01983 16.9071C2.09896 16.8601 2.19096 16.8394 2.28259 16.848L3.36955 17.1741C4.6739 17.7176 5.43477 17.8263 6.30433 17.8263C8.47825 17.8263 10.7609 17.1741 12.6087 15.9785C13.8276 15.2052 15.2413 14.7945 16.6848 14.7945C18.1283 14.7945 19.542 15.2052 20.7609 15.9785C21.5217 16.5219 22.2826 16.848 23.2609 17.0654V17.1741ZM14.0217 9.6741L14.1304 9.8915C14.3281 9.42561 14.6626 9.0307 15.0896 8.75899C15.5166 8.48727 16.0159 8.35155 16.5217 8.36976C16.9543 8.3531 17.3843 8.44438 17.7729 8.63537C18.1614 8.82635 18.4963 9.11103 18.7474 9.46375C18.9984 9.81646 19.1577 10.2261 19.211 10.6558C19.2642 11.0854 19.2097 11.5216 19.0523 11.9249C18.8949 12.3282 18.6396 12.686 18.3094 12.966C17.9792 13.2461 17.5845 13.4395 17.1609 13.529C16.7373 13.6184 16.2981 13.601 15.8829 13.4783C15.4677 13.3556 15.0896 13.1316 14.7826 12.8263C13.6116 13.0747 12.4786 13.4767 11.413 14.0219L9.5652 15.0002C8.65108 15.4432 7.64612 15.6665 6.63042 15.6524C5.10868 15.6524 4.02172 15.3263 3.26086 14.5654C3.19692 14.5189 3.14687 14.4559 3.11608 14.3831C3.08528 14.3103 3.07492 14.2305 3.0861 14.1522C3.09728 14.074 3.12957 14.0003 3.17952 13.939C3.22946 13.8777 3.29516 13.8313 3.36955 13.8045C4.45651 13.4785 5.10868 12.8263 6.41303 11.3045C7.60868 9.7828 8.47825 9.13063 9.5652 8.69584C10.8696 4.7828 15.4348 3.04367 19.4565 4.8915C20.1087 5.10889 20.4348 5.76106 20.1087 6.30454C19.8913 6.95671 19.2391 7.17411 18.4782 6.84802C16.7391 6.19584 15.1087 6.41324 13.913 7.2828C12.9348 7.82628 12.6087 8.58715 12.8261 8.91324C13.2609 9.02193 13.5869 9.23932 13.913 9.6741H14.0217ZM6.52173 14.7828C7.39129 14.7828 8.15216 14.6741 9.02173 14.2393L10.8696 13.1524C12.1111 12.5717 13.4285 12.1692 14.7826 11.9567C14.8415 11.9517 14.9008 11.9588 14.9568 11.9775C15.0129 11.9962 15.0646 12.0261 15.1087 12.0654C15.294 12.2966 15.5353 12.4766 15.8097 12.5884C16.0842 12.7001 16.3826 12.7399 16.6767 12.7039C16.9708 12.668 17.2509 12.5575 17.4903 12.3829C17.7297 12.2083 17.9205 11.9755 18.0447 11.7065C18.1689 11.4374 18.2223 11.1411 18.1998 10.8457C18.1773 10.5502 18.0797 10.2654 17.9162 10.0183C17.7528 9.77115 17.5289 9.56987 17.2658 9.43354C17.0027 9.29721 16.7092 9.23036 16.413 9.23932C15.5435 9.23932 14.8913 9.8915 14.6739 10.6524C14.6613 10.7104 14.637 10.7652 14.6024 10.8135C14.5677 10.8618 14.5236 10.9024 14.4727 10.933C14.4218 10.9635 14.3651 10.9833 14.3063 10.9912C14.2474 10.999 14.1876 10.9947 14.1304 10.9785C13.913 10.9785 13.913 10.9785 13.2609 10.3263C12.9348 10.0002 12.6087 9.7828 12.3913 9.7828C12.31 9.76797 12.2346 9.73027 12.1739 9.6741C11.3043 8.80454 11.9565 7.50019 13.2609 6.41324C14.073 5.92395 14.9917 5.63871 15.9382 5.58193C16.8846 5.52514 17.8308 5.69849 18.6956 6.08715H19.2391C19.2391 5.86976 19.2391 5.76106 19.0217 5.65237C15.3261 4.02193 11.1956 5.65237 10.2174 9.13063C10.1738 9.22715 10.0965 9.30445 9.99999 9.34802C8.91303 9.7828 8.26086 10.435 6.95651 11.848C6.24596 12.8328 5.36196 13.68 4.34781 14.348C4.89129 14.6741 5.65216 14.7828 6.52173 14.7828Z" fill="#FC7201"/>
<mask id="mask0_95_1135" style="mask-type:luminance" maskUnits="userSpaceOnUse" x="1" y="4" width="23" height="18">
<path d="M23.2609 19.7828C23.3291 19.7892 23.3948 19.8116 23.4527 19.8483C23.5106 19.8849 23.559 19.9347 23.594 19.9936C23.629 20.0525 23.6495 20.1188 23.654 20.1872C23.6585 20.2555 23.6468 20.324 23.6198 20.3869C23.5928 20.4499 23.5513 20.5056 23.4987 20.5495C23.4461 20.5934 23.3839 20.6242 23.3171 20.6395C23.2504 20.6548 23.1809 20.6541 23.1145 20.6374C23.048 20.6208 22.9864 20.5886 22.9348 20.5437C21.8478 20.2176 21.0869 19.7828 20.3261 19.348C19.2397 18.6504 17.9758 18.2796 16.6848 18.2796C15.3937 18.2796 14.1298 18.6504 13.0435 19.348C11.0869 20.6524 8.69564 21.3045 6.30433 21.3045C5.21738 21.3045 4.45651 21.0871 3.04346 20.5437L1.95651 20.2176C1.88708 20.1572 1.83861 20.0763 1.81808 19.9866C1.79755 19.8968 1.80603 19.8029 1.84228 19.7183C1.87854 19.6337 1.94071 19.5628 2.01983 19.5158C2.09896 19.4688 2.19096 19.4481 2.28259 19.4567L3.36955 19.7828C4.6739 20.2176 5.43477 20.435 6.30433 20.435C8.47825 20.435 10.7609 19.7828 12.6087 18.5871C13.8276 17.8139 15.2413 17.4032 16.6848 17.4032C18.1283 17.4032 19.542 17.8139 20.7609 18.5871C21.5217 19.0219 22.2826 19.4567 23.2609 19.6741V19.7828ZM23.2609 17.1741C23.3291 17.1805 23.3948 17.203 23.4527 17.2396C23.5106 17.2762 23.559 17.326 23.594 17.3849C23.629 17.4438 23.6495 17.5101 23.654 17.5785C23.6585 17.6468 23.6468 17.7153 23.6198 17.7782C23.5928 17.8412 23.5513 17.8969 23.4987 17.9408C23.4461 17.9847 23.3839 18.0155 23.3171 18.0308C23.2504 18.0461 23.1809 18.0454 23.1145 18.0287C23.048 18.0121 22.9864 17.9799 22.9348 17.935C21.8478 17.6089 21.0869 17.2828 20.3261 16.7393C19.2397 16.0417 17.9758 15.6709 16.6848 15.6709C15.3937 15.6709 14.1298 16.0417 13.0435 16.7393C11.0869 18.0437 8.69564 18.6958 6.30433 18.6958C5.21738 18.6958 4.45651 18.4785 3.04346 18.0437L1.95651 17.6089C1.88708 17.5485 1.83861 17.4676 1.81808 17.3779C1.79755 17.2881 1.80603 17.1942 1.84228 17.1096C1.87854 17.025 1.94071 16.9541 2.01983 16.9071C2.09896 16.8601 2.19096 16.8394 2.28259 16.848L3.36955 17.1741C4.6739 17.7176 5.43477 17.8263 6.30433 17.8263C8.47825 17.8263 10.7609 17.1741 12.6087 15.9785C13.8276 15.2052 15.2413 14.7945 16.6848 14.7945C18.1283 14.7945 19.542 15.2052 20.7609 15.9785C21.5217 16.5219 22.2826 16.848 23.2609 17.0654V17.1741ZM14.0217 9.6741L14.1304 9.8915C14.3281 9.42561 14.6626 9.0307 15.0896 8.75899C15.5166 8.48727 16.0159 8.35155 16.5217 8.36976C16.9543 8.3531 17.3843 8.44438 17.7729 8.63537C18.1614 8.82635 18.4963 9.11103 18.7474 9.46375C18.9984 9.81646 19.1577 10.2261 19.211 10.6558C19.2642 11.0854 19.2097 11.5216 19.0523 11.9249C18.8949 12.3282 18.6396 12.686 18.3094 12.966C17.9792 13.2461 17.5845 13.4395 17.1609 13.529C16.7373 13.6184 16.2981 13.601 15.8829 13.4783C15.4677 13.3556 15.0896 13.1316 14.7826 12.8263C13.6116 13.0747 12.4786 13.4767 11.413 14.0219L9.5652 15.0002C8.65108 15.4432 7.64612 15.6665 6.63042 15.6524C5.10868 15.6524 4.02172 15.3263 3.26086 14.5654C3.19692 14.5189 3.14687 14.4559 3.11608 14.3831C3.08528 14.3103 3.07492 14.2305 3.0861 14.1522C3.09728 14.074 3.12957 14.0003 3.17952 13.939C3.22946 13.8777 3.29516 13.8313 3.36955 13.8045C4.45651 13.4785 5.10868 12.8263 6.41303 11.3045C7.60868 9.7828 8.47825 9.13063 9.5652 8.69584C10.8696 4.7828 15.4348 3.04367 19.4565 4.8915C20.1087 5.10889 20.4348 5.76106 20.1087 6.30454C19.8913 6.95671 19.2391 7.17411 18.4782 6.84802C16.7391 6.19584 15.1087 6.41324 13.913 7.2828C12.9348 7.82628 12.6087 8.58715 12.8261 8.91324C13.2609 9.02193 13.5869 9.23932 13.913 9.6741H14.0217ZM6.52173 14.7828C7.39129 14.7828 8.15216 14.6741 9.02173 14.2393L10.8696 13.1524C12.1111 12.5717 13.4285 12.1692 14.7826 11.9567C14.8415 11.9517 14.9008 11.9588 14.9568 11.9775C15.0129 11.9962 15.0646 12.0261 15.1087 12.0654C15.294 12.2966 15.5353 12.4766 15.8097 12.5884C16.0842 12.7001 16.3826 12.7399 16.6767 12.7039C16.9708 12.668 17.2509 12.5575 17.4903 12.3829C17.7297 12.2083 17.9205 11.9755 18.0447 11.7065C18.1689 11.4374 18.2223 11.1411 18.1998 10.8457C18.1773 10.5502 18.0797 10.2654 17.9162 10.0183C17.7528 9.77115 17.5289 9.56987 17.2658 9.43354C17.0027 9.29721 16.7092 9.23036 16.413 9.23932C15.5435 9.23932 14.8913 9.8915 14.6739 10.6524C14.6613 10.7104 14.637 10.7652 14.6024 10.8135C14.5677 10.8618 14.5236 10.9024 14.4727 10.933C14.4218 10.9635 14.3651 10.9833 14.3063 10.9912C14.2474 10.999 14.1876 10.9947 14.1304 10.9785C13.913 10.9785 13.913 10.9785 13.2609 10.3263C12.9348 10.0002 12.6087 9.7828 12.3913 9.7828C12.31 9.76797 12.2346 9.73027 12.1739 9.6741C11.3043 8.80454 11.9565 7.50019 13.2609 6.41324C14.073 5.92395 14.9917 5.63871 15.9382 5.58193C16.8846 5.52514 17.8308 5.69849 18.6956 6.08715H19.2391C19.2391 5.86976 19.2391 5.76106 19.0217 5.65237C15.3261 4.02193 11.1956 5.65237 10.2174 9.13063C10.1738 9.22715 10.0965 9.30445 9.99999 9.34802C8.91303 9.7828 8.26086 10.435 6.95651 11.848C6.24596 12.8328 5.36196 13.68 4.34781 14.348C4.89129 14.6741 5.65216 14.7828 6.52173 14.7828Z" fill="#292F37"/>
</mask>
<g mask="url(#mask0_95_1135)">
<path fill-rule="evenodd" clip-rule="evenodd" d="M0 0H25V25H0V0Z" fill="#FC7201"/>
</g>
</svg>
