<svg width="25" height="27" viewBox="0 0 25 27" fill="none" xmlns="http://www.w3.org/2000/svg">
<path d="M0.900166 18.2056L9.10636 21.1457L9.56858 21.3113L9.74256 20.8522L11.8551 15.2772L11.9672 14.9813L11.7478 14.7533L7.29093 10.1217C6.97947 9.7754 6.7828 9.42434 6.74764 9.06395C6.70421 8.61879 6.74973 8.24356 6.93471 7.87361L6.93952 7.86399L6.94391 7.85418C7.11308 7.47603 7.37735 7.18203 7.7468 6.97234L7.74681 6.97235L7.74993 6.97055L12.1249 4.44556L12.1269 4.44439C12.4719 4.24315 12.8408 4.17977 13.2481 4.21094C13.6142 4.24083 14.0034 4.38107 14.3475 4.61981C14.67 4.85563 14.8908 5.16346 15.0086 5.55618L15.0093 5.55861L15.4218 6.90861C15.7178 7.87718 16.2039 8.74263 16.88 9.48634L16.88 9.48635L16.8831 9.4897C17.5521 10.2122 18.3344 10.7805 19.2297 11.1603L19.7319 11.3733L19.9005 10.8545L20.3958 9.33066L21.2445 9.60766L20.1351 13.0053C18.8668 12.7415 17.7266 12.1922 16.7173 11.3636C15.59 10.438 14.7434 9.3181 14.2145 7.99001L14.0014 7.4549L13.5016 7.74109L10.3141 9.56609L9.78278 9.87027L10.1869 10.3301L13.8004 14.4411L11.1578 21.3719L10.9772 21.8455L11.4533 22.0196L15.3158 23.4321L15.8052 23.6111L15.9638 23.1146L18.3944 15.5057C18.5401 15.5522 18.6965 15.5998 18.8467 15.6438C18.9831 15.6839 19.1245 15.724 19.2584 15.7602L16.7742 23.459L16.6274 23.9138L17.0751 24.0809L18.0126 24.4309L18.021 24.434L18.0294 24.4368C18.9026 24.7279 19.7809 24.875 20.6625 24.875C21.6335 24.875 22.5714 24.6922 23.4734 24.3388L24.152 25.0054C23.7345 25.1938 23.2906 25.3519 22.8233 25.4788C21.1361 25.9044 19.3612 25.8263 17.7179 25.254L0.628099 19.0218L0.900166 18.2056ZM20.75 2.5C20.75 3.61136 19.8614 4.5 18.75 4.5C17.6386 4.5 16.75 3.61136 16.75 2.5C16.75 1.39027 17.6495 0.5 18.75 0.5C19.8489 0.5 20.75 1.40114 20.75 2.5Z" stroke="#FC7201"/>
</svg>
