<svg width="28" height="28" viewBox="0 0 28 28" fill="none" xmlns="http://www.w3.org/2000/svg">
<path d="M23.2697 23.2543L23.1094 22.7299L20.9322 15.6077L20.6036 14.5329L21.5374 15.1585C22.3745 15.7194 23.0503 15.8849 23.5831 15.8586C24.1153 15.8323 24.5525 15.612 24.9088 15.3138C25.2682 15.0129 25.536 14.6394 25.7158 14.3332C25.7255 14.3166 25.735 14.3002 25.7442 14.2841C25.3049 14.1844 24.9362 13.9959 24.6314 13.7404C24.2053 13.3831 23.9275 12.9145 23.7448 12.4335C23.3835 11.4822 23.3662 10.4027 23.3662 9.8005C23.3662 9.25956 23.1883 8.44872 22.7792 7.86396C22.5786 7.57731 22.3337 7.36057 22.0424 7.24312C21.7557 7.12752 21.3898 7.09414 20.9171 7.23019L23.2697 23.2543ZM23.2697 23.2543L23.7201 22.9414C24.7412 22.2322 25.6504 21.41 26.3744 20.4686C26.6424 20.1225 27.0586 20.1069 27.3422 20.4094C27.6614 20.7533 27.6917 21.3703 27.3912 21.7671C24.55 25.4623 19.4876 27.6 13.9489 27.6C8.83356 27.6 4.14033 25.7257 1.23645 22.4519L1.23635 22.4518C0.918924 22.0942 0.904188 21.4775 1.20835 21.0989C1.48361 20.7597 1.89924 20.7545 2.17856 21.0665C2.96788 21.9551 3.91268 22.7196 4.9499 23.3726L5.39062 23.65L5.54502 23.1526L7.69467 16.2275C7.92972 15.6321 7.90438 14.9425 7.62626 14.3705C7.626 14.37 7.62575 14.3694 7.62549 14.3689L6.22689 11.4374L5.99165 10.9444L5.59265 11.3175L4.60035 12.2455C3.47927 13.2644 1.85565 13.0429 0.963249 11.6803L0.963031 11.6799C0.0468415 10.284 0.278176 8.25081 1.4408 7.19216L1.44107 7.19192L4.4314 4.46406C4.58982 4.32187 4.75296 4.20584 4.92062 4.11416L5.1907 3.96646L5.1171 3.66757C4.71704 2.04288 5.06698 1.24994 5.40933 0.863094C5.5774 0.673177 5.76387 0.557124 5.91497 0.487423M23.2697 23.2543L5.91497 0.487423M5.91497 0.487423L10.4547 9.84041L10.4549 9.8409C10.5789 10.0954 10.8028 10.5345 11.0165 10.9216C11.1231 11.1145 11.2302 11.3002 11.3229 11.4452C11.3689 11.517 11.4156 11.5856 11.4599 11.6422C11.482 11.6703 11.5079 11.7011 11.5365 11.7298C11.5598 11.7532 11.6085 11.7996 11.6777 11.8337L11.7613 11.8749H11.8546H18.3204H18.7216L18.7204 11.4737C18.7191 11.0477 18.8855 10.07 19.2708 9.13753C19.6645 8.1847 20.2239 7.43035 20.9168 7.23026L5.91497 0.487423ZM11.8546 13.6185H11.4546V14.0185V15.2887V15.6887H11.8546H17.2432H17.6432V15.2887V14.0185V13.6185H17.2432H11.8546ZM9.15918 24.8328L9.10388 25.1914L9.45546 25.2813C10.8826 25.6461 12.3959 25.8564 13.9632 25.8564C15.8573 25.8564 17.7117 25.5708 19.4279 25.0365L19.7687 24.9304L19.7019 24.5797C19.1758 21.8183 17.0692 19.6659 14.4517 19.6659C11.7549 19.6659 9.60366 21.9502 9.15918 24.8328Z" stroke="#FC7201" stroke-width="0.8"/>
</svg>
