<svg width="26" height="26" viewBox="0 0 26 26" fill="none" xmlns="http://www.w3.org/2000/svg">
<path d="M21.4986 19.9828V19.569H21.9124H22.6206C22.659 19.569 22.7231 19.5474 22.7807 19.4499C22.838 19.3527 22.8644 19.212 22.8253 19.0684V19.0683L21.5865 14.5396L22.337 14.2119L23.4772 16.0449L23.4773 16.045C23.6342 16.2975 23.8427 16.4241 24.0359 16.4567C24.2261 16.4889 24.4379 16.437 24.6283 16.2605L24.6284 16.2604C25.0325 15.8863 25.1312 15.1338 24.8041 14.6112L24.8023 14.6084L22.4612 10.8004C21.6311 9.50858 20.3588 8.75862 19.0478 8.75862C17.7329 8.75862 16.463 9.50866 15.6346 10.8003L13.2932 14.6084L13.2913 14.6116C12.964 15.1334 13.0632 15.8856 13.4684 16.2604L13.4695 16.2614C13.6578 16.4369 13.8686 16.4889 14.0588 16.4567C14.2522 16.4241 14.4613 16.2973 14.6185 16.0448L15.7564 14.2167L16.5076 14.5415L15.3061 19.0658L15.3025 19.0793L15.2979 19.0925C15.2505 19.2324 15.2723 19.3655 15.3237 19.456C15.3756 19.5474 15.437 19.569 15.475 19.569H16.1833H16.597V19.9828V23.8621C16.597 24.5721 17.0535 25 17.4564 25C17.8593 25 18.3158 24.5721 18.3158 23.8621V19.9828V19.569H18.7296H19.3661H19.7799V19.9828V23.8621C19.7799 24.5721 20.2364 25 20.6393 25C21.0422 25 21.4986 24.5721 21.4986 23.8621V19.9828ZM10.6035 16.4415C10.796 16.4943 11.0176 16.4654 11.2323 16.3134C11.6127 15.9954 11.7796 15.263 11.481 14.6458L9.42695 10.7137L9.42596 10.7117C8.77854 9.45644 7.68121 8.71498 6.56308 8.71498H6.06973C4.94787 8.71498 3.8544 9.45619 3.20688 10.7117L3.20587 10.7137L1.15175 14.6458C0.851487 15.2664 1.02326 15.9983 1.4352 16.3128L1.43626 16.3137C1.63114 16.4635 1.84207 16.4949 2.03238 16.4419C2.22668 16.3878 2.43017 16.2359 2.57061 15.9628L2.57093 15.9621L3.08416 14.968L3.86561 15.1578V23.8621C3.86561 24.5721 4.32208 25 4.72497 25C5.12787 25 5.58434 24.5721 5.58434 23.8621V19.2069V18.7931H5.99811H6.63469H7.04847V19.2069V23.8621C7.04847 24.5721 7.50494 25 7.90783 25C8.31072 25 8.7672 24.5721 8.7672 23.8621V15.1578L9.5486 14.968L10.0618 15.9621L10.0622 15.9628C10.2024 16.2353 10.4052 16.3871 10.6035 16.4415ZM21.2162 3.68966C21.2162 2.12795 20.1544 1 19.0837 1C17.9479 1 16.9511 2.11983 16.9511 3.68966C16.9511 5.25948 17.9479 6.37931 19.0837 6.37931C20.1544 6.37931 21.2162 5.25136 21.2162 3.68966ZM8.44891 3.68966C8.44891 2.12392 7.41971 1 6.3164 1C5.2131 1 4.18389 2.12392 4.18389 3.68966C4.18389 5.25539 5.2131 6.37931 6.3164 6.37931C7.41971 6.37931 8.44891 5.25539 8.44891 3.68966Z" stroke="#FC7201"/>
</svg>
