<svg width="26" height="25" viewBox="0 0 26 25" fill="none" xmlns="http://www.w3.org/2000/svg">
<path d="M1.73151 16.1315H1.38151V15.7815V14.5479C1.38151 14.505 1.35009 14.4867 1.33148 14.4867C1.31288 14.4867 1.28145 14.505 1.28145 14.5479V24.5886C1.28145 24.6315 1.31288 24.6498 1.33148 24.6498H1.41522L1.38152 18.2505L1.37967 17.8987H1.73151H22.3997C22.4183 17.8987 22.4498 17.8804 22.4498 17.8375C22.4498 17.7945 22.4183 17.7763 22.3997 17.7763H1.73151H1.38151V17.4263V16.6039V16.2539H1.73151H25.1999H25.5499V16.6039V17.4263V17.7763H25.1999H23.9999C23.9812 17.7763 23.9498 17.7945 23.9498 17.8375C23.9498 17.8804 23.9812 17.8987 23.9999 17.8987H25.1999H25.5518L25.5499 18.2505L25.5162 24.6498H25.6C25.6186 24.6498 25.65 24.6315 25.65 24.5886V14.5479C25.65 14.505 25.6186 14.4867 25.6 14.4867C25.5814 14.4867 25.5499 14.505 25.5499 14.5479V15.7815V16.1315H25.1999H1.73151Z" stroke="#FC7201" stroke-width="0.7"/>
<path d="M15.5544 14.8425L15.5544 14.8425L11.1192 9.40929L11.1192 9.40928C11.0755 9.35583 11.0835 9.27705 11.137 9.23335C11.1904 9.18971 11.2692 9.19764 11.3129 9.25114C11.3129 9.25115 11.3129 9.25115 11.3129 9.25116L15.7481 14.6843C15.7917 14.7378 15.7838 14.8166 15.7303 14.8603L15.5544 14.8425ZM15.5544 14.8425C15.579 14.8727 15.6145 14.8885 15.6515 14.8885C15.6794 14.8885 15.7068 14.8794 15.7303 14.8603L15.5544 14.8425Z" stroke="#FC7201" stroke-width="0.55"/>
<path d="M13.7019 14.7006L13.7019 14.7006L9.31662 9.32857C9.31659 9.32853 9.31655 9.32848 9.31651 9.32844C9.3165 9.32842 9.31648 9.3284 9.31646 9.32838C9.29958 9.30772 9.28715 9.2926 9.27457 9.27856L9.14469 9.13355C8.58876 8.5867 7.73547 8.51626 7.10298 8.92391L6.88694 9.06315L6.71621 8.87103C5.70463 7.73274 5.15117 6.2815 5.15117 4.74671C5.15117 4.69147 5.10638 4.64668 5.05114 4.64668C4.9959 4.64668 4.95111 4.69147 4.95111 4.74671C4.95111 6.29397 5.49444 7.75587 6.49062 8.91721L6.05078 9.32466L2.67794 5.95182L2.6779 5.95179C2.63892 5.91279 2.5756 5.91273 2.53651 5.95182C2.49744 5.99089 2.49744 6.05419 2.53651 6.09325L5.90961 9.46631L5.50215 9.90614C4.34081 8.90986 2.87876 8.36643 1.3314 8.36643C1.27616 8.36643 1.23137 8.41122 1.23137 8.46646C1.23137 8.52169 1.27616 8.56649 1.3314 8.56649C2.86624 8.56649 4.31743 9.11994 5.45572 10.1315L5.64783 10.3022L5.50861 10.5183C5.09861 11.1545 5.17228 12.014 5.72796 12.5697C5.76723 12.609 5.80904 12.6468 5.85208 12.682L8.49731 14.8413L8.49738 14.8414C8.51604 14.8566 8.53792 14.8639 8.56031 14.8639C8.59003 14.8639 8.6183 14.8512 8.63803 14.8271C8.67295 14.7843 8.66663 14.7213 8.62379 14.6863C8.62379 14.6863 8.62378 14.6863 8.62377 14.6863L5.97858 12.527L5.97843 12.5269C5.94071 12.4961 5.90403 12.463 5.86938 12.4283L5.86937 12.4283C5.3066 11.8655 5.30658 10.9504 5.86938 10.3876L6.97234 9.28464L6.97236 9.28463C7.53514 8.72191 8.45019 8.72191 9.01298 9.28463L9.0132 9.28485C9.04752 9.31923 9.08069 9.35587 9.11178 9.39396L9.11179 9.39396L9.11244 9.39476L11.3528 12.1392L12.8627 13.9889L13.3589 14.5968L13.4978 14.7669L13.5344 14.8117L13.5438 14.8232L13.5461 14.8261L13.5467 14.8269L13.5469 14.827L13.3146 15.0168L13.3146 15.0168L13.5469 14.8271L13.547 14.8271C13.5666 14.8512 13.5948 14.8639 13.6246 14.8639C13.647 14.8639 13.6688 14.8567 13.6877 14.8413C13.7304 14.8063 13.7368 14.7433 13.7019 14.7006Z" stroke="#FC7201" stroke-width="0.6"/>
<path d="M23.601 4.81977H23.851V5.06977V14.7636C23.851 14.8465 23.9182 14.9136 24.001 14.9136C24.0839 14.9136 24.1511 14.8465 24.1511 14.7636C24.1511 14.7636 24.1511 14.7636 24.1511 14.7635V4.66974C24.1511 4.63851 24.1414 4.60804 24.1232 4.58262L24.1232 4.5826L22.2928 2.01724L22.2463 1.95208V1.87203V0.40003C22.2463 0.317178 22.1791 0.25 22.0963 0.25H15.6174C15.5345 0.25 15.4673 0.317178 15.4673 0.40003V1.87209V1.95213L15.4208 2.01729L13.5905 4.5826L13.5905 4.58262C13.5723 4.60804 13.5626 4.63851 13.5626 4.66974V9.85828C13.5626 9.94113 13.6297 10.0083 13.7126 10.0083C13.7954 10.0083 13.8626 9.94113 13.8626 9.85828V5.06971V4.81971H14.1126H15.5565C15.6394 4.81971 15.7065 4.75253 15.7065 4.66968C15.7065 4.58683 15.6394 4.51965 15.5565 4.51965H14.4894H14.0039L14.2859 4.12444L15.4139 2.54363L15.6174 2.25842L15.8209 2.54364L17.3256 4.65259L17.3721 4.71775V4.7978V14.7636C17.3721 14.8465 17.4393 14.9136 17.5222 14.9136C17.605 14.9136 17.6722 14.8465 17.6722 14.7636V5.06977V4.81977H17.9222H23.601ZM21.6962 0.55006H21.9462V0.80006V1.60012V1.85012H21.6962H16.0174H15.7674V1.60012V0.80006V0.55006H16.0174H21.6962ZM21.8903 2.15018H22.019L22.0938 2.25497L23.4277 4.1245L23.7097 4.51971H23.2242H17.7282H17.5995L17.5247 4.41491L16.1907 2.54539L15.9087 2.15018H16.3942H21.8903Z" stroke="#FC7201" stroke-width="0.5"/>
<path d="M2.9316 14.8887C2.86256 14.8887 2.80657 14.8328 2.80657 14.7637V14.099C2.80657 13.3827 3.26025 12.7313 3.93541 12.4807L2.9316 14.8887ZM2.9316 14.8887C3.00065 14.8887 3.05663 14.8328 3.05663 14.7637V14.099C3.05663 13.4841 3.44513 12.9294 4.02252 12.7151C4.08723 12.6911 4.12026 12.6191 4.09624 12.5544L2.9316 14.8887ZM4.09623 12.5543C4.07224 12.4897 4.00042 12.4566 3.9355 12.4807L4.09623 12.5543Z" stroke="#FC7201" stroke-width="0.55"/>
</svg>
