<svg width="24" height="20" viewBox="0 0 24 20" fill="none" xmlns="http://www.w3.org/2000/svg">
<g clip-path="url(#clip0_95_1529)">
<path fill-rule="evenodd" clip-rule="evenodd" d="M14.6 18.5999C14.3348 18.5999 14.0804 18.4945 13.8929 18.307C13.7053 18.1195 13.6 17.8651 13.6 17.5999C13.6 17.3347 13.7053 17.0803 13.8929 16.8928C14.0804 16.7053 14.3348 16.5999 14.6 16.5999C14.8652 16.5999 15.1195 16.7053 15.3071 16.8928C15.4946 17.0803 15.6 17.3347 15.6 17.5999C15.6 17.8651 15.4946 18.1195 15.3071 18.307C15.1195 18.4945 14.8652 18.5999 14.6 18.5999ZM14.6 15.8999C14.3353 15.8362 14.0597 15.8333 13.7937 15.8915C13.5278 15.9498 13.2786 16.0675 13.0647 16.236C12.8509 16.4044 12.6781 16.6192 12.5592 16.8641C12.4404 17.109 12.3787 17.3777 12.3787 17.6499C12.3787 17.9221 12.4404 18.1908 12.5592 18.4357C12.6781 18.6806 12.8509 18.8954 13.0647 19.0638C13.2786 19.2323 13.5278 19.3501 13.7937 19.4083C14.0597 19.4665 14.3353 19.4636 14.6 19.3999C14.9929 19.3053 15.3425 19.0813 15.5926 18.7638C15.8427 18.4464 15.9787 18.054 15.9787 17.6499C15.9787 17.2458 15.8427 16.8534 15.5926 16.536C15.3425 16.2185 14.9929 15.9945 14.6 15.8999ZM17.5 5.5999C17.5 5.50798 17.4819 5.41695 17.4467 5.33202C17.4115 5.2471 17.3599 5.16993 17.2949 5.10493C17.2299 5.03993 17.1528 4.98836 17.0678 4.95319C16.9829 4.91801 16.8919 4.8999 16.8 4.8999C16.708 4.8999 16.617 4.91801 16.5321 4.95319C16.4472 4.98836 16.37 5.03993 16.305 5.10493C16.24 5.16993 16.1884 5.2471 16.1533 5.33202C16.1181 5.41695 16.1 5.50798 16.1 5.5999C16.1 5.78555 16.1737 5.9636 16.305 6.09488C16.4363 6.22615 16.6143 6.2999 16.8 6.2999C16.9856 6.2999 17.1637 6.22615 17.2949 6.09488C17.4262 5.9636 17.5 5.78555 17.5 5.5999Z" fill="#FC7201"/>
<path fill-rule="evenodd" clip-rule="evenodd" d="M22.3999 5.39984H22.2999C18.9999 4.79984 18.7999 4.19984 18.6999 3.59984C18.5999 3.09984 18.3999 2.29984 17.0999 1.69984C15.5999 0.999843 10.5999 -0.500157 8.6999 1.59984C7.4999 2.79984 6.6999 7.29984 7.9999 9.29984C8.5999 10.2998 9.5999 10.5998 10.6999 10.2998C12.2999 9.79984 13.3999 9.09984 13.7999 8.09984C14.3999 6.89984 13.9999 5.39984 13.4999 4.09984C13.4336 3.95397 13.3121 3.84042 13.162 3.78416C13.012 3.7279 12.8458 3.73354 12.6999 3.79984C12.554 3.86615 12.4405 3.98768 12.3842 4.13771C12.328 4.28774 12.3336 4.45397 12.3999 4.59984C12.9999 5.99984 13.0999 6.89984 12.7999 7.59984C12.3999 8.29984 11.6999 8.79984 10.3999 9.09984C9.6999 9.29984 9.3999 9.09984 8.9999 8.69984C7.9999 7.09984 8.7999 3.19984 9.4999 2.39984C10.7999 0.999843 15.0999 2.09984 16.4999 2.79984C17.3999 3.19984 17.4999 3.49984 17.4999 3.79984C17.7999 4.99984 18.2999 5.79984 21.9999 6.49984C22.1999 6.59984 22.1999 6.99984 21.9999 7.49984C21.7645 8.43382 21.1999 9.25148 20.41 9.8026C19.62 10.3537 18.6577 10.6013 17.6999 10.4998C13.9999 9.99984 12.7999 11.4998 12.4999 12.8998L12.1999 14.0998C9.2999 13.2998 6.1999 11.1998 4.2999 7.89984C4.9999 7.79984 5.6999 7.59984 6.2999 7.29984C6.6999 7.29984 6.8999 6.89984 6.6999 6.59984C6.65374 6.45814 6.55649 6.33869 6.4271 6.26475C6.2977 6.19081 6.14542 6.16767 5.9999 6.19984C5.2999 6.49984 4.4999 6.69984 3.7999 6.79984L3.5999 6.39984C3.52631 6.2853 3.41596 6.1992 3.28697 6.15567C3.15797 6.11213 3.01801 6.11376 2.89006 6.16029C2.76212 6.20681 2.6538 6.29547 2.5829 6.41169C2.512 6.52791 2.48273 6.66479 2.4999 6.79984V6.99984H1.4999C1.34077 6.99984 1.18816 7.06306 1.07564 7.17558C0.963116 7.2881 0.899902 7.44071 0.899902 7.59984C0.899902 7.75897 0.963116 7.91159 1.07564 8.02411C1.18816 8.13663 1.34077 8.19984 1.4999 8.19984L3.1999 7.99984C5.1999 11.7998 8.6999 14.1998 11.8999 14.9998L11.1999 16.4998C11.1361 16.5645 11.0879 16.6428 11.0588 16.7289C11.0297 16.8149 11.0205 16.9064 11.0319 16.9965C11.0433 17.0866 11.075 17.173 11.1247 17.249C11.1743 17.3251 11.2406 17.3889 11.3184 17.4356C11.3963 17.4823 11.4838 17.5108 11.5743 17.5188C11.6647 17.5268 11.7558 17.5141 11.8407 17.4818C11.9256 17.4495 12.002 17.3983 12.0642 17.3321C12.1265 17.266 12.1728 17.1865 12.1999 17.0998C12.1999 17.0998 12.6999 16.3998 13.0999 15.3998H13.4999C13.607 15.3532 13.6981 15.2763 13.762 15.1786C13.826 15.0809 13.8601 14.9666 13.8601 14.8498C13.8601 14.7331 13.826 14.6188 13.762 14.5211C13.6981 14.4234 13.607 14.3465 13.4999 14.2998C13.4999 13.7998 13.6999 13.3998 13.7999 12.9998C13.8999 12.5998 14.1999 11.1998 17.5999 11.5998C20.7999 11.9998 22.8999 9.59984 23.3999 7.69984C23.5999 6.49984 23.3999 5.59984 22.3999 5.29984" fill="#FC7201"/>
</g>
<defs>
<clipPath id="clip0_95_1529">
<rect width="24" height="20" fill="white"/>
</clipPath>
</defs>
</svg>
