<svg width="26" height="24" viewBox="0 0 26 24" fill="none" xmlns="http://www.w3.org/2000/svg">
<path d="M23.8002 13.6V2.2C23.8002 1.48 23.3202 1 22.6002 1H3.4002C2.6802 1 2.2002 1.48 2.2002 2.2V13.6" stroke="#FC7201" stroke-width="0.8" stroke-linecap="round" stroke-linejoin="round"/>
<path d="M4.6001 5.2002H21.4001" stroke="#FC7201" stroke-width="0.8" stroke-linecap="round"/>
<path d="M5.0801 3.51957C5.2074 3.51957 5.32949 3.469 5.41951 3.37898C5.50953 3.28896 5.5601 3.16687 5.5601 3.03957C5.5601 2.91227 5.50953 2.79018 5.41951 2.70016C5.32949 2.61014 5.2074 2.55957 5.0801 2.55957C4.95279 2.55957 4.8307 2.61014 4.74069 2.70016C4.65067 2.79018 4.6001 2.91227 4.6001 3.03957C4.6001 3.16687 4.65067 3.28896 4.74069 3.37898C4.8307 3.469 4.95279 3.51957 5.0801 3.51957ZM7.2401 3.51957C7.3674 3.51957 7.48949 3.469 7.57951 3.37898C7.66953 3.28896 7.7201 3.16687 7.7201 3.03957C7.7201 2.91227 7.66953 2.79018 7.57951 2.70016C7.48949 2.61014 7.3674 2.55957 7.2401 2.55957C7.11279 2.55957 6.9907 2.61014 6.90069 2.70016C6.81067 2.79018 6.7601 2.91227 6.7601 3.03957C6.7601 3.16687 6.81067 3.28896 6.90069 3.37898C6.9907 3.469 7.11279 3.51957 7.2401 3.51957ZM9.4001 3.51957C9.5274 3.51957 9.64949 3.469 9.73951 3.37898C9.82953 3.28896 9.8801 3.16687 9.8801 3.03957C9.8801 2.91227 9.82953 2.79018 9.73951 2.70016C9.64949 2.61014 9.5274 2.55957 9.4001 2.55957C9.27279 2.55957 9.1507 2.61014 9.06069 2.70016C8.97067 2.79018 8.9201 2.91227 8.9201 3.03957C8.9201 3.16687 8.97067 3.28896 9.06069 3.37898C9.1507 3.469 9.27279 3.51957 9.4001 3.51957Z" fill="#FC7201" stroke="#FC7201" stroke-width="0.4"/>
<path d="M21.5201 13.4803C21.5201 11.2003 19.6001 9.28035 17.3201 9.28035L16.0001 9.52035M4.36011 13.6003C4.36493 12.7062 4.59173 11.8272 5.02013 11.0423C5.44853 10.2575 6.06512 9.59127 6.81457 9.10354C7.56401 8.61581 8.42284 8.32181 9.31396 8.24795C10.2051 8.17409 11.1006 8.32266 11.9201 8.68035" stroke="#FC7201" stroke-width="0.8" stroke-linecap="round"/>
<path d="M16.5999 13.6C16.5999 11.56 15.0399 10 12.9999 10C10.9599 10 9.3999 11.56 9.3999 13.6" stroke="#FC7201" stroke-width="0.8"/>
<path d="M1 14.7996C1 14.0796 1.48 13.5996 2.2 13.5996H23.8C24.52 13.5996 25 14.0796 25 14.7996V15.7596L23.2 23.1996H2.8L1 15.7596V14.7996Z" stroke="#FC7201" stroke-width="0.8" stroke-linecap="round" stroke-linejoin="round"/>
</svg>
