<svg width="26" height="26" viewBox="0 0 26 26" fill="none" xmlns="http://www.w3.org/2000/svg">
<line x1="1.4" y1="14.5922" x2="25.6" y2="14.5922" stroke="#FC7201" stroke-width="0.8" stroke-linecap="round"/>
<path d="M24.3334 14.5756C23.9243 11.2492 19.3025 4.07818 13.0834 3.31787C6.53698 4.26826 3.21228 10.9324 2.66675 14.5756" stroke="#FC7201"/>
<path d="M14.5207 1.42559C14.5207 2.07742 13.9044 2.65117 13.0841 2.65117C12.2639 2.65117 11.6475 2.07742 11.6475 1.42559C11.6475 0.773748 12.2639 0.2 13.0841 0.2C13.9044 0.2 14.5207 0.773748 14.5207 1.42559Z" stroke="#FC7201" stroke-width="0.4"/>
<path d="M6.68677 9.01094C7.50507 7.11016 9.55083 5.68415 11.1874 5.68457" stroke="#FC7201" stroke-width="0.7" stroke-linecap="round"/>
<path d="M17.6042 23.7271H9.26978V18.2148L11.651 16.9428C12.921 16.2643 13.7677 16.0947 14.0323 16.0947H18.3979C18.6579 16.0947 18.9605 16.307 19.2498 16.5975C20.0233 17.374 19.4938 18.2148 18.3979 18.2148H16.3286C13.9794 18.2148 15.502 18.8883 17.3529 20.3349C17.787 20.6741 17.8336 20.7589 18.001 20.7589L18.7948 20.3349C20.25 19.4869 23.1557 17.5813 23.5573 17.3668C24.351 16.9428 24.7479 16.9428 25.1448 17.3668C25.4623 17.706 25.674 18.2148 25.1448 18.6388C23.5573 19.9109 20.1442 22.6246 19.1917 23.3031C18.5567 23.6423 17.8687 23.7271 17.6042 23.7271Z" stroke="#FC7201" stroke-width="0.8"/>
<path d="M4.50703 17.7905H1.33203V24.1508H4.50703" stroke="#FC7201"/>
<path d="M9.27069 18.2159V18.2159C9.27069 17.5134 8.70117 16.9438 7.99863 16.9438H5.69819H4.50819L4.50757 25.0002H5.69819H7.99863C8.70117 25.0002 9.27069 24.4307 9.27069 23.7282V23.7282" stroke="#FC7201" stroke-width="0.9"/>
</svg>
