<svg width="27" height="28" viewBox="0 0 27 28" fill="none" xmlns="http://www.w3.org/2000/svg">
<path d="M1 17.2475L3.0675 16.5588C4.17219 16.1906 5.17597 15.5702 5.99934 14.7468C6.82272 13.9235 7.44306 12.9197 7.81125 11.815L8.5 9.7475C8.5 9.7475 10.375 8.4975 13.5 8.4975C16.625 8.4975 18.5 9.7475 18.5 9.7475L19.1888 11.815C19.5569 12.9197 20.1773 13.9235 21.0007 14.7468C21.824 15.5702 22.8278 16.1906 23.9325 16.5588L26 17.2475M10.375 12.2475V18.4975L5.0625 19.56C4.80344 19.6139 4.57025 19.7539 4.40092 19.9572C4.2316 20.1606 4.13612 20.4152 4.13003 20.6798C4.12394 20.9443 4.20761 21.2031 4.3674 21.414C4.52719 21.6249 4.75369 21.7755 5.01 21.8412C6.64125 22.2562 10.2575 23.21 13.5 24.3288C16.8213 25.4738 19.75 26.7912 19.75 27.8725M16.625 12.2475V18.4975L21.9375 19.56C22.1966 19.6139 22.4298 19.7539 22.5991 19.9572C22.7684 20.1606 22.8639 20.4152 22.87 20.6798C22.8761 20.9443 22.7924 21.2031 22.6326 21.414C22.4728 21.6249 22.2463 21.7755 21.99 21.8412C20.7725 22.1512 18.4487 22.7612 16 23.5162M11 25.2625C8.8375 26.1525 7.25 27.075 7.25 27.8725M13.3125 5.9975C13.3125 5.9975 11.3125 4.7475 11.3125 3.185C11.3125 2.6055 11.5427 2.04974 11.9525 1.63997C12.3622 1.2302 12.918 1 13.4975 1C14.077 1 14.6328 1.2302 15.0425 1.63997C15.4523 2.04974 15.6825 2.6055 15.6825 3.185C15.6825 4.7475 13.6875 5.9975 13.6875 5.9975H13.3125Z" stroke="#FC7201"/>
</svg>
