<svg width="24" height="26" viewBox="0 0 24 26" fill="none" xmlns="http://www.w3.org/2000/svg">
<path d="M16 6C17.3807 6 18.5 4.88071 18.5 3.5C18.5 2.11929 17.3807 1 16 1C14.6193 1 13.5 2.11929 13.5 3.5C13.5 4.88071 14.6193 6 16 6Z" stroke="#FC7201"/>
<path d="M4.75 24.75C6.82107 24.75 8.5 23.0711 8.5 21C8.5 18.9289 6.82107 17.25 4.75 17.25C2.67893 17.25 1 18.9289 1 21C1 23.0711 2.67893 24.75 4.75 24.75Z" stroke="#FC7201"/>
<path d="M19.75 24.75C21.8211 24.75 23.5 23.0711 23.5 21C23.5 18.9289 21.8211 17.25 19.75 17.25C17.6789 17.25 16 18.9289 16 21C16 23.0711 17.6789 24.75 19.75 24.75Z" stroke="#FC7201"/>
<path d="M20.3749 11H17.8424C16.3174 11 15.5537 11 14.8674 10.7162C14.1799 10.4325 13.6387 9.89499 12.5549 8.81874L11.8349 8.10124C10.8537 7.12624 10.3624 6.63874 9.78243 6.69249C9.20118 6.74499 8.80743 7.31374 8.01868 8.44999L6.48493 10.6587C5.68243 11.815 5.28118 12.3937 5.44118 12.9625C5.60368 13.5312 6.24868 13.8125 7.53868 14.375L9.38368 15.18C11.0887 15.9237 11.9412 16.2962 12.3512 17.0462C12.7612 17.7962 12.6137 18.715 12.3212 20.5512L12.2499 21" stroke="#FC7201" stroke-linecap="round"/>
</svg>
