<svg width="24" height="24" viewBox="0 0 24 24" fill="none" xmlns="http://www.w3.org/2000/svg">
<path fill-rule="evenodd" clip-rule="evenodd" d="M1.99992 3.30002C1.98022 3.18183 1.93744 3.06867 1.87401 2.96702C1.81058 2.86536 1.72775 2.7772 1.63025 2.70755C1.43334 2.5669 1.18861 2.51023 0.949918 2.55002C0.711223 2.5898 0.498108 2.72277 0.357456 2.91969C0.216804 3.1166 0.160136 3.36132 0.199918 3.60002L1.59992 13.7C1.45071 13.774 1.32497 13.888 1.2367 14.0293C1.14842 14.1705 1.10107 14.3335 1.09992 14.5V15.9C1.09992 16.0326 1.1526 16.1598 1.24636 16.2536C1.34013 16.3473 1.46731 16.4 1.59992 16.4L0.999918 22C0.999918 22.1061 1.04206 22.2078 1.11708 22.2829C1.19209 22.3579 1.29383 22.4 1.39992 22.4C1.506 22.4 1.60775 22.3579 1.68276 22.2829C1.75778 22.2078 1.79992 22.1061 1.79992 22L2.29992 16.4H7.49992L7.99992 22C7.99992 22.1061 8.04206 22.2078 8.11708 22.2829C8.19209 22.3579 8.29383 22.4 8.39992 22.4C8.506 22.4 8.60775 22.3579 8.68276 22.2829C8.75777 22.2078 8.79992 22.1061 8.79992 22L8.29992 16.4C8.43253 16.4 8.5597 16.3473 8.65347 16.2536C8.74724 16.1598 8.79992 16.0326 8.79992 15.9V15C8.79992 14.6287 8.65242 14.2726 8.38987 14.0101C8.12732 13.7475 7.77122 13.6 7.39992 13.6H4.29992L1.99992 3.30002ZM7.99992 15.6H8.09992V15C8.09992 14.8409 8.0367 14.6883 7.92418 14.5758C7.81166 14.4632 7.65905 14.4 7.49992 14.4H1.99992C1.9734 14.4 1.94796 14.4106 1.92921 14.4293C1.91045 14.4481 1.89992 14.4735 1.89992 14.5V15.6H7.99992ZM3.49992 13.6H2.39992L0.999918 3.50002H1.19992L3.49992 13.6ZM7.69992 6.20002C7.65304 6.06806 7.6376 5.92699 7.65483 5.78802C7.67205 5.64905 7.72147 5.51602 7.79915 5.3995C7.87682 5.28299 7.98062 5.1862 8.10227 5.11685C8.22393 5.0475 8.36008 5.0075 8.49992 5.00002H14.9999C15.5999 5.00002 15.9999 5.60002 15.7999 6.20002V6.40002L14.9999 7.70002C14.615 8.08945 14.1308 8.36611 13.5999 8.50002H13.3999C13.3911 8.51522 13.3865 8.53246 13.3865 8.55002C13.3865 8.56757 13.3911 8.58481 13.3999 8.60002H17.3999C17.6386 8.60002 17.8675 8.69484 18.0363 8.86362C18.2051 9.0324 18.2999 9.26132 18.2999 9.50002V10.5C18.2999 10.7387 18.2051 10.9676 18.0363 11.1364C17.8675 11.3052 17.6386 11.4 17.3999 11.4H13.2999L12.7999 20.1C13.2067 20.1255 13.5884 20.3052 13.8672 20.6026C14.1459 20.8999 14.3007 21.2924 14.2999 21.7C14.2999 21.7919 14.2818 21.883 14.2466 21.9679C14.2115 22.0528 14.1599 22.13 14.0949 22.195C14.0299 22.26 13.9527 22.3116 13.8678 22.3467C13.7829 22.3819 13.6918 22.4 13.5999 22.4H10.0999C9.93209 22.3758 9.77875 22.2915 9.6684 22.1627C9.55805 22.034 9.49818 21.8696 9.49992 21.7C9.49992 20.9 10.0999 20.3 10.8999 20.1L10.4999 11.4H6.49992C6.26122 11.4 6.03231 11.3052 5.86352 11.1364C5.69474 10.9676 5.59992 10.7387 5.59992 10.5V9.50002C5.59992 9.26132 5.69474 9.0324 5.86352 8.86362C6.03231 8.69484 6.26122 8.60002 6.49992 8.60002H10.1999C10.1847 8.59124 10.1675 8.58662 10.1499 8.58662C10.1324 8.58662 10.1151 8.59124 10.0999 8.60002C10.0338 8.5656 9.96712 8.53227 9.89992 8.50002C9.36899 8.36611 8.88483 8.08945 8.49992 7.70002C8.16193 7.33176 7.92131 6.8849 7.79992 6.40002L7.69992 6.20002ZM10.5999 10.6H6.49992C6.4734 10.6 6.44796 10.5895 6.42921 10.5707C6.41045 10.552 6.39992 10.5265 6.39992 10.5V9.50002C6.39992 9.47349 6.41045 9.44806 6.42921 9.4293C6.44796 9.41055 6.4734 9.40002 6.49992 9.40002H17.4999C17.5264 9.40002 17.5519 9.41055 17.5706 9.4293C17.5894 9.44806 17.5999 9.47349 17.5999 9.50002V10.5C17.5999 10.5265 17.5894 10.552 17.5706 10.5707C17.5519 10.5895 17.5264 10.6 17.4999 10.6H10.4999H10.5999ZM11.3999 11.4L11.7999 20.9H11.1999C11.004 20.8985 10.8143 20.9689 10.6668 21.0979C10.5194 21.227 10.4244 21.4056 10.3999 21.6H13.5999C13.5754 21.4056 13.4805 21.227 13.333 21.0979C13.1855 20.9689 12.9959 20.8985 12.7999 20.9H11.9999L12.4999 11.4H11.2999H11.3999ZM8.39992 5.90002L8.49992 6.20002C8.60249 6.5732 8.8062 6.91078 9.08855 7.17548C9.37089 7.44018 9.7209 7.62171 10.0999 7.70002H10.2999C10.6999 7.90002 10.8999 8.10002 10.9999 8.50002H12.5999C12.6296 8.31435 12.711 8.1408 12.8348 7.9993C12.9586 7.8578 13.1198 7.75407 13.2999 7.70002H13.4999C13.7999 7.60002 14.1999 7.50002 14.4999 7.10002L15.0999 6.20002C15.0984 6.10002 15.0984 6.00001 15.0999 5.90002V5.80002H8.49992H8.39992V5.90002ZM16.4999 13.6C16.1286 13.6 15.7725 13.7475 15.51 14.0101C15.2474 14.2726 15.0999 14.6287 15.0999 15V15.9C15.0999 16.0326 15.1526 16.1598 15.2464 16.2536C15.3401 16.3473 15.4673 16.4 15.5999 16.4L14.9999 22C14.9999 22.1061 15.0421 22.2078 15.1171 22.2829C15.1921 22.3579 15.2938 22.4 15.3999 22.4C15.506 22.4 15.6077 22.3579 15.6828 22.2829C15.7578 22.2078 15.7999 22.1061 15.7999 22L16.2999 16.4H21.4999L21.9999 22C21.9999 22.1061 22.0421 22.2078 22.1171 22.2829C22.1921 22.3579 22.2938 22.4 22.3999 22.4C22.506 22.4 22.6077 22.3579 22.6828 22.2829C22.7578 22.2078 22.7999 22.1061 22.7999 22L22.2999 16.4C22.4325 16.4 22.5597 16.3473 22.6535 16.2536C22.7472 16.1598 22.7999 16.0326 22.7999 15.9V14.5C22.7988 14.3335 22.7514 14.1705 22.6631 14.0293C22.5749 13.888 22.4491 13.774 22.2999 13.7L23.6999 3.60002C23.7397 3.36132 23.683 3.1166 23.5424 2.91969C23.4017 2.72277 23.1886 2.5898 22.9499 2.55002C22.7112 2.51023 22.4665 2.5669 22.2696 2.70755C22.0727 2.84821 21.9397 3.06132 21.8999 3.30002L19.5999 13.6H16.3999H16.4999ZM15.9999 15.6H21.9999V14.5C21.9999 14.4735 21.9894 14.4481 21.9706 14.4293C21.9519 14.4106 21.9264 14.4 21.8999 14.4H16.3999C16.2408 14.4 16.0882 14.4632 15.9757 14.5758C15.8631 14.6883 15.7999 14.8409 15.7999 15V15.6H15.8999H15.9999ZM22.9999 3.50002L21.5999 13.6H20.4999L22.7999 3.50002H22.9999Z" fill="#FC7201"/>
</svg>
