<svg width="28" height="29" viewBox="0 0 28 29" fill="none" xmlns="http://www.w3.org/2000/svg">
<path d="M13.3074 10.8372C12.756 11.4054 12.4764 12.0444 12.4764 12.8796M13.3074 10.8372L13.6619 11.1898L13.6642 11.1875M13.3074 10.8372L16.6522 7.47362M13.3074 10.8372L16.6522 7.47362M12.4764 12.8796L13.6642 11.1875M12.4764 12.8796C12.4739 13.2594 12.5476 13.6359 12.693 13.9868M12.4764 12.8796L12.693 13.9868M13.6642 11.1875C13.2009 11.6657 12.9764 12.1808 12.9764 12.8796V12.8828H12.9764C12.9744 13.1959 13.0351 13.5062 13.1549 13.7953C13.2747 14.0845 13.4513 14.3468 13.6742 14.5667L13.6799 14.5723L13.6798 14.5723L19.4998 20.5009L19.6426 20.6464L19.643 20.8503L19.6514 25.6311V25.632C19.6514 26.2966 20.1013 26.7586 20.6754 26.7586C20.8885 26.7586 21.1432 26.6285 21.366 26.3713C21.5906 26.1119 21.7 25.817 21.7 25.632V18.9792C21.7 18.5799 21.609 18.3212 21.4407 18.1595L21.4306 18.1497L21.4307 18.1496L17.6027 14.2568L17.2559 13.9041L17.6047 13.5536L22.7356 8.39637C23.1127 7.90985 23.209 7.37452 23.2058 6.94121C23.2042 6.72179 23.1768 6.53444 23.1502 6.40358C23.137 6.33848 23.1242 6.28834 23.1153 6.25635C23.1109 6.24038 23.1075 6.22902 23.1055 6.22267L23.104 6.21791L23.1038 6.21728L23.1037 6.2171L23.1037 6.217L23.1025 6.21345L23.1025 6.21344C22.8965 5.58537 22.4471 5.25719 22.0163 5.07807C21.7996 4.98794 21.5945 4.93924 21.4434 4.9134C21.3685 4.90058 21.3085 4.89366 21.2692 4.89002C21.2496 4.88821 21.2353 4.88722 21.227 4.88672L21.2246 4.8866L8.02037 4.883C7.81341 4.88438 7.61542 4.96773 7.46978 5.11481C7.32385 5.26218 7.24242 5.46146 7.24339 5.66885L7.24341 5.6712C7.2434 6.11404 7.59632 6.46 8.0214 6.46H8.02219L17.1494 6.4744L18.3491 6.47629L17.5031 7.32696L13.6642 11.1875ZM16.6522 7.47362L17.1478 7.4744L17.1486 6.9744L16.7941 6.62184L16.4446 6.97329L8.0214 6.96L16.6522 7.47362ZM12.693 13.9868C12.8384 14.3376 13.0526 14.6559 13.323 14.9226L12.693 13.9868ZM22.8674 2.64081V2.6406C22.8674 1.45262 23.8184 0.5 24.9798 0.5C26.1499 0.5 27.1 1.4536 27.1 2.6406C27.1 3.82512 26.1494 4.7818 24.9798 4.7818C23.8188 4.7818 22.8669 3.82596 22.8674 2.64081ZM5.29654 27.8751L5.2965 27.875L5.4 27.6C5.35496 27.7197 5.32145 27.8088 5.29654 27.8751ZM4.85684 23.367L4.87724 23.3503L4.89577 23.3315L12.1451 15.9989C12.1482 16.0019 12.1513 16.0049 12.1544 16.0079L13.6781 17.5428L6.2148 25.0885C6.09348 25.1873 5.95206 25.2587 5.8003 25.2974C5.64206 25.3379 5.4767 25.3418 5.31669 25.3091C5.15668 25.2763 5.00619 25.2076 4.87657 25.1083C4.74695 25.0089 4.64158 24.8814 4.5684 24.7354L4.56764 24.7338C4.45304 24.5071 4.41924 24.2481 4.47182 23.9995C4.52441 23.751 4.66023 23.5278 4.85684 23.367Z" stroke="#FC7201"/>
</svg>
