<svg width="27" height="22" viewBox="0 0 27 22" fill="none" xmlns="http://www.w3.org/2000/svg">
<path fill-rule="evenodd" clip-rule="evenodd" d="M24.2773 0C24.9994 0 25.6919 0.280608 26.2025 0.780093C26.7131 1.27958 27 1.95702 27 2.6634V9.32191C27 10.0283 26.7131 10.7057 26.2025 11.2052C25.6919 11.7047 24.9994 11.9853 24.2773 11.9853H2.72269C2.00059 11.9853 1.30806 11.7047 0.797457 11.2052C0.286854 10.7057 0 10.0283 0 9.32191V2.6634C0 1.95702 0.286854 1.27958 0.797457 0.780093C1.30806 0.280608 2.00059 0 2.72269 0H24.2773ZM24.2773 11.0975H23.0294V10.4317C23.0294 10.0196 22.8621 9.62443 22.5642 9.33306C22.2664 9.0417 21.8624 8.87801 21.4412 8.87801H5.55882C5.1376 8.87801 4.73362 9.0417 4.43577 9.33306C4.13792 9.62443 3.97059 10.0196 3.97059 10.4317V11.0975H2.72269C2.24129 11.0975 1.7796 10.9104 1.4392 10.5774C1.0988 10.2445 0.907563 9.79283 0.907563 9.32191V2.6634C0.907563 2.19248 1.0988 1.74085 1.4392 1.40786C1.7796 1.07487 2.24129 0.887801 2.72269 0.887801H24.2773C24.7587 0.887801 25.2204 1.07487 25.5608 1.40786C25.9012 1.74085 26.0924 2.19248 26.0924 2.6634V9.32191C26.0924 9.79283 25.9012 10.2445 25.5608 10.5774C25.2204 10.9104 24.7587 11.0975 24.2773 11.0975ZM22.1218 11.0975H4.87815V10.4317C4.87815 10.2551 4.94986 10.0857 5.07752 9.96083C5.20517 9.83596 5.3783 9.76581 5.55882 9.76581H21.4412C21.5306 9.76581 21.6191 9.78303 21.7017 9.81649C21.7842 9.84996 21.8593 9.899 21.9225 9.96083C21.9857 10.0227 22.0358 10.0961 22.07 10.1768C22.1042 10.2576 22.1218 10.3442 22.1218 10.4317V11.0975ZM3.28992 2.77438C3.28992 2.95097 3.2182 3.12033 3.09055 3.24521C2.9629 3.37008 2.78977 3.44023 2.60924 3.44023C2.42872 3.44023 2.25559 3.37008 2.12794 3.24521C2.00028 3.12033 1.92857 2.95097 1.92857 2.77438C1.92857 2.59778 2.00028 2.42842 2.12794 2.30355C2.25559 2.17868 2.42872 2.10853 2.60924 2.10853C2.78977 2.10853 2.9629 2.17868 3.09055 2.30355C3.2182 2.42842 3.28992 2.59778 3.28992 2.77438ZM4.65126 3.44023C4.83179 3.44023 5.00492 3.37008 5.13257 3.24521C5.26022 3.12033 5.33193 2.95097 5.33193 2.77438C5.33193 2.59778 5.26022 2.42842 5.13257 2.30355C5.00492 2.17868 4.83179 2.10853 4.65126 2.10853C4.47074 2.10853 4.2976 2.17868 4.16995 2.30355C4.0423 2.42842 3.97059 2.59778 3.97059 2.77438C3.97059 2.95097 4.0423 3.12033 4.16995 3.24521C4.2976 3.37008 4.47074 3.44023 4.65126 3.44023ZM7.37395 2.77438C7.37395 2.95097 7.30224 3.12033 7.17459 3.24521C7.04693 3.37008 6.8738 3.44023 6.69328 3.44023C6.51275 3.44023 6.33962 3.37008 6.21197 3.24521C6.08432 3.12033 6.01261 2.95097 6.01261 2.77438C6.01261 2.59778 6.08432 2.42842 6.21197 2.30355C6.33962 2.17868 6.51275 2.10853 6.69328 2.10853C6.8738 2.10853 7.04693 2.17868 7.17459 2.30355C7.30224 2.42842 7.37395 2.59778 7.37395 2.77438ZM13.2731 13.428C13.1828 13.3397 13.0604 13.2901 12.9328 13.2901C12.8051 13.2901 12.6827 13.3397 12.5924 13.428C12.5022 13.5163 12.4515 13.636 12.4515 13.7609C12.4515 13.8858 12.5022 14.0055 12.5924 14.0938L13.1597 14.7597C13.3806 15.0478 13.5 15.3983 13.5 15.7585C13.5 16.1186 13.3806 16.4691 13.1597 16.7572C12.7524 17.2203 12.5284 17.811 12.5284 18.4219C12.5284 19.0328 12.7524 19.6234 13.1597 20.0865L13.7269 20.7523C13.8172 20.8406 13.9396 20.8902 14.0672 20.8902C14.1949 20.8902 14.3173 20.8406 14.4076 20.7523C14.4978 20.664 14.5485 20.5443 14.5485 20.4194C14.5485 20.2945 14.4978 20.1748 14.4076 20.0865L13.8403 19.4206C13.6194 19.1325 13.5 18.782 13.5 18.4219C13.5 18.0617 13.6194 17.7112 13.8403 17.4231C14.2476 16.96 14.4716 16.3694 14.4716 15.7585C14.4716 15.1476 14.2476 14.5569 13.8403 14.0938L13.2731 13.428ZM17.1303 14.5377C17.1728 14.4905 17.2252 14.4527 17.2839 14.4268C17.3426 14.4009 17.4062 14.3875 17.4706 14.3875C17.535 14.3875 17.5986 14.4009 17.6573 14.4268C17.716 14.4527 17.7683 14.4905 17.8109 14.5377L18.3781 15.2036C18.7854 15.6667 19.0094 16.2573 19.0094 16.8682C19.0094 17.4791 18.7854 18.0697 18.3781 18.5328C18.1572 18.821 18.0378 19.1714 18.0378 19.5316C18.0378 19.8918 18.1572 20.2423 18.3781 20.5304L18.9454 21.1962C19.0356 21.2845 19.0863 21.4043 19.0863 21.5292C19.0863 21.654 19.0356 21.7738 18.9454 21.8621C18.8551 21.9504 18.7327 22 18.605 22C18.4774 22 18.355 21.9504 18.2647 21.8621L17.6975 21.1962C17.2902 20.7331 17.0662 20.1425 17.0662 19.5316C17.0662 18.9207 17.2902 18.3301 17.6975 17.867C17.9184 17.5789 18.0378 17.2284 18.0378 16.8682C18.0378 16.508 17.9184 16.1576 17.6975 15.8694L17.1303 15.2036C17.082 15.1619 17.0433 15.1107 17.0168 15.0533C16.9903 14.9959 16.9766 14.9336 16.9766 14.8707C16.9766 14.8077 16.9903 14.7454 17.0168 14.688C17.0433 14.6306 17.082 14.5794 17.1303 14.5377ZM8.73529 14.5377C8.64503 14.4494 8.52261 14.3998 8.39496 14.3998C8.26731 14.3998 8.14488 14.4494 8.05462 14.5377C7.96436 14.626 7.91365 14.7458 7.91365 14.8707C7.91365 14.9955 7.96436 15.1153 8.05462 15.2036L8.62185 15.8694C8.84276 16.1576 8.96218 16.508 8.96218 16.8682C8.96218 17.2284 8.84276 17.5789 8.62185 17.867C8.21457 18.3301 7.99059 18.9207 7.99059 19.5316C7.99059 20.1425 8.21457 20.7331 8.62185 21.1962L9.18907 21.8621C9.27934 21.9504 9.40176 22 9.52941 22C9.65706 22 9.77948 21.9504 9.86975 21.8621C9.96001 21.7738 10.0107 21.654 10.0107 21.5292C10.0107 21.4043 9.96001 21.2845 9.86975 21.1962L9.30252 20.5304C9.0816 20.2423 8.96218 19.8918 8.96218 19.5316C8.96218 19.1714 9.0816 18.821 9.30252 18.5328C9.7098 18.0697 9.93378 17.4791 9.93378 16.8682C9.93378 16.2573 9.7098 15.6667 9.30252 15.2036L8.73529 14.5377ZM2.15546 5.54876C2.03511 5.54876 1.91969 5.59552 1.83459 5.67877C1.74949 5.76202 1.70168 5.87493 1.70168 5.99266C1.70168 6.11039 1.74949 6.22329 1.83459 6.30654C1.91969 6.38979 2.03511 6.43656 2.15546 6.43656H24.8445C24.9649 6.43656 25.0803 6.38979 25.1654 6.30654C25.2505 6.22329 25.2983 6.11039 25.2983 5.99266C25.2983 5.87493 25.2505 5.76202 25.1654 5.67877C25.0803 5.59552 24.9649 5.54876 24.8445 5.54876H2.15546Z" fill="#FC7201"/>
</svg>
