<svg width="30" height="30" viewBox="0 0 30 30" fill="none" xmlns="http://www.w3.org/2000/svg">
<g clip-path="url(#clip0_95_1630)">
<path d="M8.00002 19.0667V8.83333H20.3334L21.65 7.5H6.66669V19.0667H8.00002Z" fill="#FC7201"/>
<path d="M4.99998 5.83317H25V19.1665H26.6666V5.4165C26.6666 5.08498 26.5349 4.76704 26.3005 4.53262C26.0661 4.2982 25.7482 4.1665 25.4166 4.1665H4.58331C4.25179 4.1665 3.93385 4.2982 3.69943 4.53262C3.46501 4.76704 3.33331 5.08498 3.33331 5.4165V19.1665H4.99998V5.83317Z" fill="#FC7201"/>
<path d="M0.833313 20.8335V23.6668C0.833313 24.2415 1.06159 24.7926 1.46791 25.1989C1.87424 25.6052 2.42534 25.8335 2.99998 25.8335H26.95C27.5246 25.8335 28.0757 25.6052 28.482 25.1989C28.8884 24.7926 29.1166 24.2415 29.1166 23.6668V20.8335H0.833313ZM27.5 23.6668C27.5 23.7994 27.4473 23.9266 27.3535 24.0204C27.2598 24.1142 27.1326 24.1668 27 24.1668H2.96665C2.83404 24.1668 2.70686 24.1142 2.61309 24.0204C2.51932 23.9266 2.46665 23.7994 2.46665 23.6668V22.1085H10.7583C10.8625 22.3543 11.0364 22.5642 11.2585 22.7123C11.4807 22.8604 11.7413 22.9402 12.0083 22.9418H17.95C18.217 22.9402 18.4776 22.8604 18.6998 22.7123C18.9219 22.5642 19.0958 22.3543 19.2 22.1085H27.5V23.6668Z" fill="#FC7201"/>
</g>
<defs>
<clipPath id="clip0_95_1630">
<rect width="30" height="30" fill="white"/>
</clipPath>
</defs>
</svg>
