<svg width="25" height="25" viewBox="0 0 25 25" fill="none" xmlns="http://www.w3.org/2000/svg">
<g clip-path="url(#clip0_154_616)">
<path d="M6.25 15.1042H1.5625V1.5625H23.4375V15.1042H18.75M18.2292 25C18.2291 22.9568 18.796 20.9537 19.8667 19.2135L20.3125 18.4896V18.2292H4.6875V18.4896L5.13333 19.2135C6.20402 20.9537 6.77088 22.9568 6.77083 25M16.6667 15.625V11.9792C16.6667 11.9792 15.1042 10.9375 12.5 10.9375C9.89583 10.9375 8.33333 11.9792 8.33333 11.9792V15.625M12.3437 8.85417C12.3437 8.85417 10.6771 7.8125 10.6771 6.51042C10.6771 6.0275 10.8689 5.56437 11.2104 5.22289C11.5519 4.88142 12.015 4.68958 12.4979 4.68958C12.9808 4.68958 13.444 4.88142 13.7854 5.22289C14.1269 5.56437 14.3187 6.0275 14.3187 6.51042C14.3187 7.8125 12.6562 8.85417 12.6562 8.85417H12.3437Z" stroke="#FC7201" stroke-width="1.25"/>
</g>
<defs>
<clipPath id="clip0_154_616">
<rect width="25" height="25" fill="white"/>
</clipPath>
</defs>
</svg>
