<svg width="30" height="23" viewBox="0 0 30 23" fill="none" xmlns="http://www.w3.org/2000/svg">
<path d="M15 4.75C21.68 4.75 25.8812 8.25 26.72 14.2875C26.9237 15.7575 28.125 17.25 29.375 18.1875V19.125H0.625V18.1875C1.875 17.25 3.075 15.7575 3.28 14.2875C4.11875 8.25 8.32 4.75 15 4.75ZM15 4.75V1M0 22.25H30M12.5 1H17.5" stroke="#FC7201" stroke-width="1.25"/>
<path d="M8.32173 15V14.2415L9.91335 12.848C10.0327 12.7401 10.1342 12.6413 10.218 12.5518C10.3018 12.4609 10.3658 12.37 10.4098 12.2791C10.4538 12.1868 10.4759 12.0866 10.4759 11.9787C10.4759 11.858 10.4496 11.755 10.397 11.6697C10.3445 11.5831 10.272 11.5163 10.1797 11.4695C10.0874 11.4226 9.98153 11.3991 9.86222 11.3991C9.74148 11.3991 9.63565 11.424 9.54474 11.4737C9.45384 11.522 9.38281 11.5923 9.33168 11.6847C9.28196 11.777 9.2571 11.8892 9.2571 12.0213H8.25781C8.25781 11.7244 8.32457 11.468 8.4581 11.2521C8.59162 11.0362 8.77912 10.87 9.0206 10.7536C9.26349 10.6357 9.54545 10.5767 9.86648 10.5767C10.1974 10.5767 10.4851 10.6321 10.7294 10.7429C10.9737 10.8537 11.1626 11.0085 11.2962 11.2074C11.4311 11.4048 11.4986 11.6342 11.4986 11.8956C11.4986 12.0618 11.4652 12.2266 11.3984 12.3899C11.3317 12.5533 11.2116 12.7337 11.0384 12.9311C10.8665 13.1286 10.6222 13.3651 10.3054 13.6406L9.78338 14.1222V14.1499H11.5518V15H8.32173ZM12.0009 14.2756V13.4531L13.7885 10.6364H14.5194V11.7528H14.0953L13.0492 13.4105V13.4446H15.638V14.2756H12.0009ZM14.1081 15V14.0241L14.1294 13.6641V10.6364H15.1159V15H14.1081ZM18.2193 10.4318L16.813 15.6562H15.9245L17.3308 10.4318H18.2193ZM18.7844 15L20.5444 11.5142V11.4865H18.4862V10.6364H21.6353V11.4929L19.869 15H18.7844Z" fill="#FC7201"/>
</svg>
