<svg width="22" height="22" viewBox="0 0 22 22" fill="none" xmlns="http://www.w3.org/2000/svg">
<path d="M4.45278 5.65717C4.45278 10.8743 4.4004 11.3142 3.40516 11.3142C2.82897 11.3142 2.35754 11.5657 2.35754 11.9428C2.35754 12.7599 18.0718 12.7599 19.1194 11.9428C19.748 11.44 19.6956 11.3142 18.7528 11.3142C17.6004 11.3142 17.548 11.1257 17.548 5.65717V8.86917e-05H11.0004H4.45278V5.65717ZM16.8667 6.28573V11.7335H11H5.13333V6.28573V0.733528H11.0004H16.8667V6.28573Z" fill="#FC7201"/>
<path d="M2.51429 4.27448C2.40952 4.90305 1.78095 5.65732 1.15238 5.97161C0.104762 6.53731 0 7.04017 0 12.5715V18.5429L2.25238 18.7315C4.19048 18.92 4.45238 19.1086 4.45238 20.4914V22H11H17.5476V20.4914C17.5476 19.1086 17.8095 18.92 19.8 18.7315L22 18.5429V12.5715C22 6.97731 21.9476 6.53731 20.8476 5.97161C20.1667 5.65732 19.6429 5.02876 19.6429 4.58877C19.6429 4.21163 19.4333 3.64592 19.119 3.45735C18.8048 3.20592 18.5952 4.4002 18.6476 6.72588C18.7 8.73729 18.8571 9.80585 18.9619 9.11443C19.3286 7.4173 20.1667 6.22303 20.7429 6.66303C21.0048 6.8516 21.2667 9.42871 21.2667 12.5715L21.2143 18.2286H19.381C17.7571 18.2286 17.5476 18.04 17.5476 16.6572V15.0858H11H4.45238V16.7201C4.45238 18.1658 4.29524 18.2915 2.77619 18.1029L1.04762 17.9143L0.890476 12.383C0.733333 7.35445 0.838095 6.8516 1.67619 7.04017C2.14762 7.16588 2.72381 7.92016 2.93333 8.80015C3.19524 9.86871 3.3 9.303 3.35238 6.72588C3.40476 3.20592 3.0381 2.07451 2.51429 4.27448ZM16.8667 18.5429V21.2667H11H5.13333V18.5429V15.7667H11H16.8667V18.5429Z" fill="#FC7201"/>
</svg>
