<svg width="28" height="21" viewBox="0 0 28 21" fill="none" xmlns="http://www.w3.org/2000/svg">
<path d="M26.8833 5.43025C26.8833 2.954 24.75 0.36358 24.75 1.14025C24.75 1.91691 25.1446 12.2369 25.1446 12.2369L24.75 18.9861C24.75 19.2071 24.8378 19.4191 24.9941 19.5753C25.1504 19.7316 25.3623 19.8194 25.5833 19.8194C25.8043 19.8194 26.0163 19.7316 26.1726 19.5753C26.3289 19.4191 26.4167 19.2071 26.4167 18.9861L26.1963 12.1986C26.1963 12.1986 26.8838 7.90691 26.8838 5.43066L26.8833 5.43025Z" stroke="#FC7201" stroke-width="0.833333" stroke-miterlimit="10"/>
<path d="M4.09208 1.44873C4.09208 1.44873 4.13875 3.18123 4.13875 4.82623C4.13875 6.05956 3.76375 6.83456 3.23 7.14498L3.24167 18.9858C3.24167 19.2068 3.15387 19.4188 2.99759 19.5751C2.84131 19.7313 2.62935 19.8191 2.40833 19.8191C2.18732 19.8191 1.97536 19.7313 1.81908 19.5751C1.6628 19.4188 1.575 19.2068 1.575 18.9858L1.91292 7.14706C1.37667 6.83915 1 6.0629 1 4.82623C1 3.18123 1.04667 1.44873 1.04667 1.44873M2.56917 1.44873V5.44248" stroke="#FC7201" stroke-width="0.833333" stroke-miterlimit="10" stroke-linecap="round" stroke-linejoin="round"/>
<path d="M14.3334 17.7718C18.9261 17.7718 22.6492 14.0487 22.6492 9.45597C22.6492 4.86326 18.9261 1.14014 14.3334 1.14014C9.7407 1.14014 6.01758 4.86326 6.01758 9.45597C6.01758 14.0487 9.7407 17.7718 14.3334 17.7718Z" stroke="#FC7201" stroke-miterlimit="10" stroke-linecap="round" stroke-linejoin="round"/>
<path d="M14.335 14.5358C17.1307 14.5358 19.3971 12.2694 19.3971 9.4737C19.3971 6.67799 17.1307 4.41162 14.335 4.41162C11.5393 4.41162 9.27295 6.67799 9.27295 9.4737C9.27295 12.2694 11.5393 14.5358 14.335 14.5358Z" stroke="#FC7201" stroke-width="0.833333" stroke-miterlimit="10" stroke-linecap="round" stroke-linejoin="round"/>
</svg>
