<svg width="30" height="30" viewBox="0 0 30 30" fill="none" xmlns="http://www.w3.org/2000/svg">
<path d="M15 6.875V29.375M17.5 7.5H25.625V29.375H4.375V7.5H12.5M6.25 3.75C6.58125 3.75 7.075 3.40625 7.49125 3.05875C8.03363 2.60995 8.49382 2.07024 8.85125 1.46375C9.11875 1.005 9.375 0.4475 9.375 0C9.375 0.4475 9.63125 1.005 9.9 1.46375C10.2563 2.07625 10.7237 2.61125 11.2587 3.05875C11.6737 3.40625 12.1688 3.75 12.5 3.75M23.75 0.625C23.4188 0.625 22.925 0.96875 22.5087 1.31625C21.9664 1.76505 21.5062 2.30476 21.1488 2.91125C20.8813 3.37 20.625 3.9275 20.625 4.375C20.625 3.9275 20.3687 3.37 20.1 2.91125C19.7429 2.30486 19.2832 1.76515 18.7413 1.31625C18.3263 0.96875 17.8312 0.625 17.5 0.625" stroke="#FC7201" stroke-width="1.25"/>
</svg>
