<svg width="27" height="19" viewBox="0 0 27 19" fill="none" xmlns="http://www.w3.org/2000/svg">
<path d="M1 14.75V18.5M13.5 11V3.5M13.5 3.5C13.5 2.83696 13.7634 2.20107 14.2322 1.73223C14.7011 1.26339 15.337 1 16 1H21C21.663 1 22.2989 1.26339 22.7678 1.73223C23.2366 2.20107 23.5 2.83696 23.5 3.5V6M13.5 3.5C13.5 2.83696 13.2366 2.20107 12.7678 1.73223C12.2989 1.26339 11.663 1 11 1H6C5.33696 1 4.70107 1.26339 4.23223 1.73223C3.76339 2.20107 3.5 2.83696 3.5 3.5V6" stroke="#FC7201" stroke-linecap="round" stroke-linejoin="round"/>
<path d="M26 14.75V18.5M23.5 6C22.837 6 22.2011 6.26339 21.7322 6.73223C21.2634 7.20107 21 7.83696 21 8.5V11H6V8.5C6 7.83696 5.73661 7.20107 5.26777 6.73223C4.79893 6.26339 4.16304 6 3.5 6C2.83696 6 2.20107 6.26339 1.73223 6.73223C1.26339 7.20107 1 7.83696 1 8.5V16H26V8.5C26 7.83696 25.7366 7.20107 25.2678 6.73223C24.7989 6.26339 24.163 6 23.5 6Z" stroke="#FC7201" stroke-linecap="round" stroke-linejoin="round"/>
</svg>
