<svg width="26" height="26" viewBox="0 0 26 26" fill="none" xmlns="http://www.w3.org/2000/svg">
<path d="M0.900453 14.5292C0.822212 14.8437 0.755994 15.1409 0.701947 15.4215C0.924546 14.8812 1.19174 14.3037 1.49823 13.6898C1.73117 13.2202 2.03175 12.7625 2.39346 12.3164C2.75029 11.8763 3.11372 11.4924 3.48435 11.1642C3.83568 10.853 4.19474 10.5449 4.55866 10.2401C4.84279 10.002 5.09982 9.78555 5.33044 9.59129C5.3923 9.53918 5.45227 9.48868 5.51034 9.43978C5.76125 9.22855 5.95759 9.02307 6.10602 8.82221C6.25154 8.62528 6.27411 8.51184 6.27411 8.46949C6.27411 8.43295 6.26074 8.35394 6.14224 8.22516C6.02032 8.09266 5.81239 7.93694 5.49004 7.76703C5.04072 7.53524 4.67829 7.15886 4.67829 6.61008C4.67829 6.14386 4.94387 5.69555 5.29894 5.28363C5.65512 4.87042 6.08119 4.46339 6.57355 4.05918L6.89081 4.44562L6.57355 4.05917C6.83148 3.84742 7.0912 3.63498 7.35007 3.42324C7.56645 3.24625 7.78224 3.06975 7.99588 2.89454L7.99719 2.89348C8.45284 2.52238 8.83554 2.15983 9.14399 1.80647L9.14532 1.80495C9.46128 1.44594 9.52004 1.24394 9.52004 1.16711C9.52004 1.15219 9.51957 1.13113 9.47906 1.08838C9.42862 1.03515 9.32331 0.959522 9.1241 0.880753C8.72317 0.722218 8.074 0.601419 7.14098 0.541416L7.13847 0.541243C6.72957 0.512878 6.33401 0.5 5.95449 0.5C5.08501 0.5 4.3183 0.577078 3.65408 0.721857C2.98056 0.86927 2.46538 1.05416 2.09453 1.26271C1.71431 1.47924 1.41648 1.73061 1.18776 2.02055C0.94424 2.32924 0.79097 2.61907 0.709417 2.88965C0.621612 3.18097 0.575992 3.49804 0.575992 3.8435C0.575992 4.59072 0.750694 5.27343 1.09918 5.90552C1.22417 6.12849 1.36827 6.33502 1.53199 6.52797C1.7009 6.72704 1.8542 6.87757 1.98849 6.98534C2.06325 7.04428 2.13263 7.09979 2.20051 7.15411C2.29588 7.23043 2.38829 7.30438 2.4885 7.38211L2.48854 7.38205L2.49533 7.3875C2.6638 7.52295 2.8117 7.64291 2.93608 7.74789L2.9361 7.74787L2.9404 7.75158C3.10439 7.89322 3.23805 8.06172 3.34296 8.24911C3.46397 8.46527 3.52338 8.69805 3.52338 8.94164C3.52338 9.27666 3.40502 9.63389 3.22765 9.99254C3.04701 10.3578 2.78471 10.7648 2.45045 11.2106C2.08918 11.7017 1.77349 12.2384 1.5086 12.8241L1.5075 12.8265C1.23678 13.4167 1.03602 13.9842 0.900453 14.5292ZM2.34394 25.1493L2.34503 25.1499C2.7432 25.3898 3.13265 25.5 3.52004 25.5C3.75517 25.5 3.97379 25.4586 4.1798 25.3734L1.15507 22.4193C1.06437 22.6207 1.02109 22.8327 1.02109 23.0584C1.02109 23.4358 1.13205 23.8144 1.37624 24.2039C1.62156 24.5952 1.94138 24.9082 2.34394 25.1493ZM25.2845 4.9285L22.0789 1.79764L17.8776 5.91512L21.0719 9.04574L25.2845 4.9285ZM19.3058 10.7744L16.102 7.64091L2.88654 20.557L6.09022 23.6882L19.3058 10.7744Z" stroke="#FC7201"/>
</svg>
