<svg width="28" height="28" viewBox="0 0 28 28" fill="none" xmlns="http://www.w3.org/2000/svg">
<path d="M6.69563 18.748L11.5652 15.0959C11.6467 15.0844 11.724 15.0524 11.7899 15.0029C11.8557 14.9534 11.9079 14.888 11.9415 14.8128C11.9752 14.7377 11.9893 14.6552 11.9824 14.5732C11.9756 14.4911 11.948 14.4121 11.9023 14.3436C11.8567 14.2751 11.7943 14.2192 11.7212 14.1813C11.6481 14.1435 11.5666 14.1247 11.4843 14.1269C11.4019 14.1291 11.3215 14.1521 11.2505 14.1938C11.1795 14.2355 11.1202 14.2946 11.0782 14.3654L6.20868 18.0176C6.16191 18.0965 6.13838 18.1871 6.14081 18.2788C6.14325 18.3705 6.17154 18.4596 6.22243 18.536C6.27332 18.6123 6.34474 18.6727 6.42846 18.7102C6.51218 18.7478 6.60479 18.7609 6.69563 18.748ZM6.69563 16.5567L8.7652 15.0959C8.82998 15.0624 8.88643 15.0149 8.93037 14.9567C8.97432 14.8985 9.00465 14.8313 9.01911 14.7598C9.03358 14.6883 9.03182 14.6146 9.01396 14.5439C8.99611 14.4732 8.9626 14.4074 8.91593 14.3514C8.86926 14.2954 8.81061 14.2506 8.74431 14.2203C8.67801 14.19 8.60575 14.1749 8.53286 14.1763C8.45997 14.1776 8.38831 14.1953 8.32317 14.2281C8.25803 14.2608 8.20108 14.3077 8.1565 14.3654L6.20868 15.8263C6.16191 15.9052 6.13838 15.9958 6.14081 16.0875C6.14325 16.1792 6.17154 16.2683 6.22243 16.3447C6.27332 16.421 6.34474 16.4814 6.42846 16.5189C6.51218 16.5565 6.60479 16.5696 6.69563 16.5567ZM24.8348 24.348C24.8072 24.2409 24.7439 24.1464 24.6554 24.08C24.5669 24.0136 24.4584 23.9793 24.3478 23.9828H20.4522C20.376 24.0249 20.3126 24.0867 20.2684 24.1616C20.2242 24.2365 20.2009 24.3219 20.2009 24.4089C20.2009 24.4959 20.2242 24.5813 20.2684 24.6562C20.3126 24.7312 20.376 24.7929 20.4522 24.835H24.3478C24.477 24.835 24.6008 24.7837 24.6921 24.6924C24.7835 24.6011 24.8348 24.4772 24.8348 24.348ZM9.25216 24.348C9.22455 24.2409 9.16128 24.1464 9.07277 24.08C8.98426 24.0136 8.87578 23.9793 8.7652 23.9828H4.86955C4.79343 24.0249 4.72999 24.0867 4.68581 24.1616C4.64164 24.2365 4.61834 24.3219 4.61834 24.4089C4.61834 24.4959 4.64164 24.5813 4.68581 24.6562C4.72999 24.7312 4.79343 24.7929 4.86955 24.835H8.7652C8.89435 24.835 9.01821 24.7837 9.10953 24.6924C9.20085 24.6011 9.25216 24.4772 9.25216 24.348ZM24.3478 19.4785H21.913C21.8369 19.5206 21.7735 19.5823 21.7293 19.6573C21.6851 19.7322 21.6618 19.8176 21.6618 19.9046C21.6618 19.9916 21.6851 20.077 21.7293 20.1519C21.7735 20.2268 21.8369 20.2885 21.913 20.3307H24.3478C24.477 20.3307 24.6008 20.2794 24.6921 20.188C24.7835 20.0967 24.8348 19.9728 24.8348 19.8437C24.8348 19.7146 24.7835 19.5907 24.6921 19.4994C24.6008 19.408 24.477 19.3567 24.3478 19.3567V19.4785ZM24.3478 18.0176H21.913C21.7839 18.0176 21.66 18.0689 21.5687 18.1602C21.4774 18.2516 21.4261 18.3754 21.4261 18.5046C21.4261 18.6337 21.4774 18.7576 21.5687 18.8489C21.66 18.9402 21.7839 18.9915 21.913 18.9915H24.3478C24.477 18.9915 24.6008 18.9402 24.6921 18.8489C24.7835 18.7576 24.8348 18.6337 24.8348 18.5046C24.8348 18.3754 24.7835 18.2516 24.6921 18.1602C24.6008 18.0689 24.477 18.0176 24.3478 18.0176ZM22.4 14.0002C22.4 14.2262 22.4898 14.443 22.6496 14.6028C22.8094 14.7626 23.0261 14.8524 23.2522 14.8524C23.4782 14.8524 23.6949 14.7626 23.8547 14.6028C24.0145 14.443 24.1043 14.2262 24.1043 14.0002C24.1043 13.7742 24.0145 13.5575 23.8547 13.3976C23.6949 13.2378 23.4782 13.148 23.2522 13.148C23.0261 13.148 22.8094 13.2378 22.6496 13.3976C22.4898 13.5575 22.4 13.7742 22.4 14.0002ZM21.4261 14.0002C21.4261 13.5159 21.6185 13.0514 21.9609 12.709C22.3034 12.3665 22.7678 12.1741 23.2522 12.1741C23.7365 12.1741 24.2009 12.3665 24.5434 12.709C24.8859 13.0514 25.0782 13.5159 25.0782 14.0002C25.0782 14.4845 24.8859 14.949 24.5434 15.2915C24.2009 15.6339 23.7365 15.8263 23.2522 15.8263C22.7678 15.8263 22.3034 15.6339 21.9609 15.2915C21.6185 14.949 21.4261 14.4845 21.4261 14.0002ZM21.4261 9.49587C21.4261 8.52196 22.2782 7.66979 23.2522 7.66979C23.7365 7.66979 24.2009 7.86218 24.5434 8.20463C24.8859 8.54709 25.0782 9.01156 25.0782 9.49587C25.0782 9.98018 24.8859 10.4447 24.5434 10.7871C24.2009 11.1296 23.7365 11.322 23.2522 11.322C23.0077 11.3401 22.7622 11.3054 22.5324 11.22C22.3026 11.1347 22.0939 11.0008 21.9206 10.8275C21.7472 10.6541 21.6133 10.4454 21.528 10.2156C21.4426 9.98584 21.4079 9.74033 21.4261 9.49587ZM5.3565 19.235H19.9652V8.52196H5.3565V19.235ZM20.4522 20.2089H4.86955C4.7404 20.2089 4.61654 20.1576 4.52522 20.0663C4.43389 19.975 4.38259 19.8511 4.38259 19.722V8.035C4.38259 7.79152 4.62607 7.54805 4.86955 7.54805H20.4522C20.6956 7.54805 20.9391 7.79152 20.9391 8.035V19.722C20.9391 19.8511 20.8878 19.975 20.7965 20.0663C20.7052 20.1576 20.5813 20.2089 20.4522 20.2089ZM2.31302 22.1567H25.6869V5.60022H2.31302V22.1567ZM1.82607 23.1307C1.69692 23.1307 1.57306 23.0794 1.48174 22.988C1.39042 22.8967 1.33911 22.7728 1.33911 22.6437V5.235C1.33911 4.86979 1.58259 4.74805 1.82607 4.74805H26.1739C26.4174 4.74805 26.6609 4.86979 26.6609 5.235V22.6437C26.6609 22.7728 26.6095 22.8967 26.5182 22.988C26.4269 23.0794 26.303 23.1307 26.1739 23.1307H1.82607Z" fill="#FC7201"/>
<mask id="mask0_95_1426" style="mask-type:luminance" maskUnits="userSpaceOnUse" x="1" y="4" width="26" height="21">
<path d="M6.69563 18.748L11.5652 15.0959C11.6467 15.0844 11.724 15.0524 11.7899 15.0029C11.8557 14.9534 11.9079 14.888 11.9415 14.8128C11.9752 14.7377 11.9893 14.6552 11.9824 14.5732C11.9756 14.4911 11.948 14.4121 11.9023 14.3436C11.8567 14.2751 11.7943 14.2192 11.7212 14.1813C11.6481 14.1435 11.5666 14.1247 11.4843 14.1269C11.4019 14.1291 11.3215 14.1521 11.2505 14.1938C11.1795 14.2355 11.1202 14.2946 11.0782 14.3654L6.20868 18.0176C6.16191 18.0965 6.13838 18.1871 6.14081 18.2788C6.14325 18.3705 6.17154 18.4596 6.22243 18.536C6.27332 18.6123 6.34474 18.6727 6.42846 18.7102C6.51218 18.7478 6.60479 18.7609 6.69563 18.748ZM6.69563 16.5567L8.7652 15.0959C8.82998 15.0624 8.88643 15.0149 8.93037 14.9567C8.97432 14.8985 9.00465 14.8313 9.01911 14.7598C9.03358 14.6883 9.03182 14.6146 9.01396 14.5439C8.99611 14.4732 8.9626 14.4074 8.91593 14.3514C8.86926 14.2954 8.81061 14.2506 8.74431 14.2203C8.67801 14.19 8.60575 14.1749 8.53286 14.1763C8.45997 14.1776 8.38831 14.1953 8.32317 14.2281C8.25803 14.2608 8.20108 14.3077 8.1565 14.3654L6.20868 15.8263C6.16191 15.9052 6.13838 15.9958 6.14081 16.0875C6.14325 16.1792 6.17154 16.2683 6.22243 16.3447C6.27332 16.421 6.34474 16.4814 6.42846 16.5189C6.51218 16.5565 6.60479 16.5696 6.69563 16.5567ZM24.8348 24.348C24.8072 24.2409 24.7439 24.1464 24.6554 24.08C24.5669 24.0136 24.4584 23.9793 24.3478 23.9828H20.4522C20.376 24.0249 20.3126 24.0867 20.2684 24.1616C20.2242 24.2365 20.2009 24.3219 20.2009 24.4089C20.2009 24.4959 20.2242 24.5813 20.2684 24.6562C20.3126 24.7312 20.376 24.7929 20.4522 24.835H24.3478C24.477 24.835 24.6008 24.7837 24.6921 24.6924C24.7835 24.6011 24.8348 24.4772 24.8348 24.348ZM9.25216 24.348C9.22455 24.2409 9.16128 24.1464 9.07277 24.08C8.98426 24.0136 8.87578 23.9793 8.7652 23.9828H4.86955C4.79343 24.0249 4.72999 24.0867 4.68581 24.1616C4.64164 24.2365 4.61834 24.3219 4.61834 24.4089C4.61834 24.4959 4.64164 24.5813 4.68581 24.6562C4.72999 24.7312 4.79343 24.7929 4.86955 24.835H8.7652C8.89435 24.835 9.01821 24.7837 9.10953 24.6924C9.20085 24.6011 9.25216 24.4772 9.25216 24.348ZM24.3478 19.4785H21.913C21.8369 19.5206 21.7735 19.5823 21.7293 19.6573C21.6851 19.7322 21.6618 19.8176 21.6618 19.9046C21.6618 19.9916 21.6851 20.077 21.7293 20.1519C21.7735 20.2268 21.8369 20.2885 21.913 20.3307H24.3478C24.477 20.3307 24.6008 20.2794 24.6921 20.188C24.7835 20.0967 24.8348 19.9728 24.8348 19.8437C24.8348 19.7146 24.7835 19.5907 24.6921 19.4994C24.6008 19.408 24.477 19.3567 24.3478 19.3567V19.4785ZM24.3478 18.0176H21.913C21.7839 18.0176 21.66 18.0689 21.5687 18.1602C21.4774 18.2516 21.4261 18.3754 21.4261 18.5046C21.4261 18.6337 21.4774 18.7576 21.5687 18.8489C21.66 18.9402 21.7839 18.9915 21.913 18.9915H24.3478C24.477 18.9915 24.6008 18.9402 24.6921 18.8489C24.7835 18.7576 24.8348 18.6337 24.8348 18.5046C24.8348 18.3754 24.7835 18.2516 24.6921 18.1602C24.6008 18.0689 24.477 18.0176 24.3478 18.0176ZM22.4 14.0002C22.4 14.2262 22.4898 14.443 22.6496 14.6028C22.8094 14.7626 23.0261 14.8524 23.2522 14.8524C23.4782 14.8524 23.6949 14.7626 23.8547 14.6028C24.0145 14.443 24.1043 14.2262 24.1043 14.0002C24.1043 13.7742 24.0145 13.5575 23.8547 13.3976C23.6949 13.2378 23.4782 13.148 23.2522 13.148C23.0261 13.148 22.8094 13.2378 22.6496 13.3976C22.4898 13.5575 22.4 13.7742 22.4 14.0002ZM21.4261 14.0002C21.4261 13.5159 21.6185 13.0514 21.9609 12.709C22.3034 12.3665 22.7678 12.1741 23.2522 12.1741C23.7365 12.1741 24.2009 12.3665 24.5434 12.709C24.8859 13.0514 25.0782 13.5159 25.0782 14.0002C25.0782 14.4845 24.8859 14.949 24.5434 15.2915C24.2009 15.6339 23.7365 15.8263 23.2522 15.8263C22.7678 15.8263 22.3034 15.6339 21.9609 15.2915C21.6185 14.949 21.4261 14.4845 21.4261 14.0002ZM21.4261 9.49587C21.4261 8.52196 22.2782 7.66979 23.2522 7.66979C23.7365 7.66979 24.2009 7.86218 24.5434 8.20463C24.8859 8.54709 25.0782 9.01156 25.0782 9.49587C25.0782 9.98018 24.8859 10.4447 24.5434 10.7871C24.2009 11.1296 23.7365 11.322 23.2522 11.322C23.0077 11.3401 22.7622 11.3054 22.5324 11.22C22.3026 11.1347 22.0939 11.0008 21.9206 10.8275C21.7472 10.6541 21.6133 10.4454 21.528 10.2156C21.4426 9.98584 21.4079 9.74033 21.4261 9.49587ZM5.3565 19.235H19.9652V8.52196H5.3565V19.235ZM20.4522 20.2089H4.86955C4.7404 20.2089 4.61654 20.1576 4.52522 20.0663C4.43389 19.975 4.38259 19.8511 4.38259 19.722V8.035C4.38259 7.79152 4.62607 7.54805 4.86955 7.54805H20.4522C20.6956 7.54805 20.9391 7.79152 20.9391 8.035V19.722C20.9391 19.8511 20.8878 19.975 20.7965 20.0663C20.7052 20.1576 20.5813 20.2089 20.4522 20.2089ZM2.31302 22.1567H25.6869V5.60022H2.31302V22.1567ZM1.82607 23.1307C1.69692 23.1307 1.57306 23.0794 1.48174 22.988C1.39042 22.8967 1.33911 22.7728 1.33911 22.6437V5.235C1.33911 4.86979 1.58259 4.74805 1.82607 4.74805H26.1739C26.4174 4.74805 26.6609 4.86979 26.6609 5.235V22.6437C26.6609 22.7728 26.6095 22.8967 26.5182 22.988C26.4269 23.0794 26.303 23.1307 26.1739 23.1307H1.82607Z" fill="#292F37"/>
</mask>
<g mask="url(#mask0_95_1426)">
<path fill-rule="evenodd" clip-rule="evenodd" d="M0 -0.608398H28V27.3916H0V-0.608398Z" fill="#FC7201"/>
</g>
</svg>
