<svg width="26" height="26" viewBox="0 0 26 26" fill="none" xmlns="http://www.w3.org/2000/svg">
<path d="M15.479 6.09508C13.9571 6.31524 12.4956 6.85089 11.189 7.67009C10.786 7.92275 10.4008 8.20045 10.0355 8.50109V8.46987V8.39536V7.96987V7.27534V6.77534H9.5355H7.1521C7.29176 6.53462 7.471 6.33683 7.68369 6.18139C8.06017 5.90625 8.57604 5.73891 9.23812 5.73891V5.739L9.24732 5.73883C9.65287 5.73137 10.0579 5.77216 10.4538 5.86033L11.0625 5.99589V5.37229V4.18004V3.78432L10.6774 3.69341C10.2613 3.59521 9.77676 3.54178 9.23163 3.54178C7.9563 3.54178 6.85079 3.86393 6.00513 4.4971C5.26022 5.05482 4.74558 5.83289 4.49264 6.77534H4.0625H3.5625V7.27534V7.96987V8.39536V8.46987V8.89536V9.58827V10.0883H4.0625H4.45802C4.76053 11.4232 5.57322 12.4292 6.76963 12.9887C6.45451 13.7876 6.23393 14.6207 6.11235 15.4709C4.59426 15.0545 3.23713 14.1766 2.23261 12.9519C1.11291 11.5868 0.500581 9.87529 0.5 8.10892C0.506687 6.21768 1.21427 4.39628 2.48562 2.99741C3.75717 1.59832 5.50214 0.721478 7.38249 0.536591C9.26283 0.351705 11.1449 0.871915 12.664 1.99655C14.037 3.01297 15.0253 4.45773 15.479 6.09508ZM7.06698 10.0899H8.46075C8.2382 10.3652 8.0286 10.6516 7.83281 10.9481C7.4991 10.748 7.24036 10.4614 7.06698 10.0899ZM13.4062 18.7043H12.8633L12.9079 19.2455C12.9748 20.0549 13.3398 20.7829 13.9806 21.3202C14.5212 21.7734 15.2376 22.0747 16.0977 22.1965V22.7469V23.2469H16.5977H17.4753H17.9753V22.7469V22.1889C18.869 22.0627 19.6264 21.7541 20.1899 21.2704C20.8592 20.6959 21.2188 19.9034 21.2188 18.9896C21.2188 18.1633 20.9434 17.4925 20.3976 16.984C19.8718 16.4943 19.1359 16.1934 18.2804 15.9977C18.2799 15.9976 18.2794 15.9975 18.2789 15.9973L17.9753 15.926V14.2353C18.3226 14.3915 18.5008 14.6439 18.5553 14.9086L18.6374 15.3078H19.045H20.5855H21.1309L21.0836 14.7645C20.9532 13.2655 19.7342 12.1742 17.9753 11.9143V11.3612V10.8612H17.4753H16.5977H16.0977V11.3612V11.9496C14.4165 12.26 13.1597 13.3713 13.1597 15.0225C13.1597 15.7893 13.4294 16.4419 13.9321 16.9451C14.4238 17.4373 15.1088 17.7578 15.9029 17.938C15.9038 17.9382 15.9047 17.9384 15.9056 17.9386L16.0977 17.9843V19.8304C15.714 19.6567 15.5145 19.3855 15.458 19.1055L15.3771 18.7043H14.9679H13.4062ZM17.9769 19.9046V18.4445C18.1931 18.5217 18.342 18.6039 18.4415 18.6867C18.5746 18.7973 18.6344 18.9188 18.6344 19.1149C18.6344 19.3569 18.546 19.5423 18.377 19.6866C18.2805 19.769 18.1487 19.8451 17.9769 19.9046ZM16.0977 14.3261V15.4188C16.0307 15.381 15.9757 15.342 15.9315 15.303C15.8096 15.1955 15.7588 15.0814 15.7588 14.9314C15.7588 14.7131 15.8562 14.4907 16.0977 14.3261ZM25.5 17.0541C25.5 19.2942 24.6109 21.4425 23.0285 23.0264C21.4462 24.6103 19.3001 25.5 17.0625 25.5C14.8249 25.5 12.6788 24.6103 11.0965 23.0264C9.51406 21.4425 8.625 19.2942 8.625 17.0541C8.625 14.8139 9.51406 12.6656 11.0965 11.0817C12.6788 9.49784 14.8249 8.60812 17.0625 8.60812C19.3001 8.60812 21.4462 9.49784 23.0285 11.0817C24.6109 12.6656 25.5 14.8139 25.5 17.0541Z" stroke="#FC7201"/>
</svg>
