<svg width="19" height="29" viewBox="0 0 19 29" fill="none" xmlns="http://www.w3.org/2000/svg">
<path d="M18.416 5.64522L10.173 3.17257L14.7434 0.888582C14.7985 0.861035 14.8476 0.822906 14.8879 0.776373C14.9283 0.729839 14.9591 0.675813 14.9786 0.617377C14.9981 0.558941 15.0058 0.497241 15.0015 0.4358C14.9971 0.374358 14.9807 0.314378 14.9531 0.259285C14.9256 0.204191 14.8875 0.155063 14.8409 0.114704C14.7944 0.0743462 14.7404 0.0435487 14.6819 0.0240701C14.6235 0.00459161 14.5618 -0.00318646 14.5003 0.00118006C14.4389 0.00554658 14.3789 0.0219722 14.3238 0.049519L8.78906 2.8128C6.44802 2.84573 4.2139 3.79833 2.56937 5.46478C0.924843 7.13124 0.00192284 9.37778 0 11.7191V23.9066C0 24.0309 0.0493861 24.1501 0.137294 24.238C0.225201 24.3259 0.34443 24.3753 0.46875 24.3753C0.59307 24.3753 0.712299 24.3259 0.800207 24.238C0.888114 24.1501 0.9375 24.0309 0.9375 23.9066V19.6878H3.75V26.7191C3.75 27.092 3.89816 27.4497 4.16188 27.7134C4.4256 27.9771 4.78329 28.1253 5.15625 28.1253H12.6562C13.0292 28.1253 13.3869 27.9771 13.6506 27.7134C13.9143 27.4497 14.0625 27.092 14.0625 26.7191V11.7191C14.0607 10.4333 13.5792 9.19448 12.7123 8.24496C11.8453 7.29544 10.6553 6.70354 9.375 6.58507V3.91202L18.1465 6.54288C18.1901 6.55636 18.2356 6.56307 18.2812 6.5628C18.3937 6.5627 18.5024 6.52218 18.5874 6.44863C18.6725 6.37508 18.7282 6.27342 18.7446 6.16217C18.7609 6.05092 18.7367 5.9375 18.6764 5.8426C18.6161 5.74771 18.5237 5.67765 18.416 5.64522ZM0.9375 18.7503V11.7191C0.940115 9.68766 1.71752 7.73378 3.11117 6.25585C4.50483 4.77792 6.40976 3.88727 8.4375 3.76554V6.58507C7.15721 6.70354 5.96719 7.29544 5.10025 8.24496C4.23331 9.19448 3.75183 10.4333 3.75 11.7191V18.7503H0.9375ZM12.6562 27.1878H5.15625C5.03193 27.1878 4.9127 27.1384 4.82479 27.0505C4.73689 26.9626 4.6875 26.8434 4.6875 26.7191V19.6878H13.125V26.7191C13.125 26.8434 13.0756 26.9626 12.9877 27.0505C12.8998 27.1384 12.7806 27.1878 12.6562 27.1878ZM13.125 11.7191V18.7503H4.6875V11.7191C4.6875 10.6002 5.13197 9.52711 5.92314 8.73594C6.71431 7.94478 7.78737 7.5003 8.90625 7.5003C10.0251 7.5003 11.0982 7.94478 11.8894 8.73594C12.6805 9.52711 13.125 10.6002 13.125 11.7191Z" fill="#FC7201"/>
</svg>
