<svg width="20" height="22" viewBox="0 0 20 22" fill="none" xmlns="http://www.w3.org/2000/svg">
<path d="M9.77487 15.0484C9.76326 15.0478 9.75154 15.0475 9.73971 15.0475C9.73904 15.0475 9.73837 15.0475 9.7377 15.0475C9.73723 15.0475 9.73676 15.0475 9.73628 15.0475C9.72442 15.0475 9.71266 15.0478 9.70101 15.0484L9.60193 14.8831M9.60193 14.8831L9.61843 14.8554M9.60193 14.8831L9.61843 14.8554M9.60193 14.8831L9.53986 14.7796C9.5598 14.8105 9.58667 14.8365 9.61843 14.8554M11.1591 17.8332V21.4138H11.6591V21.9138H18.363C18.9774 21.9138 19.4754 21.3348 19.4754 20.6205V15.2907C19.4763 14.7618 19.2039 14.2911 18.7866 14.0892L14.0886 11.8482L12.626 11.1505C12.5418 11.2107 12.456 11.2685 12.3685 11.3235L12.102 10.9005L12.3173 10.4492L12.5658 10.5678C13.2218 10.0362 13.7595 9.32251 14.1354 8.4942C14.52 7.6471 14.719 6.72752 14.7189 5.7972C14.7189 5.2491 14.6319 4.7286 14.5107 4.2264C13.9197 1.7928 12.0192 0 9.7377 0C7.4994 0 5.6277 1.7289 5.0001 4.0932C4.8552 4.6356 4.7556 5.1996 4.7556 5.7972C4.7556 6.8349 4.998 7.8024 5.4099 8.6439C5.79456 9.4326 6.32921 10.1095 6.97353 10.6133L7.24005 10.4892L7.4511 10.9425L7.19313 11.3708C7.09893 11.3141 7.00654 11.2543 6.91601 11.1917L5.5485 11.8284L0.6981 14.0874C0.2769 14.2848 0 14.76 0 15.2907V20.6202C0 21.3345 0.4977 21.9135 1.1121 21.9135H7.816V21.4135H8.316V17.8329C8.31693 17.7938 8.32764 17.7556 8.3471 17.7218L8.28081 17.8321L8.28031 17.8329L8.09415 18.1427L8.09115 18.1409L7.816 17.9755V17.8329V17.8211L7.81614 17.8211C7.81912 17.6951 7.85446 17.5722 7.91863 17.464C7.92173 17.4588 7.92489 17.4536 7.92812 17.4484L8.34873 17.7122L9.27856 16.1018L9.27447 16.0993L9.27147 16.0975L9.52858 15.6687L9.5204 15.664L9.09971 15.4186C9.13482 15.3584 9.17954 15.3012 9.23272 15.2506L9.21263 15.216L9.23064 15.1848C9.17919 15.1357 9.1349 15.0793 9.09932 15.0171C9.09785 15.0145 9.0964 15.012 9.09496 15.0094L9.53037 14.7672L9.5181 14.7467L9.51807 14.7466L9.5145 14.7407L9.46403 14.7698L9.08196 14.9904C9.08331 14.9928 9.08463 14.9951 9.08589 14.9972C9.08855 15.0018 9.09099 15.0058 9.09311 15.0092C9.09508 15.0124 9.09689 15.0152 9.09845 15.0176C9.10014 15.0202 9.10155 15.0223 9.10257 15.0238L9.10157 15.0223C9.10071 15.0211 9.09964 15.0195 9.09842 15.0176C9.09637 15.0145 9.09389 15.0107 9.09114 15.0063C9.09066 15.0055 9.09017 15.0047 9.08966 15.0039L9.08583 14.9973L9.08186 14.9904L9.08177 14.9905L9.07824 14.9844C9.07759 14.9832 9.07692 14.982 9.07625 14.9807L9.07072 14.9712L9.06833 14.9656C9.06411 14.9572 9.05968 14.9478 9.05525 14.9375L9.51448 14.7406L9.27331 14.3384L9.27481 14.3375L9.28025 14.3342L8.3505 12.7236L8.3517 12.7227C8.32932 12.6869 8.31699 12.6458 8.316 12.6036C8.316 12.4701 8.4243 12.3618 8.5578 12.3618H10.9176C11.0511 12.3618 11.1594 12.4701 11.1594 12.6036C11.1589 12.6425 11.1486 12.6806 11.1294 12.7142L11.1955 12.604L11.1957 12.6036L11.3814 12.2939L11.3844 12.2957L11.6437 12.4511C11.654 12.5003 11.6594 12.5513 11.6594 12.6036V12.6094H11.6594C11.6579 12.7375 11.6226 12.8629 11.5574 12.9729C11.5541 12.9783 11.5509 12.9836 11.5475 12.989L11.1273 12.7246L10.1972 14.3351L10.2013 14.3375L10.2043 14.3393L9.94716 14.768L10.381 15.0094C10.3797 15.0117 10.3784 15.0141 10.3771 15.0164C10.3412 15.0793 10.2964 15.1363 10.2444 15.1857L10.2638 15.2196L10.2448 15.2525C10.2972 15.3027 10.3413 15.3594 10.3761 15.4193L9.96613 15.6575L9.94511 15.6697L9.95817 15.6871L9.95826 15.6873L9.96401 15.6949L10.1001 15.6164L10.3935 15.4469C10.3923 15.4446 10.3911 15.4425 10.3899 15.4405C10.387 15.4355 10.3846 15.4315 10.3829 15.4287L10.3788 15.4221L10.3796 15.4234L10.3797 15.4235C10.3807 15.4252 10.3834 15.4293 10.3869 15.4352L10.3899 15.4405L10.3936 15.4469L10.3968 15.4525L10.399 15.4563C10.4066 15.4701 10.4158 15.4887 10.4248 15.5111L9.96435 15.6954L10.2451 16.0696L10.2439 16.0705L10.1967 16.1058L11.1249 17.7132L11.5473 17.4489C11.5504 17.4539 11.5535 17.4589 11.5565 17.464C11.6207 17.5723 11.656 17.6954 11.659 17.8215L11.6592 17.8332H11.6591V17.9756L11.3823 18.1419L11.3808 18.1428L11.1949 17.8332L11.1944 17.8324L11.1278 17.7215C11.1474 17.7555 11.1582 17.7939 11.1591 17.8332ZM9.7377 15.3958L9.90668 15.621C9.86375 15.5761 9.80487 15.5475 9.7377 15.5475C9.65061 15.5475 9.57747 15.5959 9.53492 15.665L9.70102 15.388C9.71152 15.3885 9.72205 15.3889 9.73259 15.389L9.73259 15.3891L9.73269 15.3891L9.7377 15.3958Z" stroke="#FC7201"/>
</svg>
