<svg width="22" height="23" viewBox="0 0 22 23" fill="none" xmlns="http://www.w3.org/2000/svg">
<path fill-rule="evenodd" clip-rule="evenodd" d="M10.2 0.124264C10.1606 0.0848675 10.1138 0.0536164 10.0624 0.0322952C10.0109 0.0109739 9.95572 1.24533e-09 9.9 0C9.84428 -1.24533e-09 9.78911 0.0109739 9.73764 0.0322952C9.68617 0.0536164 9.6394 0.0848675 9.6 0.124264C9.5606 0.163661 9.52935 0.210431 9.50803 0.261905C9.48671 0.313379 9.47574 0.368549 9.47574 0.424264C9.47574 0.479979 9.48671 0.535149 9.50803 0.586623C9.52935 0.638097 9.5606 0.684867 9.6 0.724264L10.1 1.22426C10.2832 1.41119 10.3859 1.66251 10.3859 1.92426C10.3859 2.18602 10.2832 2.43734 10.1 2.62426C9.92455 2.79229 9.78493 2.99409 9.68955 3.2175C9.59416 3.44092 9.54499 3.68134 9.54499 3.92426C9.54499 4.16719 9.59416 4.40761 9.68955 4.63102C9.78493 4.85444 9.92455 5.05624 10.1 5.22426L10.6 5.72426C10.6394 5.76366 10.6862 5.79491 10.7376 5.81623C10.7891 5.83755 10.8443 5.84853 10.9 5.84853C10.9557 5.84853 11.0109 5.83755 11.0624 5.81623C11.1138 5.79491 11.1606 5.76366 11.2 5.72426C11.2394 5.68487 11.2706 5.6381 11.292 5.58662C11.3133 5.53515 11.3243 5.47998 11.3243 5.42426C11.3243 5.36855 11.3133 5.31338 11.292 5.26191C11.2706 5.21043 11.2394 5.16366 11.2 5.12426L10.7 4.62426C10.5168 4.43734 10.4141 4.18602 10.4141 3.92426C10.4141 3.66251 10.5168 3.41119 10.7 3.22426C10.8754 3.05624 11.0151 2.85444 11.1105 2.63102C11.2058 2.40761 11.255 2.16719 11.255 1.92426C11.255 1.68134 11.2058 1.44092 11.1105 1.2175C11.0151 0.994086 10.8754 0.792288 10.7 0.624264L10.2 0.124264ZM2.5 8.92426C2.5 8.42035 2.70018 7.93708 3.0565 7.58076C3.41282 7.22444 3.89609 7.02426 4.4 7.02426C4.90391 7.02426 5.38718 7.22444 5.7435 7.58076C6.09982 7.93708 6.3 8.42035 6.3 8.92426V9.02426H8.5V8.92426C8.5 8.42035 8.70018 7.93708 9.0565 7.58076C9.41282 7.22444 9.89609 7.02426 10.4 7.02426C10.9039 7.02426 11.3872 7.22444 11.7435 7.58076C12.0998 7.93708 12.3 8.42035 12.3 8.92426V9.02426H14.5V8.92426C14.5 8.42035 14.7002 7.93708 15.0565 7.58076C15.4128 7.22444 15.8961 7.02426 16.4 7.02426C16.9039 7.02426 17.3872 7.22444 17.7435 7.58076C18.0998 7.93708 18.3 8.42035 18.3 8.92426V9.02426H19.4C19.4131 9.02426 19.4261 9.02168 19.4383 9.01665C19.4504 9.01163 19.4614 9.00426 19.4707 8.99498C19.48 8.98569 19.4874 8.97466 19.4924 8.96253C19.4974 8.9504 19.5 8.9374 19.5 8.92426C19.5 8.68557 19.5948 8.45665 19.7636 8.28787C19.9324 8.11908 20.1613 8.02426 20.4 8.02426H20.7C21.3 8.02426 21.8 8.52426 21.8 9.12426V11.7243C21.8 12.016 21.6841 12.2958 21.4778 12.5021C21.2715 12.7084 20.9917 12.8243 20.7 12.8243H20.4C20.1613 12.8243 19.9324 12.7294 19.7636 12.5607C19.5948 12.3919 19.5 12.163 19.5 11.9243C19.5 11.9111 19.4974 11.8981 19.4924 11.886C19.4874 11.8739 19.48 11.8628 19.4707 11.8536C19.4614 11.8443 19.4504 11.8369 19.4383 11.8319C19.4261 11.8268 19.4131 11.8243 19.4 11.8243H18.3V18.0243H19.4C19.4131 18.0243 19.4261 18.0217 19.4383 18.0167C19.4504 18.0116 19.4614 18.0043 19.4707 17.995C19.48 17.9857 19.4874 17.9747 19.4924 17.9625C19.4974 17.9504 19.5 17.9374 19.5 17.9243C19.5 17.6856 19.5948 17.4567 19.7636 17.2879C19.9324 17.1191 20.1613 17.0243 20.4 17.0243H20.7C21.3 17.0243 21.8 17.5243 21.8 18.1243V20.7243C21.8 21.016 21.6841 21.2958 21.4778 21.5021C21.2715 21.7084 20.9917 21.8243 20.7 21.8243H20.4C20.1613 21.8243 19.9324 21.7294 19.7636 21.5607C19.5948 21.3919 19.5 21.163 19.5 20.9243C19.5 20.9111 19.4974 20.8981 19.4924 20.886C19.4874 20.8739 19.48 20.8628 19.4707 20.8536C19.4614 20.8443 19.4504 20.8369 19.4383 20.8319C19.4261 20.8269 19.4131 20.8243 19.4 20.8243H18.3V20.9243C18.3 21.4282 18.0998 21.9114 17.7435 22.2678C17.3872 22.6241 16.9039 22.8243 16.4 22.8243C15.8961 22.8243 15.4128 22.6241 15.0565 22.2678C14.7002 21.9114 14.5 21.4282 14.5 20.9243V20.8243H12.3V20.9243C12.3 21.4282 12.0998 21.9114 11.7435 22.2678C11.3872 22.6241 10.9039 22.8243 10.4 22.8243C9.89609 22.8243 9.41282 22.6241 9.0565 22.2678C8.70018 21.9114 8.5 21.4282 8.5 20.9243V20.8243H6.3V20.9243C6.3 21.4282 6.09982 21.9114 5.7435 22.2678C5.38718 22.6241 4.90391 22.8243 4.4 22.8243C3.89609 22.8243 3.41282 22.6241 3.0565 22.2678C2.70018 21.9114 2.5 21.4282 2.5 20.9243V20.8243H1.4C1.0287 20.8243 0.672601 20.6768 0.410051 20.4142C0.1475 20.1517 0 19.7956 0 19.4243C0 19.053 0.1475 18.6969 0.410051 18.4343C0.672601 18.1718 1.0287 18.0243 1.4 18.0243H2.5V11.8243H1.4C1.0287 11.8243 0.672601 11.6768 0.410051 11.4142C0.1475 11.1517 0 10.7956 0 10.4243C0 10.053 0.1475 9.69687 0.410051 9.43431C0.672601 9.17176 1.0287 9.02426 1.4 9.02426H2.5V8.92426ZM12.3 9.82426H14.5V11.0243H12.3V9.82426ZM12.3 11.8243H14.5V18.0243H12.3V11.8243ZM12.3 18.8243H14.5V20.0243H12.3V18.8243ZM19.4 11.0243H18.3V9.82426H19.4C19.6387 9.82426 19.8676 9.72944 20.0364 9.56066C20.2052 9.39188 20.3 9.16296 20.3 8.92426C20.3 8.89774 20.3105 8.87231 20.3293 8.85355C20.348 8.8348 20.3735 8.82426 20.4 8.82426H20.7C20.7394 8.82426 20.7784 8.83202 20.8148 8.8471C20.8512 8.86218 20.8843 8.88427 20.9121 8.91213C20.94 8.93999 20.9621 8.97306 20.9772 9.00946C20.9922 9.04586 21 9.08487 21 9.12426V11.6243C21.0166 11.6709 21.0214 11.7209 21.0139 11.7699C21.0065 11.8188 20.987 11.8652 20.9573 11.9048C20.9276 11.9444 20.8886 11.976 20.8437 11.9969C20.7988 12.0177 20.7494 12.0271 20.7 12.0243H20.4C20.3735 12.0243 20.348 12.0137 20.3293 11.995C20.3105 11.9762 20.3 11.9508 20.3 11.9243C20.3 11.6856 20.2052 11.4567 20.0364 11.2879C19.8676 11.1191 19.6387 11.0243 19.4 11.0243ZM19.4 20.0243H18.3V18.8243H19.4C19.6387 18.8243 19.8676 18.7294 20.0364 18.5607C20.2052 18.3919 20.3 18.163 20.3 17.9243C20.3 17.8977 20.3105 17.8723 20.3293 17.8536C20.348 17.8348 20.3735 17.8243 20.4 17.8243H20.7C20.7394 17.8243 20.7784 17.832 20.8148 17.8471C20.8512 17.8622 20.8843 17.8843 20.9121 17.9121C20.94 17.94 20.9621 17.9731 20.9772 18.0095C20.9922 18.0459 21 18.0849 21 18.1243V20.7243C21 20.8038 20.9684 20.8801 20.9121 20.9364C20.8559 20.9927 20.7796 21.0243 20.7 21.0243H20.4C20.3735 21.0243 20.348 21.0137 20.3293 20.995C20.3105 20.9762 20.3 20.9508 20.3 20.9243C20.3 20.6856 20.2052 20.4567 20.0364 20.2879C19.8676 20.1191 19.6387 20.0243 19.4 20.0243ZM8.5 18.8243H6.3V20.0243H8.5V18.8243ZM8.5 18.0243V11.8243H6.3V18.0243H8.5ZM8.5 11.0243V9.82426H6.3V11.0243H8.5ZM1.4 18.8243H2.5V20.0243H1.4C1.32121 20.0243 1.24319 20.0087 1.17039 19.9786C1.09759 19.9484 1.03145 19.9042 0.975736 19.8485C0.920021 19.7928 0.875825 19.7267 0.845672 19.6539C0.815519 19.5811 0.8 19.5031 0.8 19.4243C0.8 19.3455 0.815519 19.2675 0.845672 19.1947C0.875825 19.1219 0.920021 19.0557 0.975736 19C1.03145 18.9443 1.09759 18.9001 1.17039 18.8699C1.24319 18.8398 1.32121 18.8243 1.4 18.8243ZM2.5 9.82426V11.0243H1.4C1.24087 11.0243 1.08826 10.9611 0.975736 10.8485C0.863214 10.736 0.8 10.5834 0.8 10.4243C0.8 10.2651 0.863214 10.1125 0.975736 10C1.08826 9.88748 1.24087 9.82426 1.4 9.82426H2.5ZM4.4 7.82426C4.10826 7.82426 3.82847 7.94016 3.62218 8.14645C3.41589 8.35274 3.3 8.63253 3.3 8.92426V20.9243C3.3 21.216 3.41589 21.4958 3.62218 21.7021C3.82847 21.9084 4.10826 22.0243 4.4 22.0243C4.69174 22.0243 4.97153 21.9084 5.17782 21.7021C5.38411 21.4958 5.5 21.216 5.5 20.9243V8.92426C5.5 8.63253 5.38411 8.35274 5.17782 8.14645C4.97153 7.94016 4.69174 7.82426 4.4 7.82426ZM9.3 8.92426C9.3 8.63253 9.41589 8.35274 9.62218 8.14645C9.82847 7.94016 10.1083 7.82426 10.4 7.82426C10.6917 7.82426 10.9715 7.94016 11.1778 8.14645C11.3841 8.35274 11.5 8.63253 11.5 8.92426V20.9243C11.5 21.216 11.3841 21.4958 11.1778 21.7021C10.9715 21.9084 10.6917 22.0243 10.4 22.0243C10.1083 22.0243 9.82847 21.9084 9.62218 21.7021C9.41589 21.4958 9.3 21.216 9.3 20.9243V8.92426ZM16.4 7.82426C16.2555 7.82426 16.1125 7.85272 15.979 7.908C15.8456 7.96328 15.7243 8.0443 15.6222 8.14645C15.52 8.24859 15.439 8.36985 15.3837 8.50331C15.3285 8.63677 15.3 8.77981 15.3 8.92426V20.9243C15.3 21.216 15.4159 21.4958 15.6222 21.7021C15.8285 21.9084 16.1083 22.0243 16.4 22.0243C16.6917 22.0243 16.9715 21.9084 17.1778 21.7021C17.3841 21.4958 17.5 21.216 17.5 20.9243V8.92426C17.5 8.77981 17.4715 8.63677 17.4163 8.50331C17.361 8.36985 17.28 8.24859 17.1778 8.14645C17.0757 8.0443 16.9544 7.96328 16.821 7.908C16.6875 7.85272 16.5445 7.82426 16.4 7.82426ZM13.6 0.624264C13.6375 0.581701 13.6837 0.547613 13.7354 0.524264C13.7871 0.500915 13.8432 0.488839 13.9 0.488839C13.9567 0.488839 14.0129 0.500915 14.0646 0.524264C14.1163 0.547613 14.1625 0.581701 14.2 0.624264L14.7 1.12426C14.8754 1.29229 15.0151 1.49409 15.1105 1.7175C15.2058 1.94092 15.255 2.18134 15.255 2.42426C15.255 2.66719 15.2058 2.90761 15.1105 3.13102C15.0151 3.35444 14.8754 3.55624 14.7 3.72426C14.5168 3.91119 14.4141 4.16251 14.4141 4.42426C14.4141 4.68602 14.5168 4.93734 14.7 5.12426L15.2 5.62426C15.2394 5.66366 15.2706 5.71043 15.292 5.76191C15.3133 5.81338 15.3243 5.86855 15.3243 5.92426C15.3243 5.97998 15.3133 6.03515 15.292 6.08662C15.2706 6.1381 15.2394 6.18487 15.2 6.22426C15.1606 6.26366 15.1138 6.29491 15.0624 6.31623C15.0109 6.33755 14.9557 6.34853 14.9 6.34853C14.8443 6.34853 14.7891 6.33755 14.7376 6.31623C14.6862 6.29491 14.6394 6.26366 14.6 6.22426L14.1 5.72426C13.9246 5.55624 13.7849 5.35444 13.6895 5.13102C13.5942 4.90761 13.545 4.66719 13.545 4.42426C13.545 4.18134 13.5942 3.94092 13.6895 3.7175C13.7849 3.49409 13.9246 3.29229 14.1 3.12426C14.2832 2.93734 14.3859 2.68602 14.3859 2.42426C14.3859 2.16251 14.2832 1.91119 14.1 1.72426L13.6 1.22426C13.5574 1.18673 13.5233 1.14056 13.5 1.08884C13.4767 1.03711 13.4646 0.981014 13.4646 0.924264C13.4646 0.867514 13.4767 0.811413 13.5 0.759689C13.5233 0.707965 13.5574 0.661801 13.6 0.624264ZM6.2 0.624264C6.1606 0.584868 6.11383 0.553616 6.06236 0.532295C6.01088 0.510974 5.95572 0.5 5.9 0.5C5.84429 0.5 5.78912 0.510974 5.73764 0.532295C5.68617 0.553616 5.6394 0.584868 5.6 0.624264C5.5606 0.663661 5.52935 0.710431 5.50803 0.761905C5.48671 0.813379 5.47574 0.868549 5.47574 0.924264C5.47574 0.979979 5.48671 1.03515 5.50803 1.08662C5.52935 1.1381 5.5606 1.18487 5.6 1.22426L6.1 1.72426C6.28323 1.91119 6.38586 2.16251 6.38586 2.42426C6.38586 2.68602 6.28323 2.93734 6.1 3.12426C5.92455 3.29229 5.78493 3.49409 5.68955 3.7175C5.59416 3.94092 5.54499 4.18134 5.54499 4.42426C5.54499 4.66719 5.59416 4.90761 5.68955 5.13102C5.78493 5.35444 5.92455 5.55624 6.1 5.72426L6.6 6.22426C6.6394 6.26366 6.68617 6.29491 6.73764 6.31623C6.78912 6.33755 6.84429 6.34853 6.9 6.34853C6.95572 6.34853 7.01089 6.33755 7.06236 6.31623C7.11383 6.29491 7.1606 6.26366 7.2 6.22426C7.2394 6.18487 7.27065 6.1381 7.29197 6.08662C7.31329 6.03515 7.32426 5.97998 7.32426 5.92426C7.32426 5.86855 7.31329 5.81338 7.29197 5.76191C7.27065 5.71043 7.2394 5.66366 7.2 5.62426L6.7 5.12426C6.51677 4.93734 6.41414 4.68602 6.41414 4.42426C6.41414 4.16251 6.51677 3.91119 6.7 3.72426C6.87545 3.55624 7.01507 3.35444 7.11045 3.13102C7.20584 2.90761 7.25501 2.66719 7.25501 2.42426C7.25501 2.18134 7.20584 1.94092 7.11045 1.7175C7.01507 1.49409 6.87545 1.29229 6.7 1.12426L6.2 0.624264Z" fill="#FC7201"/>
</svg>
