<svg width="28" height="24" viewBox="0 0 28 24" fill="none" xmlns="http://www.w3.org/2000/svg">
<path d="M24.4617 22.8252H23.2823V6.67482L24.4617 6.04785V22.8252Z" stroke="#FC7201" stroke-width="0.6" stroke-miterlimit="10"/>
<path d="M26.9518 23H1" stroke="#FC7201" stroke-width="0.6" stroke-miterlimit="10" stroke-linecap="round" stroke-linejoin="round"/>
<path d="M25.1417 5.97754L8.91902 14.3751L8.22205 14.1243L23.9593 5.97831L25.1417 5.97754Z" stroke="#FC7201" stroke-width="0.6" stroke-miterlimit="10"/>
<path d="M6.25269 14.4771L22.6038 22.9384L23.1716 22.6238L7.43431 14.4778L6.25269 14.4771Z" stroke="#FC7201" stroke-width="0.6" stroke-miterlimit="10"/>
<path d="M9.08594 14.3975C9.08594 14.4513 9.04209 14.4944 8.98901 14.4944H2.43702C2.38317 14.4944 2.34009 14.4506 2.34009 14.3975V14.0813C2.34009 14.0275 2.38394 13.9844 2.43702 13.9844H8.98901C9.04286 13.9844 9.08594 14.0282 9.08594 14.0813V14.3975Z" fill="#D1E0E3" stroke="#FC7201" stroke-width="0.6" stroke-miterlimit="10"/>
<path d="M7.47046 9.99805V14.3822" stroke="#FC7201" stroke-width="0.6" stroke-miterlimit="10" stroke-linecap="round" stroke-linejoin="round"/>
<path d="M24.4424 1L7.63971 9.85139" stroke="#FC7201" stroke-width="0.6" stroke-miterlimit="10" stroke-linecap="round" stroke-linejoin="round"/>
<path d="M9.14978 12.7007C9.14978 12.7546 9.19286 12.7976 9.24671 12.7976H12.2838C12.3377 12.7976 12.3808 12.7538 12.3808 12.7007V12.3845C12.3808 12.3307 12.3377 12.2876 12.2838 12.2876H9.24671C9.19286 12.2876 9.14978 12.3314 9.14978 12.3845V12.7007Z" fill="#D1E0E3" stroke="#FC7201" stroke-width="0.6" stroke-miterlimit="10"/>
<path d="M10.7653 8.30127V12.6854" stroke="#FC7201" stroke-width="0.6" stroke-miterlimit="10" stroke-linecap="round" stroke-linejoin="round"/>
<path d="M12.4392 11C12.4392 11.0539 12.4831 11.097 12.5361 11.097H15.5733C15.6271 11.097 15.6702 11.0531 15.6702 11V10.6838C15.6702 10.63 15.6264 10.5869 15.5733 10.5869H12.5361C12.4823 10.5869 12.4392 10.6308 12.4392 10.6838V11Z" fill="#D1E0E3" stroke="#FC7201" stroke-width="0.6" stroke-miterlimit="10"/>
<path d="M14.0547 6.60059V10.9847" stroke="#FC7201" stroke-width="0.6" stroke-miterlimit="10" stroke-linecap="round" stroke-linejoin="round"/>
<path d="M15.7286 9.29982C15.7286 9.35367 15.7725 9.39675 15.8256 9.39675H18.8627C18.9166 9.39675 18.9596 9.35367 18.9596 9.29982V8.98365C18.9596 8.9298 18.9158 8.88672 18.8627 8.88672H15.8256C15.7717 8.88672 15.7286 8.93057 15.7286 8.98365V9.29982Z" fill="#D1E0E3" stroke="#FC7201" stroke-width="0.6" stroke-miterlimit="10"/>
<g opacity="0.98">
<mask id="path-13-inside-1_152_434" fill="white">
<path d="M18.8626 9.20191C18.9165 9.20191 18.9596 9.15806 18.9596 9.10498V9.29961C18.9596 9.35346 18.9157 9.39654 18.8626 9.39654H15.8255C15.7717 9.39654 15.7286 9.35346 15.7286 9.29961V9.10498C15.7286 9.15883 15.7724 9.20191 15.8255 9.20191"/>
</mask>
<path d="M18.8626 9.20191C18.9165 9.20191 18.9596 9.15806 18.9596 9.10498V9.29961C18.9596 9.35346 18.9157 9.39654 18.8626 9.39654H15.8255C15.7717 9.39654 15.7286 9.35346 15.7286 9.29961V9.10498C15.7286 9.15883 15.7724 9.20191 15.8255 9.20191" fill="#D1E0E3"/>
<path d="M18.8626 9.80191C19.251 9.80191 19.5596 9.48631 19.5596 9.10498H18.3596C18.3596 8.82981 18.582 8.60191 18.8626 8.60191V9.80191ZM18.3596 9.10498V9.29961H19.5596V9.10498H18.3596ZM18.3596 9.29961C18.3596 9.01901 18.5874 8.79654 18.8626 8.79654V9.99654C19.244 9.99654 19.5596 9.6879 19.5596 9.29961H18.3596ZM18.8626 8.79654H15.8255V9.99654H18.8626V8.79654ZM15.8255 8.79654C16.103 8.79654 16.3286 9.02209 16.3286 9.29961H15.1286C15.1286 9.68483 15.4403 9.99654 15.8255 9.99654V8.79654ZM16.3286 9.29961V9.10498H15.1286V9.29961H16.3286ZM15.1286 9.10498C15.1286 9.4933 15.4442 9.80191 15.8255 9.80191V8.60191C16.1007 8.60191 16.3286 8.82436 16.3286 9.10498H15.1286Z" fill="#FC7201" mask="url(#path-13-inside-1_152_434)"/>
</g>
<path d="M17.3441 4.90039V9.28454" stroke="#FC7201" stroke-width="0.6" stroke-miterlimit="10" stroke-linecap="round" stroke-linejoin="round"/>
<path d="M19.0182 7.59914C19.0182 7.65299 19.062 7.69607 19.1151 7.69607H22.1523C22.2061 7.69607 22.2492 7.65222 22.2492 7.59914V7.28297C22.2492 7.22912 22.2061 7.18604 22.1523 7.18604H19.1151C19.0613 7.18604 19.0182 7.22989 19.0182 7.28297V7.59914Z" fill="#D1E0E3" stroke="#FC7201" stroke-width="0.6" stroke-miterlimit="10"/>
<path d="M20.6337 3.06934V7.5835" stroke="#FC7201" stroke-width="0.6" stroke-miterlimit="10" stroke-linecap="round" stroke-linejoin="round"/>
<path d="M22.2985 5.8882C22.2985 5.94205 22.3423 5.98513 22.3954 5.98513H25.4325C25.4864 5.98513 25.5295 5.94128 25.5295 5.8882V5.57203C25.5295 5.51818 25.4856 5.4751 25.4325 5.4751H22.3954C22.3415 5.4751 22.2985 5.51895 22.2985 5.57203V5.8882Z" fill="#D1E0E3" stroke="#FC7201" stroke-width="0.6" stroke-miterlimit="10"/>
<path d="M23.9139 1.35303V5.87257" stroke="#FC7201" stroke-width="0.6" stroke-miterlimit="10" stroke-linecap="round" stroke-linejoin="round"/>
<path d="M7.66504 9.87549L24.5831 18.7876" stroke="#FC7201" stroke-width="0.6" stroke-miterlimit="10" stroke-linecap="round" stroke-linejoin="round"/>
<path d="M2.53467 9.87451H7.6181" stroke="#FC7201" stroke-width="0.6" stroke-miterlimit="10" stroke-linecap="round" stroke-linejoin="round"/>
<path d="M25.534 22.9009C25.534 22.9547 25.4901 22.9978 25.437 22.9978H22.3999C22.3461 22.9978 22.303 22.954 22.303 22.9009V22.5847C22.303 22.5309 22.3468 22.4878 22.3999 22.4878H25.437C25.4909 22.4878 25.534 22.5316 25.534 22.5847V22.9009Z" fill="#D1E0E3" stroke="#FC7201" stroke-width="0.6" stroke-miterlimit="10"/>
<path d="M23.9177 18.502V22.8861" stroke="#FC7201" stroke-width="0.6" stroke-miterlimit="10" stroke-linecap="round" stroke-linejoin="round"/>
<path d="M22.2446 21.2007C22.2446 21.2546 22.2007 21.2976 22.1477 21.2976H19.1097C19.0559 21.2976 19.0128 21.2538 19.0128 21.2007V20.8845C19.0128 20.8307 19.0567 20.7876 19.1097 20.7876H22.1469C22.2007 20.7876 22.2438 20.8314 22.2438 20.8845V21.2007H22.2446Z" fill="#D1E0E3" stroke="#FC7201" stroke-width="0.6" stroke-miterlimit="10"/>
<path d="M20.6283 16.8013V21.1854" stroke="#FC7201" stroke-width="0.6" stroke-miterlimit="10" stroke-linecap="round" stroke-linejoin="round"/>
<path d="M18.9544 19.4995C18.9544 19.5534 18.9105 19.5965 18.8575 19.5965H15.8203C15.7665 19.5965 15.7234 19.5526 15.7234 19.4995V19.1834C15.7234 19.1295 15.7665 19.0864 15.8203 19.0864H18.8575C18.9113 19.0864 18.9544 19.1303 18.9544 19.1834V19.4995Z" fill="#D1E0E3" stroke="#FC7201" stroke-width="0.6" stroke-miterlimit="10"/>
<path d="M17.3389 15.1006V19.4847" stroke="#FC7201" stroke-width="0.6" stroke-miterlimit="10" stroke-linecap="round" stroke-linejoin="round"/>
<path d="M15.665 17.7998C15.665 17.8537 15.6211 17.8968 15.568 17.8968H12.5309C12.477 17.8968 12.434 17.8537 12.434 17.7998V17.4836C12.434 17.4298 12.477 17.3867 12.5309 17.3867H15.568C15.6219 17.3867 15.665 17.4306 15.665 17.4836V17.7998Z" fill="#D1E0E3" stroke="#FC7201" stroke-width="0.6" stroke-miterlimit="10"/>
<path d="M14.0494 13.3994V17.7843" stroke="#FC7201" stroke-width="0.6" stroke-miterlimit="10" stroke-linecap="round" stroke-linejoin="round"/>
<path d="M12.3754 16.0987C12.3754 16.1525 12.3316 16.1956 12.2785 16.1956H9.24134C9.18749 16.1956 9.14441 16.1517 9.14441 16.0987V15.7825C9.14441 15.7286 9.18749 15.6855 9.24134 15.6855H12.2785C12.3323 15.6855 12.3754 15.7294 12.3754 15.7825V16.0987Z" fill="#D1E0E3" stroke="#FC7201" stroke-width="0.6" stroke-miterlimit="10"/>
<g opacity="0.25">
<mask id="path-31-inside-2_152_434" fill="white">
<path d="M9.24134 16.0012C9.18749 16.0012 9.14441 15.9574 9.14441 15.9043V16.0989C9.14441 16.1528 9.18749 16.1959 9.24134 16.1959H12.2785C12.3323 16.1959 12.3754 16.152 12.3754 16.0989V15.9043C12.3754 15.9581 12.3316 16.0012 12.2785 16.0012"/>
</mask>
<path d="M9.24134 16.0012C9.18749 16.0012 9.14441 15.9574 9.14441 15.9043V16.0989C9.14441 16.1528 9.18749 16.1959 9.24134 16.1959H12.2785C12.3323 16.1959 12.3754 16.152 12.3754 16.0989V15.9043C12.3754 15.9581 12.3316 16.0012 12.2785 16.0012" fill="#D1E0E3"/>
<path d="M9.24134 15.4012C9.52196 15.4012 9.74441 15.6291 9.74441 15.9043H8.54441C8.54441 16.2856 8.85302 16.6012 9.24134 16.6012V15.4012ZM8.54441 15.9043V16.0989H9.74441V15.9043H8.54441ZM8.54441 16.0989C8.54441 16.4841 8.85612 16.7959 9.24134 16.7959V15.5959C9.51886 15.5959 9.74441 15.8214 9.74441 16.0989H8.54441ZM9.24134 16.7959H12.2785V15.5959H9.24134V16.7959ZM12.2785 16.7959C12.6668 16.7959 12.9754 16.4803 12.9754 16.0989H11.7754C11.7754 15.8237 11.9978 15.5959 12.2785 15.5959V16.7959ZM12.9754 16.0989V15.9043H11.7754V16.0989H12.9754ZM11.7754 15.9043C11.7754 15.6237 12.0033 15.4012 12.2785 15.4012V16.6012C12.6598 16.6012 12.9754 16.2926 12.9754 15.9043H11.7754Z" fill="#FC7201" mask="url(#path-31-inside-2_152_434)"/>
</g>
<g opacity="0.98">
<mask id="path-33-inside-3_152_434" fill="white">
<path d="M8.98901 14.301H2.43702C2.38317 14.301 2.34009 14.2572 2.34009 14.2041V14.3987C2.34009 14.4526 2.38394 14.4957 2.43702 14.4957H8.98901C9.04286 14.4957 9.08594 14.4518 9.08594 14.3987V14.2041C9.08594 14.2572 9.04286 14.301 8.98901 14.301Z"/>
</mask>
<path d="M8.98901 14.301H2.43702C2.38317 14.301 2.34009 14.2572 2.34009 14.2041V14.3987C2.34009 14.4526 2.38394 14.4957 2.43702 14.4957H8.98901C9.04286 14.4957 9.08594 14.4518 9.08594 14.3987V14.2041C9.08594 14.2572 9.04286 14.301 8.98901 14.301Z" fill="#D1E0E3"/>
<path d="M8.98901 13.701H2.43702V14.901H8.98901V13.701ZM2.43702 13.701C2.71764 13.701 2.94009 13.9289 2.94009 14.2041H1.74009C1.74009 14.5854 2.04869 14.901 2.43702 14.901V13.701ZM1.74009 14.2041V14.3987H2.94009V14.2041H1.74009ZM1.74009 14.3987C1.74009 14.787 2.05566 15.0957 2.43702 15.0957V13.8957C2.71221 13.8957 2.94009 14.1181 2.94009 14.3987H1.74009ZM2.43702 15.0957H8.98901V13.8957H2.43702V15.0957ZM8.98901 15.0957C9.37733 15.0957 9.68594 14.7801 9.68594 14.3987H8.48594C8.48594 14.1235 8.7084 13.8957 8.98901 13.8957V15.0957ZM9.68594 14.3987V14.2041H8.48594V14.3987H9.68594ZM8.48594 14.2041C8.48594 13.9289 8.7084 13.701 8.98901 13.701V14.901C9.37733 14.901 9.68594 14.5854 9.68594 14.2041L8.48594 14.2041Z" fill="#FC7201" mask="url(#path-33-inside-3_152_434)"/>
</g>
<g opacity="0.98">
<mask id="path-35-inside-4_152_434" fill="white">
<path d="M9.24671 12.6038H12.2838C12.3377 12.6038 12.3808 12.5599 12.3808 12.5068V12.7015C12.3808 12.7553 12.3377 12.7984 12.2838 12.7984H9.24671C9.19286 12.7984 9.14978 12.7545 9.14978 12.7015V12.5068C9.14978 12.5599 9.19286 12.6038 9.24671 12.6038Z"/>
</mask>
<path d="M9.24671 12.6038H12.2838C12.3377 12.6038 12.3808 12.5599 12.3808 12.5068V12.7015C12.3808 12.7553 12.3377 12.7984 12.2838 12.7984H9.24671C9.19286 12.7984 9.14978 12.7545 9.14978 12.7015V12.5068C9.14978 12.5599 9.19286 12.6038 9.24671 12.6038Z" fill="#D1E0E3"/>
<path d="M9.24671 13.2038H12.2838V12.0038H9.24671V13.2038ZM12.2838 13.2038C12.6722 13.2038 12.9808 12.8882 12.9808 12.5068H11.7808C11.7808 12.2316 12.0032 12.0038 12.2838 12.0038V13.2038ZM11.7808 12.5068V12.7015H12.9808V12.5068H11.7808ZM11.7808 12.7015C11.7808 12.4239 12.0063 12.1984 12.2838 12.1984V13.3984C12.6691 13.3984 12.9808 13.0867 12.9808 12.7015H11.7808ZM12.2838 12.1984H9.24671V13.3984H12.2838V12.1984ZM9.24671 12.1984C9.52734 12.1984 9.74978 12.4263 9.74978 12.7015H8.54978C8.54978 13.0828 8.85838 13.3984 9.24671 13.3984V12.1984ZM9.74978 12.7015V12.5068H8.54978V12.7015H9.74978ZM8.54978 12.5068C8.54978 12.8882 8.85838 13.2038 9.24671 13.2038V12.0038C9.52734 12.0038 9.74978 12.2317 9.74978 12.5068H8.54978Z" fill="#FC7201" mask="url(#path-35-inside-4_152_434)"/>
</g>
<g opacity="0.98">
<mask id="path-37-inside-5_152_434" fill="white">
<path d="M12.5362 10.9031H15.5733C15.6272 10.9031 15.6703 10.8592 15.6703 10.8062V11.0008C15.6703 11.0546 15.6264 11.0977 15.5733 11.0977H12.5362C12.4823 11.0977 12.4393 11.0539 12.4393 11.0008V10.8062C12.4393 10.8592 12.4823 10.9031 12.5362 10.9031Z"/>
</mask>
<path d="M12.5362 10.9031H15.5733C15.6272 10.9031 15.6703 10.8592 15.6703 10.8062V11.0008C15.6703 11.0546 15.6264 11.0977 15.5733 11.0977H12.5362C12.4823 11.0977 12.4393 11.0539 12.4393 11.0008V10.8062C12.4393 10.8592 12.4823 10.9031 12.5362 10.9031Z" fill="#D1E0E3"/>
<path d="M12.5362 11.5031H15.5733V10.3031H12.5362V11.5031ZM15.5733 11.5031C15.9617 11.5031 16.2703 11.1875 16.2703 10.8062H15.0703C15.0703 10.531 15.2927 10.3031 15.5733 10.3031V11.5031ZM15.0703 10.8062V11.0008H16.2703V10.8062H15.0703ZM15.0703 11.0008C15.0703 10.7201 15.2982 10.4977 15.5733 10.4977V11.6977C15.9547 11.6977 16.2703 11.3891 16.2703 11.0008H15.0703ZM15.5733 10.4977H12.5362V11.6977H15.5733V10.4977ZM12.5362 10.4977C12.8168 10.4977 13.0393 10.7256 13.0393 11.0008H11.8393C11.8393 11.3822 12.1479 11.6977 12.5362 11.6977V10.4977ZM13.0393 11.0008V10.8062H11.8393V11.0008H13.0393ZM11.8393 10.8062C11.8393 11.1875 12.1479 11.5031 12.5362 11.5031V10.3031C12.8168 10.3031 13.0393 10.531 13.0393 10.8062L11.8393 10.8062Z" fill="#FC7201" mask="url(#path-37-inside-5_152_434)"/>
</g>
<path opacity="0.98" d="M15.8257 9.20215H18.8628" stroke="#FC7201" stroke-width="0.6"/>
<g opacity="0.98">
<mask id="path-40-inside-6_152_434" fill="white">
<path d="M19.1151 7.50122H22.1523C22.2061 7.50122 22.2492 7.45738 22.2492 7.4043V7.59892C22.2492 7.65277 22.2061 7.69585 22.1523 7.69585H19.1151C19.0613 7.69585 19.0182 7.652 19.0182 7.59892V7.4043C19.0182 7.45815 19.062 7.50122 19.1151 7.50122Z"/>
</mask>
<path d="M19.1151 7.50122H22.1523C22.2061 7.50122 22.2492 7.45738 22.2492 7.4043V7.59892C22.2492 7.65277 22.2061 7.69585 22.1523 7.69585H19.1151C19.0613 7.69585 19.0182 7.652 19.0182 7.59892V7.4043C19.0182 7.45815 19.062 7.50122 19.1151 7.50122Z" fill="#D1E0E3"/>
<path d="M19.1151 8.10122H22.1523V6.90122H19.1151V8.10122ZM22.1523 8.10122C22.5405 8.10122 22.8492 7.78568 22.8492 7.4043H21.6492C21.6492 7.12907 21.8717 6.90122 22.1523 6.90122V8.10122ZM21.6492 7.4043V7.59892H22.8492V7.4043H21.6492ZM21.6492 7.59892C21.6492 7.3214 21.8747 7.09585 22.1523 7.09585V8.29585C22.5375 8.29585 22.8492 7.98414 22.8492 7.59892H21.6492ZM22.1523 7.09585H19.1151V8.29585H22.1523V7.09585ZM19.1151 7.09585C19.3957 7.09585 19.6182 7.32374 19.6182 7.59892H18.4182C18.4182 7.98027 18.7268 8.29585 19.1151 8.29585V7.09585ZM19.6182 7.59892V7.4043H18.4182V7.59892H19.6182ZM18.4182 7.4043C18.4182 7.79265 18.7338 8.10122 19.1151 8.10122V6.90122C19.3903 6.90122 19.6182 7.12364 19.6182 7.4043H18.4182Z" fill="#FC7201" mask="url(#path-40-inside-6_152_434)"/>
</g>
<g opacity="0.98">
<mask id="path-42-inside-7_152_434" fill="white">
<path d="M22.3954 5.79127H25.4325C25.4864 5.79127 25.5295 5.74742 25.5295 5.69434V5.88897C25.5295 5.94282 25.4856 5.9859 25.4325 5.9859H22.3954C22.3415 5.9859 22.2985 5.94205 22.2985 5.88897V5.69434C22.2985 5.74742 22.3423 5.79127 22.3954 5.79127Z"/>
</mask>
<path d="M22.3954 5.79127H25.4325C25.4864 5.79127 25.5295 5.74742 25.5295 5.69434V5.88897C25.5295 5.94282 25.4856 5.9859 25.4325 5.9859H22.3954C22.3415 5.9859 22.2985 5.94205 22.2985 5.88897V5.69434C22.2985 5.74742 22.3423 5.79127 22.3954 5.79127Z" fill="#D1E0E3"/>
<path d="M22.3954 6.39127H25.4325V5.19127H22.3954V6.39127ZM25.4325 6.39127C25.8209 6.39127 26.1295 6.07566 26.1295 5.69434H24.9295C24.9295 5.41917 25.1519 5.19127 25.4325 5.19127V6.39127ZM24.9295 5.69434V5.88897H26.1295V5.69434H24.9295ZM24.9295 5.88897C24.9295 5.60837 25.1573 5.3859 25.4325 5.3859V6.5859C25.8139 6.5859 26.1295 6.27726 26.1295 5.88897H24.9295ZM25.4325 5.3859H22.3954V6.5859H25.4325V5.3859ZM22.3954 5.3859C22.676 5.3859 22.8985 5.61378 22.8985 5.88897H21.6985C21.6985 6.27031 22.0071 6.5859 22.3954 6.5859V5.3859ZM22.8985 5.88897V5.69434H21.6985V5.88897H22.8985ZM21.6985 5.69434C21.6985 6.07879 22.0109 6.39127 22.3954 6.39127V5.19127C22.6737 5.19127 22.8985 5.41605 22.8985 5.69434H21.6985Z" fill="#FC7201" mask="url(#path-42-inside-7_152_434)"/>
</g>
<g opacity="0.98">
<mask id="path-44-inside-8_152_434" fill="white">
<path d="M18.8574 19.4031H15.8203C15.7664 19.4031 15.7233 19.3592 15.7233 19.3062V19.5008C15.7233 19.5546 15.7664 19.5977 15.8203 19.5977H18.8574C18.9112 19.5977 18.9543 19.5539 18.9543 19.5008V19.3062C18.9543 19.3592 18.9112 19.4031 18.8574 19.4031Z"/>
</mask>
<path d="M18.8574 19.4031H15.8203C15.7664 19.4031 15.7233 19.3592 15.7233 19.3062V19.5008C15.7233 19.5546 15.7664 19.5977 15.8203 19.5977H18.8574C18.9112 19.5977 18.9543 19.5539 18.9543 19.5008V19.3062C18.9543 19.3592 18.9112 19.4031 18.8574 19.4031Z" fill="#D1E0E3"/>
<path d="M18.8574 18.8031H15.8203V20.0031H18.8574V18.8031ZM15.8203 18.8031C16.1009 18.8031 16.3233 19.031 16.3233 19.3062H15.1233C15.1233 19.6875 15.4319 20.0031 15.8203 20.0031V18.8031ZM15.1233 19.3062V19.5008H16.3233V19.3062H15.1233ZM15.1233 19.5008C15.1233 19.886 15.435 20.1977 15.8203 20.1977V18.9977C16.0978 18.9977 16.3233 19.2233 16.3233 19.5008H15.1233ZM15.8203 20.1977H18.8574V18.9977H15.8203V20.1977ZM18.8574 20.1977C19.2457 20.1977 19.5543 19.8821 19.5543 19.5008H18.3543C18.3543 19.2256 18.5768 18.9977 18.8574 18.9977V20.1977ZM19.5543 19.5008V19.3062H18.3543V19.5008H19.5543ZM18.3543 19.3062C18.3543 19.031 18.5768 18.8031 18.8574 18.8031V20.0031C19.2457 20.0031 19.5543 19.6875 19.5543 19.3062H18.3543Z" fill="#FC7201" mask="url(#path-44-inside-8_152_434)"/>
</g>
<g opacity="0.98">
<mask id="path-46-inside-9_152_434" fill="white">
<path d="M15.568 17.7019H12.5308C12.477 17.7019 12.4339 17.6581 12.4339 17.605V17.7996C12.4339 17.8535 12.477 17.8965 12.5308 17.8965H15.568C15.6218 17.8965 15.6649 17.8535 15.6649 17.7996V17.605C15.6649 17.6581 15.6218 17.7019 15.568 17.7019Z"/>
</mask>
<path d="M15.568 17.7019H12.5308C12.477 17.7019 12.4339 17.6581 12.4339 17.605V17.7996C12.4339 17.8535 12.477 17.8965 12.5308 17.8965H15.568C15.6218 17.8965 15.6649 17.8535 15.6649 17.7996V17.605C15.6649 17.6581 15.6218 17.7019 15.568 17.7019Z" fill="#D1E0E3"/>
<path d="M15.568 17.1019H12.5308V18.3019H15.568V17.1019ZM12.5308 17.1019C12.8115 17.1019 13.0339 17.3298 13.0339 17.605H11.8339C11.8339 17.9863 12.1425 18.3019 12.5308 18.3019V17.1019ZM11.8339 17.605V17.7996H13.0339V17.605H11.8339ZM11.8339 17.7996C11.8339 18.1848 12.1456 18.4965 12.5308 18.4965V17.2965C12.8084 17.2965 13.0339 17.5221 13.0339 17.7996H11.8339ZM12.5308 18.4965H15.568V17.2965H12.5308V18.4965ZM15.568 18.4965C15.9532 18.4965 16.2649 18.1848 16.2649 17.7996H15.0649C15.0649 17.5221 15.2904 17.2965 15.568 17.2965V18.4965ZM16.2649 17.7996V17.605H15.0649V17.7996H16.2649ZM15.0649 17.605C15.0649 17.3298 15.2873 17.1019 15.568 17.1019V18.3019C15.9563 18.3019 16.2649 17.9863 16.2649 17.605H15.0649Z" fill="#FC7201" mask="url(#path-46-inside-9_152_434)"/>
</g>
<path opacity="0.98" d="M12.2785 16.001H9.24133" stroke="#FC7201" stroke-width="0.6"/>
<path d="M10.7599 11.6992V16.0834" stroke="#FC7201" stroke-width="0.6" stroke-miterlimit="10" stroke-linecap="round" stroke-linejoin="round"/>
<path d="M3.78021 9.99805V14.3822" stroke="#FC7201" stroke-width="0.6" stroke-miterlimit="10" stroke-linecap="round" stroke-linejoin="round"/>
<mask id="path-51-inside-10_152_434" fill="white">
<path d="M22.1469 21.1038H19.1097C19.0559 21.1038 19.0128 21.0599 19.0128 21.0068V21.2015C19.0128 21.2553 19.0567 21.2984 19.1097 21.2984H22.1469C22.2007 21.2984 22.2438 21.2545 22.2438 21.2015V21.0068C22.2446 21.0599 22.2007 21.1038 22.1469 21.1038Z"/>
</mask>
<path d="M22.1469 21.1038H19.1097C19.0559 21.1038 19.0128 21.0599 19.0128 21.0068V21.2015C19.0128 21.2553 19.0567 21.2984 19.1097 21.2984H22.1469C22.2007 21.2984 22.2438 21.2545 22.2438 21.2015V21.0068C22.2446 21.0599 22.2007 21.1038 22.1469 21.1038Z" fill="#D1E0E3"/>
<path d="M22.2438 21.0068L22.8437 20.9981L21.6438 21.0068H22.2438ZM22.1469 20.5038H19.1097V21.7038H22.1469V20.5038ZM19.1097 20.5038C19.3904 20.5038 19.6128 20.7316 19.6128 21.0068H18.4128C18.4128 21.3882 18.7214 21.7038 19.1097 21.7038V20.5038ZM18.4128 21.0068V21.2015H19.6128V21.0068H18.4128ZM18.4128 21.2015C18.4128 21.5898 18.7284 21.8984 19.1097 21.8984V20.6984C19.3849 20.6984 19.6128 20.9209 19.6128 21.2015H18.4128ZM19.1097 21.8984H22.1469V20.6984H19.1097V21.8984ZM22.1469 21.8984C22.5352 21.8984 22.8438 21.5828 22.8438 21.2015H21.6438C21.6438 20.9263 21.8663 20.6984 22.1469 20.6984V21.8984ZM22.8438 21.2015V21.0068H21.6438V21.2015H22.8438ZM21.6439 21.0155C21.6397 20.7256 21.8742 20.5038 22.1469 20.5038V21.7038C22.5272 21.7038 22.8495 21.3942 22.8437 20.9981L21.6439 21.0155Z" fill="#FC7201" mask="url(#path-51-inside-10_152_434)"/>
<mask id="path-53-inside-11_152_434" fill="white">
<path d="M25.4363 22.804H22.3992C22.3453 22.804 22.3022 22.7601 22.3022 22.707V22.9017C22.3022 22.9555 22.3461 22.9986 22.3992 22.9986H25.4363C25.4902 22.9986 25.5332 22.9547 25.5332 22.9017V22.707C25.534 22.7609 25.4902 22.804 25.4363 22.804Z"/>
</mask>
<path d="M25.4363 22.804H22.3992C22.3453 22.804 22.3022 22.7601 22.3022 22.707V22.9017C22.3022 22.9555 22.3461 22.9986 22.3992 22.9986H25.4363C25.4902 22.9986 25.5332 22.9547 25.5332 22.9017V22.707C25.534 22.7609 25.4902 22.804 25.4363 22.804Z" fill="#D1E0E3"/>
<path d="M25.5332 22.707L26.1332 22.6985L24.9332 22.707H25.5332ZM25.4363 22.204H22.3992V23.404H25.4363V22.204ZM22.3992 22.204C22.6798 22.204 22.9022 22.4319 22.9022 22.707H21.7022C21.7022 23.0884 22.0108 23.404 22.3992 23.404V22.204ZM21.7022 22.707V22.9017H22.9022V22.707H21.7022ZM21.7022 22.9017C21.7022 23.29 22.0178 23.5986 22.3992 23.5986V22.3986C22.6744 22.3986 22.9022 22.6211 22.9022 22.9017H21.7022ZM22.3992 23.5986H25.4363V22.3986H22.3992V23.5986ZM25.4363 23.5986C25.8246 23.5986 26.1332 23.283 26.1332 22.9017H24.9332C24.9332 22.6265 25.1557 22.3986 25.4363 22.3986V23.5986ZM26.1332 22.9017V22.707H24.9332V22.9017H26.1332ZM24.9333 22.7156C24.9291 22.4236 25.1668 22.204 25.4363 22.204V23.404C25.8136 23.404 26.1389 23.0982 26.1332 22.6985L24.9333 22.7156Z" fill="#FC7201" mask="url(#path-53-inside-11_152_434)"/>
<path d="M6.32964 14.5957H5.15033V22.8524H6.32964V14.5957Z" stroke="#FC7201" stroke-width="0.6" stroke-miterlimit="10"/>
</svg>
