<svg width="23" height="23" viewBox="0 0 23 23" fill="none" xmlns="http://www.w3.org/2000/svg">
<path d="M20.0423 1.93333L20.5071 2.58403L20.0423 1.93333ZM20.0423 1.93333H20.9435L21.1042 2.15838L21.1046 2.15887C21.451 2.64232 21.6251 3.22812 21.5988 3.82231C21.5725 4.4165 21.3475 4.98466 20.9597 5.43564L20.9586 5.43692C20.6864 5.75619 20.5255 6.15537 20.5003 6.57415C20.475 6.99294 20.5867 7.40858 20.8184 7.75828L20.819 7.75917L21.2574 8.41667H20.376L20.2094 8.16675C20.2092 8.16649 20.209 8.16624 20.2088 8.16599C19.8888 7.68274 19.7346 7.10851 19.7696 6.52995C19.8045 5.95123 20.0268 5.39959 20.4028 4.95831C20.6834 4.63156 20.8462 4.22011 20.8653 3.78982C20.8843 3.3593 20.7583 2.93487 20.5074 2.58452L20.0423 1.93333ZM16.5923 1.93333H17.4935L17.6542 2.15838L17.6546 2.15886C18.001 2.64232 18.1751 3.22812 18.1488 3.82231C18.1225 4.4165 17.8975 4.98466 17.5097 5.43565L17.5086 5.43692C17.2364 5.75619 17.0755 6.15537 17.0503 6.57415C17.025 6.99294 17.1367 7.40858 17.3684 7.75828L17.369 7.75917L17.8074 8.41667H16.926L16.7594 8.16675C16.7593 8.16659 16.7591 8.16644 16.759 8.16628C16.4389 7.68297 16.2846 7.10863 16.3196 6.52994C16.3545 5.9513 16.5767 5.39973 16.9527 4.95847C17.2333 4.6317 17.3962 4.22018 17.4153 3.78982C17.4343 3.35922 17.3083 2.93469 17.0573 2.5843C17.0572 2.58421 17.0571 2.58412 17.0571 2.58403L16.5923 1.93333ZM0.4 0.918525V0.4H0.918525L11.5347 11.0162L22.6 22.0815V22.6H22.0815L15.682 16.2005L15.5648 16.0833H15.3991H0.4V11.1333H9.64912H10.6148L9.93197 10.4505L0.4 0.918525ZM1.13333 14.95V15.35H1.53333H13.8658H14.8315L14.1486 14.6672L11.4653 11.9838L11.3481 11.8667H11.1825H1.53333H1.13333V12.2667V14.95ZM18.0333 14.215V11.1333H18.7667V14.9483L18.0333 14.215ZM20.7167 11.1333H21.45V16.0833H20.7167V11.1333Z" stroke="#FC7201" stroke-width="0.8"/>
</svg>
