<svg width="23" height="26" viewBox="0 0 23 26" fill="none" xmlns="http://www.w3.org/2000/svg">
<path d="M11.4335 13.1871L14.7478 9.87276C13.981 9.10596 12.9719 8.62878 11.8927 8.52255C10.8134 8.41632 9.73067 8.68759 8.82899 9.29016C7.92732 9.89272 7.26247 10.7893 6.94773 11.8271C6.63299 12.8649 6.68783 13.9797 7.10291 14.9816C7.51799 15.9835 8.26763 16.8105 9.2241 17.3217C10.1806 17.8328 11.2847 17.9965 12.3483 17.7849C13.4119 17.5732 14.3693 16.9993 15.0572 16.1609C15.7451 15.3226 16.1211 14.2716 16.121 13.1871" stroke="#FC7201" stroke-linecap="round" stroke-linejoin="round"/>
<path d="M11.4335 25.3748C17.0854 23.4266 21.1141 18.8979 21.746 13.1316C21.9214 10.6285 21.9065 8.11565 21.7016 5.61476C21.6745 5.22056 21.5015 4.85061 21.2163 4.57716C20.931 4.30372 20.5541 4.14643 20.1591 4.13601C17.6022 4.05726 14.6304 3.63101 12.3341 1.36913C12.0942 1.1326 11.7707 1 11.4338 1C11.0969 1 10.7735 1.1326 10.5335 1.36913C8.23661 3.63101 5.26474 4.05726 2.70849 4.13601C2.3135 4.14643 1.93658 4.30372 1.65135 4.57716C1.36612 4.85061 1.19307 5.22056 1.16599 5.61476C0.960877 8.11564 0.945833 10.6285 1.12099 13.1316C1.75287 18.8979 5.78162 23.4266 11.4335 25.3748Z" stroke="#FC7201" stroke-linecap="round" stroke-linejoin="round"/>
</svg>
