<svg width="21" height="22" viewBox="0 0 21 22" fill="none" xmlns="http://www.w3.org/2000/svg">
<path fill-rule="evenodd" clip-rule="evenodd" d="M20.0001 15.5999C20.0002 16.2124 19.878 16.8189 19.6406 17.3836C19.4032 17.9483 19.0554 18.4599 18.6176 18.8884C18.1798 19.3169 17.6609 19.6536 17.0912 19.8788C16.5215 20.104 15.9125 20.2132 15.3001 20.1999H5.5001C4.29752 20.1737 3.15302 19.6775 2.31186 18.8177C1.4707 17.9578 0.999813 16.8027 1.0001 15.5999V5.79985C1.0001 4.57986 1.48474 3.40983 2.34741 2.54716C3.21007 1.68449 4.3801 1.19985 5.6001 1.19985H15.4001C16.0042 1.19985 16.6023 1.31883 17.1604 1.55001C17.7185 1.78118 18.2256 2.12001 18.6528 2.54716C19.0799 2.97431 19.4188 3.48141 19.6499 4.03951C19.8811 4.59761 20.0001 5.19577 20.0001 5.79985V15.5999ZM15.3001 0.399852H5.5001C4.06793 0.399852 2.69442 0.968779 1.68172 1.98148C0.669025 2.99417 0.100098 4.36768 0.100098 5.79985V15.5999C0.100098 17.032 0.669025 18.4055 1.68172 19.4182C2.69442 20.4309 4.06793 20.9999 5.5001 20.9999H15.3001C16.0176 21.0131 16.7306 20.8833 17.3973 20.6179C18.0641 20.3524 18.6712 19.9568 19.1833 19.454C19.6954 18.9513 20.1021 18.3515 20.3797 17.6897C20.6573 17.0279 20.8002 16.3175 20.8001 15.5999V5.79985C20.8002 5.08222 20.6573 4.37176 20.3797 3.71C20.1021 3.04824 19.6954 2.44845 19.1833 1.94568C18.6712 1.44291 18.0641 1.04726 17.3973 0.781841C16.7306 0.516422 16.0176 0.386562 15.3001 0.399852Z" fill="#FC7201"/>
<path fill-rule="evenodd" clip-rule="evenodd" d="M11.7 11.4H8.10005V7.2H11.7C12.9 7.2 13.8 8.2 13.8 9.3C13.8007 9.84005 13.5932 10.3596 13.2207 10.7507C12.8483 11.1417 12.3395 11.3743 11.8 11.4M11.8 6H7.40005C7.24092 6 7.08831 6.06321 6.97578 6.17574C6.86326 6.28826 6.80005 6.44087 6.80005 6.6V15.3C6.80005 15.3788 6.81557 15.4568 6.84572 15.5296C6.87587 15.6024 6.92007 15.6685 6.97578 15.7243C7.0315 15.78 7.09764 15.8242 7.17044 15.8543C7.24323 15.8845 7.32126 15.9 7.40005 15.9C7.47884 15.9 7.55686 15.8845 7.62966 15.8543C7.70245 15.8242 7.7686 15.78 7.82431 15.7243C7.88003 15.6685 7.92422 15.6024 7.95438 15.5296C7.98453 15.4568 8.00005 15.3788 8.00005 15.3V12.6H11.6C12.0418 12.6134 12.4816 12.5379 12.8936 12.3781C13.3056 12.2183 13.6813 11.9773 13.9984 11.6695C14.3155 11.3618 14.5676 10.9934 14.7396 10.5864C14.9117 10.1794 15.0003 9.74191 15 9.3C15 8.86664 14.9147 8.43752 14.7489 8.03714C14.583 7.63677 14.3399 7.27298 14.0335 6.96655C13.7271 6.66011 13.3633 6.41704 12.9629 6.2512C12.5625 6.08536 12.1334 6 11.7 6" fill="#FC7201"/>
<path fill-rule="evenodd" clip-rule="evenodd" d="M17.0002 15.2997C17.0146 15.5661 16.9728 15.8326 16.8774 16.0818C16.782 16.331 16.6352 16.5573 16.4465 16.746C16.2578 16.9347 16.0315 17.0815 15.7823 17.1769C15.5331 17.2723 15.2666 17.3141 15.0002 17.2997H5.9002C5.63376 17.3141 5.36727 17.2723 5.11808 17.1769C4.86889 17.0815 4.64259 16.9347 4.45391 16.746C4.26523 16.5573 4.11841 16.331 4.02301 16.0818C3.92761 15.8326 3.88576 15.5661 3.9002 15.2997V5.99971C3.89984 5.74156 3.95209 5.48604 4.05377 5.24875C4.15544 5.01146 4.30441 4.79738 4.49157 4.61958C4.67873 4.44178 4.90016 4.30398 5.14235 4.2146C5.38454 4.12521 5.6424 4.08612 5.9002 4.09971H15.0002C15.2583 4.09935 15.5139 4.15161 15.7512 4.25328C15.9884 4.35496 16.2025 4.50392 16.3803 4.69109C16.5581 4.87825 16.6959 5.09968 16.7853 5.34187C16.8747 5.58405 16.9138 5.84191 16.9002 6.09971V15.2997H17.0002ZM15.0002 2.99971H5.9002C5.49305 2.98637 5.08726 3.0534 4.70603 3.19698C4.3248 3.34056 3.97561 3.55787 3.67842 3.83648C3.38123 4.1151 3.14186 4.44956 2.97401 4.82074C2.80616 5.19192 2.71312 5.59255 2.7002 5.99971V15.2997C2.69978 16.1048 3.01262 16.8786 3.57253 17.4571C4.13244 18.0357 4.89548 18.3737 5.7002 18.3997H15.1002C15.8879 18.3747 16.6365 18.0506 17.1938 17.4933C17.7511 16.936 18.0752 16.1874 18.1002 15.3997V5.99971C18.0752 5.212 17.7511 4.46339 17.1938 3.90612C16.6365 3.34884 15.8879 3.02474 15.1002 2.99971H15.0002Z" fill="#FC7201"/>
</svg>
