<svg width="26" height="26" viewBox="0 0 26 26" fill="none" xmlns="http://www.w3.org/2000/svg">
<path d="M9.17024 1.9514C9.38048 2.03471 9.50286 2.12609 9.62838 2.29541L9.73507 2.43516L9.7539 3.33819C9.77586 4.29496 9.78528 4.3514 9.94845 4.60134C10.0646 4.77335 10.3407 4.99104 10.5447 5.07167C11.1848 5.31893 11.3354 5.40493 11.5551 5.64143C11.6335 5.72744 11.7402 5.87256 11.7904 5.96125C11.9002 6.16282 12.0006 6.54983 11.9536 6.59821C11.9065 6.6439 5.7813 6.64121 5.72796 6.59552C5.70285 6.57402 5.70285 6.53639 5.72796 6.45039C5.74678 6.38589 5.77189 6.29183 5.78444 6.24076C5.83151 6.02844 6.04175 5.714 6.26768 5.51243C6.42144 5.37805 6.75719 5.19798 6.96743 5.13886C7.37222 5.02867 7.68601 4.75991 7.84918 4.38634C7.90881 4.25196 7.91508 4.16327 7.93077 3.33819C7.94646 2.4701 7.9496 2.43516 8.01863 2.32497C8.2477 1.95678 8.76545 1.78746 9.17024 1.9514ZM12.8259 7.46898C13.0613 7.53348 13.306 7.73236 13.3876 7.92318C13.4441 8.05218 13.4535 8.13281 13.4535 8.56282C13.4535 8.83158 13.4472 9.06002 13.4378 9.0654C13.4315 9.07346 13.2935 9.06271 13.1334 9.04658C12.7537 9.00358 4.99996 8.99552 4.62027 9.03583C4.48221 9.05196 4.341 9.06809 4.30648 9.07077C4.24686 9.07615 4.24373 9.06002 4.24373 8.53863C4.24373 8.02531 4.24686 7.99574 4.31903 7.88018C4.4069 7.73505 4.55438 7.5953 4.68303 7.53617C4.93093 7.42598 4.87131 7.42598 8.8439 7.42598C12.3489 7.42329 12.6753 7.42598 12.8259 7.46898ZM13.1711 9.85554C13.8489 9.98723 14.3855 10.2372 14.8499 10.6403C15.2672 11.0004 15.5339 11.4251 15.7002 11.9922C15.7599 12.2018 15.8069 13.7256 15.7504 13.7095C15.7348 13.7041 15.6343 13.5886 15.5308 13.4569C14.8907 12.6399 14.103 12.2233 13.1209 12.1884C12.3646 12.1588 11.7559 12.3442 11.1565 12.7823C10.6639 13.1424 10.303 13.7471 10.2591 14.29C10.1869 15.1151 10.438 15.6929 11.1157 16.2815C11.4641 16.5825 11.8281 16.8029 12.2266 16.9507C12.5968 17.0905 12.7694 17.1335 13.2464 17.206C13.7641 17.2867 14.216 17.4426 14.5988 17.6764C14.7024 17.7409 14.8216 17.8215 14.8624 17.8618L14.9377 17.9317L13.2621 19.3669C11.4044 20.9606 11.4358 20.931 11.4327 21.2643C11.4295 21.5572 11.5143 21.6755 12.076 22.1512C12.4933 22.5059 12.5874 22.5704 12.8071 22.6618C13.3091 22.8741 13.7547 22.9037 14.2442 22.7613C14.5863 22.6618 14.7651 22.5516 15.195 22.1807C15.4021 22.0007 15.5873 21.8555 15.6092 21.8555C15.6312 21.8555 15.6751 21.8824 15.7128 21.9147C15.7724 21.9684 15.7755 22.006 15.7755 22.4844C15.7755 22.8284 15.7599 23.0434 15.7316 23.1321C15.6312 23.4546 15.3708 23.753 15.0632 23.89C14.6647 24.0701 15.0162 24.062 8.74663 24.054L3.0827 24.0459L2.88187 23.9868C2.61829 23.9088 2.37981 23.7664 2.22605 23.5944C2.05346 23.3982 2.00326 23.3068 1.94991 23.073C1.89029 22.8069 1.88715 21.7346 1.94364 21.7024C1.9656 21.6916 2.50846 21.6809 3.14859 21.6782C4.2249 21.6755 4.32531 21.6701 4.43514 21.6244C4.75207 21.49 4.75834 21.0815 4.44769 20.9391C4.34728 20.8907 4.25 20.888 3.14232 20.888C2.07857 20.888 1.9405 20.8826 1.92481 20.845C1.9154 20.8208 1.90598 20.4795 1.90598 20.0817C1.90598 19.5227 1.9154 19.3561 1.94677 19.3346C1.97502 19.3131 2.38294 19.3024 3.18311 19.297C4.33472 19.2889 4.38493 19.2862 4.46652 19.2325C4.62027 19.1357 4.67989 19.0443 4.67989 18.9019C4.67989 18.7514 4.57007 18.5982 4.42259 18.5418C4.36297 18.5203 3.96131 18.5068 3.12977 18.4961L1.92167 18.4826L1.91226 17.7328C1.90912 17.249 1.9154 16.9722 1.93736 16.9534C1.95619 16.9373 2.3955 16.9265 3.15173 16.9239C4.27824 16.9239 4.34414 16.9212 4.44455 16.8701C4.60772 16.7868 4.67676 16.69 4.67989 16.5368C4.68303 16.3917 4.62655 16.3003 4.46652 16.2009C4.38493 16.1471 4.33786 16.1445 3.16742 16.1364C2.25743 16.131 1.94991 16.1203 1.93109 16.0961C1.90284 16.0585 1.89657 14.6502 1.92481 14.5884C1.9405 14.5507 2.07857 14.5454 3.14232 14.5454C4.46024 14.5427 4.45083 14.5427 4.60772 14.3733C4.70814 14.2632 4.70814 14.0535 4.60772 13.9326C4.46024 13.7552 4.46338 13.7552 3.16115 13.7525C2.5116 13.7498 1.9656 13.7391 1.94364 13.7283C1.88715 13.6988 1.89343 12.5377 1.95305 12.1991C2.1476 11.0864 3.0168 10.2318 4.2751 9.90661C4.52614 9.84211 4.62341 9.83135 5.1851 9.81792C5.53027 9.80985 7.41615 9.80448 9.37421 9.80448C12.6094 9.80985 12.9577 9.81254 13.1711 9.85554ZM13.5633 13.0511C13.8991 13.1424 14.1438 13.2849 14.4451 13.559C14.853 13.9353 15.0632 14.3035 15.1762 14.8356C15.2672 15.271 15.377 15.5693 15.5716 15.9053C15.7222 16.1713 15.9921 16.5153 16.1803 16.6873C16.218 16.7196 16.2462 16.7572 16.2462 16.7733C16.2462 16.8163 15.6406 17.3135 15.5873 17.3135C15.559 17.3135 15.5088 17.2894 15.4743 17.2571C15.3613 17.1496 14.9001 16.8835 14.6239 16.7626C14.2788 16.6148 13.8708 16.4992 13.5006 16.4401C12.6439 16.3057 12.2172 16.123 11.7245 15.6795C11.3291 15.3247 11.1628 14.9888 11.1628 14.5454C11.1628 14.1153 11.3417 13.7552 11.7088 13.4354C12.2046 13.0054 12.8855 12.8656 13.5633 13.0511ZM21.2794 14.3707C21.6529 14.6932 21.7501 14.8437 21.7501 15.1097C21.7533 15.4672 21.9855 15.2468 17.9031 18.7487C13.8771 22.2049 14.1219 22.0114 13.7045 22.0356C13.3594 22.0571 13.2025 21.9872 12.76 21.619C12.5529 21.4497 12.3866 21.2938 12.3866 21.275C12.3866 21.2562 14.285 19.6114 16.6071 17.6199L20.8244 13.9971L20.8966 14.0508C20.9374 14.0777 21.1069 14.2228 21.2794 14.3707ZM21.0912 17.5635C21.3045 17.7785 21.3453 17.9075 21.2481 18.0741C21.1884 18.1763 17.2755 21.5465 17.15 21.6029C17.0339 21.654 16.7797 21.6513 16.6855 21.5975C16.5475 21.5169 16.309 21.3073 16.309 21.2643C16.309 21.2428 17.3225 20.3559 18.5652 19.2916C20.6048 17.5447 20.8244 17.3646 20.8841 17.3915C20.9186 17.4076 21.0127 17.4856 21.0912 17.5635ZM21.1884 20.1221C21.8003 20.2591 22.2051 20.7106 22.2083 21.2589C22.2083 21.74 21.9353 22.1189 21.4363 22.3178C20.7523 22.5919 19.9396 22.3554 19.6101 21.7884C19.3465 21.3342 19.4344 20.8396 19.8391 20.4634C20.1874 20.1382 20.6927 20.0119 21.1884 20.1221Z" stroke="#FC7201" stroke-width="0.6"/>
</svg>
