<svg width="22" height="25" viewBox="0 0 22 25" fill="none" xmlns="http://www.w3.org/2000/svg">
<path d="M21.098 10.9282L19.36 10.3183V4.16667C19.36 3.79831 19.2209 3.44504 18.9734 3.18457C18.7258 2.92411 18.3901 2.77778 18.04 2.77778H11.44V0.462963C11.44 0.340178 11.3936 0.222421 11.3111 0.135599C11.2286 0.0487764 11.1167 0 11 0C10.8833 0 10.7714 0.0487764 10.6889 0.135599C10.6064 0.222421 10.56 0.340178 10.56 0.462963V2.77778H3.96C3.60992 2.77778 3.27417 2.92411 3.02662 3.18457C2.77907 3.44504 2.64 3.79831 2.64 4.16667V10.3183L0.902003 10.9282C0.639001 11.0206 0.410326 11.1978 0.24842 11.4346C0.0865133 11.6715 -0.000402577 11.9559 3.00232e-06 12.2477V16.2141C-0.000148103 16.2572 0.00540533 16.3 0.016503 16.3414C1.6786 22.4687 9.2092 24.5984 10.7019 24.9641C10.898 25.012 11.102 25.012 11.2981 24.9641C12.7908 24.5984 20.3181 22.4687 21.9835 16.3414C21.9946 16.3 22.0001 16.2572 22 16.2141V12.2477C22.0004 11.9559 21.9135 11.6715 21.7516 11.4346C21.5897 11.1978 21.361 11.0206 21.098 10.9282ZM3.52 4.16667C3.52 4.04388 3.56636 3.92612 3.64887 3.8393C3.73139 3.75248 3.84331 3.7037 3.96 3.7037H18.04C18.1567 3.7037 18.2686 3.75248 18.3511 3.8393C18.4336 3.92612 18.48 4.04388 18.48 4.16667V10.0093L11.1397 7.43171C11.049 7.39977 10.951 7.39977 10.8603 7.43171L3.52 10.0093V4.16667ZM21.12 16.1493C20.46 18.4942 18.7616 20.4815 16.06 22.0521C14.4968 22.9454 12.8294 23.6201 11.1001 24.059C11.035 24.0752 10.9672 24.0752 10.9021 24.059C9.17215 23.621 7.504 22.9471 5.94 22.0544C3.2384 20.4861 1.54 18.4942 0.880003 16.1493V12.2477C0.879454 12.1499 0.908318 12.0545 0.962459 11.9751C1.0166 11.8957 1.09324 11.8363 1.1814 11.8056L10.56 8.51273V17.1296C10.56 17.2524 10.6064 17.3702 10.6889 17.457C10.7714 17.5438 10.8833 17.5926 11 17.5926C11.1167 17.5926 11.2286 17.5438 11.3111 17.457C11.3936 17.3702 11.44 17.2524 11.44 17.1296V8.51273L20.8186 11.8056C20.9066 11.8363 20.9831 11.8955 21.0372 11.9746C21.0913 12.0538 21.1203 12.149 21.12 12.2465V16.1493Z" fill="#FC7201"/>
</svg>
