<svg width="25" height="22" viewBox="0 0 25 22" fill="none" xmlns="http://www.w3.org/2000/svg">
<path d="M24.6101 21.5028C24.6101 21.6347 24.5578 21.7611 24.4645 21.8544C24.3713 21.9476 24.2448 22 24.113 22C22.9943 22 22.4972 21.3785 22.1243 21.0057C21.6271 20.5085 21.3785 20.2599 20.7571 20.2599C20.1356 20.2599 19.7627 20.5085 19.3899 21.0057C18.8927 21.3785 18.3955 22 17.4012 22C16.2826 22 15.7854 21.3785 15.2882 21.0057C14.9153 20.5085 14.6668 20.2599 14.0453 20.2599C13.2995 20.2599 13.051 20.5085 12.6781 21.0057C12.1809 21.3785 11.6837 22 10.5651 22C9.57077 22 9.0736 21.3785 8.57643 21.0057C8.20355 20.5085 7.83067 20.2599 7.3335 20.2599C6.58775 20.2599 6.33916 20.5085 5.96629 21.0057C5.46912 21.3785 4.97195 22 3.85332 22C2.85898 22 2.36181 21.3785 1.86464 21.0057C1.49176 20.5085 1.11888 20.2599 0.621715 20.2599C0.489857 20.2599 0.3634 20.2075 0.270163 20.1143C0.176925 20.0211 0.124545 19.8946 0.124545 19.7627C0.124545 19.6309 0.176925 19.5044 0.270163 19.4112C0.3634 19.3179 0.489857 19.2656 0.621715 19.2656C1.61605 19.2656 2.11322 19.887 2.4861 20.2599C2.98327 20.7571 3.23185 21.0057 3.85332 21.0057C4.47478 21.0057 4.84766 20.7571 5.22053 20.2599C5.7177 19.887 6.21487 19.2656 7.20921 19.2656C8.20355 19.2656 8.82501 19.887 9.32218 20.2599C9.69506 20.7571 9.94364 21.0057 10.5651 21.0057C11.1866 21.0057 11.5594 20.7571 11.9323 20.2599C12.4295 19.887 12.9267 19.2656 13.921 19.2656C15.0396 19.2656 15.5368 19.887 16.034 20.2599C16.4068 20.7571 16.6554 21.0057 17.2769 21.0057C18.0226 21.0057 18.2712 20.7571 18.6441 20.2599C19.1413 19.887 19.6384 19.2656 20.7571 19.2656C21.8757 19.2656 22.2486 19.887 22.7458 20.2599C23.1186 20.7571 23.4915 21.0057 23.9887 21.0057C24.3616 21.0057 24.6101 21.2542 24.6101 21.5028ZM0.000252828 17.1526C0.000252828 16.904 0.248838 16.7797 0.497422 16.7797C1.61605 16.7797 2.11322 17.2769 2.4861 17.7741C2.98327 18.1469 3.23185 18.5198 3.85332 18.5198C4.47478 18.5198 4.84766 18.1469 5.22053 17.7741C5.7177 17.2769 6.21487 16.7797 7.20921 16.7797C8.20355 16.7797 8.82501 17.2769 9.32218 17.7741C9.69506 18.1469 9.94364 18.5198 10.5651 18.5198C11.1866 18.5198 11.5594 18.1469 11.9323 17.7741C12.4295 17.2769 12.9267 16.7797 13.921 16.7797C15.0396 16.7797 15.5368 17.2769 16.034 17.7741C16.4068 18.1469 16.6554 18.5198 17.2769 18.5198C18.0226 18.5198 18.2712 18.1469 18.6441 17.7741C19.1413 17.2769 19.6384 16.7797 20.7571 16.7797C21.8757 16.7797 22.2486 17.2769 22.7458 17.7741C23.1186 18.1469 23.4915 18.5198 23.9887 18.5198C24.0664 18.5628 24.1312 18.6258 24.1763 18.7023C24.2214 18.7788 24.2452 18.866 24.2452 18.9548C24.2452 19.0436 24.2214 19.1308 24.1763 19.2073C24.1312 19.2838 24.0664 19.3469 23.9887 19.3899C22.9943 19.3899 22.4972 18.8927 22.1243 18.3955C21.6271 18.0226 21.3785 17.6498 20.7571 17.6498C20.1356 17.6498 19.7627 18.0226 19.3899 18.3955C18.8927 18.8927 18.3955 19.3899 17.4012 19.3899C16.2826 19.3899 15.7854 18.8927 15.2882 18.3955C14.9153 18.0226 14.6668 17.6498 14.0453 17.6498C13.2995 17.6498 13.051 18.0226 12.6781 18.3955C12.1809 18.8927 11.6837 19.3899 10.5651 19.3899C9.57077 19.3899 9.0736 18.8927 8.57643 18.3955C8.20355 18.0226 7.83067 17.6498 7.3335 17.6498C6.58775 17.6498 6.33916 18.0226 5.96629 18.3955C5.46912 18.8927 4.97195 19.3899 3.85332 19.3899C2.85898 19.3899 2.36181 18.8927 1.86464 18.3955C1.49176 18.0226 1.11888 17.6498 0.621715 17.6498C0.54694 17.6691 0.468685 17.6708 0.393156 17.6546C0.317628 17.6385 0.246903 17.6049 0.18659 17.5567C0.126278 17.5084 0.0780363 17.4468 0.045692 17.3766C0.0133477 17.3065 -0.00220995 17.2298 0.000252828 17.1526ZM11.0623 2.3618L11.3109 4.47477H6.33916C6.26025 3.77316 6.21876 3.06783 6.21487 2.3618H11.0623ZM5.7177 15.5368C5.82709 15.5086 5.92362 15.444 5.99139 15.3537C6.05917 15.2633 6.09415 15.1525 6.09058 15.0396V13.4238H7.3335C7.46536 13.4238 7.59182 13.3714 7.68506 13.2782C7.77829 13.185 7.83067 13.0585 7.83067 12.9267C7.83067 12.7948 7.77829 12.6683 7.68506 12.5751C7.59182 12.4819 7.46536 12.4295 7.3335 12.4295H6.09058V7.08492C7.08492 10.0679 8.9493 13.2995 12.5538 15.5368C12.6109 15.5694 12.6739 15.5905 12.7392 15.5988C12.8045 15.6071 12.8707 15.6025 12.9342 15.5852C12.9977 15.5678 13.0571 15.5382 13.1091 15.4979C13.1612 15.4576 13.2047 15.4075 13.2374 15.3504C13.27 15.2932 13.2911 15.2302 13.2994 15.165C13.3077 15.0997 13.3031 15.0334 13.2858 14.9699C13.2684 14.9065 13.2388 14.847 13.1985 14.795C13.1582 14.743 13.1081 14.6994 13.051 14.6667C9.19789 12.3052 7.3335 8.45213 6.71204 5.46911H11.6837C12.5538 8.70072 14.4182 12.9267 18.7684 15.4125C18.8315 15.4547 18.9033 15.4819 18.9785 15.4921C19.0537 15.5022 19.1302 15.495 19.2022 15.471C19.2742 15.447 19.3397 15.4069 19.3938 15.3537C19.4479 15.3004 19.489 15.2355 19.5142 15.1639C19.5575 15.048 19.5561 14.92 19.5101 14.8051C19.4641 14.6902 19.3769 14.5965 19.2656 14.5425C11.808 10.1922 12.0566 0.870295 12.0566 0.870295C12.0566 0.738438 12.0042 0.611981 11.911 0.518744C11.8178 0.425506 11.6913 0.373126 11.5594 0.373126C11.3109 0.373126 11.0623 0.497418 11.0623 0.746003V1.61605H6.21487V0.497418C6.21487 0.432129 6.20201 0.367479 6.17703 0.30716C6.15204 0.24684 6.11542 0.192033 6.06925 0.145866C6.02309 0.0996999 5.96828 0.0630787 5.90796 0.0380935C5.84764 0.0131084 5.78299 0.000248833 5.7177 0.000248833C5.6048 -0.00332353 5.49405 0.0316582 5.40368 0.099434C5.31331 0.16721 5.24872 0.263739 5.22053 0.373126C5.19948 0.454651 5.19948 0.540186 5.22053 0.621711V14.9153C5.22053 15.1639 5.46912 15.4125 5.7177 15.4125V15.5368Z" fill="#FC7201"/>
<mask id="mask0_114_292" style="mask-type:luminance" maskUnits="userSpaceOnUse" x="0" y="0" width="25" height="22">
<path d="M24.6101 21.5028C24.6101 21.6347 24.5578 21.7611 24.4645 21.8544C24.3713 21.9476 24.2448 22 24.113 22C22.9943 22 22.4972 21.3785 22.1243 21.0057C21.6271 20.5085 21.3785 20.2599 20.7571 20.2599C20.1356 20.2599 19.7627 20.5085 19.3899 21.0057C18.8927 21.3785 18.3955 22 17.4012 22C16.2826 22 15.7854 21.3785 15.2882 21.0057C14.9153 20.5085 14.6668 20.2599 14.0453 20.2599C13.2995 20.2599 13.051 20.5085 12.6781 21.0057C12.1809 21.3785 11.6837 22 10.5651 22C9.57077 22 9.0736 21.3785 8.57643 21.0057C8.20355 20.5085 7.83067 20.2599 7.3335 20.2599C6.58775 20.2599 6.33916 20.5085 5.96629 21.0057C5.46912 21.3785 4.97195 22 3.85332 22C2.85898 22 2.36181 21.3785 1.86464 21.0057C1.49176 20.5085 1.11888 20.2599 0.621715 20.2599C0.489857 20.2599 0.3634 20.2075 0.270163 20.1143C0.176925 20.0211 0.124545 19.8946 0.124545 19.7627C0.124545 19.6309 0.176925 19.5044 0.270163 19.4112C0.3634 19.3179 0.489857 19.2656 0.621715 19.2656C1.61605 19.2656 2.11322 19.887 2.4861 20.2599C2.98327 20.7571 3.23185 21.0057 3.85332 21.0057C4.47478 21.0057 4.84766 20.7571 5.22053 20.2599C5.7177 19.887 6.21487 19.2656 7.20921 19.2656C8.20355 19.2656 8.82501 19.887 9.32218 20.2599C9.69506 20.7571 9.94364 21.0057 10.5651 21.0057C11.1866 21.0057 11.5594 20.7571 11.9323 20.2599C12.4295 19.887 12.9267 19.2656 13.921 19.2656C15.0396 19.2656 15.5368 19.887 16.034 20.2599C16.4068 20.7571 16.6554 21.0057 17.2769 21.0057C18.0226 21.0057 18.2712 20.7571 18.6441 20.2599C19.1413 19.887 19.6384 19.2656 20.7571 19.2656C21.8757 19.2656 22.2486 19.887 22.7458 20.2599C23.1186 20.7571 23.4915 21.0057 23.9887 21.0057C24.3616 21.0057 24.6101 21.2542 24.6101 21.5028ZM0.000252828 17.1526C0.000252828 16.904 0.248838 16.7797 0.497422 16.7797C1.61605 16.7797 2.11322 17.2769 2.4861 17.7741C2.98327 18.1469 3.23185 18.5198 3.85332 18.5198C4.47478 18.5198 4.84766 18.1469 5.22053 17.7741C5.7177 17.2769 6.21487 16.7797 7.20921 16.7797C8.20355 16.7797 8.82501 17.2769 9.32218 17.7741C9.69506 18.1469 9.94364 18.5198 10.5651 18.5198C11.1866 18.5198 11.5594 18.1469 11.9323 17.7741C12.4295 17.2769 12.9267 16.7797 13.921 16.7797C15.0396 16.7797 15.5368 17.2769 16.034 17.7741C16.4068 18.1469 16.6554 18.5198 17.2769 18.5198C18.0226 18.5198 18.2712 18.1469 18.6441 17.7741C19.1413 17.2769 19.6384 16.7797 20.7571 16.7797C21.8757 16.7797 22.2486 17.2769 22.7458 17.7741C23.1186 18.1469 23.4915 18.5198 23.9887 18.5198C24.0664 18.5628 24.1312 18.6258 24.1763 18.7023C24.2214 18.7788 24.2452 18.866 24.2452 18.9548C24.2452 19.0436 24.2214 19.1308 24.1763 19.2073C24.1312 19.2838 24.0664 19.3469 23.9887 19.3899C22.9943 19.3899 22.4972 18.8927 22.1243 18.3955C21.6271 18.0226 21.3785 17.6498 20.7571 17.6498C20.1356 17.6498 19.7627 18.0226 19.3899 18.3955C18.8927 18.8927 18.3955 19.3899 17.4012 19.3899C16.2826 19.3899 15.7854 18.8927 15.2882 18.3955C14.9153 18.0226 14.6668 17.6498 14.0453 17.6498C13.2995 17.6498 13.051 18.0226 12.6781 18.3955C12.1809 18.8927 11.6837 19.3899 10.5651 19.3899C9.57077 19.3899 9.0736 18.8927 8.57643 18.3955C8.20355 18.0226 7.83067 17.6498 7.3335 17.6498C6.58775 17.6498 6.33916 18.0226 5.96629 18.3955C5.46912 18.8927 4.97195 19.3899 3.85332 19.3899C2.85898 19.3899 2.36181 18.8927 1.86464 18.3955C1.49176 18.0226 1.11888 17.6498 0.621715 17.6498C0.54694 17.6691 0.468685 17.6708 0.393156 17.6546C0.317628 17.6385 0.246903 17.6049 0.18659 17.5567C0.126278 17.5084 0.0780363 17.4468 0.045692 17.3766C0.0133477 17.3065 -0.00220995 17.2298 0.000252828 17.1526ZM11.0623 2.3618L11.3109 4.47477H6.33916C6.26025 3.77316 6.21876 3.06783 6.21487 2.3618H11.0623ZM5.7177 15.5368C5.82709 15.5086 5.92362 15.444 5.99139 15.3537C6.05917 15.2633 6.09415 15.1525 6.09058 15.0396V13.4238H7.3335C7.46536 13.4238 7.59182 13.3714 7.68506 13.2782C7.77829 13.185 7.83067 13.0585 7.83067 12.9267C7.83067 12.7948 7.77829 12.6683 7.68506 12.5751C7.59182 12.4819 7.46536 12.4295 7.3335 12.4295H6.09058V7.08492C7.08492 10.0679 8.9493 13.2995 12.5538 15.5368C12.6109 15.5694 12.6739 15.5905 12.7392 15.5988C12.8045 15.6071 12.8707 15.6025 12.9342 15.5852C12.9977 15.5678 13.0571 15.5382 13.1091 15.4979C13.1612 15.4576 13.2047 15.4075 13.2374 15.3504C13.27 15.2932 13.2911 15.2302 13.2994 15.165C13.3077 15.0997 13.3031 15.0334 13.2858 14.9699C13.2684 14.9065 13.2388 14.847 13.1985 14.795C13.1582 14.743 13.1081 14.6994 13.051 14.6667C9.19789 12.3052 7.3335 8.45213 6.71204 5.46911H11.6837C12.5538 8.70072 14.4182 12.9267 18.7684 15.4125C18.8315 15.4547 18.9033 15.4819 18.9785 15.4921C19.0537 15.5022 19.1302 15.495 19.2022 15.471C19.2742 15.447 19.3397 15.4069 19.3938 15.3537C19.4479 15.3004 19.489 15.2355 19.5142 15.1639C19.5575 15.048 19.5561 14.92 19.5101 14.8051C19.4641 14.6902 19.3769 14.5965 19.2656 14.5425C11.808 10.1922 12.0566 0.870295 12.0566 0.870295C12.0566 0.738438 12.0042 0.611981 11.911 0.518744C11.8178 0.425506 11.6913 0.373126 11.5594 0.373126C11.3109 0.373126 11.0623 0.497418 11.0623 0.746003V1.61605H6.21487V0.497418C6.21487 0.432129 6.20201 0.367479 6.17703 0.30716C6.15204 0.24684 6.11542 0.192033 6.06925 0.145866C6.02309 0.0996999 5.96828 0.0630787 5.90796 0.0380935C5.84764 0.0131084 5.78299 0.000248833 5.7177 0.000248833C5.6048 -0.00332353 5.49405 0.0316582 5.40368 0.099434C5.31331 0.16721 5.24872 0.263739 5.22053 0.373126C5.19948 0.454651 5.19948 0.540186 5.22053 0.621711V14.9153C5.22053 15.1639 5.46912 15.4125 5.7177 15.4125V15.5368Z" fill="#292F37"/>
</mask>
<g mask="url(#mask0_114_292)">
<path fill-rule="evenodd" clip-rule="evenodd" d="M-1.98853 -3.23096H26.5987V25.3563H-1.98853V-3.23096Z" fill="#FC7201"/>
</g>
</svg>
