<svg width="20" height="26" viewBox="0 0 20 26" fill="none" xmlns="http://www.w3.org/2000/svg">
<path d="M4.18213 7.12881H15.6143M13.0214 4.65381H15.6143M4.06427 4.65381H4.88927" stroke="#FC7201" stroke-width="0.88" stroke-linecap="round" stroke-linejoin="round"/>
<path fill-rule="evenodd" clip-rule="evenodd" d="M17.0286 22.9214H2.88571C1.825 22.9214 1 21.9786 1 20.9179V2.88571C1 1.70714 1.825 1 2.88571 1H17.0286C17.9714 1 18.7964 1.825 18.7964 2.88571V20.9179C18.7964 22.0964 17.9714 22.9214 16.9107 22.9214H17.0286Z" stroke="#FC7201" stroke-width="1.32" stroke-linecap="round" stroke-linejoin="round"/>
<path d="M16.4393 22.8037V24.6894M3.47498 24.6894V22.8037" stroke="#FC7201" stroke-width="0.88" stroke-linecap="round" stroke-linejoin="round"/>
<path fill-rule="evenodd" clip-rule="evenodd" d="M13.7286 13.8467C13.827 14.4059 13.8018 14.9799 13.6548 15.5284C13.5077 16.0769 13.2423 16.5865 12.8773 17.0215C12.5122 17.4564 12.0563 17.8062 11.5417 18.0461C11.027 18.2861 10.466 18.4104 9.8982 18.4104C9.33035 18.4104 8.76938 18.2861 8.25472 18.0461C7.74006 17.8062 7.28418 17.4564 6.91912 17.0215C6.55407 16.5865 6.28868 16.0769 6.14161 15.5284C5.99455 14.9799 5.96936 14.4059 6.06784 13.8467C6.22644 12.946 6.69736 12.13 7.39786 11.542C8.09837 10.9541 8.98366 10.6318 9.8982 10.6318C10.8127 10.6318 11.698 10.9541 12.3985 11.542C13.099 12.13 13.57 12.946 13.7286 13.8467Z" stroke="#FC7201" stroke-width="1.32" stroke-linecap="round" stroke-linejoin="round"/>
</svg>
