<svg width="25" height="20" viewBox="0 0 25 20" fill="none" xmlns="http://www.w3.org/2000/svg">
<path d="M2.5 0.5H17.0729C17.1552 0.776027 17.3052 1.03007 17.5126 1.23744C17.8408 1.56563 18.2859 1.75 18.75 1.75C19.2141 1.75 19.6592 1.56563 19.9874 1.23744C20.1948 1.03007 20.3448 0.776027 20.4271 0.5H22.5C23.0304 0.5 23.5391 0.710713 23.9142 1.08579C24.2893 1.46086 24.5 1.96957 24.5 2.5V17.5C24.5 18.0304 24.2893 18.5391 23.9142 18.9142C23.5391 19.2893 23.0304 19.5 22.5 19.5H20.4271C20.3448 19.224 20.1948 18.9699 19.9874 18.7626C19.6592 18.4344 19.2141 18.25 18.75 18.25C18.2859 18.25 17.8408 18.4344 17.5126 18.7626C17.3052 18.9699 17.1552 19.224 17.0729 19.5H2.5C1.96957 19.5 1.46086 19.2893 1.08579 18.9142C0.710713 18.5391 0.5 18.0304 0.5 17.5V2.5C0.5 1.96957 0.710714 1.46086 1.08579 1.08579C1.46086 0.710714 1.96957 0.5 2.5 0.5ZM18.75 6.75125C19.2141 6.75125 19.6592 6.56688 19.9874 6.23869C20.3156 5.9105 20.5 5.46538 20.5 5.00125V5C20.5 4.53587 20.3156 4.09075 19.9874 3.76256C19.6592 3.43437 19.2141 3.25 18.75 3.25C18.2859 3.25 17.8408 3.43437 17.5126 3.76256C17.1844 4.09075 17 4.53587 17 5V5.00125C17 5.46538 17.1844 5.9105 17.5126 6.23869C17.8408 6.56688 18.2859 6.75125 18.75 6.75125ZM19.9874 11.2387C20.3156 10.9105 20.5 10.4654 20.5 10.0013V10C20.5 9.53587 20.3156 9.09075 19.9874 8.76256C19.6592 8.43437 19.2141 8.25 18.75 8.25C18.2859 8.25 17.8408 8.43437 17.5126 8.76256C17.1844 9.09075 17 9.53587 17 10V10.0013C17 10.4654 17.1844 10.9105 17.5126 11.2387C17.8408 11.5669 18.2859 11.7513 18.75 11.7513C19.2141 11.7513 19.6592 11.5669 19.9874 11.2387ZM18.75 16.7512C19.2141 16.7512 19.6592 16.5669 19.9874 16.2387C20.3156 15.9105 20.5 15.4654 20.5 15.0012C20.5 14.5377 20.316 14.0911 19.9874 13.7626C19.6592 13.4344 19.2141 13.25 18.75 13.25C18.2859 13.25 17.8408 13.4344 17.5126 13.7626C17.1844 14.0908 17 14.5359 17 15C17 15.4636 17.184 15.9101 17.5126 16.2387C17.8408 16.5669 18.2859 16.7512 18.75 16.7512ZM5 8.25C4.53587 8.25 4.09075 8.43437 3.76256 8.76256C3.43437 9.09075 3.25 9.53587 3.25 10C3.25 10.4641 3.43437 10.9092 3.76256 11.2374C4.09075 11.5656 4.53587 11.75 5 11.75H12.5C12.9641 11.75 13.4092 11.5656 13.7374 11.2374C14.0656 10.9092 14.25 10.4641 14.25 10C14.25 9.53587 14.0656 9.09075 13.7374 8.76256C13.4092 8.43437 12.9641 8.25 12.5 8.25H5ZM5 13.25C4.53587 13.25 4.09075 13.4344 3.76256 13.7626C3.43437 14.0908 3.25 14.5359 3.25 15C3.25 15.4641 3.43437 15.9092 3.76256 16.2374C4.09075 16.5656 4.53587 16.75 5 16.75H8.75C9.21413 16.75 9.65925 16.5656 9.98744 16.2374C10.3156 15.9092 10.5 15.4641 10.5 15C10.5 14.5359 10.3156 14.0908 9.98744 13.7626C9.65925 13.4344 9.21413 13.25 8.75 13.25H5Z" stroke="#FC7201"/>
</svg>
