<svg width="30" height="17" viewBox="0 0 30 17" fill="none" xmlns="http://www.w3.org/2000/svg">
<path d="M23.975 6.5625C23.2207 6.56178 22.4755 6.72785 21.7929 7.04883L18.2328 0.9375H22.1C22.4729 0.9375 22.8306 1.08566 23.0943 1.34938C23.358 1.6131 23.5062 1.97079 23.5062 2.34375C23.5062 2.46807 23.5556 2.5873 23.6435 2.67521C23.7314 2.76311 23.8506 2.8125 23.975 2.8125C24.0993 2.8125 24.2185 2.76311 24.3064 2.67521C24.3943 2.5873 24.4437 2.46807 24.4437 2.34375C24.4437 1.72215 24.1968 1.12601 23.7572 0.686468C23.3177 0.24693 22.7216 0 22.1 0H17.4125C17.3302 8.43064e-05 17.2494 0.0218047 17.1782 0.0629805C17.1071 0.104156 17.0479 0.163338 17.0069 0.234583C16.9658 0.305828 16.9442 0.386628 16.9442 0.46887C16.9442 0.551112 16.9659 0.631901 17.007 0.703125L18.7835 3.75H10.9671L8.91167 0.234375C8.87057 0.163187 8.81147 0.104058 8.74031 0.0629206C8.66914 0.0217834 8.58841 8.43145e-05 8.5062 0H5.22495C5.10063 0 4.9814 0.0493861 4.8935 0.137294C4.80559 0.225201 4.7562 0.34443 4.7562 0.46875C4.7562 0.59307 4.80559 0.712299 4.8935 0.800207C4.9814 0.888114 5.10063 0.9375 5.22495 0.9375H8.23667L10.1339 4.19063L7.86988 7.29492C6.73009 6.60282 5.36733 6.37685 4.06516 6.66401C2.76299 6.95118 1.62168 7.72937 0.878712 8.83667C0.135743 9.94397 -0.15167 11.2951 0.0762754 12.6089C0.304221 13.9228 1.02997 15.0981 2.10251 15.8904C3.17506 16.6828 4.5118 17.031 5.8346 16.8628C7.15741 16.6945 8.3644 16.0227 9.20444 14.9871C10.0445 13.9515 10.4529 12.6319 10.3446 11.3028C10.2364 9.97376 9.61991 8.7376 8.62339 7.85156L10.6496 5.07422L14.6632 11.9531C14.7043 12.0243 14.7634 12.0834 14.8346 12.1246C14.9058 12.1657 14.9865 12.1874 15.0687 12.1875C15.151 12.1868 15.2316 12.165 15.3031 12.1242C15.3564 12.0932 15.4031 12.052 15.4404 12.0029C15.4778 11.9538 15.5051 11.8978 15.5208 11.8382C15.5364 11.7785 15.5402 11.7163 15.5318 11.6552C15.5234 11.5941 15.503 11.5353 15.4718 11.482L11.5074 4.68516H19.3285L20.982 7.51992C19.9806 8.23368 19.2673 9.28182 18.9707 10.4752C18.6741 11.6687 18.8139 12.9288 19.3647 14.0283C19.9155 15.1277 20.8411 15.9942 21.9745 16.4712C23.1079 16.9483 24.3745 17.0045 25.5458 16.6298C26.717 16.2552 27.7158 15.4742 28.3619 14.4279C29.0081 13.3816 29.259 12.1389 29.0694 10.9238C28.8798 9.70881 28.2622 8.60154 27.3281 7.80181C26.3939 7.00208 25.2047 6.56254 23.975 6.5625ZM9.4437 11.7188C9.44419 12.6466 9.13877 13.5487 8.57473 14.2855C8.01069 15.0222 7.2195 15.5525 6.32366 15.7941C5.42782 16.0358 4.4773 15.9753 3.61927 15.6222C2.76124 15.269 2.04357 14.6429 1.57738 13.8406C1.11118 13.0384 0.922466 12.1048 1.04045 11.1845C1.15843 10.2642 1.57653 9.40842 2.23002 8.74972C2.8835 8.09102 3.73591 7.66613 4.65527 7.54084C5.57464 7.41554 6.50966 7.59683 7.31558 8.05664L4.84644 11.4422C4.77309 11.5426 4.74262 11.668 4.76174 11.7908C4.78086 11.9137 4.848 12.0239 4.94839 12.0973C5.04878 12.1706 5.17419 12.2011 5.29705 12.182C5.4199 12.1628 5.53012 12.0957 5.60347 11.9953L8.07261 8.60859C8.5048 9.00321 8.84995 9.48361 9.08603 10.0191C9.32211 10.5546 9.44393 11.1335 9.4437 11.7188ZM23.975 15.9375C23.0884 15.9369 22.2246 15.6571 21.5061 15.1377C20.7876 14.6183 20.251 13.8858 19.9725 13.0441C19.694 12.2025 19.6877 11.2944 19.9545 10.449C20.2213 9.60356 20.7477 8.86367 21.4589 8.33437L23.5683 11.9555C23.6094 12.0267 23.6685 12.0858 23.7397 12.1269C23.8108 12.1681 23.8916 12.1898 23.9738 12.1898C24.056 12.1891 24.1367 12.1673 24.2082 12.1266C24.2615 12.0955 24.3082 12.0543 24.3455 12.0052C24.3829 11.9561 24.4102 11.9002 24.4258 11.8405C24.4415 11.7808 24.4453 11.7187 24.4369 11.6576C24.4285 11.5964 24.4081 11.5376 24.3769 11.4844L22.2675 7.86445C22.842 7.60881 23.4663 7.4848 24.0948 7.50149C24.7234 7.51819 25.3402 7.67517 25.9003 7.96095C26.4604 8.24674 26.9495 8.65409 27.3318 9.15323C27.7142 9.65237 27.9802 10.2307 28.1103 10.8458C28.2404 11.461 28.2313 12.0974 28.0838 12.7086C27.9363 13.3198 27.654 13.8903 27.2576 14.3784C26.8612 14.8665 26.3607 15.2598 25.7927 15.5295C25.2248 15.7993 24.6037 15.9387 23.975 15.9375Z" fill="#FC7201"/>
</svg>
