<svg width="25" height="28" viewBox="0 0 25 28" fill="none" xmlns="http://www.w3.org/2000/svg">
<path d="M20.0681 23.9048C20.3704 21.6477 20.7143 18.1637 20.7143 14C20.7143 6.57143 19.619 1.30952 19.619 1.30952L19.5643 1H1V1.30952C1 1.30952 2.09524 6.57143 2.09524 14C2.09524 21.4286 1 26.6905 1 26.6905V27H22.85L22.9048 26.6905C22.9048 26.6905 24 21.4286 24 14C24 10.199 23.713 6.96638 23.4338 4.71429H20.1667M17.226 19.5714H5.17833M4.81471 4.71429C5.26787 8.40522 5.44957 12.1323 5.35795 15.8571H17.4056C17.4972 12.1323 17.3155 8.40522 16.8623 4.71429H4.81471Z" stroke="#FC7201"/>
</svg>
