<svg width="30" height="30" viewBox="0 0 30 30" fill="none" xmlns="http://www.w3.org/2000/svg">
<path d="M11.9167 15.0415V15.3332C11.9167 17.9165 10.2917 20.0415 8.29169 20.0415C6.29169 20.0415 4.66669 17.9165 4.66669 15.3332V15.0415" stroke="#FC7201" stroke-width="0.833333" stroke-miterlimit="10"/>
<path d="M16.4167 20.5834C15.1667 18.7084 16.1667 17.3751 16.75 15.8751C17.25 14.5418 16.6667 13.8334 17.1667 12.0834C17.625 10.3751 19.4583 9.29178 21.4583 9.29178C23.1667 9.29178 23.9583 10.2501 23.9583 10.2501C25.25 10.3751 26.25 11.4584 26.2917 12.7501C26.4167 15.0001 26.625 15.0001 27.375 16.7501C27.9167 18.0418 27.7083 19.5001 26.7917 20.5418M3.79166 13.0834C4.04166 9.45845 6.79166 9.41678 8.16666 9.62512C8.29166 9.66678 8.66666 9.62512 8.79166 9.62512C11.2917 9.29178 12.5417 12.1251 12.5417 13.3751C12.5417 13.8334 12.5417 14.9584 11.9167 15.5834C11.9167 15.5834 10.5 13.8334 10.4167 12.8334C10.4167 12.8334 5.66666 14.6251 5.33333 13.0834C5.33333 13.0834 5 14.3334 4.70833 14.6668V15.9168C4.70833 15.9168 3.66666 14.6668 3.79166 13.0834ZM15 4.87512C15.4583 3.87512 16.6667 3.45845 17.625 3.95845C18.5833 4.45845 19 5.62512 18.5417 6.62512C18.5 6.75012 18.4167 6.83345 18.375 6.91678L15 11.2501L11.625 6.91678C11.5417 6.83345 11.5 6.70845 11.4583 6.62512C11 5.62512 11.4167 4.45845 12.375 3.95845C13.3333 3.45845 14.5417 3.87512 15 4.87512Z" stroke="#FC7201" stroke-width="0.833333" stroke-linecap="round" stroke-linejoin="round"/>
<path d="M18.2083 15.625C18.2083 18.125 19.7916 20 21.6666 20C23.5416 20 25.125 18.125 25.125 15.625C25.125 14.0417 24.5 13.125 23.25 11.875C22 13.125 18.25 14.7083 18.25 15.3333L18.2083 15.625Z" stroke="#FC7201" stroke-width="0.833333" stroke-miterlimit="10" stroke-linejoin="round"/>
<path d="M15.8333 25V24.0417C15.8333 22.5 17.375 21.25 18.9167 21.25C20.75 22.7917 22.5833 22.7917 24.4583 21.25C26 21.25 27.5417 22.5 27.5417 24.0417V25M2.5 25V24.0417C2.5 22.5 4.04167 21.25 5.58333 21.25C7.41667 22.7917 9.25 22.7917 11.125 21.25C12.6667 21.25 14.2083 22.5 14.2083 24.0417V25" stroke="#FC7201" stroke-width="0.833333" stroke-linecap="round" stroke-linejoin="round"/>
<path d="M23.4167 15.4998C23.4167 15.8332 23.1667 16.0832 22.8334 16.0832C22.5 16.0832 22.25 15.8332 22.25 15.4998C22.25 15.1665 22.5 14.9165 22.8334 14.9165C23.1667 14.9165 23.4167 15.1665 23.4167 15.4998ZM21.0834 15.4998C21.0834 15.8332 20.8334 16.0832 20.5 16.0832C20.1667 16.0832 19.9167 15.8332 19.9167 15.4998C19.9167 15.1665 20.1667 14.9165 20.5 14.9165C20.8334 14.9165 21.0834 15.1665 21.0834 15.4998Z" fill="#FC7201"/>
<path d="M20.7917 17.875C21.3334 18.1667 22 18.1667 22.5417 17.875" stroke="#FC7201" stroke-width="0.833333" stroke-linecap="round" stroke-linejoin="round"/>
<path d="M10.0833 15.5833C10.0833 15.9167 9.83331 16.1667 9.49998 16.1667C9.16665 16.1667 8.91665 15.9167 8.91665 15.5833C8.91665 15.25 9.16665 15 9.49998 15C9.83331 15 10.0833 15.2917 10.0833 15.5833ZM7.74998 15.5833C7.74998 15.9167 7.49998 16.1667 7.16665 16.1667C6.83331 16.1667 6.58331 15.9167 6.58331 15.5833C6.58331 15.25 6.83331 15 7.16665 15C7.49998 15 7.74998 15.2917 7.74998 15.5833Z" fill="#FC7201"/>
<path d="M7.45831 18C7.99998 18.2917 8.66665 18.2917 9.20831 18" stroke="#FC7201" stroke-width="0.833333" stroke-linecap="round" stroke-linejoin="round"/>
</svg>
