<svg width="27" height="23" viewBox="0 0 27 23" fill="none" xmlns="http://www.w3.org/2000/svg">
<path d="M18.2414 6.861L20.0668 4.61816L26 11.4016V22.0001H14.7931V15.0182" stroke="#FC7201" stroke-width="0.833333" stroke-miterlimit="10" stroke-linecap="round" stroke-linejoin="round"/>
<path d="M18.4569 4.61816V6.30029M16.9482 15.2716H19.5344V22.0001H16.9482V15.2716ZM21.6896 15.2716H24.2758V18.0752H21.6896V15.2716Z" stroke="#FC7201" stroke-width="0.833333" stroke-miterlimit="10" stroke-linecap="round" stroke-linejoin="round"/>
<path d="M8.11196 21.9995V17.9775L5.95679 15.271M8.34515 17.9215L9.57101 16.2612" stroke="#FC7201" stroke-width="0.833333" stroke-linecap="round" stroke-linejoin="round"/>
<path d="M16.0888 7.61188C16.0888 5.75425 14.6039 4.24594 12.7724 4.24594C12.6194 4.2476 12.4666 4.25996 12.3146 4.28295C11.5388 2.3457 9.85473 1 7.89654 1C5.20344 1 3.02069 3.53889 3.02069 6.67101C3.02112 6.87847 3.03146 7.08481 3.05086 7.29003C1.84741 7.79467 1 8.99683 1 10.4008C1 12.2579 2.48491 13.7662 4.31637 13.7662C5.01353 13.7736 5.69969 13.54 6.30473 13.0894C7.08835 13.9176 8.34223 14.457 9.7599 14.457C12.1349 14.457 14.0603 12.9498 14.0603 11.0911C14.0603 10.9683 14.0513 10.8455 14.0345 10.7249C15.2396 10.2192 16.0888 9.01701 16.0888 7.61188Z" stroke="#FC7201" stroke-width="0.833333" stroke-miterlimit="10" stroke-linecap="round"/>
<path d="M25.7845 11.9067H16.7328" stroke="#FC7201" stroke-width="0.833333" stroke-miterlimit="10" stroke-linecap="round" stroke-linejoin="round"/>
</svg>
