<svg width="26" height="24" viewBox="0 0 26 24" fill="none" xmlns="http://www.w3.org/2000/svg">
<path d="M2.00555 8.5V21C2.00555 21.663 2.26895 22.2989 2.73779 22.7678C3.20663 23.2366 3.84251 23.5 4.50555 23.5H22.0056C22.6686 23.5 23.3045 23.2366 23.7733 22.7678C24.2422 22.2989 24.5056 21.663 24.5056 21V8.5" stroke="#FC7201"/>
<path d="M23.8618 1H18.8718L19.4968 7.25C19.4968 7.25 20.7468 8.5 22.6218 8.5C23.6061 8.5013 24.5569 8.14301 25.2956 7.4925C25.3736 7.41953 25.4318 7.32787 25.4646 7.22617C25.4974 7.12447 25.5038 7.01608 25.4831 6.91125L24.6006 1.625C24.5711 1.45037 24.4807 1.29182 24.3455 1.17742C24.2103 1.06303 24.0389 1.00018 23.8618 1Z" stroke="#FC7201"/>
<path d="M18.8718 1L19.4968 7.25C19.4968 7.25 18.2468 8.5 16.3718 8.5C14.4968 8.5 13.2468 7.25 13.2468 7.25V1H18.8718Z" stroke="#FC7201"/>
<path d="M13.2468 1V7.25C13.2468 7.25 11.9968 8.5 10.1218 8.5C8.24683 8.5 6.99683 7.25 6.99683 7.25L7.62183 1H13.2468Z" stroke="#FC7201"/>
<path d="M7.62182 1H2.63307C2.45556 0.999934 2.28379 1.06283 2.14829 1.1775C2.01279 1.29217 1.92236 1.45118 1.89307 1.62625L1.01182 6.9125C0.991221 7.01733 0.997624 7.12569 1.03042 7.22737C1.06322 7.32904 1.12134 7.42071 1.19932 7.49375C1.60932 7.85625 2.52557 8.50125 3.87182 8.50125C5.74682 8.50125 6.99682 7.25125 6.99682 7.25125L7.62182 1Z" stroke="#FC7201"/>
</svg>
