<svg width="21" height="24" viewBox="0 0 21 24" fill="none" xmlns="http://www.w3.org/2000/svg">
<path d="M19.5 12V21.75C19.5 21.9489 19.421 22.1397 19.2803 22.2803C19.1397 22.421 18.9489 22.5 18.75 22.5H2.25C2.05109 22.5 1.86032 22.421 1.71967 22.2803C1.57902 22.1397 1.5 21.9489 1.5 21.75V2.25C1.5 2.05109 1.57902 1.86032 1.71967 1.71967C1.86032 1.57902 2.05109 1.5 2.25 1.5H18.75C18.9489 1.5 19.1397 1.57902 19.2803 1.71967C19.421 1.86032 19.5 2.05109 19.5 2.25V12ZM21 12V2.25C21 1.65326 20.7629 1.08097 20.341 0.65901C19.919 0.237053 19.3467 0 18.75 0L2.25 0C1.65326 0 1.08097 0.237053 0.65901 0.65901C0.237053 1.08097 0 1.65326 0 2.25V21.75C0 22.3467 0.237053 22.919 0.65901 23.341C1.08097 23.7629 1.65326 24 2.25 24H18.75C19.3467 24 19.919 23.7629 20.341 23.341C20.7629 22.919 21 22.3467 21 21.75V12ZM3.75 4.5H6.75C6.94891 4.5 7.13968 4.42098 7.28033 4.28033C7.42098 4.13968 7.5 3.94891 7.5 3.75C7.5 3.55109 7.42098 3.36032 7.28033 3.21967C7.13968 3.07902 6.94891 3 6.75 3H3.75C3.55109 3 3.36032 3.07902 3.21967 3.21967C3.07902 3.36032 3 3.55109 3 3.75C3 3.94891 3.07902 4.13968 3.21967 4.28033C3.36032 4.42098 3.55109 4.5 3.75 4.5ZM0.75 7.5H20.25C20.4489 7.5 20.6397 7.42098 20.7803 7.28033C20.921 7.13968 21 6.94891 21 6.75C21 6.55109 20.921 6.36032 20.7803 6.21967C20.6397 6.07902 20.4489 6 20.25 6H0.75C0.551088 6 0.360322 6.07902 0.21967 6.21967C0.0790177 6.36032 0 6.55109 0 6.75C0 6.94891 0.0790177 7.13968 0.21967 7.28033C0.360322 7.42098 0.551088 7.5 0.75 7.5ZM15 15C15 16.1935 14.5259 17.3381 13.682 18.182C12.8381 19.0259 11.6935 19.5 10.5 19.5C9.30653 19.5 8.16193 19.0259 7.31802 18.182C6.47411 17.3381 6 16.1935 6 15C6 13.8065 6.47411 12.6619 7.31802 11.818C8.16193 10.9741 9.30653 10.5 10.5 10.5C11.6935 10.5 12.8381 10.9741 13.682 11.818C14.5259 12.6619 15 13.8065 15 15ZM16.5 15C16.5 13.4087 15.8679 11.8826 14.7426 10.7574C13.6174 9.63214 12.0913 9 10.5 9C8.9087 9 7.38258 9.63214 6.25736 10.7574C5.13214 11.8826 4.5 13.4087 4.5 15C4.5 16.5913 5.13214 18.1174 6.25736 19.2426C7.38258 20.3679 8.9087 21 10.5 21C12.0913 21 13.6174 20.3679 14.7426 19.2426C15.8679 18.1174 16.5 16.5913 16.5 15ZM16.5 4.125C16.4005 4.125 16.3052 4.08549 16.2348 4.01516C16.1645 3.94484 16.125 3.84946 16.125 3.75C16.125 3.65054 16.1645 3.55516 16.2348 3.48483C16.3052 3.41451 16.4005 3.375 16.5 3.375C16.5995 3.375 16.6948 3.41451 16.7652 3.48483C16.8355 3.55516 16.875 3.65054 16.875 3.75C16.875 3.84946 16.8355 3.94484 16.7652 4.01516C16.6948 4.08549 16.5995 4.125 16.5 4.125C16.6989 4.125 16.8897 4.04598 17.0303 3.90533C17.171 3.76468 17.25 3.57391 17.25 3.375C17.25 3.17609 17.171 2.98532 17.0303 2.84467C16.8897 2.70402 16.6989 2.625 16.5 2.625C16.2016 2.625 15.9155 2.74353 15.7045 2.9545C15.4935 3.16548 15.375 3.45163 15.375 3.75C15.375 4.04837 15.4935 4.33452 15.7045 4.5455C15.9155 4.75647 16.2016 4.875 16.5 4.875C16.7984 4.875 17.0845 4.75647 17.2955 4.5455C17.5065 4.33452 17.625 4.04837 17.625 3.75C17.625 3.45163 17.5065 3.16548 17.2955 2.9545C17.0845 2.74353 16.7984 2.625 16.5 2.625C16.3011 2.625 16.1103 2.70402 15.9697 2.84467C15.829 2.98532 15.75 3.17609 15.75 3.375C15.75 3.57391 15.829 3.76468 15.9697 3.90533C16.1103 4.04598 16.3011 4.125 16.5 4.125ZM12 4.125C11.9005 4.125 11.8052 4.08549 11.7348 4.01516C11.6645 3.94484 11.625 3.84946 11.625 3.75C11.625 3.65054 11.6645 3.55516 11.7348 3.48483C11.8052 3.41451 11.9005 3.375 12 3.375C12.0995 3.375 12.1948 3.41451 12.2652 3.48483C12.3355 3.55516 12.375 3.65054 12.375 3.75C12.375 3.84946 12.3355 3.94484 12.2652 4.01516C12.1948 4.08549 12.0995 4.125 12 4.125C12.1989 4.125 12.3897 4.04598 12.5303 3.90533C12.671 3.76468 12.75 3.57391 12.75 3.375C12.75 3.17609 12.671 2.98532 12.5303 2.84467C12.3897 2.70402 12.1989 2.625 12 2.625C11.7016 2.625 11.4155 2.74353 11.2045 2.9545C10.9935 3.16548 10.875 3.45163 10.875 3.75C10.875 4.04837 10.9935 4.33452 11.2045 4.5455C11.4155 4.75647 11.7016 4.875 12 4.875C12.2984 4.875 12.5845 4.75647 12.7955 4.5455C13.0065 4.33452 13.125 4.04837 13.125 3.75C13.125 3.45163 13.0065 3.16548 12.7955 2.9545C12.5845 2.74353 12.2984 2.625 12 2.625C11.8011 2.625 11.6103 2.70402 11.4697 2.84467C11.329 2.98532 11.25 3.17609 11.25 3.375C11.25 3.57391 11.329 3.76468 11.4697 3.90533C11.6103 4.04598 11.8011 4.125 12 4.125ZM9 15C9 14.6022 9.15804 14.2206 9.43934 13.9393C9.72064 13.658 10.1022 13.5 10.5 13.5C10.6989 13.5 10.8897 13.421 11.0303 13.2803C11.171 13.1397 11.25 12.9489 11.25 12.75C11.25 12.5511 11.171 12.3603 11.0303 12.2197C10.8897 12.079 10.6989 12 10.5 12C9.70435 12 8.94129 12.3161 8.37868 12.8787C7.81607 13.4413 7.5 14.2044 7.5 15C7.5 15.1989 7.57902 15.3897 7.71967 15.5303C7.86032 15.671 8.05109 15.75 8.25 15.75C8.44891 15.75 8.63968 15.671 8.78033 15.5303C8.92098 15.3897 9 15.1989 9 15Z" fill="#FC7201"/>
</svg>
