<svg width="25" height="25" viewBox="0 0 25 25" fill="none" xmlns="http://www.w3.org/2000/svg">
<path d="M1.5625 14.5833V18.2292C1.5625 18.7817 1.78199 19.3116 2.17269 19.7023C2.56339 20.093 3.0933 20.3125 3.64583 20.3125H5.72917V23.9583M23.4375 14.5833V18.2292C23.4375 18.7817 23.218 19.3116 22.8273 19.7023C22.4366 20.093 21.9067 20.3125 21.3542 20.3125H19.2708V23.9583M12.5 8.85417V15.625M5.20833 17.1875H19.7917M12.5 17.1875V23.9583M1.5625 8.85417H23.4375V6.77083H23.3479C23.061 6.77084 22.7746 6.74715 22.4917 6.7L22.0792 6.63125C18.5637 6.0451 15.3287 4.34745 12.849 1.7875L12.6302 1.5625H12.3698L12.151 1.7875C9.67134 4.34745 6.43633 6.0451 2.92083 6.63125L2.50833 6.7C2.22535 6.74715 1.93896 6.77084 1.65208 6.77083H1.5625V8.85417Z" stroke="#FC7201"/>
</svg>
