<svg width="26" height="23" viewBox="0 0 26 23" fill="none" xmlns="http://www.w3.org/2000/svg">
<path d="M18.8665 1C15.0626 1 13.1876 4.75 13.1876 4.75C13.1876 4.75 11.3126 1 7.5087 1C4.4173 1 1.96925 3.58633 1.93761 6.67246C1.87316 13.0785 7.01945 17.6342 12.6603 21.4627C12.8158 21.5685 12.9995 21.6251 13.1876 21.6251C13.3757 21.6251 13.5594 21.5685 13.715 21.4627C19.3552 17.6342 24.5015 13.0785 24.4376 6.67246C24.406 3.58633 21.9579 1 18.8665 1Z" stroke="#FC7201" stroke-linecap="round" stroke-linejoin="round"/>
<path d="M1 11.3125H7.5625L10.375 5.6875L13.1875 15.0625L16 9.4375L17.875 13.1875H25.375" stroke="#FC7201" stroke-linecap="round" stroke-linejoin="round"/>
</svg>
