<svg width="33" height="33" viewBox="0 0 33 33" fill="none" xmlns="http://www.w3.org/2000/svg">
<path d="M7.74773 27.6915C5.73903 27.548 4.30425 27.261 4.01729 26.5436L3.73033 24.248C3.71617 23.5307 3.71617 22.8131 3.73033 22.0958C3.73033 21.8089 4.01729 21.6654 4.30425 21.6654H7.8912C8.23926 21.1605 8.62284 20.681 9.03903 20.2306C9.8999 19.2262 10.9042 18.7958 11.7651 18.5089H13.3434L14.2042 17.0741C14.2485 16.9959 14.3105 16.9292 14.3853 16.8793C14.4601 16.8295 14.5455 16.7979 14.6347 16.7871H16.7869C16.9303 16.7871 17.2173 16.7871 17.2173 17.0741L18.2216 18.5089H18.939C19.6564 18.7958 20.3738 18.9393 20.9477 19.3697C21.8699 19.9133 22.6169 20.71 23.0999 21.6654H24.8216C25.3956 21.6654 25.826 21.6654 26.2564 21.9523C26.9738 22.0958 27.6912 22.3828 28.2651 22.8132C28.8672 23.2047 29.4424 23.6361 29.9869 24.1045C30.1143 24.162 30.2163 24.2641 30.2738 24.3915V27.261C30.2738 27.4132 30.2133 27.5592 30.1057 27.6668C29.9981 27.7745 29.8521 27.8349 29.6999 27.8349H27.1173C27.1173 29.2697 25.6825 30.4175 24.2477 30.4175C22.6695 30.4175 21.3782 29.2697 21.2347 27.8349H13.7738C13.7738 29.2697 12.339 30.4175 10.9042 30.4175C10.5158 30.457 10.1234 30.4167 9.75108 30.2993C9.37874 30.1818 9.03428 29.9896 8.73879 29.7344C8.44331 29.4792 8.20301 29.1664 8.0326 28.8151C7.86218 28.4639 7.76525 28.0815 7.74773 27.6915ZM15.3521 21.6654V19.5132H12.1956C12.1001 19.5036 12.004 19.5036 11.9086 19.5132C11.3347 19.6567 10.4738 20.2306 9.75642 20.948L9.18251 21.6654H15.3521ZM16.3564 21.6654H21.8086C21.4433 21.0861 20.9531 20.5959 20.3738 20.2306C19.834 19.9492 19.2528 19.7555 18.6521 19.6567C18.4133 19.6374 18.1734 19.6374 17.9347 19.6567H16.4999V21.5219L16.3564 21.6654ZM15.926 22.6697C15.8783 22.6757 15.8301 22.6757 15.7825 22.6697H4.73468C4.72885 23.1958 4.72885 23.7219 4.73468 24.248L5.02164 26.1132C5.02164 26.1132 6.31294 26.5436 7.8912 26.6871C8.17816 25.3958 9.32599 24.6784 10.7608 24.6784C12.1956 24.6784 13.4869 25.5393 13.7738 26.6871H21.2347C21.5216 25.5393 22.6695 24.6784 24.1042 24.6784C25.539 24.6784 26.9738 25.5393 27.1173 26.6871H29.126V24.6784C28.6645 24.3643 28.1855 24.0769 27.6912 23.8175C27.149 23.4711 26.572 23.1825 25.9695 22.9567C25.6054 22.7981 25.2175 22.7012 24.8216 22.6697H15.926ZM14.4912 18.3654H16.9303L16.4999 17.7915H15.0651L14.6347 18.5089L14.4912 18.3654ZM13.7738 10.9045L14.3477 9.46972C14.4238 9.33654 14.5497 9.23904 14.6977 9.19868C14.8457 9.15832 15.0037 9.1784 15.1369 9.2545C15.27 9.33061 15.3675 9.45651 15.4079 9.6045C15.4483 9.75249 15.4282 9.91045 15.3521 10.0436L13.6303 13.6306H14.7782L18.6521 11.1915L21.2347 9.46972C21.3006 9.43204 21.3734 9.40771 21.4487 9.39813C21.524 9.38855 21.6005 9.39391 21.6738 9.4139C21.7471 9.43388 21.8157 9.4681 21.8758 9.51461C21.9358 9.56111 21.9861 9.61899 22.0238 9.68494C22.0615 9.75089 22.0858 9.82361 22.0954 9.89896C22.105 9.9743 22.0996 10.0508 22.0796 10.1241C22.0597 10.1974 22.0254 10.266 21.9789 10.326C21.9324 10.3861 21.8745 10.4364 21.8086 10.4741L20.8042 11.1915C25.539 11.1915 28.5521 11.048 29.4129 10.761C30.8477 10.1871 30.9912 9.75668 29.9869 9.18276C28.6956 8.46537 27.9782 8.3219 27.1173 8.3219C24.6302 8.36242 22.1432 8.41025 19.6564 8.46537H9.03903C8.94983 8.45458 8.86441 8.42298 8.78965 8.37314C8.71489 8.3233 8.65287 8.2566 8.6086 8.17842L5.16512 2.86972H3.73033L4.30425 6.02624C4.35549 6.40714 4.35549 6.79318 4.30425 7.17407C4.30425 7.89146 4.16077 8.3219 3.73033 8.60885C3.72431 8.89578 3.72431 9.1828 3.73033 9.46972C4.68099 9.73175 5.63778 9.97095 6.5999 10.1871C8.638 10.5644 10.6992 10.804 12.7695 10.9045H13.7738ZM13.1999 12.0523H12.9129C11.9086 12.0523 10.7608 12.0523 9.32599 11.7654C8.36378 11.6037 7.4068 11.4123 6.45642 11.1915C5.34882 10.9345 4.24841 10.6474 3.15642 10.3306C3.05153 10.3064 2.95555 10.2533 2.87944 10.1771C2.80332 10.101 2.75015 10.005 2.72599 9.90016C2.70347 9.32646 2.70347 8.75211 2.72599 8.17842C2.72186 8.04809 2.76224 7.92024 2.84048 7.81592C2.91872 7.7116 3.03015 7.63704 3.15642 7.6045C3.2999 7.6045 3.44338 7.46103 3.44338 7.03059C3.48097 6.74487 3.48097 6.45545 3.44338 6.16972L2.58251 2.29581C2.56017 2.20949 2.55826 2.11916 2.57691 2.03197C2.59556 1.94478 2.63427 1.86314 2.68997 1.79352C2.74567 1.72389 2.81682 1.66821 2.89779 1.63087C2.97875 1.59353 3.06731 1.57557 3.15642 1.57842H5.45207C5.59555 1.57842 5.73903 1.57842 5.88251 1.86537L9.32599 7.31755H19.6564C22.0954 7.26041 24.5345 7.21258 26.9738 7.17407C28.1216 7.17407 29.126 7.31755 30.4173 8.03494C32.426 9.18276 32.139 10.761 29.8434 11.6219C28.6955 12.0523 25.2521 12.0523 19.0825 12.0523L15.2086 14.7784C15.0706 14.8343 14.9162 14.8343 14.7782 14.7784L12.9129 14.6349C12.8179 14.6242 12.7271 14.5899 12.6487 14.5351C12.5703 14.4803 12.5069 14.4069 12.4641 14.3213C12.4213 14.2358 12.4006 14.1409 12.4038 14.0454C12.407 13.9498 12.4341 13.8565 12.4825 13.7741L13.3434 12.0523H13.1999ZM12.9129 27.548C12.9129 26.5436 12.0521 25.8262 10.9042 25.8262C9.8999 25.8262 9.03903 26.5436 9.03903 27.548C9.03903 28.5523 9.8999 29.4132 10.9042 29.4132C12.0521 29.4132 12.9129 28.5523 12.9129 27.548ZM26.2564 27.548C26.2564 26.5436 25.3956 25.8262 24.2477 25.8262C23.0999 25.8262 22.3825 26.5436 22.3825 27.548C22.3825 28.5523 23.2434 29.4132 24.2477 29.4132C25.3956 29.4132 26.2564 28.5523 26.2564 27.548ZM11.3347 27.548C11.3777 27.6128 11.4023 27.6881 11.406 27.7659C11.4096 27.8436 11.3921 27.9209 11.3553 27.9895C11.3185 28.058 11.2637 28.1153 11.197 28.1553C11.1302 28.1952 11.0538 28.2163 10.976 28.2163C10.8982 28.2163 10.8218 28.1952 10.755 28.1553C10.6882 28.1153 10.6335 28.058 10.5967 27.9895C10.5599 27.9209 10.5424 27.8436 10.546 27.7659C10.5496 27.6881 10.5743 27.6128 10.6173 27.548C10.6566 27.4888 10.7099 27.4402 10.7724 27.4066C10.835 27.3731 10.905 27.3555 10.976 27.3555C11.047 27.3555 11.1169 27.3731 11.1795 27.4066C11.2421 27.4402 11.2954 27.4888 11.3347 27.548ZM24.6782 27.548C24.7212 27.6128 24.7458 27.6881 24.7494 27.7659C24.7531 27.8436 24.7355 27.9209 24.6987 27.9895C24.6619 28.058 24.6072 28.1153 24.5404 28.1553C24.4737 28.1952 24.3973 28.2163 24.3195 28.2163C24.2416 28.2163 24.1653 28.1952 24.0985 28.1553C24.0317 28.1153 23.977 28.058 23.9402 27.9895C23.9034 27.9209 23.8859 27.8436 23.8895 27.7659C23.8931 27.6881 23.9178 27.6128 23.9608 27.548C24 27.4888 24.0533 27.4402 24.1159 27.4066C24.1785 27.3731 24.2484 27.3555 24.3195 27.3555C24.3905 27.3555 24.4604 27.3731 24.523 27.4066C24.5856 27.4402 24.6389 27.4888 24.6782 27.548Z" fill="#FC7201"/>
<mask id="mask0_95_1580" style="mask-type:luminance" maskUnits="userSpaceOnUse" x="2" y="1" width="30" height="30">
<path d="M7.74773 27.6915C5.73903 27.548 4.30425 27.261 4.01729 26.5436L3.73033 24.248C3.71617 23.5307 3.71617 22.8131 3.73033 22.0958C3.73033 21.8089 4.01729 21.6654 4.30425 21.6654H7.8912C8.23926 21.1605 8.62284 20.681 9.03903 20.2306C9.8999 19.2262 10.9042 18.7958 11.7651 18.5089H13.3434L14.2042 17.0741C14.2485 16.9959 14.3105 16.9292 14.3853 16.8793C14.4601 16.8295 14.5455 16.7979 14.6347 16.7871H16.7869C16.9303 16.7871 17.2173 16.7871 17.2173 17.0741L18.2216 18.5089H18.939C19.6564 18.7958 20.3738 18.9393 20.9477 19.3697C21.8699 19.9133 22.6169 20.71 23.0999 21.6654H24.8216C25.3956 21.6654 25.826 21.6654 26.2564 21.9523C26.9738 22.0958 27.6912 22.3828 28.2651 22.8132C28.8672 23.2047 29.4424 23.6361 29.9869 24.1045C30.1143 24.162 30.2163 24.2641 30.2738 24.3915V27.261C30.2738 27.4132 30.2133 27.5592 30.1057 27.6668C29.9981 27.7745 29.8521 27.8349 29.6999 27.8349H27.1173C27.1173 29.2697 25.6825 30.4175 24.2477 30.4175C22.6695 30.4175 21.3782 29.2697 21.2347 27.8349H13.7738C13.7738 29.2697 12.339 30.4175 10.9042 30.4175C10.5158 30.457 10.1234 30.4167 9.75108 30.2993C9.37874 30.1818 9.03428 29.9896 8.73879 29.7344C8.44331 29.4792 8.20301 29.1664 8.0326 28.8151C7.86218 28.4639 7.76525 28.0815 7.74773 27.6915ZM15.3521 21.6654V19.5132H12.1956C12.1001 19.5036 12.004 19.5036 11.9086 19.5132C11.3347 19.6567 10.4738 20.2306 9.75642 20.948L9.18251 21.6654H15.3521ZM16.3564 21.6654H21.8086C21.4433 21.0861 20.9531 20.5959 20.3738 20.2306C19.834 19.9492 19.2528 19.7555 18.6521 19.6567C18.4133 19.6374 18.1734 19.6374 17.9347 19.6567H16.4999V21.5219L16.3564 21.6654ZM15.926 22.6697C15.8783 22.6757 15.8301 22.6757 15.7825 22.6697H4.73468C4.72885 23.1958 4.72885 23.7219 4.73468 24.248L5.02164 26.1132C5.02164 26.1132 6.31294 26.5436 7.8912 26.6871C8.17816 25.3958 9.32599 24.6784 10.7608 24.6784C12.1956 24.6784 13.4869 25.5393 13.7738 26.6871H21.2347C21.5216 25.5393 22.6695 24.6784 24.1042 24.6784C25.539 24.6784 26.9738 25.5393 27.1173 26.6871H29.126V24.6784C28.6645 24.3643 28.1855 24.0769 27.6912 23.8175C27.149 23.4711 26.572 23.1825 25.9695 22.9567C25.6054 22.7981 25.2175 22.7012 24.8216 22.6697H15.926ZM14.4912 18.3654H16.9303L16.4999 17.7915H15.0651L14.6347 18.5089L14.4912 18.3654ZM13.7738 10.9045L14.3477 9.46972C14.4238 9.33654 14.5497 9.23904 14.6977 9.19868C14.8457 9.15832 15.0037 9.1784 15.1369 9.2545C15.27 9.33061 15.3675 9.45651 15.4079 9.6045C15.4483 9.75249 15.4282 9.91045 15.3521 10.0436L13.6303 13.6306H14.7782L18.6521 11.1915L21.2347 9.46972C21.3006 9.43204 21.3734 9.40771 21.4487 9.39813C21.524 9.38855 21.6005 9.39391 21.6738 9.4139C21.7471 9.43388 21.8157 9.4681 21.8758 9.51461C21.9358 9.56111 21.9861 9.61899 22.0238 9.68494C22.0615 9.75089 22.0858 9.82361 22.0954 9.89896C22.105 9.9743 22.0996 10.0508 22.0796 10.1241C22.0597 10.1974 22.0254 10.266 21.9789 10.326C21.9324 10.3861 21.8745 10.4364 21.8086 10.4741L20.8042 11.1915C25.539 11.1915 28.5521 11.048 29.4129 10.761C30.8477 10.1871 30.9912 9.75668 29.9869 9.18276C28.6956 8.46537 27.9782 8.3219 27.1173 8.3219C24.6302 8.36242 22.1432 8.41025 19.6564 8.46537H9.03903C8.94983 8.45458 8.86441 8.42298 8.78965 8.37314C8.71489 8.3233 8.65287 8.2566 8.6086 8.17842L5.16512 2.86972H3.73033L4.30425 6.02624C4.35549 6.40714 4.35549 6.79318 4.30425 7.17407C4.30425 7.89146 4.16077 8.3219 3.73033 8.60885C3.72431 8.89578 3.72431 9.1828 3.73033 9.46972C4.68099 9.73175 5.63778 9.97095 6.5999 10.1871C8.638 10.5644 10.6992 10.804 12.7695 10.9045H13.7738ZM13.1999 12.0523H12.9129C11.9086 12.0523 10.7608 12.0523 9.32599 11.7654C8.36378 11.6037 7.4068 11.4123 6.45642 11.1915C5.34882 10.9345 4.24841 10.6474 3.15642 10.3306C3.05153 10.3064 2.95555 10.2533 2.87944 10.1771C2.80332 10.101 2.75015 10.005 2.72599 9.90016C2.70347 9.32646 2.70347 8.75211 2.72599 8.17842C2.72186 8.04809 2.76224 7.92024 2.84048 7.81592C2.91872 7.7116 3.03015 7.63704 3.15642 7.6045C3.2999 7.6045 3.44338 7.46103 3.44338 7.03059C3.48097 6.74487 3.48097 6.45545 3.44338 6.16972L2.58251 2.29581C2.56017 2.20949 2.55826 2.11916 2.57691 2.03197C2.59556 1.94478 2.63427 1.86314 2.68997 1.79352C2.74567 1.72389 2.81682 1.66821 2.89779 1.63087C2.97875 1.59353 3.06731 1.57557 3.15642 1.57842H5.45207C5.59555 1.57842 5.73903 1.57842 5.88251 1.86537L9.32599 7.31755H19.6564C22.0954 7.26041 24.5345 7.21258 26.9738 7.17407C28.1216 7.17407 29.126 7.31755 30.4173 8.03494C32.426 9.18276 32.139 10.761 29.8434 11.6219C28.6955 12.0523 25.2521 12.0523 19.0825 12.0523L15.2086 14.7784C15.0706 14.8343 14.9162 14.8343 14.7782 14.7784L12.9129 14.6349C12.8179 14.6242 12.7271 14.5899 12.6487 14.5351C12.5703 14.4803 12.5069 14.4069 12.4641 14.3213C12.4213 14.2358 12.4006 14.1409 12.4038 14.0454C12.407 13.9498 12.4341 13.8565 12.4825 13.7741L13.3434 12.0523H13.1999ZM12.9129 27.548C12.9129 26.5436 12.0521 25.8262 10.9042 25.8262C9.8999 25.8262 9.03903 26.5436 9.03903 27.548C9.03903 28.5523 9.8999 29.4132 10.9042 29.4132C12.0521 29.4132 12.9129 28.5523 12.9129 27.548ZM26.2564 27.548C26.2564 26.5436 25.3956 25.8262 24.2477 25.8262C23.0999 25.8262 22.3825 26.5436 22.3825 27.548C22.3825 28.5523 23.2434 29.4132 24.2477 29.4132C25.3956 29.4132 26.2564 28.5523 26.2564 27.548ZM11.3347 27.548C11.3777 27.6128 11.4023 27.6881 11.406 27.7659C11.4096 27.8436 11.3921 27.9209 11.3553 27.9895C11.3185 28.058 11.2637 28.1153 11.197 28.1553C11.1302 28.1952 11.0538 28.2163 10.976 28.2163C10.8982 28.2163 10.8218 28.1952 10.755 28.1553C10.6882 28.1153 10.6335 28.058 10.5967 27.9895C10.5599 27.9209 10.5424 27.8436 10.546 27.7659C10.5496 27.6881 10.5743 27.6128 10.6173 27.548C10.6566 27.4888 10.7099 27.4402 10.7724 27.4066C10.835 27.3731 10.905 27.3555 10.976 27.3555C11.047 27.3555 11.1169 27.3731 11.1795 27.4066C11.2421 27.4402 11.2954 27.4888 11.3347 27.548ZM24.6782 27.548C24.7212 27.6128 24.7458 27.6881 24.7494 27.7659C24.7531 27.8436 24.7355 27.9209 24.6987 27.9895C24.6619 28.058 24.6072 28.1153 24.5404 28.1553C24.4737 28.1952 24.3973 28.2163 24.3195 28.2163C24.2416 28.2163 24.1653 28.1952 24.0985 28.1553C24.0317 28.1153 23.977 28.058 23.9402 27.9895C23.9034 27.9209 23.8859 27.8436 23.8895 27.7659C23.8931 27.6881 23.9178 27.6128 23.9608 27.548C24 27.4888 24.0533 27.4402 24.1159 27.4066C24.1785 27.3731 24.2484 27.3555 24.3195 27.3555C24.3905 27.3555 24.4604 27.3731 24.523 27.4066C24.5856 27.4402 24.6389 27.4888 24.6782 27.548Z" fill="#292F37"/>
</mask>
<g mask="url(#mask0_95_1580)">
<path fill-rule="evenodd" clip-rule="evenodd" d="M0 0H33V33H0V0Z" fill="#FC7201"/>
</g>
</svg>
