<svg width="30" height="23" viewBox="0 0 30 23" fill="none" xmlns="http://www.w3.org/2000/svg">
<path d="M15 4.75C21.68 4.75 25.8812 8.25 26.72 14.2875C26.9237 15.7575 28.125 17.25 29.375 18.1875V19.125H0.625V18.1875C1.875 17.25 3.075 15.7575 3.28 14.2875C4.11875 8.25 8.32 4.75 15 4.75ZM15 4.75V1M0 22.25H30M12.5 1H17.5" stroke="#FC7201" stroke-width="1.25"/>
<path d="M17 8L15.4444 11.3106H17L14.3333 17V13.2023H13V8H17ZM14.7289 11.7835L16.28 8.47294H13.4444V12.7294H14.7778V14.9947L16.28 11.7835H14.7289Z" fill="#FC7201"/>
</svg>
