<svg width="23" height="18" viewBox="0 0 23 18" fill="none" xmlns="http://www.w3.org/2000/svg">
<path d="M9.54261 1.76831H16.2954C17.0177 1.76742 17.7171 2.0212 18.2708 2.48502C18.8245 2.94884 19.1969 3.59302 19.3226 4.30427L21.3811 15.9778C21.3752 15.9435 21.3769 15.9084 21.386 15.8748C21.3951 15.8413 21.4115 15.8101 21.4339 15.7836C21.4564 15.757 21.4844 15.7357 21.5159 15.7211C21.5475 15.7065 21.5818 15.699 21.6166 15.6991H1.43982L2.12719 16.3865C2.12719 14.1811 3.00328 12.0661 4.56273 10.5066C6.12217 8.94718 8.23723 7.86976 10.4426 7.86976L20.559 8C20.7413 8 20.9161 7.99867 21.045 7.86976C21.1739 7.74086 21.2463 7.56602 21.2463 7.38372C21.2463 7.20141 21.1739 7.02658 21.045 6.89767C20.9161 6.76876 20.7413 6.69634 20.559 6.69634H10.4426C5.09025 6.69634 0.752441 11.0351 0.752441 16.3865C0.752441 16.7659 1.06039 17.0739 1.43982 17.0739H21.6157C21.7819 17.0739 21.946 17.0375 22.0966 16.9672C22.2472 16.897 22.3806 16.7945 22.4873 16.6671C22.594 16.5397 22.6714 16.3904 22.7142 16.2298C22.7569 16.0692 22.764 15.9012 22.7347 15.7376L20.6772 4.06506C20.4953 3.03563 19.9564 2.10325 19.1551 1.43178C18.3539 0.760301 17.3417 0.392694 16.2963 0.393556H9.54169C9.35939 0.393556 9.18455 0.465976 9.05565 0.594884C8.92674 0.723792 8.85432 0.898629 8.85432 1.08093C8.85432 1.26324 8.92674 1.43807 9.05565 1.56698C9.18455 1.69589 9.36031 1.76831 9.54261 1.76831ZM7.28252 12.9496C7.19137 12.9496 7.10395 12.9134 7.03949 12.849C6.97504 12.7845 6.93883 12.6971 6.93883 12.6059C6.93883 12.5148 6.97504 12.4274 7.03949 12.3629C7.10395 12.2985 7.19137 12.2623 7.28252 12.2623C7.37367 12.2623 7.46109 12.2985 7.52554 12.3629C7.59 12.4274 7.62621 12.5148 7.62621 12.6059C7.62621 12.6971 7.59 12.7845 7.52554 12.849C7.46109 12.9134 7.37367 12.9496 7.28252 12.9496C7.46482 12.9496 7.63966 12.8772 7.76857 12.7483C7.89747 12.6194 7.96989 12.4446 7.96989 12.2623C7.96989 12.08 7.89747 11.9051 7.76857 11.7762C7.63966 11.6473 7.46482 11.5749 7.28252 11.5749C7.00906 11.5749 6.74681 11.6835 6.55344 11.8769C6.36008 12.0702 6.25145 12.3325 6.25145 12.6059C6.25145 12.8794 6.36008 13.1417 6.55344 13.335C6.74681 13.5284 7.00906 13.637 7.28252 13.637C7.55597 13.637 7.81823 13.5284 8.01159 13.335C8.20495 13.1417 8.31358 12.8794 8.31358 12.6059C8.31358 12.3325 8.20495 12.0702 8.01159 11.8769C7.81823 11.6835 7.55597 11.5749 7.28252 11.5749C7.10021 11.5749 6.92538 11.6473 6.79647 11.7762C6.66756 11.9051 6.59514 12.08 6.59514 12.2623C6.59514 12.4446 6.66756 12.6194 6.79647 12.7483C6.92538 12.8772 7.10021 12.9496 7.28252 12.9496ZM12.0942 12.9496C12.003 12.9496 11.9156 12.9134 11.8511 12.849C11.7867 12.7845 11.7505 12.6971 11.7505 12.6059C11.7505 12.5148 11.7867 12.4274 11.8511 12.3629C11.9156 12.2985 12.003 12.2623 12.0942 12.2623C12.1853 12.2623 12.2727 12.2985 12.3372 12.3629C12.4016 12.4274 12.4378 12.5148 12.4378 12.6059C12.4378 12.6971 12.4016 12.7845 12.3372 12.849C12.2727 12.9134 12.1853 12.9496 12.0942 12.9496C12.2765 12.9496 12.4513 12.8772 12.5802 12.7483C12.7091 12.6194 12.7815 12.4446 12.7815 12.2623C12.7815 12.08 12.7091 11.9051 12.5802 11.7762C12.4513 11.6473 12.2765 11.5749 12.0942 11.5749C11.8207 11.5749 11.5584 11.6835 11.3651 11.8769C11.1717 12.0702 11.0631 12.3325 11.0631 12.6059C11.0631 12.8794 11.1717 13.1417 11.3651 13.335C11.5584 13.5284 11.8207 13.637 12.0942 13.637C12.3676 13.637 12.6299 13.5284 12.8232 13.335C13.0166 13.1417 13.1252 12.8794 13.1252 12.6059C13.1252 12.3325 13.0166 12.0702 12.8232 11.8769C12.6299 11.6835 12.3676 11.5749 12.0942 11.5749C11.9118 11.5749 11.737 11.6473 11.6081 11.7762C11.4792 11.9051 11.4068 12.08 11.4068 12.2623C11.4068 12.4446 11.4792 12.6194 11.6081 12.7483C11.737 12.8772 11.9118 12.9496 12.0942 12.9496ZM16.9058 12.9496C16.8146 12.9496 16.7272 12.9134 16.6628 12.849C16.5983 12.7845 16.5621 12.6971 16.5621 12.6059C16.5621 12.5148 16.5983 12.4274 16.6628 12.3629C16.7272 12.2985 16.8146 12.2623 16.9058 12.2623C16.9969 12.2623 17.0844 12.2985 17.1488 12.3629C17.2133 12.4274 17.2495 12.5148 17.2495 12.6059C17.2495 12.6971 17.2133 12.7845 17.1488 12.849C17.0844 12.9134 16.9969 12.9496 16.9058 12.9496C17.0881 12.9496 17.2629 12.8772 17.3918 12.7483C17.5207 12.6194 17.5932 12.4446 17.5932 12.2623C17.5932 12.08 17.5207 11.9051 17.3918 11.7762C17.2629 11.6473 17.0881 11.5749 16.9058 11.5749C16.6323 11.5749 16.3701 11.6835 16.1767 11.8769C15.9834 12.0702 15.8747 12.3325 15.8747 12.6059C15.8747 12.8794 15.9834 13.1417 16.1767 13.335C16.3701 13.5284 16.6323 13.637 16.9058 13.637C17.1792 13.637 17.4415 13.5284 17.6349 13.335C17.8282 13.1417 17.9369 12.8794 17.9369 12.6059C17.9369 12.3325 17.8282 12.0702 17.6349 11.8769C17.4415 11.6835 17.1792 11.5749 16.9058 11.5749C16.7235 11.5749 16.5486 11.6473 16.4197 11.7762C16.2908 11.9051 16.2184 12.08 16.2184 12.2623C16.2184 12.4446 16.2908 12.6194 16.4197 12.7483C16.5486 12.8772 16.7235 12.9496 16.9058 12.9496Z" fill="#FC7201"/>
</svg>
