<svg width="25" height="25" viewBox="0 0 25 25" fill="none" xmlns="http://www.w3.org/2000/svg">
<path d="M6.95656 11.6306L10.7609 12.2827C12.7174 12.9349 14.3479 13.3697 15.7609 13.3697C17.0005 13.3697 18.1893 12.8773 19.0659 12.0007C19.9424 11.1242 20.4348 9.93537 20.4348 8.69577C20.4348 7.45617 19.9424 6.26734 19.0659 5.39081C18.1893 4.51428 17.0005 4.02185 15.7609 4.02185C14.0474 4.11876 12.36 4.4856 10.7609 5.10881L6.95656 5.65229V11.6306ZM6.08699 11.6306V5.65229L4.56525 5.86968C4.41173 5.89562 4.27255 5.97562 4.17287 6.09523C4.0732 6.21484 4.0196 6.36617 4.02178 6.52185V10.6523C4.0196 10.808 4.0732 10.9593 4.17287 11.0789C4.27255 11.1985 4.41173 11.2785 4.56525 11.3045L6.08699 11.4132V11.6306ZM12.8261 14.8914L13.0435 13.8045C12.1996 13.6299 11.3652 13.4123 10.5435 13.1523C8.54316 12.6887 6.50669 12.3978 4.45656 12.2827C4.11167 12.2072 3.8038 12.014 3.58567 11.7364C3.36754 11.4588 3.25273 11.114 3.26091 10.761V6.52185C3.27047 6.20194 3.38066 5.89318 3.5758 5.6395C3.77094 5.38581 4.0411 5.20011 4.34786 5.10881C7.60873 4.78272 9.56526 4.45664 10.4348 4.13055C12.3913 3.47838 14.1305 3.04359 15.6522 3.04359C16.9867 2.88349 18.3332 3.22356 19.4316 3.99812C20.53 4.77269 21.3025 5.92681 21.5998 7.23758C21.8971 8.54835 21.6981 9.92279 21.0413 11.0954C20.3845 12.2681 19.3165 13.1558 18.0435 13.5871L16.9566 19.7827C16.9285 20.4556 16.6413 21.0915 16.1551 21.5575C15.6689 22.0234 15.0213 22.2833 14.3479 22.2827C12.9348 22.2827 11.7392 21.1958 11.7392 19.674L12.1739 17.7175H11.9566C11.3044 17.7175 10.7609 17.0653 10.7609 16.3045C10.7609 15.5436 11.3044 14.8914 11.9566 14.8914H12.7174H12.8261ZM12.6087 15.761H12.0653C11.9566 15.761 11.7392 15.9784 11.7392 16.3045C11.7392 16.6305 11.9566 16.8479 12.0653 16.8479H12.3913L12.6087 15.761ZM17.174 14.0219C16.7097 14.1196 16.2346 14.1561 15.7609 14.1305L13.8044 14.0219L12.7174 19.7827C12.7174 20.6523 13.4783 21.4132 14.4566 21.4132C15.3261 21.4132 16.087 20.6523 16.087 19.674L17.174 14.0219ZM17.3913 5.21751C17.4696 5.15701 17.5663 5.12503 17.6652 5.12685C17.7641 5.12868 17.8595 5.1642 17.9355 5.22755C18.0115 5.2909 18.0637 5.37829 18.0833 5.47528C18.1029 5.57227 18.0889 5.67305 18.0435 5.76099C17.3154 6.57016 16.8925 7.60812 16.8479 8.69577C16.8479 9.78272 17.1739 10.761 17.8261 11.5219C17.8982 11.6228 17.9272 11.7481 17.9068 11.8705C17.8865 11.9928 17.8183 12.102 17.7174 12.174C17.6165 12.2461 17.4911 12.2751 17.3688 12.2548C17.2465 12.2344 17.1373 12.1662 17.0653 12.0653C16.3597 11.1246 15.9783 9.98039 15.9783 8.80446C15.9682 7.43879 16.4727 6.1194 17.3913 5.10881V5.21751Z" fill="#FC7201"/>
<mask id="mask0_95_1487" style="mask-type:luminance" maskUnits="userSpaceOnUse" x="3" y="3" width="19" height="20">
<path d="M6.95656 11.6306L10.7609 12.2827C12.7174 12.9349 14.3479 13.3697 15.7609 13.3697C17.0005 13.3697 18.1893 12.8773 19.0659 12.0007C19.9424 11.1242 20.4348 9.93537 20.4348 8.69577C20.4348 7.45617 19.9424 6.26734 19.0659 5.39081C18.1893 4.51428 17.0005 4.02185 15.7609 4.02185C14.0474 4.11876 12.36 4.4856 10.7609 5.10881L6.95656 5.65229V11.6306ZM6.08699 11.6306V5.65229L4.56525 5.86968C4.41173 5.89562 4.27255 5.97562 4.17287 6.09523C4.0732 6.21484 4.0196 6.36617 4.02178 6.52185V10.6523C4.0196 10.808 4.0732 10.9593 4.17287 11.0789C4.27255 11.1985 4.41173 11.2785 4.56525 11.3045L6.08699 11.4132V11.6306ZM12.8261 14.8914L13.0435 13.8045C12.1996 13.6299 11.3652 13.4123 10.5435 13.1523C8.54316 12.6887 6.50669 12.3978 4.45656 12.2827C4.11167 12.2072 3.8038 12.014 3.58567 11.7364C3.36754 11.4588 3.25273 11.114 3.26091 10.761V6.52185C3.27047 6.20194 3.38066 5.89318 3.5758 5.6395C3.77094 5.38581 4.0411 5.20011 4.34786 5.10881C7.60873 4.78272 9.56526 4.45664 10.4348 4.13055C12.3913 3.47838 14.1305 3.04359 15.6522 3.04359C16.9867 2.88349 18.3332 3.22356 19.4316 3.99812C20.53 4.77269 21.3025 5.92681 21.5998 7.23758C21.8971 8.54835 21.6981 9.92279 21.0413 11.0954C20.3845 12.2681 19.3165 13.1558 18.0435 13.5871L16.9566 19.7827C16.9285 20.4556 16.6413 21.0915 16.1551 21.5575C15.6689 22.0234 15.0213 22.2833 14.3479 22.2827C12.9348 22.2827 11.7392 21.1958 11.7392 19.674L12.1739 17.7175H11.9566C11.3044 17.7175 10.7609 17.0653 10.7609 16.3045C10.7609 15.5436 11.3044 14.8914 11.9566 14.8914H12.7174H12.8261ZM12.6087 15.761H12.0653C11.9566 15.761 11.7392 15.9784 11.7392 16.3045C11.7392 16.6305 11.9566 16.8479 12.0653 16.8479H12.3913L12.6087 15.761ZM17.174 14.0219C16.7097 14.1196 16.2346 14.1561 15.7609 14.1305L13.8044 14.0219L12.7174 19.7827C12.7174 20.6523 13.4783 21.4132 14.4566 21.4132C15.3261 21.4132 16.087 20.6523 16.087 19.674L17.174 14.0219ZM17.3913 5.21751C17.4696 5.15701 17.5663 5.12503 17.6652 5.12685C17.7641 5.12868 17.8595 5.1642 17.9355 5.22755C18.0115 5.2909 18.0637 5.37829 18.0833 5.47528C18.1029 5.57227 18.0889 5.67305 18.0435 5.76099C17.3154 6.57016 16.8925 7.60812 16.8479 8.69577C16.8479 9.78272 17.1739 10.761 17.8261 11.5219C17.8982 11.6228 17.9272 11.7481 17.9068 11.8705C17.8865 11.9928 17.8183 12.102 17.7174 12.174C17.6165 12.2461 17.4911 12.2751 17.3688 12.2548C17.2465 12.2344 17.1373 12.1662 17.0653 12.0653C16.3597 11.1246 15.9783 9.98039 15.9783 8.80446C15.9682 7.43879 16.4727 6.1194 17.3913 5.10881V5.21751Z" fill="#292F37"/>
</mask>
<g mask="url(#mask0_95_1487)">
<path fill-rule="evenodd" clip-rule="evenodd" d="M0 0H25V25H0V0Z" fill="#FC7201"/>
</g>
</svg>
