<svg width="30" height="30" viewBox="0 0 30 30" fill="none" xmlns="http://www.w3.org/2000/svg">
<path d="M6.81689 25.7762C7.85314 23.3574 8.4969 22.3774 11.7569 20.2206C12.6275 17.8249 14.2794 16.5068 15.6906 15.4006C16.3556 12.7581 16.4469 9.94182 15.9306 8.79932C15.7994 9.54057 14.7719 10.4662 13.5369 11.1099C14.0688 12.3756 14.9944 13.5237 15.9856 14.0143" stroke="#FC7201" stroke-width="0.9" stroke-linecap="round" stroke-linejoin="round"/>
<path d="M21.9168 25.9262C21.4262 23.0737 20.8856 21.2118 22.8675 19.71C20.285 20.1006 18.5431 17.5181 18.5431 17.5181C16.1712 18.8693 14.5493 20.4906 12.8681 21.3018C10.285 24.605 9.39933 24.395 6.81683 25.7762M6.81683 25.7762C6.81683 25.7762 7.04183 26.6918 6.97183 27.1875H5.19995C5.76558 26.7518 6.4262 26.6018 6.81683 25.7762ZM15.9856 14.0143C14.6043 13.7843 12.9075 12.7431 12.0868 11.6925M21.8456 8.33496C22.1762 11.1681 20.055 12.3125 20.255 14.715" stroke="#FC7201" stroke-width="0.9" stroke-linecap="round" stroke-linejoin="round"/>
<path d="M19.6332 6.16634C19.3769 6.41884 19.1094 6.58884 18.5969 6.58884C18.0844 6.58884 17.975 5.43884 17.9869 4.85134C17.9988 4.26384 18.0694 2.82634 19.6525 2.81259C20.7057 2.80322 20.9757 3.50884 20.8707 4.80009C20.7657 6.09134 20.725 6.70572 21.0957 7.15759C22.0269 6.96759 22.5675 7.40759 22.9675 7.98884C23.3675 8.57009 23.7788 10.0201 24.73 11.272C24.8194 13.8245 24.0988 15.1257 22.3569 16.147C23.3582 15.2057 23.6282 13.1738 23.4982 11.922C23.4982 11.922 21.8563 10.6713 21.835 9.81259M20.255 14.7151C22.1169 15.8063 23.1607 16.9776 24.7369 18.5988C25.2325 21.0913 22.6675 21.0113 21.9169 25.9263M21.9169 25.9263C22.5375 26.347 23.0375 27.0176 24.3388 27.1876H20.9763C20.8957 26.537 21.9169 25.9263 21.9169 25.9263ZM17.5225 7.16884C17.5225 7.16884 16.4444 7.48759 15.9394 7.69822C14.4519 8.31822 13.0882 9.43009 12.0869 11.692" stroke="#FC7201" stroke-width="0.9" stroke-linecap="round" stroke-linejoin="round"/>
</svg>
