<svg width="30" height="27" viewBox="0 0 30 27" fill="none" xmlns="http://www.w3.org/2000/svg">
<path d="M15 4.42296H15.5V3.92296V2.76912C15.5 1.78411 16.3227 0.961426 17.3077 0.961426H20.7693C21.7543 0.961426 22.577 1.78411 22.577 2.76912V3.92296V4.42296H23.077H28.8462C29.0196 4.42296 29.1859 4.49185 29.3085 4.61447C29.4311 4.73709 29.5 4.9034 29.5 5.07681V16.6153C29.5 16.7887 29.4311 16.955 29.3085 17.0776C29.1859 17.2002 29.0196 17.2691 28.8462 17.2691H9.2308C9.05738 17.2691 8.89107 17.2002 8.76846 17.0776C8.64584 16.955 8.57695 16.7887 8.57695 16.6153V5.07681C8.57695 4.9034 8.64584 4.73709 8.76846 4.61447C8.89108 4.49185 9.05739 4.42296 9.2308 4.42296H15ZM25.2603 23.414C25.5993 23.075 26.0591 22.8845 26.5385 22.8845C27.0179 22.8845 27.4777 23.075 27.8167 23.414C28.1557 23.753 28.3462 24.2128 28.3462 24.6922C28.3462 25.1716 28.1557 25.6314 27.8167 25.9704C27.4777 26.3094 27.0179 26.4999 26.5385 26.4999C26.0591 26.4999 25.5993 26.3094 25.2603 25.9704C24.9212 25.6314 24.7308 25.1716 24.7308 24.6922C24.7308 24.2128 24.9212 23.753 25.2603 23.414ZM1.15387 3.42296H1.13042L1.10708 3.42516C0.933086 3.44151 0.759722 3.38808 0.625126 3.27661C0.490529 3.16515 0.405725 3.00478 0.38937 2.83079C0.373015 2.65679 0.426448 2.48343 0.537914 2.34883C0.64689 2.21724 0.802608 2.13325 0.972101 2.11428C0.98871 2.11379 1.00533 2.11394 1.02193 2.11472L1.04542 2.11582L1.06891 2.11472C1.08939 2.11376 1.1099 2.11376 1.13037 2.11472L1.14212 2.11527H1.15387H2.30772C3.28153 2.11527 4.1118 2.49284 4.59542 3.05833L4.59574 3.05869C5.08958 3.635 5.26926 4.35965 5.26926 5.07681V17.7691C5.26926 18.7998 5.5105 19.4581 5.91085 19.8799L5.91159 19.8807C6.32193 20.3111 6.95317 20.5768 8.07695 20.5768H28.8462C29.0196 20.5768 29.1859 20.6457 29.3085 20.7683C29.4311 20.8909 29.5 21.0572 29.5 21.2307C29.5 21.4041 29.4311 21.5704 29.3085 21.693C29.1859 21.8156 29.0196 21.8845 28.8462 21.8845H26.5385H8.07695C6.72775 21.8845 5.6406 21.546 4.94147 20.814C4.23593 20.0743 3.96156 19.0052 3.96156 17.7691V5.07681C3.96156 4.61061 3.83052 4.16825 3.58879 3.88636C3.48225 3.76148 3.33763 3.62846 3.10307 3.53875C2.88728 3.45621 2.62808 3.42296 2.30772 3.42296H1.15387ZM17.3077 2.26912H16.8077V2.76912V3.92296V4.42296H17.3077H20.7693H21.2693V3.92296V2.76912V2.26912H20.7693H17.3077ZM6.79872 23.414C7.13772 23.075 7.59752 22.8845 8.07695 22.8845C8.55638 22.8845 9.01617 23.075 9.35518 23.414C9.69419 23.753 9.88464 24.2128 9.88464 24.6922C9.88464 25.1716 9.69419 25.6314 9.35518 25.9704C9.01617 26.3094 8.55638 26.4999 8.07695 26.4999C7.59752 26.4999 7.13773 26.3094 6.79872 25.9704C6.45971 25.6314 6.26926 25.1716 6.26926 24.6922C6.26926 24.2128 6.45971 23.753 6.79872 23.414Z" stroke="#FC7201"/>
</svg>
